<svg width="476" height="612" viewBox="0 0 476 612" fill="none" xmlns="http://www.w3.org/2000/svg">
<g clip-path="url(#clip0_2_13)">
<path fill-rule="evenodd" clip-rule="evenodd" d="M262.324 26.9421C262.324 26.9421 238.65 13.1915 214.851 6.44666L210.681 13.7132L192.166 16.6944V32.405C192.166 32.405 218.508 34.9986 236.621 42.2577L236.101 52.6396L247.741 60.1595L262.324 26.9421Z" fill="url(#paint0_linear_2_13)"/>
<path fill-rule="evenodd" clip-rule="evenodd" d="M255.389 33.2993H237.253L236.064 52.6246L239.921 55.1139L255.389 33.2993Z" fill="url(#paint1_linear_2_13)"/>
<path style="mix-blend-mode:multiply" opacity="0.8" fill-rule="evenodd" clip-rule="evenodd" d="M210.644 13.7133L205.79 26.9421L233.343 41.028L192.129 32.3902V16.6944L210.644 13.7133Z" fill="url(#paint2_linear_2_13)"/>
<path fill-rule="evenodd" clip-rule="evenodd" d="M408.615 431.35C409.934 431.823 411.296 432.167 412.681 432.378C417.408 433.119 422.239 432.821 426.84 431.506C431.872 430.127 436.68 428.031 441.118 425.283C458.622 414.849 474.023 395.054 475.636 376.877C476.192 370.651 476.13 364.384 475.45 358.17C473.465 339.933 466.665 329.41 466.665 329.41L446.708 339.747C450.494 343.498 453.506 347.959 455.572 352.878C457.638 357.796 458.717 363.074 458.749 368.41C458.753 369.928 458.681 371.446 458.533 372.957C457.292 385.627 451.732 399.571 442.107 408.969C438.239 412.812 433.607 415.793 428.512 417.719C425.713 418.758 422.793 419.439 419.823 419.746C419.258 419.805 418.731 419.865 418.173 419.895C404.267 420.804 394.894 398.11 394.894 398.11L384.994 405.362C384.994 405.362 383.373 422.421 408.615 431.35Z" fill="url(#paint3_linear_2_13)"/>
<path fill-rule="evenodd" clip-rule="evenodd" d="M354.036 481.157C375.77 511.714 401.1 522.148 407.552 519.54C414.004 516.931 434.562 488.938 439.371 444.049C440.115 437.342 440.642 431.104 441.081 425.283C441.52 419.462 441.824 413.955 442.07 408.969C442.478 399.384 442.568 391.574 442.508 385.686C442.449 377.376 442.07 372.957 442.07 372.957L431.084 379.932C431.084 379.932 430.831 390.135 429.687 404.393C429.345 408.537 428.943 413.046 428.475 417.748C427.977 422.22 427.449 426.841 426.803 431.506C422.64 461.825 414.568 494.11 399.108 493.074C377.011 491.643 358.697 455.728 358.697 455.728L354.036 481.157Z" fill="url(#paint4_linear_2_13)"/>
<path style="mix-blend-mode:multiply" fill-rule="evenodd" clip-rule="evenodd" d="M466.665 329.41L446.708 339.747C450.494 343.498 453.506 347.959 455.572 352.878C457.638 357.796 458.717 363.074 458.749 368.41L475.45 358.17C473.465 339.933 466.665 329.41 466.665 329.41Z" fill="url(#paint5_linear_2_13)"/>
<path style="mix-blend-mode:multiply" fill-rule="evenodd" clip-rule="evenodd" d="M431.121 379.932C431.121 379.932 430.868 390.135 429.724 404.393L442.582 385.671C442.523 377.361 442.144 372.942 442.144 372.942L431.121 379.932Z" fill="url(#paint6_linear_2_13)"/>
<path style="mix-blend-mode:multiply" fill-rule="evenodd" clip-rule="evenodd" d="M408.615 431.35C409.934 431.823 411.296 432.167 412.681 432.378L419.823 419.776C419.258 419.835 418.731 419.895 418.173 419.925C404.267 420.834 394.894 398.14 394.894 398.14L384.994 405.392C384.994 405.392 383.373 422.421 408.615 431.35Z" fill="url(#paint7_linear_2_13)"/>
<path fill-rule="evenodd" clip-rule="evenodd" d="M0.104055 325.527V325.571H0.156089V325.676L0.312171 325.832V325.884C0.312171 325.936 0.364188 325.989 0.416217 326.086C0.468246 326.182 0.468257 326.138 0.520286 326.19V326.242C0.72097 326.555 0.877065 326.861 1.08518 327.166C1.2933 327.472 1.44195 327.837 1.64264 328.15C1.64264 328.15 1.59804 328.15 1.64264 328.195C1.79872 328.351 1.85074 328.508 1.9548 328.612C2.3636 329.275 2.82444 329.946 3.28527 330.617C3.54541 331.027 3.79811 331.362 4.11029 331.802V331.847C4.25894 332.055 4.36302 332.264 4.5191 332.465C4.77182 332.83 5.03196 333.136 5.26238 333.442C5.30741 333.558 5.37568 333.665 5.46305 333.755C9.24829 338.768 13.4344 343.464 17.9798 347.796C18.1879 348.004 18.4406 348.206 18.6487 348.414C20.5961 350.21 21.986 351.395 22.4469 351.753L22.5955 351.91L30.6526 409.163V409.215L32.1912 420.32L35.9075 446.449L59.1646 612H93.8235L85.6475 553.957L66.1811 415.483L56.6375 347.84C56.6895 347.788 56.6375 347.788 56.6375 347.788L56.5334 346.916C62.2956 339.657 67.1065 331.687 70.8488 323.201C70.9534 323.028 71.0217 322.835 71.0495 322.635C71.1381 322.515 71.1921 322.373 71.2056 322.225C71.2577 322.173 71.2577 322.173 71.2577 322.121L66.0547 310.941C51.6278 301.998 16.6865 305.299 7.33612 310.941L5.90158 313.721L-0.0446091 325.348L0.00742554 325.4C0.0594547 325.474 0.0594583 325.474 0.104055 325.527Z" fill="url(#paint8_linear_2_13)"/>
<path fill-rule="evenodd" clip-rule="evenodd" d="M325.383 612H395.347C383.544 542.539 367.103 465.626 367.103 465.626L323.993 488.379L290.471 506.057C291.215 509.516 292.211 513.279 293.296 517.237C300.424 543.672 313.461 580.31 325.383 612Z" fill="url(#paint9_linear_2_13)"/>
<path fill-rule="evenodd" clip-rule="evenodd" d="M219.177 472.184C219.177 472.184 212.487 456.116 219.177 444.05C219.177 444.05 273.071 462.51 294.671 511.26L219.177 472.184Z" fill="#6B3B7C"/>
<path fill-rule="evenodd" clip-rule="evenodd" d="M442.114 193.29C442.114 193.29 416.1 152.232 380.422 132.52L354.036 167.794L442.114 193.29Z" fill="url(#paint10_linear_2_13)"/>
<path style="mix-blend-mode:multiply" fill-rule="evenodd" clip-rule="evenodd" d="M35.8629 446.434C35.8629 446.434 71.5401 497.3 85.6623 553.942L66.1514 415.207L29.6046 424.284L35.8629 446.434Z" fill="url(#paint11_linear_2_13)"/>
<path fill-rule="evenodd" clip-rule="evenodd" d="M408.615 173.264C408.615 173.264 460.094 193.238 475.614 238.373C475.614 238.373 477.189 303.548 425.695 329.298L408.615 173.264Z" fill="url(#paint12_radial_2_13)"/>
<path fill-rule="evenodd" clip-rule="evenodd" d="M2.4751 356.367L7.128 371.429L12.0336 373.486L21.0941 409.811L15.8912 410.214C16.6345 420.767 24.1787 424.374 24.1787 424.374C24.1787 424.374 25.6652 424.471 28.6829 424.374H28.9579C29.114 424.374 29.3296 424.374 29.5823 424.374C32.377 424.217 36.3164 423.875 41.4078 423.159C41.5512 423.123 41.6984 423.103 41.8463 423.1C41.9405 423.094 42.0333 423.074 42.1213 423.04C43.92 422.787 45.8823 422.473 47.956 422.101C57.6649 420.327 66.7841 416.169 74.4983 409.997C74.5355 409.997 74.595 409.93 74.6247 409.901L75.0632 410.087C116.434 426.215 144.678 427.243 156.422 426.714C157.046 426.714 157.663 426.655 158.288 426.587C158.912 426.52 159.373 426.528 159.811 426.461C160.74 426.401 161.424 426.312 161.892 426.245L162.569 426.155L168.783 409.811L156.422 340.022L155.589 335.357C148.159 334.143 140.664 333.374 133.143 333.054C131.559 332.987 129.976 332.987 128.482 333.054C125.626 333.044 122.78 333.389 120.009 334.082C107.098 337.883 92.9984 350.367 89.6462 353.199C86.2941 356.031 71.8077 366.242 71.8077 366.242L74.6618 349.361C68.7157 343.399 59.3876 341.111 59.3876 341.111L54.9799 350.136C37.409 357.425 20.0461 351.202 20.0461 351.202L18.7751 348.332L2.4751 356.367Z" fill="url(#paint13_linear_2_13)"/>
<path style="mix-blend-mode:multiply" fill-rule="evenodd" clip-rule="evenodd" d="M395.347 612C383.544 542.539 367.103 465.626 367.103 465.626L323.993 488.379L293.296 517.267C300.431 543.665 313.468 580.31 325.39 612H395.347Z" fill="url(#paint14_linear_2_13)"/>
<path fill-rule="evenodd" clip-rule="evenodd" d="M216.917 240.169C226.884 284.059 207.604 311.478 201.799 318.513C200.81 319.698 200.216 320.317 200.216 320.317C200.216 320.317 200.654 322.031 201.702 325.117C205.419 336.072 216.939 364.274 244.507 393.467C244.507 393.467 241.066 398.11 236.933 404.177C234.823 407.292 232.474 410.81 230.385 414.231C221.012 429.449 212.286 453.798 212.286 453.798L218.307 469.203C218.307 469.203 215.639 452.553 219.273 449.684C219.273 449.684 266.612 468.957 298.804 516.797L326.089 512.281C326.089 512.281 358.161 492.053 370.581 457.278L370.24 456.19C370.143 456.003 370.068 455.806 370.017 455.601C368.032 449.967 361.097 431.417 351.955 420.953C351.955 420.953 430.586 342.109 444.062 289.194C457.537 236.278 415.602 177.132 408.615 173.264C405.186 171.349 401.663 169.608 398.06 168.047C376.55 158.59 324.053 141.433 237.877 150.682C237.877 150.682 215.274 155.787 194.165 166.959L194.039 167.026L187.989 170.417L187.803 170.544C186.376 171.416 184.949 172.318 183.551 173.249C183.551 173.249 193.824 180.628 204.066 201.921C208.659 211.587 213.29 224.138 216.917 240.169Z" fill="url(#paint15_linear_2_13)"/>
<path fill-rule="evenodd" clip-rule="evenodd" d="M218.01 222.252C218.01 222.252 231.924 266.887 225.39 312.536C220.113 349.383 206.89 338.129 206.89 338.129L194.158 311.5L218.01 222.252Z" fill="#6B3B7C"/>
<path style="mix-blend-mode:multiply" fill-rule="evenodd" clip-rule="evenodd" d="M201.68 325.117C205.396 336.072 216.917 364.274 244.485 393.467C244.485 393.467 241.044 398.11 236.911 404.177C236.911 404.177 288.621 453.313 302.81 460.349L370.589 457.278L370.247 456.19C370.18 456.004 370.121 455.818 370.024 455.602C368.069 449.751 361.105 430.388 351.962 420.953L421.83 251.281C421.83 251.281 430.244 202.629 398.142 168.137C399.198 169.821 417.021 198.954 415.185 233.036C415.185 233.036 343.772 233.349 296.462 225.382L237.253 168.047L194.143 166.959L194.017 167.026L187.967 170.417L187.781 170.544C187.781 170.544 221.771 186.478 255.419 244.067C255.419 244.067 249.086 287.644 237.223 300.097C237.223 300.097 233.403 227.35 204.192 193.298L204.036 201.921L201.769 318.521L201.68 325.117Z" fill="url(#paint16_linear_2_13)"/>
<path fill-rule="evenodd" clip-rule="evenodd" d="M133.878 392.692C150.178 414.484 168.812 409.833 168.812 409.833C196.752 385.336 209.603 329.342 211.87 318.349C212.145 317.105 212.272 316.449 212.272 316.449L134.124 328.627C133.894 330.121 133.574 331.599 133.165 333.054C132.738 334.46 132.209 335.832 131.582 337.16C130.774 338.95 129.718 340.616 128.445 342.109C128.445 342.109 117.578 370.9 133.878 392.692Z" fill="url(#paint17_linear_2_13)"/>
<path fill-rule="evenodd" clip-rule="evenodd" d="M237.253 131.901C238.447 136.403 240.036 140.79 242.003 145.011L375.086 146.434C375.086 146.434 402.438 123.554 407.842 93.5187C408.667 88.877 408.916 84.1508 408.585 79.4477C405.887 42.9286 377.137 10.9632 334.481 3.99481C291.824 -2.97362 265.356 13.6835 265.356 13.6835L262.257 26.9124C262.257 26.9124 248.737 34.723 238.279 69.3714C232.069 89.7015 231.713 111.377 237.253 131.901V131.901Z" fill="url(#paint18_linear_2_13)"/>
<path fill-rule="evenodd" clip-rule="evenodd" d="M286.896 612C291.869 567.73 298.789 516.797 298.789 516.797C266.568 471.29 223.718 460.334 223.718 460.334C205.471 499.462 209.796 563.817 216.91 612H286.896Z" fill="url(#paint19_linear_2_13)"/>
<path fill-rule="evenodd" clip-rule="evenodd" d="M294.671 548.099C294.671 548.099 253.263 554.166 210.837 533.156C210.837 533.156 211.053 551.788 211.395 557.668C211.395 557.668 238.264 574.4 292.159 567.827L294.671 548.099Z" fill="url(#paint20_radial_2_13)"/>
<path fill-rule="evenodd" clip-rule="evenodd" d="M376.498 511.26C376.498 511.26 353.122 535.392 299.056 536.823L302.698 548.278C302.698 548.278 340.085 561.268 380.147 529.765L376.498 511.26Z" fill="url(#paint21_radial_2_13)"/>
<path fill-rule="evenodd" clip-rule="evenodd" d="M216.218 356.039L212.264 359.616L225.39 384.523C225.39 384.523 244.344 397.879 267.11 402.291L277.07 257.184L302.81 245.259C302.81 245.259 255.099 172.05 216.218 149.862L187.818 154.915V170.537L194.158 166.952C194.158 166.952 233.165 183.229 262.658 238.872C283.187 287.152 282.615 322.344 268.835 377.123C268.835 377.123 237.246 376.966 216.218 356.039Z" fill="url(#paint22_radial_2_13)"/>
<path fill-rule="evenodd" clip-rule="evenodd" d="M446.7 251.274C446.7 251.274 468.902 275.704 475.621 309.406C475.621 309.406 408.875 315.107 330.229 304.733C330.229 304.733 291.839 272.566 262.658 238.85C262.658 238.85 350 256.93 446.7 251.274Z" fill="url(#paint23_linear_2_13)"/>
<path fill-rule="evenodd" clip-rule="evenodd" d="M267.118 402.276L302.847 419.954C302.87 419.906 302.89 419.856 302.906 419.805C303.56 418.315 309.09 405.704 315.081 385.522C319.887 369.366 323.661 352.919 326.379 336.281C326.432 336.097 326.474 335.911 326.505 335.722C328.089 325.944 329.389 315.599 330.259 304.778L262.651 238.85C262.651 238.85 266.189 268.706 267.987 308.05C269.355 337.064 269.756 371.153 267.118 402.276Z" fill="url(#paint24_linear_2_13)"/>
<path fill-rule="evenodd" clip-rule="evenodd" d="M302.847 419.954C307.069 420.486 311.167 420.933 315.141 421.296C315.141 421.296 315.356 421.296 315.765 421.356C319.675 421.736 323.488 422.041 327.152 422.324C327.747 422.324 328.334 422.414 328.958 422.451C374.246 425.47 401.056 420.484 403.553 419.992C403.61 419.962 403.675 419.949 403.739 419.954C429.999 395.427 450.119 361.874 462.287 338.219C462.317 338.194 462.338 338.16 462.346 338.122C471.013 321.278 475.666 309.488 475.666 309.488C394.426 312.596 330.259 304.815 330.259 304.815C330.043 313.997 328.616 324.677 326.505 335.759C326.474 335.948 326.432 336.134 326.379 336.318C323.183 352.968 318.493 370.46 314.145 385.127C308.563 403.99 303.501 418.21 302.906 419.835C302.889 419.876 302.869 419.916 302.847 419.954Z" fill="url(#paint25_linear_2_13)"/>
<path fill-rule="evenodd" clip-rule="evenodd" d="M398.075 168.047C398.075 168.047 424.394 199.864 421.808 251.274H446.7C446.7 251.274 447.443 203.65 416.114 168.83L398.075 162.868V168.047Z" fill="url(#paint26_radial_2_13)"/>
<path fill-rule="evenodd" clip-rule="evenodd" d="M262.658 238.85C262.658 238.85 302.795 286.056 330.229 304.733C330.229 304.733 392.33 314.071 475.621 309.406C475.621 309.406 472.328 274.199 446.7 251.274C446.7 251.274 323.911 247.689 262.658 238.85Z" fill="url(#paint27_linear_2_13)"/>
<path fill-rule="evenodd" clip-rule="evenodd" d="M330.229 304.755C330.229 304.755 354.014 345.224 363.862 350.926C373.711 356.627 423.644 354.041 430.482 350.926C437.32 347.811 475.621 309.428 475.621 309.428C475.621 309.428 380.935 309.943 330.229 304.755Z" fill="url(#paint28_linear_2_13)"/>
<path fill-rule="evenodd" clip-rule="evenodd" d="M315.111 421.266C315.111 421.266 315.327 421.266 315.735 421.326C317.222 421.512 321.102 421.922 327.122 422.295C327.717 422.295 328.304 422.384 328.928 422.421C353.819 423.673 378.77 422.848 403.523 419.954C403.58 419.924 403.645 419.911 403.709 419.917C403.709 419.917 406.251 408.186 407.715 399.28C408.459 394.928 408.86 391.253 408.615 389.979C407.872 386.051 355.099 384.494 350.781 385.679C349.51 386.051 345.659 389.509 340.969 394.115C330.289 404.646 315.111 421.266 315.111 421.266Z" fill="url(#paint29_linear_2_13)"/>
<path fill-rule="evenodd" clip-rule="evenodd" d="M321.05 136.328C321.05 136.328 338.769 108.648 330.229 67.4336C321.689 26.2192 283.173 6.46908 283.173 6.46908C283.173 6.46908 330.229 -13.5046 375.242 16.8509C417.081 45.075 408.756 92.3113 408.756 92.3113C408.756 92.3113 396.195 126.095 363.989 144.996L321.05 136.328Z" fill="url(#paint30_linear_2_13)"/>
<path fill-rule="evenodd" clip-rule="evenodd" d="M71.2725 322.135C71.2725 322.135 39.1928 353.005 -1.52588e-05 325.378C-1.52588e-05 325.378 11.0079 344.502 22.5806 351.932C22.5806 351.932 38.4198 357.544 54.9799 350.151C54.9799 350.151 68.2994 332.011 71.2725 322.135Z" fill="url(#paint31_linear_2_13)"/>
<path style="mix-blend-mode:multiply" fill-rule="evenodd" clip-rule="evenodd" d="M237.253 131.901C238.447 136.403 240.036 140.79 242.003 145.011L375.086 146.434C375.086 146.434 402.438 123.554 407.842 93.5186C405.292 95.7545 395.949 99.9281 361.893 96.9693C317.036 93.0789 283.165 74.3424 283.165 74.3424L270.886 86.1776L237.253 131.901Z" fill="url(#paint32_linear_2_13)"/>
<g style="mix-blend-mode:multiply" opacity="0.5">
<path fill-rule="evenodd" clip-rule="evenodd" d="M250.543 140.308L262.651 137.848C262.651 137.848 284.444 112.546 283.165 74.3498C281.887 36.1539 265.408 13.7133 265.408 13.7133L262.309 26.9421L250.543 140.308Z" fill="#89618B"/>
</g>
<path fill-rule="evenodd" clip-rule="evenodd" d="M262.324 26.9421C262.324 26.9421 269.563 49.1219 271.629 67.7988C273.696 86.4757 263.216 129.926 250.543 140.3L242.01 144.996C242.01 144.996 227.226 118.575 231.493 82.9728C235.804 46.6624 262.324 26.9421 262.324 26.9421Z" fill="url(#paint33_radial_2_13)"/>
<path fill-rule="evenodd" clip-rule="evenodd" d="M389.698 164.641L380.415 148.021C380.415 148.021 312.636 125.253 250.55 140.3L225.39 154.155C225.39 154.155 307.544 140.561 389.698 164.641Z" fill="url(#paint34_radial_2_13)"/>
<path style="mix-blend-mode:multiply" opacity="0.8" fill-rule="evenodd" clip-rule="evenodd" d="M14.1742 361.747V372.256L21.934 376.519L27.1815 410.199L24.0746 412.502L28.7052 424.299H28.9803C29.1363 424.299 29.3519 424.299 29.6046 424.299C33.5684 424.15 37.5184 423.744 41.4301 423.085C41.5735 423.048 41.7207 423.028 41.8686 423.025C41.9628 423.019 42.0556 422.999 42.1436 422.965C51.6129 421.341 64.3749 417.748 74.5206 409.923C74.5578 409.923 74.6173 409.856 74.647 409.826L75.0855 410.012C79.679 412.039 120.247 429.315 156.444 426.729C157.069 426.729 157.686 426.669 158.31 426.602C158.82 426.595 159.329 426.552 159.834 426.476C160.577 426.416 161.231 426.356 161.915 426.259L162.591 426.17L168.805 409.826C196.745 385.328 209.596 329.335 211.863 318.342C216.508 314.291 220.488 309.532 223.659 304.241C223.659 304.241 228.222 273.878 222.573 241.085C222.573 241.085 146.113 258.577 114.42 233.051V233.148C109.269 263.705 111.565 308.042 128.542 333.017C125.686 333.006 122.84 333.352 120.068 334.045C119.414 335.074 104.46 358.267 117.274 385.284C117.274 385.284 100.045 393.482 83.4994 391.633C63.877 389.398 71.8597 366.204 71.8597 366.204L74.6619 349.361C74.6619 349.361 38.6056 366.048 14.1742 361.747Z" fill="url(#paint35_linear_2_13)"/>
<path fill-rule="evenodd" clip-rule="evenodd" d="M334.882 13.7133C334.882 13.7133 322.209 22.7983 305.3 13.7133C305.3 13.7133 316.263 -0.298148 334.882 13.7133Z" fill="white"/>
<path style="mix-blend-mode:multiply" opacity="0.8" fill-rule="evenodd" clip-rule="evenodd" d="M352.163 488.64L330.229 501.25H299.599C299.599 501.25 255.664 463.181 219.504 453.038L212.264 453.783L219.177 472.169C219.177 472.169 265.037 495.005 293.363 553.763L298.796 516.797L326.097 512.266C326.097 512.266 343.831 499.849 352.163 488.64Z" fill="url(#paint36_linear_2_13)"/>
<path style="mix-blend-mode:multiply" opacity="0.5" fill-rule="evenodd" clip-rule="evenodd" d="M267.118 402.276L302.847 419.954C307.069 420.486 311.167 420.933 315.141 421.296C315.141 421.296 315.356 421.296 315.765 421.356C317.252 421.542 321.131 421.952 327.152 422.324C327.747 422.324 328.334 422.414 328.958 422.451C374.246 425.469 401.056 420.484 403.553 419.992C403.61 419.961 403.675 419.949 403.739 419.954C429.999 395.427 450.119 361.874 462.287 338.219C460.733 340.835 435.96 382.981 419.853 395.054C417.148 397.052 412.956 398.483 407.745 399.317C391.044 402.149 363.662 399.601 340.999 394.153C331.002 391.79 321.942 388.831 315.081 385.53C314.769 385.403 314.457 385.254 314.145 385.097C311.838 383.979 309.636 382.654 307.567 381.14C289.728 367.725 272.551 321.032 268.017 308.102C269.355 337.064 269.756 371.153 267.118 402.276Z" fill="url(#paint37_linear_2_13)"/>
<path style="mix-blend-mode:screen" opacity="0.5" fill-rule="evenodd" clip-rule="evenodd" d="M187.818 154.953C187.818 154.953 238.36 172.959 271.897 238.857L301.42 243.202C301.42 243.202 262.472 179.473 216.218 149.9L187.818 154.953Z" fill="url(#paint38_linear_2_13)"/>
<path style="mix-blend-mode:screen" opacity="0.5" fill-rule="evenodd" clip-rule="evenodd" d="M398.075 162.905C398.075 162.905 423.257 185.882 429.724 231.113L445.333 234.519C445.333 234.519 440.717 198.149 416.144 168.83L398.075 162.905Z" fill="url(#paint39_linear_2_13)"/>
<path style="mix-blend-mode:screen" opacity="0.5" fill-rule="evenodd" clip-rule="evenodd" d="M212.264 359.586C212.264 359.586 233.997 377.6 251.457 379.88V395.807C251.457 395.807 236.376 390.747 225.39 384.523L212.264 359.586Z" fill="url(#paint40_linear_2_13)"/>
<path style="mix-blend-mode:multiply" fill-rule="evenodd" clip-rule="evenodd" d="M262.658 238.85C262.658 238.85 309.811 288.448 336.435 305.381C336.435 305.381 358.109 343.339 363.149 347.207C368.188 351.075 414.598 353.4 430.489 347.341C437.617 344.621 471.369 313.624 471.369 313.624C471.369 313.624 436.636 348.049 430.489 350.889C424.342 353.728 377.293 357.276 363.87 350.889C354.044 346.223 330.237 304.718 330.237 304.718C330.237 304.718 282.994 270.152 262.658 238.85Z" fill="url(#paint41_linear_2_13)"/>
<path style="mix-blend-mode:multiply" opacity="0.5" fill-rule="evenodd" clip-rule="evenodd" d="M408.243 395.807C408.243 395.807 409.388 388.675 409.261 387.244C409.135 385.813 357.232 382.027 349.629 383.741C342.025 385.455 318.069 417.979 318.069 417.979C318.069 417.979 345.764 388.913 349.525 386.677C353.285 384.442 404.207 386.253 408.615 390.016C409.737 390.94 408.243 395.807 408.243 395.807Z" fill="url(#paint42_linear_2_13)"/>
<path style="mix-blend-mode:screen" fill-rule="evenodd" clip-rule="evenodd" d="M265.408 13.7133V36.3104C265.408 36.3104 249.138 48.0561 237.253 73.3959C225.368 98.7356 237.253 131.879 237.253 131.879C237.253 131.879 221.956 93.9881 237.253 60.9123C249.517 34.4024 262.309 26.9123 262.309 26.9123L265.408 13.7133Z" fill="url(#paint43_radial_2_13)"/>
<path style="mix-blend-mode:screen" fill-rule="evenodd" clip-rule="evenodd" d="M216.218 149.9L196.559 158.97L199.249 169.784L190.129 178.027C190.129 178.027 142.367 193.014 128.356 213.055C114.345 233.096 115.527 306.216 124.9 326.987C124.9 326.987 96.8337 271.434 122.291 205.565C122.291 205.565 134.064 189.109 183.551 173.227L187.818 170.507V154.953L216.218 149.9Z" fill="url(#paint44_radial_2_13)"/>
<path style="mix-blend-mode:screen" fill-rule="evenodd" clip-rule="evenodd" d="M129.842 340.253L117.028 339.747L75.2936 369.521L71.7854 366.234C71.7854 366.234 104.437 338.055 120.024 334.045L128.497 333.017L131.574 337.161L129.842 340.253Z" fill="url(#paint45_radial_2_13)"/>
<path style="mix-blend-mode:screen" fill-rule="evenodd" clip-rule="evenodd" d="M206.883 338.129L224.803 363.797L220.425 365.683L231.857 387.855L225.383 384.524L212.257 359.616L216.211 356.039L206.883 338.129Z" fill="url(#paint46_radial_2_13)"/>
<path style="mix-blend-mode:screen" fill-rule="evenodd" clip-rule="evenodd" d="M210.837 566.463C211.446 581.718 212.958 596.924 215.364 612H225.383C224.186 603.429 223.004 594.277 221.912 584.693C215.691 530.361 221.912 474.882 221.912 474.882L219.177 472.184C217.583 464.767 217.608 457.091 219.251 449.684L219.177 444.05C222.759 436.671 236.911 404.177 236.911 404.177C219.281 424.911 212.264 453.798 212.264 453.798L218.716 473.734C218.716 473.734 208.6 501.25 210.837 566.463Z" fill="url(#paint47_radial_2_13)"/>
<path style="mix-blend-mode:screen" fill-rule="evenodd" clip-rule="evenodd" d="M332.704 612L302.698 548.278C307.567 565.069 316.278 589.127 324.997 612H332.704Z" fill="url(#paint48_radial_2_13)"/>
<path style="mix-blend-mode:screen" fill-rule="evenodd" clip-rule="evenodd" d="M0.104054 325.527V325.571C0.132538 325.599 0.150862 325.636 0.156089 325.676C0.208118 325.728 0.260141 325.832 0.31217 325.884C0.364199 325.936 0.364187 325.989 0.416216 326.085C0.668929 326.555 1.08518 327.271 1.64264 328.15C1.64264 328.15 1.59804 328.15 1.64264 328.195C5.30094 334.024 9.47516 339.512 14.1148 344.591C14.1989 344.724 14.3015 344.845 14.4195 344.949C15.5226 345.985 16.7056 346.932 17.9575 347.781C18.2205 347.971 18.4962 348.143 18.7825 348.295L18.6264 348.399L18.2176 348.556V348.601L2.46766 356.374L7.13542 371.444L12.0113 373.449L21.0867 409.811L15.8838 410.228C15.8838 410.228 17.5264 419.537 23.0118 423.599H23.0638C23.3239 423.808 23.5766 423.957 23.8888 424.165L24.1936 424.322L32.6594 424.113L35.7366 446.181L59.0977 611.985H71.555L41.4524 423.047L32.6817 421.296L32.1689 420.32L27.189 410.266L30.6303 409.237V409.185L22.5732 372.256L14.8283 370.303L14.1594 361.71L20.061 351.164L22.5732 351.91L22.4246 351.753C20.6779 349.957 6.87527 335.603 4.87586 328.508L12.3086 316.419C11.2087 314.688 10.2636 312.862 9.48417 310.964H7.38071L5.94618 313.744L-1.52588e-05 325.37L0.0520194 325.422C0.0594521 325.474 0.0594575 325.474 0.104054 325.527Z" fill="url(#paint49_radial_2_13)"/>
<path fill-rule="evenodd" clip-rule="evenodd" d="M93.7937 612L78.4674 502.875C78.4674 502.875 70.1056 545.356 69.9867 554.024C69.9049 559.986 74.2531 591.847 77.7613 612H93.7937Z" fill="url(#paint50_radial_2_13)"/>
<path d="M66.0771 310.964C66.0771 310.964 56.7564 315.987 37.238 316.427C17.7196 316.866 7.38813 310.964 7.38813 310.964C7.38813 310.964 15.9581 304.658 38.8806 304.658C61.8032 304.658 66.0771 310.964 66.0771 310.964Z" fill="#CE489C"/>
<path fill-rule="evenodd" clip-rule="evenodd" d="M128.505 333.017C129.454 334.453 130.481 335.837 131.582 337.161C132.701 338.539 133.903 339.848 135.179 341.081C142.277 341.272 149.378 340.918 156.422 340.022C172.878 338.033 195.57 332.644 211.84 318.327C216.485 314.276 220.466 309.518 223.636 304.226C223.636 304.226 228.222 273.878 222.573 241.086C218.114 215.589 207.455 188.573 183.589 173.264C183.589 173.264 141.059 184.936 124.944 203.613C120.41 208.874 116.687 219.644 114.42 233.059V233.156C109.202 263.668 111.499 308.027 128.505 333.017Z" fill="url(#paint51_radial_2_13)"/>
</g>
<defs>
<linearGradient id="paint0_linear_2_13" x1="199.837" y1="59.6825" x2="271.432" y2="-15.7185" gradientUnits="userSpaceOnUse">
<stop stop-color="#A493D9"/>
<stop offset="1" stop-color="#AB9CE5"/>
</linearGradient>
<linearGradient id="paint1_linear_2_13" x1="-63835.5" y1="-1889.12" x2="-63137.1" y2="-1575.75" gradientUnits="userSpaceOnUse">
<stop stop-color="#A493D9"/>
<stop offset="1" stop-color="#AB9CE5"/>
</linearGradient>
<linearGradient id="paint2_linear_2_13" x1="212.732" y1="41.028" x2="212.732" y2="13.7133" gradientUnits="userSpaceOnUse">
<stop stop-color="#AC60A7"/>
<stop offset="1" stop-color="white"/>
</linearGradient>
<linearGradient id="paint3_linear_2_13" x1="430.489" y1="432.796" x2="430.489" y2="329.41" gradientUnits="userSpaceOnUse">
<stop stop-color="#BDA2D9"/>
<stop offset="1" stop-color="#AB9CE5"/>
</linearGradient>
<linearGradient id="paint4_linear_2_13" x1="285382" y1="81369.7" x2="285382" y2="52390.6" gradientUnits="userSpaceOnUse">
<stop stop-color="#BDA2D9"/>
<stop offset="1" stop-color="#AB9CE5"/>
</linearGradient>
<linearGradient id="paint5_linear_2_13" x1="461.083" y1="368.41" x2="461.083" y2="329.41" gradientUnits="userSpaceOnUse">
<stop stop-color="white"/>
<stop offset="1" stop-color="#AC60A7"/>
</linearGradient>
<linearGradient id="paint6_linear_2_13" x1="41193.8" y1="12831.4" x2="41193.8" y2="11504.7" gradientUnits="userSpaceOnUse">
<stop stop-color="white"/>
<stop offset="1" stop-color="#AC60A7"/>
</linearGradient>
<linearGradient id="paint7_linear_2_13" x1="112450" y1="15246.3" x2="112450" y2="13673.4" gradientUnits="userSpaceOnUse">
<stop stop-color="white"/>
<stop offset="1" stop-color="#AC60A7"/>
</linearGradient>
<linearGradient id="paint8_linear_2_13" x1="46.8932" y1="645.978" x2="46.8932" y2="305.434" gradientUnits="userSpaceOnUse">
<stop stop-color="#E7AED9"/>
<stop offset="1" stop-color="#DACAFF"/>
</linearGradient>
<linearGradient id="paint9_linear_2_13" x1="345920" y1="154118" x2="345920" y2="70473.6" gradientUnits="userSpaceOnUse">
<stop stop-color="#BDA2D9"/>
<stop offset="1" stop-color="#AB9CE5"/>
</linearGradient>
<linearGradient id="paint10_linear_2_13" x1="398.075" y1="193.29" x2="398.075" y2="132.52" gradientUnits="userSpaceOnUse">
<stop stop-color="#E7AED9"/>
<stop offset="1" stop-color="#D1BDE5"/>
</linearGradient>
<linearGradient id="paint11_linear_2_13" x1="206289" y1="83209.6" x2="206289" y2="57384" gradientUnits="userSpaceOnUse">
<stop stop-color="white"/>
<stop offset="1" stop-color="#AC60A7"/>
</linearGradient>
<radialGradient id="paint12_radial_2_13" cx="0" cy="0" r="1" gradientUnits="userSpaceOnUse" gradientTransform="translate(442.122 251.274) rotate(180) scale(59.9078 60.0702)">
<stop stop-color="#76FFFF"/>
<stop offset="0.15" stop-color="#77FBFF"/>
<stop offset="0.3" stop-color="#7AEEFF"/>
<stop offset="0.46" stop-color="#7ED9FF"/>
<stop offset="0.62" stop-color="#84BBFF"/>
<stop offset="0.78" stop-color="#8D95FF"/>
<stop offset="0.95" stop-color="#9667FF"/>
<stop offset="1" stop-color="#9A56FF"/>
</radialGradient>
<linearGradient id="paint13_linear_2_13" x1="630991" y1="31718.3" x2="579274" y2="48320" gradientUnits="userSpaceOnUse">
<stop stop-color="#A493D9"/>
<stop offset="1" stop-color="#AB9CE5"/>
</linearGradient>
<linearGradient id="paint14_linear_2_13" x1="336420" y1="146495" x2="336420" y2="70473.6" gradientUnits="userSpaceOnUse">
<stop stop-color="white"/>
<stop offset="1" stop-color="#AC60A7"/>
</linearGradient>
<linearGradient id="paint15_linear_2_13" x1="877291" y1="201842" x2="877291" y2="19371.9" gradientUnits="userSpaceOnUse">
<stop stop-color="#E7AED9"/>
<stop offset="1" stop-color="#DACAFF"/>
</linearGradient>
<linearGradient id="paint16_linear_2_13" x1="305.307" y1="460.349" x2="305.307" y2="166.952" gradientUnits="userSpaceOnUse">
<stop stop-color="#836DBE"/>
<stop offset="1" stop-color="white"/>
</linearGradient>
<linearGradient id="paint17_linear_2_13" x1="308570" y1="38207.2" x2="308570" y2="26401.5" gradientUnits="userSpaceOnUse">
<stop stop-color="#E7AED9"/>
<stop offset="1" stop-color="#D1BDE5"/>
</linearGradient>
<linearGradient id="paint18_linear_2_13" x1="321.05" y1="146.412" x2="321.05" y2="2.2732" gradientUnits="userSpaceOnUse">
<stop stop-color="#E4D4FF"/>
<stop offset="1" stop-color="#E9E0FF"/>
</linearGradient>
<linearGradient id="paint19_linear_2_13" x1="300679" y1="163785" x2="300679" y2="71922.3" gradientUnits="userSpaceOnUse">
<stop stop-color="#E7AED9"/>
<stop offset="1" stop-color="#D1BDE5"/>
</linearGradient>
<radialGradient id="paint20_radial_2_13" cx="0" cy="0" r="1" gradientUnits="userSpaceOnUse" gradientTransform="translate(252.966 561.499) rotate(180) scale(63.1634 63.3344)">
<stop offset="0.02" stop-color="#523E63"/>
<stop offset="0.99" stop-color="#3E1B40"/>
</radialGradient>
<radialGradient id="paint21_radial_2_13" cx="0" cy="0" r="1" gradientUnits="userSpaceOnUse" gradientTransform="translate(339.825 542.316) rotate(180) scale(61.4093 61.5756)">
<stop offset="0.02" stop-color="#452F57"/>
<stop offset="0.99" stop-color="#2E0C35"/>
</radialGradient>
<radialGradient id="paint22_radial_2_13" cx="0" cy="0" r="1" gradientUnits="userSpaceOnUse" gradientTransform="translate(393955 24991.4) scale(17681.2 38813.4)">
<stop offset="0.02" stop-color="#523E63"/>
<stop offset="0.99" stop-color="#3E1B40"/>
</radialGradient>
<linearGradient id="paint23_linear_2_13" x1="369.14" y1="310.993" x2="369.14" y2="238.872" gradientUnits="userSpaceOnUse">
<stop stop-color="#FFC7B3"/>
<stop offset="1" stop-color="#FFEFC9"/>
</linearGradient>
<linearGradient id="paint24_linear_2_13" x1="227299" y1="75752.3" x2="227299" y2="31752.9" gradientUnits="userSpaceOnUse">
<stop stop-color="#E7AED9"/>
<stop offset="1" stop-color="#D1BDE5"/>
</linearGradient>
<linearGradient id="paint25_linear_2_13" x1="559074" y1="50306.8" x2="559074" y2="31429.2" gradientUnits="userSpaceOnUse">
<stop stop-color="#A493D9"/>
<stop offset="1" stop-color="#AB9CE5"/>
</linearGradient>
<radialGradient id="paint26_radial_2_13" cx="0" cy="0" r="1" gradientUnits="userSpaceOnUse" gradientTransform="translate(155398 7891.31) scale(2658.9 4834.04)">
<stop offset="0.02" stop-color="#523E63"/>
<stop offset="0.99" stop-color="#3E1B40"/>
</radialGradient>
<linearGradient id="paint27_linear_2_13" x1="695412" y1="18829.5" x2="695104" y2="10037.7" gradientUnits="userSpaceOnUse">
<stop stop-color="#E7AED9"/>
<stop offset="1" stop-color="#DACAFF"/>
</linearGradient>
<linearGradient id="paint28_linear_2_13" x1="467281" y1="17658.9" x2="467356" y2="11736.9" gradientUnits="userSpaceOnUse">
<stop stop-color="#E7AED9"/>
<stop offset="1" stop-color="#DACAFF"/>
</linearGradient>
<linearGradient id="paint29_linear_2_13" x1="306945" y1="18086.4" x2="306821" y2="14881.2" gradientUnits="userSpaceOnUse">
<stop stop-color="#E7AED9"/>
<stop offset="1" stop-color="#DACAFF"/>
</linearGradient>
<linearGradient id="paint30_linear_2_13" x1="430768" y1="858.251" x2="380016" y2="-24669" gradientUnits="userSpaceOnUse">
<stop stop-color="#E7AED9"/>
<stop offset="1" stop-color="#DACAFF"/>
</linearGradient>
<linearGradient id="paint31_linear_2_13" x1="260932" y1="10099.4" x2="267767" y2="10099.4" gradientUnits="userSpaceOnUse">
<stop stop-color="#BDA2D9"/>
<stop offset="1" stop-color="#AB9CE5"/>
</linearGradient>
<linearGradient id="paint32_linear_2_13" x1="-564615" y1="3676.76" x2="-564615" y2="-3293.78" gradientUnits="userSpaceOnUse">
<stop stop-color="#AC60A7"/>
<stop offset="1" stop-color="white"/>
</linearGradient>
<radialGradient id="paint33_radial_2_13" cx="0" cy="0" r="1" gradientUnits="userSpaceOnUse" gradientTransform="translate(251.412 119.365) rotate(180) scale(48.4837 48.6151)">
<stop offset="0.02" stop-color="#523ECA"/>
<stop offset="0.99" stop-color="#3E1B40"/>
</radialGradient>
<radialGradient id="paint34_radial_2_13" cx="0" cy="0" r="1" gradientUnits="userSpaceOnUse" gradientTransform="translate(549445 2076.31) scale(26987.6 4842.57)">
<stop offset="0.02" stop-color="#523E63"/>
<stop offset="0.99" stop-color="#3E1B40"/>
</radialGradient>
<linearGradient id="paint35_linear_2_13" x1="-735959" y1="71843.8" x2="-769379" y2="44414.9" gradientUnits="userSpaceOnUse">
<stop stop-color="#AC60A7"/>
<stop offset="1" stop-color="white"/>
</linearGradient>
<linearGradient id="paint36_linear_2_13" x1="-470199" y1="60541.9" x2="-470199" y2="46926.8" gradientUnits="userSpaceOnUse">
<stop stop-color="#AC60A7"/>
<stop offset="1" stop-color="white"/>
</linearGradient>
<linearGradient id="paint37_linear_2_13" x1="-635260" y1="48924.4" x2="-635260" y2="31085.4" gradientUnits="userSpaceOnUse">
<stop stop-color="#AC60A7"/>
<stop offset="1" stop-color="white"/>
</linearGradient>
<linearGradient id="paint38_linear_2_13" x1="244.619" y1="243.202" x2="244.619" y2="149.9" gradientUnits="userSpaceOnUse">
<stop/>
<stop offset="1" stop-color="#B09BA0"/>
</linearGradient>
<linearGradient id="paint39_linear_2_13" x1="151131" y1="12207.8" x2="151131" y2="5326.32" gradientUnits="userSpaceOnUse">
<stop/>
<stop offset="1" stop-color="#B09BA0"/>
</linearGradient>
<linearGradient id="paint40_linear_2_13" x1="134198" y1="13410.7" x2="136265" y2="13410.7" gradientUnits="userSpaceOnUse">
<stop/>
<stop offset="1" stop-color="#B09BA0"/>
</linearGradient>
<linearGradient id="paint41_linear_2_13" x1="-657522" y1="37834.6" x2="-683620" y2="2334.73" gradientUnits="userSpaceOnUse">
<stop stop-color="#AC60A7"/>
<stop offset="1" stop-color="white"/>
</linearGradient>
<linearGradient id="paint42_linear_2_13" x1="298335" y1="14751" x2="298335" y2="13138.3" gradientUnits="userSpaceOnUse">
<stop stop-color="white"/>
<stop offset="1" stop-color="#AC60A7"/>
</linearGradient>
<radialGradient id="paint43_radial_2_13" cx="0" cy="0" r="1" gradientUnits="userSpaceOnUse" gradientTransform="translate(247.934 72.8071) rotate(180) scale(43.4667 43.5844)">
<stop stop-color="#93CBFF"/>
<stop offset="0.14" stop-color="#91C7FE"/>
<stop offset="0.28" stop-color="#8BBAFA"/>
<stop offset="0.42" stop-color="#81A6F4"/>
<stop offset="0.56" stop-color="#7289EB"/>
<stop offset="0.71" stop-color="#6064E0"/>
<stop offset="0.85" stop-color="#4936D3"/>
<stop offset="1" stop-color="#2E00C3"/>
</radialGradient>
<radialGradient id="paint44_radial_2_13" cx="0" cy="0" r="1" gradientUnits="userSpaceOnUse" gradientTransform="translate(370030 30867.5) scale(10213.4 17290.8)">
<stop stop-color="#93CBFF"/>
<stop offset="0.14" stop-color="#91C7FE"/>
<stop offset="0.28" stop-color="#8BBAFA"/>
<stop offset="0.42" stop-color="#81A6F4"/>
<stop offset="0.56" stop-color="#7289EB"/>
<stop offset="0.71" stop-color="#6064E0"/>
<stop offset="0.85" stop-color="#4936D3"/>
<stop offset="1" stop-color="#2E00C3"/>
</radialGradient>
<radialGradient id="paint45_radial_2_13" cx="0" cy="0" r="1" gradientUnits="userSpaceOnUse" gradientTransform="translate(216516 12191) scale(1990.97 1215.59)">
<stop stop-color="#93CBFF"/>
<stop offset="0.14" stop-color="#91C7FE"/>
<stop offset="0.28" stop-color="#8BBAFA"/>
<stop offset="0.42" stop-color="#81A6F4"/>
<stop offset="0.56" stop-color="#7289EB"/>
<stop offset="0.71" stop-color="#6064E0"/>
<stop offset="0.85" stop-color="#4936D3"/>
<stop offset="1" stop-color="#2E00C3"/>
</radialGradient>
<radialGradient id="paint46_radial_2_13" cx="0" cy="0" r="1" gradientUnits="userSpaceOnUse" gradientTransform="translate(-83869.5 17382.3) rotate(180) scale(659.564 1313.25)">
<stop stop-color="#93CBFF"/>
<stop offset="0.14" stop-color="#91C7FE"/>
<stop offset="0.28" stop-color="#8BBAFA"/>
<stop offset="0.42" stop-color="#81A6F4"/>
<stop offset="0.56" stop-color="#7289EB"/>
<stop offset="0.71" stop-color="#6064E0"/>
<stop offset="0.85" stop-color="#4936D3"/>
<stop offset="1" stop-color="#2E00C3"/>
</radialGradient>
<radialGradient id="paint47_radial_2_13" cx="0" cy="0" r="1" gradientUnits="userSpaceOnUse" gradientTransform="translate(91218.8 146448) scale(5749.01 45261.8)">
<stop stop-color="#93CBFF"/>
<stop offset="0.14" stop-color="#91C7FE"/>
<stop offset="0.28" stop-color="#8BBAFA"/>
<stop offset="0.42" stop-color="#81A6F4"/>
<stop offset="0.56" stop-color="#7289EB"/>
<stop offset="0.71" stop-color="#6064E0"/>
<stop offset="0.85" stop-color="#4936D3"/>
<stop offset="1" stop-color="#2E00C3"/>
</radialGradient>
<radialGradient id="paint48_radial_2_13" cx="0" cy="0" r="1" gradientUnits="userSpaceOnUse" gradientTransform="translate(98998.4 50503.2) scale(4327.16 9189.37)">
<stop stop-color="#93CBFF"/>
<stop offset="0.14" stop-color="#91C7FE"/>
<stop offset="0.28" stop-color="#8BBAFA"/>
<stop offset="0.42" stop-color="#81A6F4"/>
<stop offset="0.56" stop-color="#7289EB"/>
<stop offset="0.71" stop-color="#6064E0"/>
<stop offset="0.85" stop-color="#4936D3"/>
<stop offset="1" stop-color="#2E00C3"/>
</radialGradient>
<radialGradient id="paint49_radial_2_13" cx="0" cy="0" r="1" gradientUnits="userSpaceOnUse" gradientTransform="translate(263373 203946) scale(20886.9 87868.2)">
<stop stop-color="#93CBFF"/>
<stop offset="0.14" stop-color="#91C7FE"/>
<stop offset="0.28" stop-color="#8BBAFA"/>
<stop offset="0.42" stop-color="#81A6F4"/>
<stop offset="0.56" stop-color="#7289EB"/>
<stop offset="0.71" stop-color="#6064E0"/>
<stop offset="0.85" stop-color="#4936D3"/>
<stop offset="1" stop-color="#2E00C3"/>
</radialGradient>
<radialGradient id="paint50_radial_2_13" cx="0" cy="0" r="1" gradientUnits="userSpaceOnUse" gradientTransform="translate(83.6555 570.003) rotate(180) scale(48.3128 48.4437)">
<stop stop-color="#FFBC00"/>
<stop offset="0.23" stop-color="#FFC100"/>
<stop offset="0.49" stop-color="#FFCE00"/>
<stop offset="0.76" stop-color="#FFE400"/>
<stop offset="1" stop-color="#FFFF00"/>
</radialGradient>
<radialGradient id="paint51_radial_2_13" cx="0" cy="0" r="1" gradientUnits="userSpaceOnUse" gradientTransform="translate(-400442 -434362) rotate(180) scale(10914.7 21964.6)">
<stop stop-color="#76FFFF"/>
<stop offset="0.15" stop-color="#77FBFF"/>
<stop offset="0.3" stop-color="#7AEEFF"/>
<stop offset="0.46" stop-color="#7ED9FF"/>
<stop offset="0.62" stop-color="#84BBFF"/>
<stop offset="0.78" stop-color="#8D95FF"/>
<stop offset="0.95" stop-color="#9667FF"/>
<stop offset="1" stop-color="#9A56FF"/>
</radialGradient>
<clipPath id="clip0_2_13">
<rect width="476" height="612" fill="white"/>
</clipPath>
</defs>
</svg>
