<svg width="285" height="263" viewBox="0 0 285 263" fill="none" xmlns="http://www.w3.org/2000/svg">
<g filter="url(#filter0_bd_2_2237)">
<path d="M25.9585 80.4568C24.4061 70.7368 31.915 61.9333 41.7582 61.9333H241.228C249.043 61.9333 255.714 67.5781 257.007 75.2847L280.435 214.857C282.073 224.615 274.55 233.505 264.656 233.505H64.0502C56.1878 233.505 49.4905 227.793 48.2504 220.029L25.9585 80.4568Z" fill="url(#paint0_linear_2_2237)" shape-rendering="crispEdges"/>
<path d="M41.7582 62.4333H241.228C248.798 62.4333 255.261 67.9017 256.514 75.3675L279.942 214.94C281.528 224.393 274.241 233.005 264.656 233.005H64.0502C56.4335 233.005 49.9455 227.471 48.7442 219.95L26.4522 80.3779C24.9483 70.9617 32.2226 62.4333 41.7582 62.4333Z" stroke="#A900FD" stroke-opacity="0.3" shape-rendering="crispEdges"/>
</g>
<g filter="url(#filter1_bd_2_2237)">
<path fill-rule="evenodd" clip-rule="evenodd" d="M83 83.0499H20.0039C10.124 83.0499 2.60513 91.9157 4.21875 101.663L27.3242 241.235C28.6027 248.958 35.2813 254.622 43.1093 254.622H243.793C253.687 254.622 261.21 245.731 259.572 235.973L236.145 96.4013C234.851 88.6947 228.18 83.0499 220.366 83.0499H197V87.0499H220.366C226.227 87.0499 231.23 91.2835 232.2 97.0634L255.627 236.636C256.856 243.954 251.214 250.622 243.793 250.622H43.1093C37.2383 250.622 32.2293 246.374 31.2705 240.582L8.16504 101.01C6.95483 93.6993 12.5939 87.0499 20.0039 87.0499H83V83.0499Z" fill="url(#paint1_linear_2_2237)"/>
</g>
<path d="M151.064 211.233C150.971 211.028 150.84 210.729 150.672 210.337C150.504 209.945 150.308 209.497 150.084 208.993C149.879 208.471 149.645 207.911 149.384 207.313C149.141 206.697 148.889 206.063 148.628 205.409H141.46L139.052 211.233H136.028L145.072 189.981C145.184 190.243 145.38 190.719 145.66 191.409C145.959 192.1 146.304 192.931 146.696 193.901C147.107 194.853 147.555 195.917 148.04 197.093C148.544 198.251 149.048 199.427 149.552 200.621C150.075 201.816 150.579 202.992 151.064 204.149C151.568 205.307 152.025 206.371 152.436 207.341C152.847 208.312 153.192 209.143 153.472 209.833C153.771 210.505 153.976 210.972 154.088 211.233H151.064ZM142.524 202.833H147.592C147.331 202.217 147.079 201.629 146.836 201.069C146.612 200.491 146.397 199.968 146.192 199.501C146.005 199.016 145.837 198.596 145.688 198.241C145.539 197.887 145.427 197.607 145.352 197.401C145.333 197.364 145.287 197.233 145.212 197.009C145.156 196.785 145.109 196.58 145.072 196.393C145.035 196.58 144.979 196.785 144.904 197.009C144.829 197.233 144.783 197.364 144.764 197.401L142.524 202.833ZM162.249 202.301C161.726 202.301 161.222 202.376 160.737 202.525C160.252 202.656 159.813 202.861 159.421 203.141C159.048 203.421 158.749 203.776 158.525 204.205C158.301 204.616 158.189 205.092 158.189 205.633V211.233H155.809V199.529H157.909C157.946 200.108 157.974 200.64 157.993 201.125C158.03 201.592 158.068 202.059 158.105 202.525C158.348 202.021 158.665 201.564 159.057 201.153C159.449 200.743 159.869 200.397 160.317 200.117C160.765 199.837 161.204 199.623 161.633 199.473C162.062 199.305 162.445 199.221 162.781 199.221L162.249 202.301ZM165.512 194.377H167.892V199.557H171.028V201.685H167.892V211.233H165.512V201.685H163.412V199.557H165.512V194.377Z" fill="white"/>
<g style="mix-blend-mode:multiply" opacity="0.7">
<path d="M175.366 111.069L170.661 113.792L172.723 114.974H130.013L125.608 117.436H81.1967L5.60876 161.087L11.0551 164.251H44.6742L49.3597 166.954H92.0693L100.799 172H103.402L90.0269 160.346L85.3215 163.05L87.3838 164.251H59.5115L146.493 117.677H177.389L186.139 122.723H188.742L175.366 111.069Z" fill="#52017B"/>
</g>
<path d="M103.403 172L87.2838 162.709V160.887L103.403 170.178V172Z" fill="#8B3DCE"/>
<path d="M107.247 169.778L103.402 172V170.178L107.247 167.955V169.778Z" fill="#CB89F0"/>
<path d="M103.403 170.178L87.2838 160.887L91.1483 158.665L107.247 167.955L103.403 170.178Z" fill="url(#paint2_linear_2_2237)"/>
<path d="M188.742 122.723L172.643 113.432V111.61L188.742 120.901V122.723Z" fill="#8B3DCE"/>
<path d="M192.606 120.5L188.742 122.723V120.901L192.606 118.678V120.5Z" fill="#CB89F0"/>
<path d="M188.742 120.901L172.643 111.61L176.488 109.387L192.606 118.678L188.742 120.901Z" fill="url(#paint3_linear_2_2237)"/>
<path d="M183.456 116.275L180.392 114.513V40.9077L183.456 42.6898V116.275Z" fill="#8B3DCE"/>
<path d="M184.977 115.394L183.456 116.275V42.6897L184.977 41.7886V115.394Z" fill="#CB89F0"/>
<path d="M183.456 42.6897L180.392 40.9076L181.934 40.0266L184.977 41.7887L183.456 42.6897Z" fill="url(#paint4_linear_2_2237)"/>
<path d="M183.476 1.70199L100.119 50.6389L96.3943 48.4764L180.372 0L183.476 1.70199Z" fill="url(#paint5_linear_2_2237)"/>
<path d="M183.476 67.3585L99.478 115.855V50.1985L183.476 1.70209V67.3585Z" fill="#CB89F0"/>
<path d="M99.498 115.935L96.4544 114.173V48.4965L99.498 50.2586V115.935Z" fill="#8B3DCE"/>
<path d="M181.794 65.4763L101.44 111.95V50.9794L181.794 4.50537V65.4763Z" fill="#FEF0FF"/>
<path d="M170.701 77.5904L117.519 108.306V107.225L132.556 97.5536L170.701 76.5091V77.5904Z" fill="#CB89F0"/>
<path d="M170.701 76.509L145.271 91.1861L117.519 107.225L114.996 105.763L168.198 75.0673L170.701 76.509Z" fill="url(#paint6_linear_2_2237)"/>
<path d="M170.701 76.509L145.271 91.1861L117.519 107.225L114.996 105.763L168.198 75.0673L170.701 76.509Z" fill="url(#paint7_linear_2_2237)"/>
<path d="M117.519 107.225L114.996 105.763V106.864L117.519 108.306V107.225Z" fill="#8B3DCE"/>
<path d="M97.9963 165.613L94.9527 163.851V90.2449L97.9963 92.007V165.613Z" fill="#8B3DCE"/>
<path d="M99.538 164.732L97.9962 165.613V92.007L99.538 91.126V164.732Z" fill="#CB89F0"/>
<path d="M97.9963 92.007L94.9527 90.2449L96.4745 89.3639L99.538 91.126L97.9963 92.007Z" fill="url(#paint8_linear_2_2237)"/>
<path d="M150.577 47.6554C150.337 47.7555 150.257 48.196 150.577 48.0959C157.666 45.3127 163.432 45.2927 157.025 52.8014C150.056 60.2309 141.452 65.9348 131.896 69.4608C111.011 76.509 133.898 53.8026 152.42 46.4941C152.66 46.3739 152.74 45.9534 152.42 46.0536C131.595 53.9427 110.371 77.6503 131.655 70.2817C141.4 66.6151 150.156 60.7257 157.225 53.0817C164.033 45.1725 158.567 44.3916 150.577 47.6554Z" fill="#412B42"/>
<path d="M144.51 41.4281C144.09 42.5094 143.729 43.5706 143.369 44.6118C143.971 40.8056 144.173 36.9467 143.97 33.0984C143.97 32.8782 143.589 33.0984 143.569 33.3387C143.549 33.579 143.369 37.1231 142.828 45.3527C142.648 44.772 142.368 43.6907 142.027 42.7897C142.027 42.6095 141.607 42.7897 141.647 43.1101C141.647 43.7708 142.188 47.315 142.848 47.1147C142.962 47.0754 143.065 47.0095 143.149 46.9224C143.233 46.8354 143.294 46.7297 143.329 46.6141C143.529 45.9734 144.35 43.3904 144.891 41.2879C144.891 41.1678 144.851 41.1077 144.771 41.1077C144.771 41.1077 144.57 41.2479 144.51 41.4281Z" fill="#412B42"/>
<path d="M120.182 70.7423C120.462 70.442 120.442 70.0415 120.182 70.1016C119.922 70.1616 117.559 70.502 115.777 70.9625C115.557 70.9625 115.416 71.4231 115.637 71.4031C116.458 71.4031 117.279 71.2829 118.12 71.1828C114.242 72.6827 110.509 74.5325 106.967 76.7092C106.726 76.8494 106.726 77.2299 106.967 77.1097C107.207 76.9896 111.752 74.747 118.56 71.4832C117.859 72.0438 116.558 73.0049 115.517 73.966C115.276 74.1463 115.336 74.4667 115.517 74.3065C116.298 73.8059 117.058 73.2452 117.819 72.7046C118.678 72.1418 119.471 71.4836 120.182 70.7423V70.7423Z" fill="#412B42"/>
<path d="M166.556 43.0102C167.357 42.1291 168.178 41.2281 168.979 40.287C169.199 40.0467 168.979 39.8064 168.819 40.0266C167.057 41.6886 164.994 43.8711 164.494 44.3717C163.993 44.8723 164.213 45.0926 164.494 45.0525C166.123 44.5747 167.69 43.9024 169.159 43.0502C169.379 42.93 169.439 42.5496 169.159 42.6297C168.038 43.0102 166.796 43.5307 166.095 43.8111C172.863 38.9654 177.629 35.6015 177.629 35.6015C177.723 35.5353 177.788 35.4347 177.809 35.3212C177.849 34.7005 170.601 39.6663 166.556 43.0102Z" fill="#412B42"/>
<path d="M158.346 40.2869C158.847 39.6262 160.068 38.0844 161.21 36.4425C161.39 36.2022 161.21 36.022 160.989 36.2623C160.309 37.0232 159.728 37.724 159.107 38.4848C162.952 31.8371 165.375 28.1528 167.117 25.5498C167.297 25.2895 167.117 25.1493 166.876 25.3896C163.817 29.4476 161.136 33.7774 158.867 38.3247C158.987 37.5237 159.147 36.3223 159.187 35.6015C159.187 35.3612 158.867 35.6015 158.787 35.7617C158.527 36.7428 158.106 38.7452 157.886 40.2669C157.746 40.6073 158.086 40.6273 158.346 40.2869Z" fill="#412B42"/>
<path d="M128.191 52.0405C128.191 52.0405 128.191 51.9204 128.011 52.0405C127.831 52.1606 127.791 52.6412 127.771 53.3821C127.771 54.6836 127.771 54.2631 127.771 54.9039C125.997 52.5513 123.596 50.7468 120.843 49.6978C120.663 49.6978 120.402 50.0182 120.542 50.1183C122.973 51.6951 125.264 53.477 127.39 55.4445C126.817 55.2984 126.235 55.1848 125.648 55.1041C125.468 55.1041 125.228 55.4645 125.388 55.5446C126.216 55.9535 127.073 56.3015 127.951 56.5858C128.191 56.5858 128.572 56.2854 128.572 55.925C128.537 54.6228 128.41 53.3247 128.191 52.0405V52.0405Z" fill="#412B42"/>
<path d="M142.448 69.6209C142.348 69.3806 141.927 69.6209 141.787 69.9413C141.257 71.6272 140.915 73.3664 140.766 75.1273C140.766 75.3876 141.086 75.2675 141.166 74.9872C141.507 73.6857 141.787 72.3041 141.967 71.5031C142.508 79.2321 142.708 82.6961 142.708 82.6961C142.708 82.6961 143.089 82.6961 143.109 82.4559C143.336 78.8406 143.134 75.2112 142.508 71.6433C142.85 72.2867 143.231 72.9086 143.649 73.5054C143.649 73.6656 144.09 73.3453 144.01 73.145C143.56 71.9402 143.038 70.7634 142.448 69.6209V69.6209Z" fill="#412B42"/>
<path d="M158.226 59.0487C158.897 59.0124 159.566 58.9389 160.229 58.8285C160.469 58.8285 160.629 58.388 160.429 58.3679C159.402 58.3057 158.372 58.3057 157.345 58.3679C157.182 58.3974 157.037 58.4889 156.94 58.6234C156.842 58.7578 156.801 58.9246 156.825 59.0888C157.175 60.1465 157.617 61.1716 158.146 62.1524C158.246 62.3126 158.567 62.0322 158.527 61.832C158.382 61.1009 158.195 60.3788 157.966 59.6694C160.677 61.1633 163.721 61.9485 166.816 61.9521C167.036 61.9521 167.237 61.5316 167.036 61.4916C164.034 60.9372 161.086 60.1198 158.226 59.0487V59.0487Z" fill="#412B42"/>
<path d="M125.688 76.8694C125.188 77.5301 123.986 79.0719 122.865 80.7138C122.685 80.9741 122.865 81.1543 123.085 80.9141C123.726 80.1732 124.387 79.3923 124.968 78.6715C122.405 83.1967 121.363 84.9788 117.159 91.6265C116.978 91.9068 117.158 92.047 117.399 91.7867C120.43 87.7191 123.072 83.3749 125.288 78.8116C125.168 79.6726 125.048 80.8139 125.028 81.5147C125.028 81.5147 125.028 81.6549 125.168 81.6149C125.308 81.5748 125.568 80.7939 125.889 79.0919C126.049 78.291 126.169 77.6102 126.249 76.8694C126.309 76.529 125.949 76.529 125.688 76.8694Z" fill="#412B42"/>
<g style="mix-blend-mode:multiply" opacity="0.5">
<path d="M119.822 53.6423C119.822 52.1005 119.922 50.3185 120.062 48.3362C120.071 48.186 120.036 48.0365 119.962 47.9056C119.888 47.7746 119.778 47.6679 119.645 47.5981C119.511 47.5283 119.361 47.4985 119.211 47.5122C119.061 47.5259 118.919 47.5826 118.8 47.6754L116.177 49.7978L109.97 52.461C109.665 55.4676 109.544 58.4901 109.61 61.5115L119.842 55.6046C119.842 55.0439 119.842 54.4633 119.842 53.8225L119.822 53.6423Z" fill="#CB89F0"/>
</g>
<path d="M120.182 46.5341L109.93 52.541V55.4444C109.923 56.2441 109.997 57.0424 110.15 57.8272C110.305 58.6627 110.56 59.4762 110.911 60.25L121.183 54.243C120.747 53.2891 120.451 52.2777 120.302 51.2395C120.222 50.6489 120.181 50.0536 120.182 49.4575V46.5341Z" fill="#FF99F3"/>
<path d="M111.292 54.0628L113.534 52.7613C113.755 52.6411 113.755 52.2607 113.534 52.4009L111.292 53.7024C111.051 53.8425 111.051 54.2029 111.292 54.0628Z" fill="#FEF0FF"/>
<path d="M114.295 52.3207C115.176 51.8602 116.057 51.2395 116.938 50.779C117.158 50.6388 117.158 50.2783 116.938 50.4185C116.057 50.879 115.176 51.4998 114.295 51.9603C114.175 52.0805 114.175 52.4409 114.295 52.3207Z" fill="#FEF0FF"/>
<path d="M118.8 49.2772L117.699 49.9379C117.459 50.0781 117.459 50.4385 117.699 50.2983L118.8 49.6376C119.021 49.4373 119.021 49.137 118.8 49.2772Z" fill="#FEF0FF"/>
<path d="M114.175 53.2017C114.415 53.0615 114.415 52.7011 114.175 52.8413C113.054 53.5221 111.932 54.1028 110.791 54.8436C110.571 55.0038 110.551 55.3642 110.791 55.2241C111.972 54.4632 113.094 53.8825 114.175 53.2017Z" fill="#FEF0FF"/>
<path d="M118.36 50.3184L115.176 52.3207C114.936 52.4609 114.936 52.8413 115.176 52.7012L118.36 50.6988C118.6 50.5387 118.6 50.1782 118.36 50.3184Z" fill="#FEF0FF"/>
<path d="M115.497 52.8614L112.513 54.6034C112.273 54.7436 112.273 55.104 112.513 54.9639L115.497 53.2218C115.737 53.0817 115.737 52.7212 115.497 52.8614Z" fill="#FEF0FF"/>
<path d="M117.579 51.66C117.137 51.8799 116.709 52.1274 116.297 52.401C116.057 52.5411 116.057 52.9215 116.297 52.7614C116.709 52.4878 117.137 52.2404 117.579 52.0205C117.799 51.9004 117.799 51.5399 117.579 51.66Z" fill="#FEF0FF"/>
<g style="mix-blend-mode:multiply" opacity="0.5">
<path d="M147.774 32.5579C147.774 31.0161 147.774 29.234 148.014 27.2517C148.027 27.098 147.994 26.944 147.919 26.8092C147.844 26.6744 147.731 26.5647 147.594 26.4941C147.457 26.4234 147.302 26.3949 147.149 26.4121C146.995 26.4294 146.851 26.4916 146.733 26.5909L144.09 28.7334L137.903 31.4165C137.587 34.4225 137.467 37.4456 137.542 40.467L147.774 34.5602V32.5579V32.5579Z" fill="#CB89F0"/>
</g>
<path d="M148.215 25.4095L137.963 31.4165V34.4C137.939 35.1993 138.006 35.9987 138.163 36.7828C138.324 37.6192 138.586 38.4328 138.944 39.2056L149.196 33.1986C148.77 32.2495 148.48 31.2451 148.335 30.2151C148.245 29.6188 148.205 29.016 148.215 28.413V25.4095Z" fill="#44BFE5"/>
<path d="M139.224 32.9783L141.467 31.6768C141.707 31.5567 141.707 31.1762 141.467 31.3164C140.726 31.7569 139.985 32.1974 139.224 32.6179C139.004 32.7581 139.004 33.1185 139.224 32.9783Z" fill="#FEF0FF"/>
<path d="M142.208 31.2363C143.089 30.7757 143.95 30.1751 144.831 29.6945C145.071 29.5543 145.071 29.1939 144.831 29.334C143.95 29.7946 143.089 30.4153 142.208 30.8759C142.007 30.996 142.007 31.4165 142.208 31.2363Z" fill="#FEF0FF"/>
<path d="M146.733 28.1928L145.632 28.8535C145.411 28.9937 145.411 29.3541 145.632 29.2139L146.733 28.5532C146.973 28.413 146.973 28.0526 146.733 28.1928Z" fill="#FEF0FF"/>
<path d="M142.208 32.1174C142.428 31.9773 142.448 31.6168 142.208 31.757C141.066 32.4378 139.945 33.0185 138.824 33.7593C138.583 33.9195 138.583 34.2999 138.824 34.1397C139.905 33.4189 141.026 32.7982 142.208 32.1174Z" fill="#FEF0FF"/>
<path d="M146.312 29.2339L143.129 31.2363C142.888 31.3964 142.888 31.7569 143.129 31.6167L146.312 29.6144C146.553 29.4141 146.553 29.0938 146.312 29.2339Z" fill="#FEF0FF"/>
<path d="M143.449 31.7769L140.466 33.5189C140.225 33.6591 140.225 34.0195 140.466 33.8994C141.447 33.2987 142.468 32.718 143.449 32.1373C143.689 31.9972 143.689 31.6367 143.449 31.7769Z" fill="#FEF0FF"/>
<path d="M145.511 30.5753C145.072 30.7995 144.644 31.0469 144.23 31.3162C143.99 31.4564 143.99 31.8368 144.23 31.6766C144.644 31.4073 145.072 31.16 145.511 30.9358C145.752 30.8157 145.752 30.4552 145.511 30.5753Z" fill="#FEF0FF"/>
<g style="mix-blend-mode:multiply" opacity="0.5">
<path d="M175.546 20.7241C175.546 19.1823 175.546 17.4003 175.787 15.418C175.799 15.2643 175.766 15.1103 175.691 14.9755C175.616 14.8406 175.503 14.731 175.366 14.6603C175.229 14.5897 175.074 14.5611 174.921 14.5784C174.768 14.5956 174.623 14.6578 174.505 14.7572L171.862 16.8997L165.655 19.5428C165.355 22.5497 165.242 25.5723 165.315 28.5933L175.546 22.7064V20.7041V20.7241Z" fill="#CB89F0"/>
</g>
<path d="M175.927 13.6157L165.655 19.6227V22.6062C165.649 23.4125 165.723 24.2173 165.875 25.009C166.026 25.8414 166.289 26.6496 166.656 27.4118L176.908 21.4048C176.482 20.4557 176.192 19.4514 176.047 18.4214C175.958 17.8317 175.918 17.2356 175.927 16.6393V13.6157Z" fill="#8821D8"/>
<path d="M166.997 21.1645L169.239 19.863C169.479 19.7228 169.479 19.3623 169.239 19.5025L166.997 20.784C166.776 20.9242 166.776 21.2846 166.997 21.1645Z" fill="#FEF0FF"/>
<path d="M170.02 19.4024C170.901 18.9619 171.762 18.3412 172.643 17.8606C172.883 17.7405 172.883 17.38 172.643 17.5001C171.762 17.9807 170.901 18.5814 170.02 19.042C169.78 19.1621 169.78 19.5225 170.02 19.4024Z" fill="#FEF0FF"/>
<path d="M174.505 16.3589L173.404 17.0197C173.164 17.1598 173.164 17.5202 173.404 17.3801L174.505 16.7193C174.745 16.5792 174.745 16.2188 174.505 16.3589Z" fill="#FEF0FF"/>
<path d="M169.94 20.2836C170.16 20.1435 170.16 19.783 169.94 19.9232C168.799 20.624 167.677 21.2047 166.556 21.9255C166.316 22.0857 166.316 22.4461 166.556 22.2859C167.677 21.5651 168.799 20.9844 169.94 20.2836Z" fill="#FEF0FF"/>
<path d="M174.085 17.4001L170.881 19.4025C170.661 19.5426 170.661 19.903 170.881 19.7629L174.085 17.7605C174.245 17.6204 174.245 17.26 174.085 17.4001Z" fill="#FEF0FF"/>
<path d="M171.221 19.943C170.22 20.5237 169.219 21.1044 168.238 21.7051C167.998 21.8252 167.998 22.2057 168.238 22.0655C169.219 21.4648 170.24 20.8842 171.221 20.3035C171.442 20.1633 171.462 19.8029 171.221 19.943Z" fill="#FEF0FF"/>
<path d="M173.284 18.7418C172.844 18.966 172.416 19.2133 172.002 19.4826C171.762 19.6428 171.762 20.0032 172.002 19.843L173.284 19.1022C173.524 18.982 173.524 18.6216 173.284 18.7418Z" fill="#FEF0FF"/>
<g style="mix-blend-mode:multiply" opacity="0.5">
<path d="M180.973 38.3645C180.973 36.8428 181.073 35.0406 181.213 33.0784C181.226 32.9265 181.195 32.7742 181.122 32.6401C181.05 32.506 180.94 32.396 180.806 32.3236C180.672 32.2513 180.52 32.2197 180.368 32.2328C180.216 32.246 180.071 32.3032 179.952 32.3976L177.288 34.5401L171.101 37.1832C170.786 40.1958 170.666 43.2256 170.741 46.2537L180.973 40.2467V38.2444V38.3645Z" fill="#CB89F0"/>
</g>
<path d="M181.353 31.2563L171.101 37.2633V40.2468C171.088 41.0524 171.155 41.8572 171.301 42.6495C171.468 43.478 171.73 44.2844 172.082 45.0524L182.354 39.0454C181.909 38.1019 181.612 37.0957 181.473 36.0619C181.383 35.4723 181.343 34.8762 181.353 34.2798V31.2563Z" fill="#AAE249"/>
<path d="M172.443 38.8051L174.665 37.5036C174.906 37.3635 174.906 37.003 174.665 37.1432L172.443 38.4447C172.243 38.5649 172.243 38.9453 172.443 38.8051Z" fill="#FEF0FF"/>
<path d="M175.446 37.063C176.327 36.6025 177.188 35.9818 178.069 35.5012C178.31 35.3811 178.31 35.0206 178.069 35.1408C177.188 35.6213 176.327 36.2421 175.446 36.6826C175.206 36.8027 175.206 37.1832 175.446 37.063Z" fill="#FEF0FF"/>
<path d="M179.931 33.9996L178.83 34.6603C178.61 34.8005 178.61 35.1809 178.83 35.0207L179.931 34.36C180.252 34.2198 180.252 33.8594 179.931 33.9996Z" fill="#FEF0FF"/>
<path d="M175.366 37.9242C175.606 37.784 175.606 37.4236 175.366 37.5638C174.225 38.2646 173.104 38.8453 171.982 39.5661C171.742 39.7263 171.742 40.0867 171.982 39.9265C173.104 39.2057 174.245 38.625 175.366 37.9242Z" fill="#FEF0FF"/>
<path d="M179.511 35.0408L176.327 37.0432C176.087 37.1833 176.087 37.5437 176.327 37.4036L179.511 35.4012C179.751 35.2611 179.751 34.9007 179.511 35.0408Z" fill="#FEF0FF"/>
<path d="M176.648 37.5836L173.664 39.3457C173.424 39.4859 173.424 39.8463 173.664 39.7062L176.648 37.9441C176.888 37.8039 176.888 37.4235 176.648 37.5836Z" fill="#FEF0FF"/>
<path d="M178.71 36.3823L177.429 37.1232C177.208 37.2834 177.208 37.6438 177.429 37.5036L178.71 36.7427C178.95 36.6226 178.95 36.2622 178.71 36.3823Z" fill="#FEF0FF"/>
<g style="mix-blend-mode:multiply" opacity="0.5">
<path d="M112.633 78.2109C112.633 76.6691 112.633 74.8871 112.873 72.9048C112.882 72.7547 112.848 72.6052 112.774 72.4742C112.7 72.3433 112.59 72.2365 112.456 72.1667C112.323 72.097 112.173 72.0671 112.023 72.0808C111.873 72.0945 111.73 72.1512 111.612 72.244L108.969 74.3865L102.762 77.0296C102.447 80.0355 102.327 83.0586 102.401 86.0801L112.633 80.1932V78.1909V78.2109Z" fill="#CB89F0"/>
</g>
<path d="M113.014 71.1026L102.762 77.1096V80.093C102.759 80.8983 102.826 81.7022 102.962 82.4959C103.132 83.3235 103.394 84.1294 103.743 84.8986L114.015 78.8916C113.573 77.9472 113.276 76.9414 113.134 75.9082C113.055 75.3174 113.014 74.7221 113.014 74.1261V71.1026Z" fill="#D86EFF"/>
<path d="M104.163 78.6513L106.386 77.3498C106.626 77.2096 106.626 76.8492 106.386 76.9693L104.163 78.2708C103.863 78.411 103.863 78.7714 104.163 78.6513Z" fill="#FEF0FF"/>
<path d="M107.107 76.8894C107.988 76.4489 108.849 75.8282 109.73 75.3476C109.97 75.2275 109.97 74.8471 109.73 74.9872C108.849 75.4678 107.988 76.0685 107.107 76.529C106.887 76.6491 106.887 77.0096 107.107 76.8894Z" fill="#FEF0FF"/>
<path d="M111.612 73.8459L110.511 74.5067C110.271 74.6468 110.271 75.0073 110.511 74.8671L111.612 74.2063C111.832 74.0662 111.832 73.7058 111.612 73.8459Z" fill="#FEF0FF"/>
<path d="M107.027 77.7704C107.267 77.6303 107.267 77.2699 107.027 77.41C105.885 78.0908 104.764 78.6715 103.643 79.4124C103.402 79.5525 103.402 79.9329 103.643 79.7728C104.764 79.0519 105.885 78.4712 107.027 77.7704Z" fill="#FEF0FF"/>
<path d="M111.171 74.887L107.988 76.8893C107.748 77.0294 107.748 77.3899 107.988 77.2497L111.171 75.2474C111.412 75.1073 111.412 74.7468 111.171 74.887Z" fill="#FEF0FF"/>
<path d="M108.308 77.47L105.325 79.2321C105.084 79.3522 105.084 79.7326 105.325 79.5925L108.308 77.8304C108.548 77.6502 108.548 77.2898 108.308 77.47Z" fill="#FEF0FF"/>
<path d="M110.391 76.2286C109.944 76.4528 109.51 76.7 109.089 76.9695C108.869 77.1297 108.869 77.4901 109.089 77.3299L110.391 76.5891C110.611 76.4689 110.611 76.1085 110.391 76.2286Z" fill="#FEF0FF"/>
<g style="mix-blend-mode:multiply" opacity="0.5">
<path d="M118.18 94.7701C118.18 93.2483 118.18 91.4462 118.42 89.4839C118.433 89.3321 118.402 89.1797 118.329 89.0456C118.257 88.9115 118.147 88.8015 118.013 88.7291C117.879 88.6567 117.726 88.6252 117.575 88.6384C117.423 88.6515 117.278 88.7088 117.158 88.8031L114.515 90.9456L108.308 93.5886C108.003 96.602 107.883 99.6311 107.948 102.659L118.18 96.7523C118.18 96.1917 118.18 95.591 118.18 94.9702V94.7701Z" fill="#CB89F0"/>
</g>
<path d="M118.52 87.6619L108.268 93.6689V96.6523C108.262 97.4585 108.336 98.2634 108.488 99.0551C108.64 99.8849 108.895 100.692 109.249 101.458L119.521 95.451C119.085 94.5041 118.789 93.4992 118.64 92.4674C118.56 91.8768 118.52 91.2815 118.52 90.6854V87.6619Z" fill="#FFCE45"/>
<path d="M109.61 95.2105L111.852 93.909C112.073 93.7689 112.073 93.4085 111.852 93.5486L109.61 94.8501C109.369 94.9903 109.369 95.3507 109.61 95.2105Z" fill="#FEF0FF"/>
<path d="M112.613 93.4886C113.494 93.028 114.375 92.4073 115.256 91.9268C115.477 91.8066 115.477 91.4462 115.256 91.5664C114.375 92.0469 113.494 92.6676 112.613 93.1282C112.393 93.2283 112.393 93.5887 112.613 93.4886Z" fill="#FEF0FF"/>
<path d="M117.118 90.405L116.017 91.0658C115.777 91.206 115.777 91.5864 116.017 91.4463L117.118 90.7655C117.339 90.6253 117.339 90.2649 117.118 90.405Z" fill="#FEF0FF"/>
<path d="M112.533 94.3298C112.773 94.1896 112.773 93.8291 112.533 93.9693C111.412 94.6701 110.29 95.2508 109.149 95.9716C108.929 96.1318 108.909 96.4923 109.149 96.3321C110.29 95.6112 111.412 95.0306 112.533 94.3298Z" fill="#FEF0FF"/>
<path d="M116.678 91.4862L113.494 93.4886C113.254 93.6287 113.254 93.9891 113.494 93.849L116.678 91.8466C116.918 91.6865 116.918 91.306 116.678 91.4862Z" fill="#FEF0FF"/>
<path d="M113.815 93.9893L110.831 95.7514C110.591 95.8915 110.591 96.2519 110.831 96.1118L113.815 94.3497C114.055 94.2296 114.055 93.8492 113.815 93.9893Z" fill="#FEF0FF"/>
<path d="M115.897 92.7879C115.456 93.0282 115.036 93.2684 114.616 93.5488C114.195 93.8291 114.375 94.0493 114.616 93.9092C114.856 93.769 115.456 93.3886 115.897 93.1483C116.338 92.908 116.177 92.6677 115.897 92.7879Z" fill="#FEF0FF"/>
<g style="mix-blend-mode:multiply" opacity="0.5">
<path d="M147.394 81.8352C147.394 80.2934 147.394 78.5113 147.634 76.529C147.646 76.3753 147.613 76.2214 147.538 76.0865C147.464 75.9517 147.351 75.842 147.213 75.7713C147.076 75.7007 146.921 75.6722 146.768 75.6894C146.615 75.7066 146.47 75.7689 146.352 75.8683L143.709 77.9907L137.522 80.6538C137.207 83.6597 137.087 86.6828 137.162 89.7043L147.394 83.7975V81.7951V81.8352Z" fill="#CB89F0"/>
</g>
<path d="M147.774 74.7269L137.522 80.7339V83.6973C137.508 84.5029 137.575 85.3079 137.722 86.1001C137.883 86.9365 138.145 87.7502 138.503 88.5229L148.775 82.516C148.33 81.5655 148.033 80.5526 147.894 79.5125C147.804 78.9229 147.764 78.3268 147.774 77.7304V74.7269Z" fill="#F278FF"/>
<path d="M138.844 82.2556C139.605 81.8352 140.345 81.3946 141.086 80.9541C141.327 80.8139 141.327 80.4535 141.086 80.5937L138.844 81.8952C138.623 82.0353 138.623 82.3958 138.844 82.2556Z" fill="#FEF0FF"/>
<path d="M141.867 80.5136C142.748 80.0531 143.609 79.4324 144.49 78.9718C144.731 78.8317 144.731 78.4712 144.49 78.5914C143.609 79.0719 142.748 79.6927 141.867 80.1532C141.627 80.2733 141.627 80.6337 141.867 80.5136Z" fill="#FEF0FF"/>
<path d="M146.352 77.47L145.251 78.1308C145.031 78.2709 145.031 78.6314 145.251 78.4912L146.352 77.8304C146.593 77.6903 146.593 77.3299 146.352 77.47Z" fill="#FEF0FF"/>
<path d="M141.787 81.4747C142.027 81.3346 142.027 80.9741 141.787 81.1143C140.646 81.7951 139.525 82.3758 138.403 83.1166C138.163 83.2768 138.163 83.6372 138.403 83.477C139.525 82.6561 140.646 82.0754 141.787 81.4747Z" fill="#FEF0FF"/>
<path d="M145.932 78.5113L142.748 80.5136C142.508 80.6538 142.508 81.0343 142.748 80.8741L145.932 78.8717C146.212 78.7316 146.212 78.3711 145.932 78.5113Z" fill="#FEF0FF"/>
<path d="M143.069 81.0341L140.085 82.7962C139.845 82.9364 139.845 83.2968 140.085 83.1566L143.069 81.4146C143.309 81.2744 143.309 80.914 143.069 81.0341Z" fill="#FEF0FF"/>
<path d="M145.131 79.8528C144.691 80.077 144.263 80.3243 143.85 80.5936C143.609 80.7338 143.609 81.1142 143.85 80.9541C144.263 80.6847 144.691 80.4374 145.131 80.2132C145.371 80.0931 145.371 79.7327 145.131 79.8528Z" fill="#FEF0FF"/>
<g style="mix-blend-mode:multiply" opacity="0.5">
<path d="M174.765 62.0121C174.765 60.4703 174.866 58.6882 175.006 56.7059C175.015 56.5558 174.98 56.4062 174.906 56.2753C174.832 56.1444 174.722 56.0376 174.589 55.9678C174.455 55.898 174.305 55.8683 174.155 55.882C174.005 55.8957 173.863 55.9523 173.744 56.0451L171.101 58.1876L164.894 60.8307C164.589 63.8374 164.469 66.8599 164.534 69.8812L174.765 63.9744C174.765 63.4338 174.765 62.8331 174.765 62.2123V62.0121Z" fill="#CB89F0"/>
</g>
<path d="M175.146 54.9038L164.894 60.9108V63.8942C164.89 64.6929 164.957 65.4902 165.094 66.277C165.264 67.111 165.526 67.9236 165.875 68.6998L176.147 62.6928C175.714 61.7449 175.417 60.7405 175.266 59.7094C175.186 59.112 175.146 58.51 175.146 57.9073V54.9038Z" fill="#F25A5A"/>
<path d="M166.236 62.4326L168.458 61.1311C168.698 61.011 168.698 60.6506 168.458 60.7707L166.236 62.0722C165.995 62.2124 165.995 62.5728 166.236 62.4326Z" fill="#FEF0FF"/>
<path d="M169.239 60.6906C170.12 60.23 171.001 59.6293 171.862 59.1488C172.102 59.0086 172.102 58.6482 171.862 58.7884C171.001 59.2489 170.12 59.8696 169.239 60.3302C169.019 60.4503 169.019 60.8107 169.239 60.6906Z" fill="#FEF0FF"/>
<path d="M173.744 57.647L172.643 58.3078C172.403 58.4479 172.403 58.8083 172.643 58.6682L173.744 58.0074C173.965 57.8673 173.965 57.4468 173.744 57.647Z" fill="#FEF0FF"/>
<path d="M169.159 61.5716C169.399 61.4314 169.399 61.071 169.159 61.2112C168.018 61.892 166.916 62.4726 165.775 63.2135C165.555 63.3537 165.535 63.7341 165.775 63.5739C166.916 62.833 168.018 62.2524 169.159 61.5716Z" fill="#FEF0FF"/>
<path d="M173.304 58.6883L170.12 60.6906C169.88 60.8308 169.88 61.1912 170.12 61.051L173.304 59.0487C173.544 58.9085 173.544 58.5481 173.304 58.6883Z" fill="#FEF0FF"/>
<path d="M170.44 61.2312L167.457 62.9732C167.217 63.1134 167.217 63.4738 167.457 63.3537L170.44 61.5916C170.681 61.4514 170.681 61.091 170.44 61.2312Z" fill="#FEF0FF"/>
<path d="M172.523 60.0299C172.081 60.2497 171.653 60.4972 171.241 60.7707C171.001 60.9309 171.001 61.2913 171.241 61.1311C171.653 60.8576 172.081 60.6101 172.523 60.3903C172.743 60.2701 172.743 59.9097 172.523 60.0299Z" fill="#FEF0FF"/>
<g style="mix-blend-mode:multiply" opacity="0.5">
<path d="M133.237 42.7897C133.237 41.5683 133.237 40.1467 133.437 38.5648C133.447 38.4426 133.42 38.3203 133.36 38.2133C133.3 38.1064 133.21 38.0196 133.1 37.9639C132.991 37.9082 132.868 37.8861 132.746 37.9004C132.624 37.9147 132.51 37.9647 132.416 38.0442L130.314 39.7462L125.368 41.7485C125.114 44.1424 125.021 46.5506 125.088 48.9569L133.237 44.2514V42.6896V42.7897Z" fill="#CB89F0"/>
</g>
<path d="M133.538 37.1231L125.368 41.8486V44.2314C125.354 44.9025 125.408 45.5733 125.528 46.2337C125.657 46.923 125.865 47.5949 126.149 48.236L134.338 43.5105C133.986 42.7563 133.749 41.9529 133.638 41.1278C133.564 40.6576 133.53 40.182 133.538 39.7061V37.1231Z" fill="#B3A0B5"/>
<path d="M126.429 43.1301C127.03 42.7897 127.631 42.4493 128.211 42.0889C128.412 41.9887 128.412 41.6884 128.211 41.8086L126.429 42.8498C126.189 42.9499 126.189 43.2502 126.429 43.1301Z" fill="#FEF0FF"/>
<path d="M128.832 41.7486C129.533 41.3681 130.234 40.8876 130.934 40.5071C131.115 40.407 131.115 40.1066 130.934 40.2268C130.234 40.5872 129.533 41.0878 128.832 41.4482C128.652 41.5483 128.652 41.8287 128.832 41.7486Z" fill="#FEF0FF"/>
<path d="M132.416 39.3057L131.535 39.8463C131.355 39.9464 131.355 40.2468 131.535 40.1267L132.416 39.606C132.596 39.4258 132.596 39.2056 132.416 39.3057Z" fill="#FEF0FF"/>
<path d="M128.772 42.4493C128.952 42.3291 128.952 42.0287 128.772 42.1489C127.871 42.7095 126.97 43.1701 126.069 43.7708C125.889 43.8909 125.889 44.1913 126.069 44.0711C126.97 43.4304 127.871 42.9899 128.772 42.4493Z" fill="#FEF0FF"/>
<path d="M132.076 40.1468L129.533 41.6886C129.353 41.7887 129.353 42.089 129.533 41.9689L132.076 40.4271C132.196 40.327 132.196 40.0266 132.076 40.1468Z" fill="#FEF0FF"/>
<path d="M129.793 42.169L127.41 43.5707C127.23 43.6708 127.23 43.9711 127.41 43.851L129.793 42.4494C129.973 42.3493 129.973 42.0489 129.793 42.169Z" fill="#FEF0FF"/>
<path d="M131.435 41.2079L130.414 41.8086C130.234 41.9287 130.234 42.209 130.414 42.0889L131.435 41.5082C131.635 41.4282 131.635 41.1078 131.435 41.2079Z" fill="#FEF0FF"/>
<g style="mix-blend-mode:multiply" opacity="0.5">
<path d="M132.196 86.5006C132.196 85.2792 132.196 83.8575 132.376 82.2756C132.386 82.1553 132.361 82.0346 132.304 81.9284C132.246 81.8221 132.159 81.735 132.053 81.6777C131.946 81.6203 131.826 81.5951 131.705 81.6053C131.585 81.6155 131.47 81.6606 131.375 81.735L129.273 83.437L124.187 85.4794C123.933 87.8732 123.839 90.2814 123.906 92.6878L132.056 87.9823V86.4205L132.196 86.5006Z" fill="#CB89F0"/>
</g>
<path d="M132.416 80.8339L124.187 85.4793V87.8421C124.175 88.5131 124.229 89.1837 124.347 89.8444C124.475 90.5337 124.684 91.2056 124.968 91.8467L133.137 87.1213C132.801 86.3624 132.572 85.5605 132.456 84.7385C132.383 84.2682 132.35 83.7927 132.356 83.3169L132.416 80.8339Z" fill="#B3A0B5"/>
<path d="M125.308 86.841L127.09 85.7998C127.27 85.6997 127.27 85.3993 127.09 85.5194L125.308 86.5607C125.128 86.6608 125.128 86.9411 125.308 86.841Z" fill="#FEF0FF"/>
<path d="M127.711 85.4793C128.412 85.1189 129.092 84.6384 129.713 84.2579C129.913 84.1578 129.913 83.8574 129.713 83.9575C129.012 84.338 128.332 84.8385 127.711 85.199C127.531 85.259 127.531 85.4793 127.711 85.4793Z" fill="#FEF0FF"/>
<path d="M131.295 83.0165L130.414 83.5371C130.214 83.6572 130.214 83.9576 130.414 83.8374L131.295 83.3169C131.475 83.1967 131.475 82.8963 131.295 83.0165Z" fill="#FEF0FF"/>
<path d="M127.651 86.1401C127.831 86.0399 127.831 85.7396 127.651 85.8598C126.73 86.4004 125.849 86.8609 124.948 87.4817C124.767 87.6018 124.747 87.9022 124.948 87.762C125.849 87.1613 126.73 86.7007 127.651 86.1401Z" fill="#FEF0FF"/>
<path d="M130.955 83.8575C130.094 84.3581 129.253 84.8787 128.412 85.3993C128.211 85.4994 128.211 85.7998 128.412 85.6796L130.955 84.1378C131.135 84.0176 131.135 83.7374 130.955 83.8575Z" fill="#FEF0FF"/>
<path d="M128.672 85.8798L126.289 87.2614C126.089 87.3815 126.089 87.6619 126.289 87.5617L128.672 86.1601C128.852 86.06 128.852 85.7597 128.672 85.8798Z" fill="#FEF0FF"/>
<path d="M130.314 84.9188C129.967 85.0924 129.626 85.2926 129.293 85.5195C129.112 85.6397 129.112 85.92 129.293 85.7999C129.473 85.6797 129.973 85.3794 130.314 85.1991C130.654 85.0189 130.494 84.8187 130.314 84.9188Z" fill="#FEF0FF"/>
<g style="mix-blend-mode:multiply" opacity="0.5">
<path d="M154.902 66.2571C154.902 65.0156 154.902 63.594 155.083 62.0322C155.093 61.9118 155.067 61.7911 155.01 61.6849C154.952 61.5787 154.865 61.4915 154.759 61.4341C154.653 61.3767 154.532 61.3516 154.412 61.3618C154.291 61.372 154.176 61.4171 154.081 61.4915L151.959 63.1935L147.033 65.296C146.779 67.6965 146.685 70.1113 146.753 72.5244L154.902 67.8189C154.902 67.3784 154.902 66.8978 154.902 66.3972V66.2571Z" fill="#CB89F0"/>
</g>
<path d="M155.203 60.5905L147.033 65.2959V67.6787C147.022 68.3497 147.075 69.0203 147.193 69.681C147.322 70.3703 147.53 71.0422 147.814 71.6833L155.984 66.9578C155.647 66.199 155.418 65.3971 155.303 64.5751C155.23 64.1048 155.197 63.6293 155.203 63.1534V60.5905Z" fill="#B3A0B5"/>
<path d="M148.094 66.5975L149.877 65.5562C150.057 65.4561 150.057 65.1558 149.877 65.2759L148.094 66.2971C147.914 66.4173 147.914 66.6976 148.094 66.5975Z" fill="#FEF0FF"/>
<path d="M150.497 65.1958C151.198 64.8354 151.879 64.3549 152.5 63.9744C152.7 63.8743 152.7 63.5739 152.5 63.674C151.799 64.0545 151.118 64.5551 150.497 64.9155C150.317 65.0156 150.317 65.2959 150.497 65.1958Z" fill="#FEF0FF"/>
<path d="M154.081 62.7729L153.2 63.2935C153 63.4137 153 63.694 153.2 63.5939L154.081 63.0532C154.222 62.9531 154.222 62.6528 154.081 62.7729Z" fill="#FEF0FF"/>
<path d="M150.437 65.8966C150.617 65.7965 150.617 65.4961 150.437 65.6162C149.516 66.1569 148.635 66.6175 147.734 67.2382C147.554 67.3583 147.534 67.6386 147.734 67.5185C148.635 66.9178 149.516 66.4572 150.437 65.8966Z" fill="#FEF0FF"/>
<path d="M153.741 63.5939L151.198 65.1357C150.998 65.2558 150.998 65.5361 151.198 65.436L153.741 63.8942C153.921 63.7741 153.921 63.4537 153.741 63.5939Z" fill="#FEF0FF"/>
<path d="M151.458 65.6163L149.076 67.0179C148.875 67.1381 148.875 67.4184 149.076 67.3183C149.856 66.8377 150.657 66.3772 151.458 65.9167C151.639 65.7965 151.639 65.4561 151.458 65.6163Z" fill="#FEF0FF"/>
<path d="M153.1 64.6751C152.76 64.8553 152.419 65.0355 152.079 65.2558C151.739 65.476 151.899 65.6762 152.079 65.5561C152.259 65.436 152.76 65.1356 153.1 64.9554C153.441 64.7752 153.28 64.575 153.1 64.6751Z" fill="#FEF0FF"/>
<g style="mix-blend-mode:multiply" opacity="0.5">
<path d="M169.139 51.0594C169.139 49.838 169.139 48.4164 169.339 46.8345C169.344 46.7139 169.315 46.5942 169.254 46.4895C169.194 46.3848 169.106 46.2993 168.999 46.2428C168.892 46.1863 168.771 46.1611 168.651 46.1701C168.531 46.1792 168.415 46.2221 168.318 46.2939L166.216 47.9959L161.27 50.1183C161.036 52.5136 160.942 54.9205 160.99 57.3267L169.139 52.6212C169.139 52.1807 169.139 51.7202 169.139 51.2196V51.0594Z" fill="#CB89F0"/>
</g>
<path d="M169.439 45.4327L161.27 50.1582V52.521C161.254 53.1931 161.315 53.8648 161.45 54.5233C161.562 55.2141 161.764 55.8873 162.051 56.5257L170.24 51.8001C169.887 51.0459 169.651 50.2425 169.539 49.4174C169.509 48.944 169.509 48.4691 169.539 47.9957L169.439 45.4327Z" fill="#B3A0B5"/>
<path d="M162.331 51.4397C162.932 51.0993 163.532 50.759 164.113 50.3985C164.313 50.3985 164.313 49.998 164.113 50.1182L162.331 51.1594C162.231 51.2194 162.231 51.4397 162.331 51.4397Z" fill="#FEF0FF"/>
<path d="M164.734 50.0181C165.435 49.6377 166.135 49.1571 166.836 48.7767C167.016 48.6765 167.016 48.3761 166.836 48.4763C166.135 48.8567 165.435 49.3573 164.734 49.7178C164.554 49.8179 164.554 50.0982 164.734 50.0181Z" fill="#FEF0FF"/>
<path d="M168.238 47.5753L167.357 48.1159C167.177 48.216 167.177 48.5164 167.357 48.3962L168.238 47.8756C168.498 47.7555 168.518 47.4351 168.238 47.5753Z" fill="#FEF0FF"/>
<path d="M164.674 50.699C164.854 50.5988 164.874 50.2985 164.674 50.4186C163.773 50.9592 162.872 51.4398 161.971 52.0405C161.79 52.1606 161.79 52.461 161.971 52.3208C162.872 51.7201 163.773 51.2596 164.674 50.699Z" fill="#FEF0FF"/>
<path d="M167.978 48.4163L165.435 49.9581C165.254 50.0582 165.254 50.3586 165.435 50.2384L167.978 48.6966C168.238 48.5965 168.238 48.2961 167.978 48.4163Z" fill="#FEF0FF"/>
<path d="M165.695 50.4387L163.312 51.8403C163.132 51.9405 163.132 52.2408 163.312 52.1206L165.695 50.719C165.895 50.6189 165.895 50.3185 165.695 50.4387Z" fill="#FEF0FF"/>
<path d="M167.357 49.4376C166.996 49.6178 166.676 49.818 166.316 50.0382C165.955 50.2585 166.135 50.4387 166.316 50.3186L167.357 49.7179C167.537 49.6779 167.537 49.4376 167.357 49.4376Z" fill="#FEF0FF"/>
<g style="mix-blend-mode:multiply" opacity="0.5">
<path d="M121.784 63.4538C121.784 62.2324 121.784 60.8107 121.984 59.2289C121.989 59.1082 121.959 58.9886 121.899 58.8839C121.839 58.7792 121.75 58.6936 121.644 58.6371C121.537 58.5806 121.416 58.5554 121.296 58.5645C121.175 58.5735 121.06 58.6164 120.963 58.6882L118.86 60.3902L113.915 62.5127C113.671 64.9073 113.577 67.3148 113.634 69.7211L121.784 65.0156V63.4538Z" fill="#CB89F0"/>
</g>
<path d="M122.184 57.687L114.015 62.4125V64.7753C114.003 65.4463 114.057 66.1169 114.175 66.7776C114.303 67.4669 114.512 68.1388 114.796 68.7799L122.985 64.0544C122.576 63.2372 122.305 62.3575 122.184 61.4514C122.121 60.9801 122.088 60.5053 122.084 60.0298L122.184 57.687Z" fill="#B3A0B5"/>
<path d="M114.976 63.6939L116.758 62.6528C116.958 62.5526 116.958 62.2523 116.758 62.3724L114.976 63.3936C114.796 63.4537 114.796 63.7941 114.976 63.6939Z" fill="#FEF0FF"/>
<path d="M117.379 62.2923C118.08 61.9319 118.78 61.4513 119.381 61.0709C119.561 60.9707 119.561 60.6704 119.381 60.7705C118.68 61.151 117.979 61.6515 117.379 62.012C117.199 62.1121 117.199 62.3924 117.379 62.2923Z" fill="#FEF0FF"/>
<path d="M120.963 59.8696L120.082 60.3902C119.902 60.5104 119.902 60.7907 120.082 60.6906L120.963 60.1499C121.143 60.0498 121.143 59.7495 120.963 59.8696Z" fill="#FEF0FF"/>
<path d="M117.319 62.9932C117.499 62.9932 117.499 62.5928 117.319 62.7129C116.418 63.2535 115.517 63.7141 114.616 64.3348C114.435 64.4549 114.435 64.7553 114.616 64.6151C115.517 64.0144 116.418 63.5539 117.319 62.9932Z" fill="#FEF0FF"/>
<path d="M120.622 60.7106L118.08 62.2324C117.899 62.3525 117.899 62.6528 118.08 62.5327L120.622 60.9909C120.803 60.8707 120.803 60.5904 120.622 60.7106Z" fill="#FEF0FF"/>
<path d="M118.34 62.733L115.957 64.1146C115.777 64.2347 115.777 64.5151 115.957 64.415L118.34 63.0133C118.52 62.9132 118.52 62.6129 118.34 62.733Z" fill="#FEF0FF"/>
<path d="M120.002 61.7717C119.641 61.9519 119.321 62.1321 118.961 62.3524C118.6 62.5726 118.78 62.7729 118.961 62.6527C119.141 62.5326 119.641 62.2322 120.002 62.052C120.362 61.8718 120.182 61.6716 120.002 61.7717Z" fill="#FEF0FF"/>
<g style="mix-blend-mode:multiply" opacity="0.5">
<path d="M160.108 31.4164C160.108 30.1949 160.108 28.7733 160.309 27.1915C160.319 27.0711 160.294 26.9504 160.236 26.8441C160.179 26.7379 160.091 26.6508 159.985 26.5934C159.879 26.536 159.758 26.5109 159.638 26.5211C159.517 26.5313 159.403 26.5764 159.308 26.6508L157.185 28.3528L152.219 30.3951C151.985 32.7904 151.892 35.1973 151.939 37.6035L160.088 32.8981C160.088 32.4575 160.088 31.997 160.088 31.4965L160.108 31.4164Z" fill="#CB89F0"/>
</g>
<path d="M160.429 25.6698L152.219 30.3953V32.7581C152.215 33.4298 152.275 34.1003 152.399 34.7604C152.508 35.4544 152.717 36.129 153.02 36.7627L161.19 32.0372C160.855 31.2763 160.619 30.4754 160.489 29.6544C160.458 29.181 160.458 28.7062 160.489 28.2328L160.429 25.6698Z" fill="#B3A0B5"/>
<path d="M153.32 31.6769L155.103 30.6356C155.283 30.5355 155.283 30.2352 155.103 30.3553C154.502 30.6957 153.901 31.0361 153.32 31.3965C153.12 31.4165 153.12 31.777 153.32 31.6769Z" fill="#FEF0FF"/>
<path d="M155.723 30.2951C156.424 29.9147 157.105 29.4341 157.726 29.0537C157.906 28.9536 157.906 28.6532 157.726 28.7534C157.025 29.1338 156.344 29.6344 155.723 29.9948C155.523 30.0949 155.523 30.3752 155.723 30.2951Z" fill="#FEF0FF"/>
<path d="M159.287 27.8523L158.426 28.3929C158.226 28.493 158.226 28.7934 158.426 28.6733L159.287 28.1527C159.488 28.0325 159.488 27.7522 159.287 27.8523Z" fill="#FEF0FF"/>
<path d="M155.643 30.976C155.843 30.976 155.843 30.5756 155.643 30.6957C154.742 31.2363 153.861 31.7169 152.96 32.3176C152.76 32.4377 152.76 32.7381 152.96 32.6179C153.861 31.9972 154.742 31.5366 155.643 30.976Z" fill="#FEF0FF"/>
<path d="M158.947 28.6935L156.404 30.2352C156.224 30.2352 156.224 30.6357 156.404 30.5155L158.947 28.9737C159.147 28.8736 159.147 28.5733 158.947 28.6935Z" fill="#FEF0FF"/>
<path d="M156.664 30.7157L154.302 32.1173C154.101 32.1173 154.101 32.5178 154.302 32.3976L156.664 30.996C156.865 30.8959 156.865 30.5955 156.664 30.7157Z" fill="#FEF0FF"/>
<path d="M158.326 29.7546C157.975 29.9354 157.634 30.136 157.305 30.3553C157.105 30.4754 157.105 30.7557 157.305 30.6356C157.505 30.5154 157.966 30.2351 158.326 30.0349C158.687 29.8347 158.507 29.6545 158.326 29.7546Z" fill="#FEF0FF"/>
<path d="M135.614 66.1019L132.452 60.2997L134.724 59.1557L140.613 63.2157L139.921 63.7832L138.091 62.9364L135.866 64.4729L136.606 65.6968L135.614 66.1019ZM133.759 60.9862L135.471 63.8192L137.512 62.6685L133.825 60.9483L133.759 60.9862Z" fill="#360854"/>
<path d="M141.994 59.5069C141.922 59.5955 141.853 59.6587 141.787 59.6966L143.374 61.6634L142.548 62.2523L137.358 57.8729C137.589 57.609 137.934 57.293 138.394 56.9247C138.848 56.5506 139.316 56.2246 139.797 55.9467C140.563 55.5046 141.291 55.2663 141.981 55.2318C142.343 55.4331 142.634 55.6432 142.853 55.8621C143.462 56.4714 143.538 57.2256 143.079 58.1246L146.894 59.5753L146.554 60.2193L141.994 59.5069ZM141.329 57.064C140.985 56.7209 140.533 56.5621 139.972 56.5875C139.826 56.6717 139.692 56.791 139.571 56.9453L141.391 59.1972C141.653 58.8035 141.77 58.4141 141.742 58.0292C141.721 57.6401 141.583 57.3184 141.329 57.064Z" fill="#360854"/>
<path d="M142.963 54.3848L147.438 51.6473L147.904 52.148L146.752 52.9808L150.463 57.5709L149.56 58.204L144.921 54.2899L143.772 55.1075L142.963 54.3848Z" fill="#360854"/>
<defs>
<filter id="filter0_bd_2_2237" x="13.7546" y="49.9333" width="278.905" height="195.572" filterUnits="userSpaceOnUse" color-interpolation-filters="sRGB">
<feFlood flood-opacity="0" result="BackgroundImageFix"/>
<feGaussianBlur in="BackgroundImage" stdDeviation="6"/>
<feComposite in2="SourceAlpha" operator="in" result="effect1_backgroundBlur_2_2237"/>
<feColorMatrix in="SourceAlpha" type="matrix" values="0 0 0 0 0 0 0 0 0 0 0 0 0 0 0 0 0 0 127 0" result="hardAlpha"/>
<feOffset dy="4"/>
<feGaussianBlur stdDeviation="2"/>
<feComposite in2="hardAlpha" operator="out"/>
<feColorMatrix type="matrix" values="0 0 0 0 0 0 0 0 0 0 0 0 0 0 0 0 0 0 0.25 0"/>
<feBlend mode="normal" in2="effect1_backgroundBlur_2_2237" result="effect2_dropShadow_2_2237"/>
<feBlend mode="normal" in="SourceGraphic" in2="effect2_dropShadow_2_2237" result="shape"/>
</filter>
<filter id="filter1_bd_2_2237" x="-8" y="71.0499" width="279.797" height="195.572" filterUnits="userSpaceOnUse" color-interpolation-filters="sRGB">
<feFlood flood-opacity="0" result="BackgroundImageFix"/>
<feGaussianBlur in="BackgroundImage" stdDeviation="6"/>
<feComposite in2="SourceAlpha" operator="in" result="effect1_backgroundBlur_2_2237"/>
<feColorMatrix in="SourceAlpha" type="matrix" values="0 0 0 0 0 0 0 0 0 0 0 0 0 0 0 0 0 0 127 0" result="hardAlpha"/>
<feOffset dy="4"/>
<feGaussianBlur stdDeviation="2"/>
<feComposite in2="hardAlpha" operator="out"/>
<feColorMatrix type="matrix" values="0 0 0 0 0 0 0 0 0 0 0 0 0 0 0 0 0 0 0.25 0"/>
<feBlend mode="normal" in2="effect1_backgroundBlur_2_2237" result="effect2_dropShadow_2_2237"/>
<feBlend mode="normal" in="SourceGraphic" in2="effect2_dropShadow_2_2237" result="shape"/>
</filter>
<linearGradient id="paint0_linear_2_2237" x1="-63.5386" y1="-124.173" x2="201.824" y2="301.457" gradientUnits="userSpaceOnUse">
<stop stop-color="#A900FD"/>
<stop offset="1" stop-color="#A900FD" stop-opacity="0"/>
</linearGradient>
<linearGradient id="paint1_linear_2_2237" x1="259.797" y1="254.622" x2="-14.0905" y2="217.871" gradientUnits="userSpaceOnUse">
<stop stop-color="#289CFF"/>
<stop offset="1" stop-color="#7F34CD"/>
</linearGradient>
<linearGradient id="paint2_linear_2_2237" x1="5508.69" y1="4999.12" x2="5707.73" y2="4999.12" gradientUnits="userSpaceOnUse">
<stop stop-color="#F5ABFF"/>
<stop offset="0.46" stop-color="#FFC5FF"/>
<stop offset="1" stop-color="#FFDEFF"/>
</linearGradient>
<linearGradient id="paint3_linear_2_2237" x1="6445.09" y1="4666.5" x2="6644.12" y2="4666.5" gradientUnits="userSpaceOnUse">
<stop stop-color="#F5ABFF"/>
<stop offset="0.46" stop-color="#FFC5FF"/>
<stop offset="1" stop-color="#FFDEFF"/>
</linearGradient>
<linearGradient id="paint4_linear_2_2237" x1="1638.88" y1="995.984" x2="1649.33" y2="995.984" gradientUnits="userSpaceOnUse">
<stop stop-color="#F5ABFF"/>
<stop offset="0.46" stop-color="#FFC5FF"/>
<stop offset="1" stop-color="#FFDEFF"/>
</linearGradient>
<linearGradient id="paint5_linear_2_2237" x1="24141.3" y1="17771.7" x2="27928.4" y2="17771.7" gradientUnits="userSpaceOnUse">
<stop stop-color="#F5ABFF"/>
<stop offset="0.46" stop-color="#FFC5FF"/>
<stop offset="1" stop-color="#FFDEFF"/>
</linearGradient>
<linearGradient id="paint6_linear_2_2237" x1="16013.7" y1="12418" x2="17563.4" y2="12418" gradientUnits="userSpaceOnUse">
<stop stop-color="#F5ABFF"/>
<stop offset="0.46" stop-color="#FFC5FF"/>
<stop offset="1" stop-color="#FFDEFF"/>
</linearGradient>
<linearGradient id="paint7_linear_2_2237" x1="114.996" y1="91.146" x2="170.701" y2="91.146" gradientUnits="userSpaceOnUse">
<stop stop-color="#FFC5FF"/>
<stop offset="1" stop-color="#FFDEFF"/>
</linearGradient>
<linearGradient id="paint8_linear_2_2237" x1="1357.76" y1="1103.25" x2="1368.26" y2="1103.25" gradientUnits="userSpaceOnUse">
<stop stop-color="#F5ABFF"/>
<stop offset="0.46" stop-color="#FFC5FF"/>
<stop offset="1" stop-color="#FFDEFF"/>
</linearGradient>
</defs>
</svg>
