<svg width="261" height="223" viewBox="0 0 261 223" fill="none" xmlns="http://www.w3.org/2000/svg">
<g filter="url(#filter0_bd_2_2704)">
<path d="M23.8219 38.7155C23.3746 29.5826 30.6589 21.9329 39.8028 21.9329H240.488C249.808 21.9329 257.156 29.8675 256.441 39.1603L245.702 178.732C245.06 187.068 238.109 193.505 229.749 193.505H46.6384C38.1061 193.505 31.075 186.81 30.6576 178.288L23.8219 38.7155Z" fill="url(#paint0_linear_2_2704)" shape-rendering="crispEdges"/>
<path d="M39.8028 22.4329H240.488C249.517 22.4329 256.635 30.1196 255.942 39.122L245.203 178.694C244.582 186.769 237.848 193.005 229.749 193.005H46.6384C38.3728 193.005 31.5613 186.519 31.157 178.263L24.3213 38.6911C23.888 29.8435 30.9446 22.4329 39.8028 22.4329Z" stroke="#A900FD" stroke-opacity="0.3" shape-rendering="crispEdges"/>
</g>
<path d="M83.556 169.777C83.332 169.945 83.0147 170.132 82.604 170.337C82.212 170.524 81.7453 170.701 81.204 170.869C80.6627 171.037 80.056 171.177 79.384 171.289C78.7307 171.401 78.0307 171.457 77.284 171.457C75.6973 171.457 74.2693 171.186 73 170.645C71.7493 170.085 70.6853 169.338 69.808 168.405C68.9307 167.472 68.2587 166.389 67.792 165.157C67.3253 163.925 67.092 162.618 67.092 161.237C67.092 159.706 67.3627 158.297 67.904 157.009C68.464 155.721 69.22 154.61 70.172 153.677C71.124 152.744 72.2347 152.016 73.504 151.493C74.792 150.97 76.1547 150.709 77.592 150.709C78.1333 150.709 78.684 150.746 79.244 150.821C79.804 150.896 80.3267 150.998 80.812 151.129C81.316 151.26 81.7547 151.418 82.128 151.605C82.52 151.773 82.8187 151.95 83.024 152.137C82.8747 152.361 82.7533 152.548 82.66 152.697C82.5853 152.846 82.5013 153.005 82.408 153.173C82.3147 153.322 82.212 153.5 82.1 153.705C81.988 153.91 81.8387 154.181 81.652 154.517C81.4093 154.349 81.12 154.209 80.784 154.097C80.4667 153.985 80.1307 153.892 79.776 153.817C79.4213 153.742 79.0573 153.686 78.684 153.649C78.3293 153.612 78.0027 153.593 77.704 153.593C76.6213 153.593 75.6133 153.798 74.68 154.209C73.7653 154.601 72.972 155.142 72.3 155.833C71.628 156.505 71.096 157.289 70.704 158.185C70.3307 159.081 70.144 160.014 70.144 160.985C70.144 161.937 70.3213 162.852 70.676 163.729C71.0493 164.606 71.5533 165.39 72.188 166.081C72.8413 166.772 73.616 167.322 74.512 167.733C75.4267 168.144 76.4253 168.349 77.508 168.349C78.0867 168.349 78.6467 168.293 79.188 168.181C79.7293 168.069 80.2147 167.938 80.644 167.789C81.092 167.64 81.456 167.49 81.736 167.341C82.0347 167.192 82.212 167.08 82.268 167.005L83.556 169.777ZM84.4227 165.353C84.4227 164.513 84.5814 163.72 84.8987 162.973C85.2347 162.226 85.6827 161.582 86.2427 161.041C86.8027 160.481 87.456 160.042 88.2027 159.725C88.968 159.389 89.7894 159.221 90.6667 159.221C91.544 159.221 92.356 159.389 93.1027 159.725C93.868 160.042 94.5214 160.481 95.0627 161.041C95.6227 161.582 96.052 162.226 96.3507 162.973C96.668 163.72 96.8267 164.513 96.8267 165.353C96.8267 166.193 96.668 166.986 96.3507 167.733C96.052 168.48 95.6227 169.133 95.0627 169.693C94.5214 170.253 93.868 170.701 93.1027 171.037C92.356 171.354 91.5347 171.513 90.6387 171.513C89.78 171.513 88.968 171.364 88.2027 171.065C87.456 170.766 86.8027 170.346 86.2427 169.805C85.6827 169.264 85.2347 168.62 84.8987 167.873C84.5814 167.108 84.4227 166.268 84.4227 165.353ZM86.8027 165.381C86.8027 165.904 86.896 166.398 87.0827 166.865C87.288 167.313 87.5587 167.714 87.8947 168.069C88.2494 168.405 88.6507 168.676 89.0987 168.881C89.5654 169.068 90.06 169.161 90.5827 169.161C91.1054 169.161 91.6 169.068 92.0667 168.881C92.5334 168.676 92.9347 168.405 93.2707 168.069C93.6254 167.714 93.9054 167.313 94.1107 166.865C94.316 166.398 94.4187 165.904 94.4187 165.381C94.4187 164.858 94.316 164.364 94.1107 163.897C93.9054 163.43 93.6254 163.029 93.2707 162.693C92.9347 162.338 92.5334 162.068 92.0667 161.881C91.6 161.676 91.1054 161.573 90.5827 161.573C90.06 161.573 89.5654 161.676 89.0987 161.881C88.6507 162.068 88.2494 162.338 87.8947 162.693C87.5587 163.029 87.288 163.43 87.0827 163.897C86.896 164.364 86.8027 164.858 86.8027 165.381ZM99.3714 159.529H101.471C101.509 160.108 101.537 160.64 101.555 161.125C101.593 161.592 101.63 162.058 101.667 162.525C102.097 161.517 102.657 160.724 103.347 160.145C104.057 159.548 104.999 159.24 106.175 159.221C107.314 159.221 108.229 159.51 108.919 160.089C109.61 160.668 110.011 161.424 110.123 162.357C110.59 161.405 111.159 160.649 111.831 160.089C112.522 159.529 113.446 159.24 114.603 159.221C115.817 159.221 116.769 159.548 117.459 160.201C118.169 160.854 118.542 161.694 118.579 162.721V171.233H116.171V163.813C116.134 163.216 115.929 162.712 115.555 162.301C115.201 161.872 114.613 161.638 113.791 161.601C112.671 161.601 111.794 161.965 111.159 162.693C110.525 163.402 110.189 164.317 110.151 165.437V171.233H107.771V163.813C107.734 163.216 107.519 162.712 107.127 162.301C106.754 161.872 106.175 161.638 105.391 161.601C104.831 161.601 104.327 161.704 103.879 161.909C103.431 162.096 103.049 162.357 102.731 162.693C102.414 163.029 102.171 163.43 102.003 163.897C101.835 164.364 101.751 164.877 101.751 165.437V171.233H99.3714V159.529ZM121.513 155.049C121.513 154.601 121.671 154.228 121.989 153.929C122.325 153.63 122.679 153.481 123.053 153.481C123.426 153.481 123.771 153.63 124.089 153.929C124.406 154.228 124.565 154.601 124.565 155.049C124.565 155.497 124.406 155.87 124.089 156.169C123.771 156.449 123.426 156.589 123.053 156.589C122.679 156.589 122.325 156.449 121.989 156.169C121.671 155.87 121.513 155.497 121.513 155.049ZM124.201 171.233H121.821V159.529H124.201V171.233ZM127.563 159.529H129.663C129.7 160.108 129.728 160.64 129.747 161.125C129.784 161.592 129.821 162.058 129.859 162.525C130.288 161.517 130.895 160.714 131.679 160.117C132.481 159.52 133.461 159.221 134.619 159.221C135.795 159.221 136.737 159.548 137.447 160.201C138.156 160.854 138.529 161.694 138.567 162.721V171.233H136.159V163.813C136.121 163.216 135.916 162.712 135.543 162.301C135.169 161.872 134.581 161.638 133.779 161.601C133.219 161.601 132.705 161.704 132.239 161.909C131.772 162.096 131.371 162.357 131.035 162.693C130.699 163.029 130.428 163.43 130.223 163.897C130.036 164.364 129.943 164.877 129.943 165.437V171.233H127.563V159.529ZM141.025 165.409C141.025 164.532 141.184 163.72 141.501 162.973C141.818 162.208 142.248 161.554 142.789 161.013C143.33 160.453 143.965 160.014 144.693 159.697C145.421 159.38 146.196 159.221 147.017 159.221C147.652 159.221 148.212 159.305 148.697 159.473C149.201 159.641 149.621 159.837 149.957 160.061C150.293 160.285 150.554 160.509 150.741 160.733C150.946 160.938 151.077 161.088 151.133 161.181C151.133 160.92 151.152 160.649 151.189 160.369C151.226 160.07 151.245 159.79 151.245 159.529H153.541V170.701C153.541 172.642 152.972 174.154 151.833 175.237C150.694 176.32 149.154 176.861 147.213 176.861C146.541 176.861 145.934 176.786 145.393 176.637C144.87 176.506 144.385 176.329 143.937 176.105C143.508 175.881 143.106 175.62 142.733 175.321C142.378 175.022 142.024 174.714 141.669 174.397L143.209 172.773C143.788 173.314 144.376 173.744 144.973 174.061C145.589 174.378 146.317 174.537 147.157 174.537C148.408 174.537 149.378 174.238 150.069 173.641C150.76 173.044 151.114 172.213 151.133 171.149V170.337C151.133 170.188 151.152 170.029 151.189 169.861C151.226 169.674 151.245 169.534 151.245 169.441C151.077 169.665 150.862 169.908 150.601 170.169C150.358 170.412 150.069 170.636 149.733 170.841C149.397 171.028 149.005 171.186 148.557 171.317C148.109 171.448 147.605 171.513 147.045 171.513C146.168 171.513 145.365 171.354 144.637 171.037C143.909 170.72 143.274 170.29 142.733 169.749C142.192 169.189 141.772 168.545 141.473 167.817C141.174 167.07 141.025 166.268 141.025 165.409ZM143.433 165.353C143.433 165.894 143.526 166.398 143.713 166.865C143.918 167.332 144.189 167.733 144.525 168.069C144.861 168.405 145.262 168.676 145.729 168.881C146.196 169.068 146.709 169.161 147.269 169.161C147.829 169.161 148.342 169.068 148.809 168.881C149.294 168.676 149.705 168.405 150.041 168.069C150.396 167.714 150.666 167.313 150.853 166.865C151.04 166.398 151.133 165.894 151.133 165.353C151.133 164.812 151.04 164.317 150.853 163.869C150.666 163.402 150.396 163.001 150.041 162.665C149.705 162.329 149.294 162.068 148.809 161.881C148.342 161.676 147.829 161.573 147.269 161.573C146.709 161.573 146.196 161.676 145.729 161.881C145.262 162.068 144.861 162.329 144.525 162.665C144.189 163.001 143.918 163.402 143.713 163.869C143.526 164.317 143.433 164.812 143.433 165.353ZM169.88 160.565L168.62 162.245C168.601 162.226 168.536 162.18 168.424 162.105C168.312 162.03 168.162 161.956 167.976 161.881C167.808 161.806 167.602 161.741 167.36 161.685C167.136 161.61 166.902 161.573 166.66 161.573C166.342 161.573 166.025 161.648 165.708 161.797C165.409 161.946 165.26 162.226 165.26 162.637C165.26 162.992 165.381 163.281 165.624 163.505C165.885 163.729 166.202 163.934 166.576 164.121C166.949 164.289 167.35 164.466 167.78 164.653C168.228 164.84 168.638 165.073 169.012 165.353C169.385 165.614 169.693 165.95 169.936 166.361C170.197 166.753 170.328 167.257 170.328 167.873C170.328 168.918 169.964 169.786 169.236 170.477C168.526 171.149 167.546 171.485 166.296 171.485C165.568 171.485 164.849 171.364 164.14 171.121C163.449 170.86 162.889 170.486 162.46 170.001C162.59 169.87 162.73 169.702 162.88 169.497C163.048 169.292 163.206 169.096 163.356 168.909C163.524 168.722 163.654 168.573 163.748 168.461C163.86 168.33 163.925 168.265 163.944 168.265C163.944 168.284 164.009 168.34 164.14 168.433C164.289 168.526 164.476 168.629 164.7 168.741C164.924 168.834 165.176 168.928 165.456 169.021C165.736 169.096 166.016 169.133 166.296 169.133C166.744 169.133 167.126 169.021 167.444 168.797C167.761 168.573 167.92 168.274 167.92 167.901C167.92 167.565 167.789 167.304 167.528 167.117C167.285 166.912 166.977 166.725 166.604 166.557C166.23 166.389 165.82 166.221 165.372 166.053C164.924 165.866 164.513 165.633 164.14 165.353C163.766 165.073 163.449 164.728 163.188 164.317C162.945 163.888 162.824 163.337 162.824 162.665C162.824 162.03 162.936 161.498 163.16 161.069C163.402 160.64 163.701 160.294 164.056 160.033C164.429 159.753 164.84 159.557 165.288 159.445C165.736 159.314 166.165 159.249 166.576 159.249C167.117 159.249 167.696 159.361 168.312 159.585C168.928 159.809 169.45 160.136 169.88 160.565ZM172.059 165.353C172.059 164.513 172.218 163.72 172.535 162.973C172.871 162.226 173.319 161.582 173.879 161.041C174.439 160.481 175.093 160.042 175.839 159.725C176.605 159.389 177.426 159.221 178.303 159.221C179.181 159.221 179.993 159.389 180.739 159.725C181.505 160.042 182.158 160.481 182.699 161.041C183.259 161.582 183.689 162.226 183.987 162.973C184.305 163.72 184.463 164.513 184.463 165.353C184.463 166.193 184.305 166.986 183.987 167.733C183.689 168.48 183.259 169.133 182.699 169.693C182.158 170.253 181.505 170.701 180.739 171.037C179.993 171.354 179.171 171.513 178.275 171.513C177.417 171.513 176.605 171.364 175.839 171.065C175.093 170.766 174.439 170.346 173.879 169.805C173.319 169.264 172.871 168.62 172.535 167.873C172.218 167.108 172.059 166.268 172.059 165.353ZM174.439 165.381C174.439 165.904 174.533 166.398 174.719 166.865C174.925 167.313 175.195 167.714 175.531 168.069C175.886 168.405 176.287 168.676 176.735 168.881C177.202 169.068 177.697 169.161 178.219 169.161C178.742 169.161 179.237 169.068 179.703 168.881C180.17 168.676 180.571 168.405 180.907 168.069C181.262 167.714 181.542 167.313 181.747 166.865C181.953 166.398 182.055 165.904 182.055 165.381C182.055 164.858 181.953 164.364 181.747 163.897C181.542 163.43 181.262 163.029 180.907 162.693C180.571 162.338 180.17 162.068 179.703 161.881C179.237 161.676 178.742 161.573 178.219 161.573C177.697 161.573 177.202 161.676 176.735 161.881C176.287 162.068 175.886 162.338 175.531 162.693C175.195 163.029 174.925 163.43 174.719 163.897C174.533 164.364 174.439 164.858 174.439 165.381ZM186.196 165.353C186.196 164.513 186.355 163.72 186.672 162.973C187.008 162.226 187.456 161.582 188.016 161.041C188.576 160.481 189.229 160.042 189.976 159.725C190.741 159.389 191.563 159.221 192.44 159.221C193.317 159.221 194.129 159.389 194.876 159.725C195.641 160.042 196.295 160.481 196.836 161.041C197.396 161.582 197.825 162.226 198.124 162.973C198.441 163.72 198.6 164.513 198.6 165.353C198.6 166.193 198.441 166.986 198.124 167.733C197.825 168.48 197.396 169.133 196.836 169.693C196.295 170.253 195.641 170.701 194.876 171.037C194.129 171.354 193.308 171.513 192.412 171.513C191.553 171.513 190.741 171.364 189.976 171.065C189.229 170.766 188.576 170.346 188.016 169.805C187.456 169.264 187.008 168.62 186.672 167.873C186.355 167.108 186.196 166.268 186.196 165.353ZM188.576 165.381C188.576 165.904 188.669 166.398 188.856 166.865C189.061 167.313 189.332 167.714 189.668 168.069C190.023 168.405 190.424 168.676 190.872 168.881C191.339 169.068 191.833 169.161 192.356 169.161C192.879 169.161 193.373 169.068 193.84 168.881C194.307 168.676 194.708 168.405 195.044 168.069C195.399 167.714 195.679 167.313 195.884 166.865C196.089 166.398 196.192 165.904 196.192 165.381C196.192 164.858 196.089 164.364 195.884 163.897C195.679 163.43 195.399 163.029 195.044 162.693C194.708 162.338 194.307 162.068 193.84 161.881C193.373 161.676 192.879 161.573 192.356 161.573C191.833 161.573 191.339 161.676 190.872 161.881C190.424 162.068 190.023 162.338 189.668 162.693C189.332 163.029 189.061 163.43 188.856 163.897C188.669 164.364 188.576 164.858 188.576 165.381ZM201.145 159.529H203.245C203.282 160.108 203.31 160.64 203.329 161.125C203.366 161.592 203.404 162.058 203.441 162.525C203.87 161.517 204.477 160.714 205.261 160.117C206.064 159.52 207.044 159.221 208.201 159.221C209.377 159.221 210.32 159.548 211.029 160.201C211.738 160.854 212.112 161.694 212.149 162.721V171.233H209.741V163.813C209.704 163.216 209.498 162.712 209.125 162.301C208.752 161.872 208.164 161.638 207.361 161.601C206.801 161.601 206.288 161.704 205.821 161.909C205.354 162.096 204.953 162.357 204.617 162.693C204.281 163.029 204.01 163.43 203.805 163.897C203.618 164.364 203.525 164.877 203.525 165.437V171.233H201.145V159.529Z" fill="white"/>
<g filter="url(#filter1_bd_2_2704)">
<path fill-rule="evenodd" clip-rule="evenodd" d="M53 43.0494H20.579C11.4718 43.0494 4.20133 50.6404 4.59392 59.7391L10.6161 199.311C10.9854 207.872 18.0329 214.622 26.6012 214.622H209.794C218.083 214.622 225 208.291 225.731 200.034L238.098 60.4615C238.927 51.1043 231.554 43.0494 222.16 43.0494H188V47.0494H222.16C229.205 47.0494 234.735 53.0905 234.113 60.1085L221.747 199.681C221.198 205.873 216.011 210.622 209.794 210.622H26.6012C20.175 210.622 14.8894 205.559 14.6123 199.139L8.5902 59.5667C8.29576 52.7427 13.7486 47.0494 20.579 47.0494H53V43.0494Z" fill="url(#paint1_linear_2_2704)"/>
</g>
<g style="mix-blend-mode:multiply" opacity="0.7">
<path d="M126.653 79.7052C143.512 74.0977 147.311 79.7052 163.88 80.5553L162.233 75.4182C162.233 75.4182 181.027 77.01 195.01 76.6302C195.853 75.7339 196.912 75.0678 198.085 74.6947L201.956 73.3923L214.129 69.3043C219.706 67.3691 225.772 67.3691 231.349 69.3043C236.016 70.7514 244.011 75.0926 244.554 82.1471C244.554 86.3436 241.28 88.9122 237.427 90.4859C236.649 90.8115 220.695 96.1295 219.881 96.4008C218.234 96.9177 216.501 97.1081 214.78 96.9615C205.591 100.254 193.074 107.543 190.289 116.859C190.306 116.69 190.306 116.521 190.289 116.352C189.619 125.397 181.932 127.839 176.939 129.503C179.598 128.58 169.252 133.971 151.778 128.146C132.297 121.652 116.506 105.861 116.506 92.8736C116.56 81.6588 128.354 79.1263 126.653 79.7052Z" fill="#52017B"/>
</g>
<path d="M151.109 57.3296L160.587 62.7562L163.699 78.4931L164.241 89.0025L157.006 84.7879C156.911 84.7357 156.83 84.6611 156.771 84.5708C156.644 84.5708 156.481 84.2995 156.445 83.8293C154.944 66.4101 152.665 59.6993 151.019 57.1488L151.109 57.3296Z" fill="url(#paint2_linear_2_2704)"/>
<path d="M151.091 44.8125L158.326 49.009L159.755 62.3402L151.091 57.3297C151.037 57.2946 150.994 57.246 150.966 57.1889C150.937 57.1317 150.924 57.0679 150.928 57.0041V44.704L151.091 44.8125Z" fill="#FFBBFA"/>
<path d="M170.934 41.7917C171.061 41.7917 171.115 42.045 171.097 42.3163C171.079 42.5877 171.097 48.9005 171.097 50.6913C171.094 52.7726 171.324 54.8476 171.784 56.8775C172.49 59.6812 173.702 62.3041 174.66 64.9992C175.783 67.9978 176.607 71.0999 177.12 74.2605C177.12 74.2605 177.97 79.687 177.337 81.1522C175.89 84.4805 166.882 90.3592 164.205 89.075C164.094 89.0051 164.001 88.9094 163.935 88.796C163.869 88.6826 163.831 88.5549 163.825 88.4237C162.143 66.9709 158.507 61.7976 158.399 61.5262V49.0091L170.934 41.7917Z" fill="url(#paint3_linear_2_2704)"/>
<path style="mix-blend-mode:screen" opacity="0.3" d="M170.21 44.722C170.21 45.934 170.21 48.81 170.21 51.6861C170.096 54.7729 170.613 57.8505 171.73 60.7303C174.099 67.1517 176.668 73.1028 176.686 81.0437C176.849 81.4235 174.136 84.0463 170.88 85.9456C169.418 86.9016 167.762 87.5196 166.032 87.7545C164.332 66.0483 160.606 60.6218 160.606 60.5314C160.606 56.8232 160.606 52.6448 160.606 50.1486L170.21 44.722Z" fill="url(#paint4_linear_2_2704)"/>
<path d="M154.184 57.1852C154.507 58.2692 155.241 59.1843 156.228 59.7357L152.755 57.7278C152.266 57.4568 151.836 57.092 151.488 56.6543C151.141 56.2167 150.883 55.7148 150.729 55.1774L154.184 57.1852Z" fill="#7717C1"/>
<path d="M152.755 48.9005L156.228 50.9265C156.33 52.0538 156.201 53.19 155.85 54.266C155.499 55.342 154.932 56.3352 154.184 57.185L150.729 55.1772C151.873 53.2661 152.566 51.1195 152.755 48.9005V48.9005Z" fill="#8821D8"/>
<path d="M156.228 50.9266V59.7357C155.241 59.1843 154.507 58.2692 154.184 57.1852C155.39 55.3085 156.094 53.1535 156.228 50.9266Z" fill="#6014A3"/>
<path d="M175.8 2.34083C179.388 4.48336 182.385 7.48854 184.517 11.0834C186.65 14.6782 187.85 18.7489 188.009 22.9255C188.133 25.5282 187.592 28.1195 186.437 30.4551C185.282 32.7907 183.551 34.7936 181.407 36.2748L160.569 2.0514C162.905 0.742128 165.547 0.0788056 168.224 0.129673C170.901 0.180541 173.516 0.943769 175.8 2.34083V2.34083Z" fill="#7717C1"/>
<path d="M160.569 2.05141C163.102 0.586245 166.575 0.749043 170.446 2.90157C178.296 7.27897 184.772 18.2225 184.916 27.321C184.916 31.9516 183.379 35.2256 180.756 36.727L160.135 48.7015L139.985 14.0079L160.569 2.05141Z" fill="#8821D8"/>
<path d="M150.223 47.8514C142.372 43.474 135.915 32.5305 135.752 23.432C135.661 17.2458 138.538 13.4834 142.843 13.0854C145.28 12.9891 147.691 13.6187 149.77 14.8943C152.296 16.3652 154.548 18.2624 156.427 20.5017C157.714 21.9996 158.864 23.6099 159.864 25.3132C162.48 29.5339 163.974 34.3532 164.205 39.3136C164.314 48.394 158.091 52.2288 150.223 47.8514Z" fill="#7717C1"/>
<path d="M77.055 20.3389C82.4815 17.2277 89.6265 17.3182 97.6758 21.2433C99.4757 21.8929 101.327 22.3891 103.211 22.7266C107.757 23.5506 112.393 23.7576 116.994 23.3416C117.971 23.2331 119.744 23.0341 121.733 22.6904C123.723 22.3467 124.935 22.0211 126.02 21.7136L126.491 21.587C127.739 21.1891 128.896 20.8273 130.108 20.3932L130.38 20.2847H130.561C132.983 19.3388 135.335 18.2205 137.597 16.9383L139.189 15.9796C141.54 14.623 144.76 14.7858 148.342 16.7755C152.203 19.2245 155.429 22.5537 157.756 26.4901C160.083 30.4266 161.444 34.8583 161.727 39.4222C161.727 43.7092 160.298 46.748 157.874 48.1589L156.282 49.0995C152.806 51.1066 149.592 53.5369 146.714 56.3349C144.391 58.6389 142.279 61.1449 140.401 63.8235C136.665 69.1073 134.061 75.1051 132.749 81.4417C132.749 81.2065 132.749 80.8809 132.749 80.6277C132.822 79.886 78.0499 20.7188 77.055 20.3389Z" fill="url(#paint5_linear_2_2704)"/>
<path d="M80.9516 74.7659C68.2444 52.9095 68.209 29.2227 80.8727 21.8601C93.5364 14.4975 114.104 26.2471 126.811 48.1035C139.518 69.96 139.553 93.6468 126.89 101.009C114.226 108.372 93.6588 96.6224 80.9516 74.7659Z" fill="#393735"/>
<path d="M74.1019 75.1817C61.3647 53.1202 61.363 29.2754 74.0981 21.9227C86.8332 14.5701 107.483 26.494 120.22 48.5555C132.957 70.617 132.959 94.4619 120.224 101.814C107.488 109.167 86.8391 97.2432 74.1019 75.1817Z" fill="#7717C1"/>
<path d="M73.8714 22.0393L76.856 20.2304C82.789 16.6127 91.0192 17.1192 100.136 22.3829C118.224 32.7838 132.695 58.0714 132.695 78.8731C132.695 89.1654 129.077 96.4189 123.343 99.8738L120.359 101.683C126.129 98.2097 129.692 90.9562 129.692 80.6819C129.692 59.8802 115.095 34.5926 97.1331 24.1918C88.0527 18.91 79.8044 18.4939 73.8714 22.0393Z" fill="#8821D8"/>
<path d="M67.7757 44.4869C67.4862 63.0818 80.4376 85.9637 96.5905 95.5687C106.702 101.574 115.71 100.995 121.118 95.1707L147.021 67.2964C143.114 71.511 136.584 71.9271 129.276 67.5858C117.555 60.6399 108.221 44.0709 108.438 30.6312C108.547 22.4552 112.183 17.3 117.627 16.0699L80.4918 24.3364C72.9489 26.1452 67.9385 33.1636 67.7757 44.4869Z" fill="url(#paint6_linear_2_2704)"/>
<path d="M132.46 75.382L129.457 78.3847C127.612 77.7166 125.836 76.8684 124.157 75.8523C109.831 67.3507 98.4174 47.1279 98.6707 30.6312C98.6897 28.4863 98.9507 26.3504 99.4485 24.264C106.955 21.1528 114.426 17.8969 121.914 14.6229C122.996 15.1011 124.047 15.6447 125.062 16.2509C138.972 24.5173 150.096 43.8358 150.494 60.0249C143.945 64.4761 137.898 69.6253 132.46 75.382V75.382Z" fill="#551493"/>
<path d="M98.4355 56.8954L99.2857 57.5104C100.104 58.0583 100.782 58.7905 101.266 59.6481C101.75 60.5058 102.026 61.465 102.071 62.4486C102.089 62.2742 102.089 62.0984 102.071 61.924L102.18 62.8103C102.18 63.0455 102.18 63.2807 102.18 63.5158C102.18 65.6322 100.805 66.6089 99.0686 65.9939C98.8069 65.8921 98.553 65.7712 98.3089 65.6321C97.0048 64.786 95.9743 63.5796 95.3424 62.1592C94.852 61.1754 94.5922 60.0929 94.5827 58.9937C94.6189 56.5337 96.3372 55.5931 98.4355 56.8954Z" fill="#6014A3"/>
<path d="M94.5827 58.9394C94.5922 60.0386 94.852 61.1211 95.3424 62.1049C95.9743 63.5252 97.0048 64.7317 98.3089 65.5778C98.553 65.7168 98.8069 65.8378 99.0686 65.9396C100.877 66.5546 102.144 65.5778 102.18 63.4615C102.18 63.2263 102.18 62.9912 102.18 62.756L102.071 61.8697C102.089 62.0441 102.089 62.2199 102.071 62.3943C102.071 63.9861 101.058 64.7096 99.756 64.2031C99.5516 64.1395 99.3568 64.0482 99.1771 63.9318C98.2083 63.3074 97.4417 62.4151 96.9703 61.3632C96.5939 60.6298 96.3956 59.818 96.3916 58.9937C96.3916 57.1848 97.712 56.4794 99.2857 57.42L98.4355 56.805C96.3372 55.593 94.6189 56.5336 94.5827 58.9394Z" fill="#7717C1"/>
<path d="M108.438 34.1583C110.88 32.1505 114.607 32.1324 118.749 34.5925C122.543 37.1175 125.687 40.5028 127.925 44.4728C130.163 48.4427 131.431 52.885 131.628 57.4381C131.628 62.0507 129.692 65.1076 126.798 66.1748L104.947 74.3146C106.479 62.5089 101.625 54.0677 90.3862 48.9908L108.438 34.1583Z" fill="#7717C1"/>
<path opacity="0.6" d="M114.082 70.8597C116.614 69.9011 118.26 67.2421 118.315 63.1722C118.153 59.1651 117.043 55.2537 115.074 51.7599C113.105 48.2661 110.335 45.2897 106.991 43.0759C103.518 41.0319 100.407 40.9596 98.2366 42.479L108.438 34.1583C110.88 32.1505 114.607 32.1324 118.749 34.5925C122.543 37.1175 125.687 40.5028 127.925 44.4728C130.163 48.4427 131.431 52.885 131.628 57.4381C131.628 62.0507 129.692 65.1076 126.798 66.1748L114.082 70.8597Z" fill="#6014A3"/>
<path d="M98.5621 49.2622C101.032 50.8188 103.141 52.8847 104.748 55.3218C107.247 58.8608 108.65 63.0566 108.782 67.3868C108.674 73.971 103.934 76.5577 98.2004 73.139C95.1895 71.1452 92.6936 68.4666 90.9172 65.3226C89.1408 62.1785 88.1344 58.6584 87.9804 55.0505C87.9804 50.9264 89.9159 48.3759 92.7196 47.8151C94.7779 47.5772 96.8528 48.0911 98.5621 49.2622V49.2622ZM94.5827 58.9395C94.6367 60.2614 95.0023 61.5519 95.6499 62.7055C96.2974 63.8592 97.2086 64.8434 98.3089 65.5779C100.407 66.808 102.144 65.8674 102.18 63.4616C102.121 62.1412 101.751 60.8534 101.101 59.703C100.45 58.5525 99.5368 57.572 98.4355 56.8413C96.3373 55.5932 94.6189 56.5338 94.5827 58.9395Z" fill="#8821D8"/>
<path d="M97.6577 25.0961C115.348 35.6055 129.439 60.6037 129.132 80.917C128.824 101.23 114.227 109.207 96.5723 98.6979C78.918 88.1885 64.791 63.1903 65.0985 42.877C65.406 22.5637 79.9672 14.5867 97.6577 25.0961ZM67.7756 44.4869C67.4862 63.0818 80.4375 85.9637 96.5905 95.5686C112.743 105.174 126.129 97.9021 126.418 79.2891C126.708 60.6761 113.756 37.8123 97.6034 28.2073C81.4504 18.6024 68.065 25.892 67.7756 44.4869V44.4869Z" fill="#7717C1"/>
<path style="mix-blend-mode:screen" d="M104.963 132.021C83.2255 126.922 69.7369 105.167 74.8354 83.4293C79.9339 61.6917 101.689 48.203 123.427 53.3015C145.164 58.4 158.653 80.1551 153.554 101.893C148.456 123.63 126.701 137.119 104.963 132.021Z" fill="url(#paint7_radial_2_2704)"/>
<path style="mix-blend-mode:screen" d="M104.748 55.3218C101.872 51.885 97.2056 47.5257 92.7197 47.8513C96.3554 46.9288 101.692 50.1847 104.748 55.3218Z" fill="url(#paint8_radial_2_2704)"/>
<path style="mix-blend-mode:screen" d="M80.5642 19.7962C81.7066 19.6182 82.8642 19.5577 84.019 19.6154C85.6559 19.6845 87.281 19.927 88.8667 20.3389C90.6793 20.8246 92.4465 21.4661 94.1485 22.2563C95.8353 23.0574 97.4668 23.9699 99.0324 24.9876C100.393 25.8855 101.704 26.8577 102.958 27.8998C104.188 28.9048 105.36 29.9798 106.467 31.1196L105.454 30.3056C104.803 29.781 103.862 29.0575 102.723 28.2074C99.956 26.1337 96.9863 24.3459 93.8591 22.8713C92.198 22.0731 90.4737 21.4137 88.704 20.8996C87.1621 20.4506 85.5814 20.1478 83.9828 19.9952C82.8453 19.9002 81.7018 19.9002 80.5642 19.9952L79.2798 20.1037C79.2798 20.1037 79.7321 19.9228 80.5642 19.7962Z" fill="url(#paint9_radial_2_2704)"/>
<path style="mix-blend-mode:screen" d="M156.481 20.4654C152.864 17.0286 147.835 13.0673 142.897 13.0854C147.274 11.9639 153.877 16.6849 156.481 20.4654Z" fill="url(#paint10_radial_2_2704)"/>
<path style="mix-blend-mode:screen" d="M98.5259 81.4596C80.8437 81.4596 66.5094 67.1253 66.5094 49.4431C66.5094 31.7608 80.8437 17.4265 98.5259 17.4265C116.208 17.4265 130.542 31.7608 130.542 49.4431C130.542 67.1253 116.208 81.4596 98.5259 81.4596Z" fill="url(#paint11_radial_2_2704)"/>
<defs>
<filter id="filter0_bd_2_2704" x="11.8024" y="9.93286" width="256.687" height="195.572" filterUnits="userSpaceOnUse" color-interpolation-filters="sRGB">
<feFlood flood-opacity="0" result="BackgroundImageFix"/>
<feGaussianBlur in="BackgroundImage" stdDeviation="6"/>
<feComposite in2="SourceAlpha" operator="in" result="effect1_backgroundBlur_2_2704"/>
<feColorMatrix in="SourceAlpha" type="matrix" values="0 0 0 0 0 0 0 0 0 0 0 0 0 0 0 0 0 0 127 0" result="hardAlpha"/>
<feOffset dy="4"/>
<feGaussianBlur stdDeviation="2"/>
<feComposite in2="hardAlpha" operator="out"/>
<feColorMatrix type="matrix" values="0 0 0 0 0 0 0 0 0 0 0 0 0 0 0 0 0 0 0.25 0"/>
<feBlend mode="normal" in2="effect1_backgroundBlur_2_2704" result="effect2_dropShadow_2_2704"/>
<feBlend mode="normal" in="SourceGraphic" in2="effect2_dropShadow_2_2704" result="shape"/>
</filter>
<filter id="filter1_bd_2_2704" x="-7.42126" y="31.0494" width="257.582" height="195.572" filterUnits="userSpaceOnUse" color-interpolation-filters="sRGB">
<feFlood flood-opacity="0" result="BackgroundImageFix"/>
<feGaussianBlur in="BackgroundImage" stdDeviation="6"/>
<feComposite in2="SourceAlpha" operator="in" result="effect1_backgroundBlur_2_2704"/>
<feColorMatrix in="SourceAlpha" type="matrix" values="0 0 0 0 0 0 0 0 0 0 0 0 0 0 0 0 0 0 127 0" result="hardAlpha"/>
<feOffset dy="4"/>
<feGaussianBlur stdDeviation="2"/>
<feComposite in2="hardAlpha" operator="out"/>
<feColorMatrix type="matrix" values="0 0 0 0 0 0 0 0 0 0 0 0 0 0 0 0 0 0 0.25 0"/>
<feBlend mode="normal" in2="effect1_backgroundBlur_2_2704" result="effect2_dropShadow_2_2704"/>
<feBlend mode="normal" in="SourceGraphic" in2="effect2_dropShadow_2_2704" result="shape"/>
</filter>
<linearGradient id="paint0_linear_2_2704" x1="-92.5387" y1="-164.173" x2="172.824" y2="261.457" gradientUnits="userSpaceOnUse">
<stop stop-color="#A900FD"/>
<stop offset="1" stop-color="#A900FD" stop-opacity="0"/>
</linearGradient>
<linearGradient id="paint1_linear_2_2704" x1="238.161" y1="214.622" x2="-12.6778" y2="183.887" gradientUnits="userSpaceOnUse">
<stop stop-color="#289CFF"/>
<stop offset="1" stop-color="#7F34CD"/>
</linearGradient>
<linearGradient id="paint2_linear_2_2704" x1="162.867" y1="64.0767" x2="152.393" y2="82.2194" gradientUnits="userSpaceOnUse">
<stop stop-color="#E09DF1"/>
<stop offset="0.46" stop-color="#F0ADF6"/>
<stop offset="1" stop-color="#FFBBFA"/>
</linearGradient>
<linearGradient id="paint3_linear_2_2704" x1="152.629" y1="39.585" x2="177.138" y2="82.0385" gradientUnits="userSpaceOnUse">
<stop stop-color="#9D53D8"/>
<stop offset="1" stop-color="#CB89F0"/>
</linearGradient>
<linearGradient id="paint4_linear_2_2704" x1="-4233.39" y1="11720.3" x2="-3631.86" y2="12509.7" gradientUnits="userSpaceOnUse">
<stop stop-color="#9D53D8"/>
<stop offset="1" stop-color="#CB89F0"/>
</linearGradient>
<linearGradient id="paint5_linear_2_2704" x1="116.976" y1="22.6542" x2="138.393" y2="59.7355" gradientUnits="userSpaceOnUse">
<stop stop-color="#FFDEFA"/>
<stop offset="0.52" stop-color="#FFBBFA"/>
<stop offset="0.78" stop-color="#F0ADF6"/>
<stop offset="1" stop-color="#E09DF1"/>
</linearGradient>
<linearGradient id="paint6_linear_2_2704" x1="83.585" y1="21.804" x2="125.062" y2="93.6513" gradientUnits="userSpaceOnUse">
<stop stop-color="#E09DF1"/>
<stop offset="0.22" stop-color="#F0ADF6"/>
<stop offset="0.48" stop-color="#FFBBFA"/>
<stop offset="1" stop-color="#FFDEFA"/>
</linearGradient>
<radialGradient id="paint7_radial_2_2704" cx="0" cy="0" r="1" gradientUnits="userSpaceOnUse" gradientTransform="translate(114.158 92.6248) rotate(180) scale(40.4277)">
<stop stop-color="#FFEC3D"/>
<stop offset="0.22" stop-color="#E53DFF"/>
<stop offset="0.26" stop-color="#C735DE"/>
<stop offset="0.34" stop-color="#9929AB"/>
<stop offset="0.42" stop-color="#701E7D"/>
<stop offset="0.51" stop-color="#4E1556"/>
<stop offset="0.59" stop-color="#310D37"/>
<stop offset="0.68" stop-color="#1C071F"/>
<stop offset="0.78" stop-color="#0C030D"/>
<stop offset="0.88" stop-color="#030103"/>
<stop offset="1"/>
</radialGradient>
<radialGradient id="paint8_radial_2_2704" cx="0" cy="0" r="1" gradientUnits="userSpaceOnUse" gradientTransform="translate(-3600.12 2160.47) rotate(180) scale(67.4816 42.7848)">
<stop stop-color="#FFEC3D"/>
<stop offset="0.22" stop-color="#E53DFF"/>
<stop offset="0.26" stop-color="#C735DE"/>
<stop offset="0.34" stop-color="#9929AB"/>
<stop offset="0.42" stop-color="#701E7D"/>
<stop offset="0.51" stop-color="#4E1556"/>
<stop offset="0.59" stop-color="#310D37"/>
<stop offset="0.68" stop-color="#1C071F"/>
<stop offset="0.78" stop-color="#0C030D"/>
<stop offset="0.88" stop-color="#030103"/>
<stop offset="1"/>
</radialGradient>
<radialGradient id="paint9_radial_2_2704" cx="0" cy="0" r="1" gradientUnits="userSpaceOnUse" gradientTransform="translate(-8354.92 3037.51) rotate(180) scale(324.884 137.728)">
<stop stop-color="#FFEC3D"/>
<stop offset="0.22" stop-color="#E53DFF"/>
<stop offset="0.26" stop-color="#C735DE"/>
<stop offset="0.34" stop-color="#9929AB"/>
<stop offset="0.42" stop-color="#701E7D"/>
<stop offset="0.51" stop-color="#4E1556"/>
<stop offset="0.59" stop-color="#310D37"/>
<stop offset="0.68" stop-color="#1C071F"/>
<stop offset="0.78" stop-color="#0C030D"/>
<stop offset="0.88" stop-color="#030103"/>
<stop offset="1"/>
</radialGradient>
<radialGradient id="paint10_radial_2_2704" cx="0" cy="0" r="1" gradientUnits="userSpaceOnUse" gradientTransform="translate(-3642.41 1961.45) rotate(180) scale(84.0877 46.7226)">
<stop stop-color="#FFEC3D"/>
<stop offset="0.22" stop-color="#E53DFF"/>
<stop offset="0.26" stop-color="#C735DE"/>
<stop offset="0.34" stop-color="#9929AB"/>
<stop offset="0.42" stop-color="#701E7D"/>
<stop offset="0.51" stop-color="#4E1556"/>
<stop offset="0.59" stop-color="#310D37"/>
<stop offset="0.68" stop-color="#1C071F"/>
<stop offset="0.78" stop-color="#0C030D"/>
<stop offset="0.88" stop-color="#030103"/>
<stop offset="1"/>
</radialGradient>
<radialGradient id="paint11_radial_2_2704" cx="0" cy="0" r="1" gradientUnits="userSpaceOnUse" gradientTransform="translate(-19615.3 17746.9) rotate(180) scale(1133.39)">
<stop stop-color="#FF72D5"/>
<stop offset="0.04" stop-color="#DB62B7"/>
<stop offset="0.1" stop-color="#AE4E91"/>
<stop offset="0.16" stop-color="#843B6E"/>
<stop offset="0.23" stop-color="#602B51"/>
<stop offset="0.31" stop-color="#421E37"/>
<stop offset="0.39" stop-color="#2A1323"/>
<stop offset="0.48" stop-color="#170A13"/>
<stop offset="0.59" stop-color="#0A0408"/>
<stop offset="0.73" stop-color="#020102"/>
<stop offset="1"/>
</radialGradient>
</defs>
</svg>
