<svg width="271" height="208" viewBox="0 0 271 208" fill="none" xmlns="http://www.w3.org/2000/svg">
<g filter="url(#filter0_bd_2_2750)">
<path d="M24.0288 23.9014C23.471 14.701 30.7821 6.93311 39.9995 6.93311H250.688C259.935 6.93311 267.256 14.7484 266.654 23.9755L257.542 163.548C256.992 171.962 250.007 178.505 241.576 178.505H48.4621C40.0016 178.505 33.0035 171.919 32.4914 163.474L24.0288 23.9014Z" fill="url(#paint0_linear_2_2750)" shape-rendering="crispEdges"/>
<path d="M39.9995 7.43311H250.688C259.646 7.43311 266.738 15.0042 266.155 23.9429L257.043 163.515C256.51 171.666 249.744 178.005 241.576 178.005H48.4621C40.266 178.005 33.4866 171.624 32.9905 163.443L24.5279 23.8712C23.9875 14.9582 31.0702 7.43311 39.9995 7.43311Z" stroke="#A900FD" stroke-opacity="0.3" shape-rendering="crispEdges"/>
</g>
<g filter="url(#filter1_bd_2_2750)">
<path fill-rule="evenodd" clip-rule="evenodd" d="M75 28.0497H20.6766C11.5327 28.0497 4.24847 35.6994 4.69576 44.8323L11.5314 184.404C11.9488 192.927 18.9799 199.622 27.5122 199.622H220.362C228.83 199.622 235.831 193.024 236.334 184.571L244.632 44.9993C245.179 35.8056 237.871 28.0497 228.661 28.0497H207V32.0497H228.661C235.568 32.0497 241.049 37.8666 240.64 44.7619L232.341 184.334C231.964 190.674 226.713 195.622 220.362 195.622H27.5122C21.113 195.622 15.8396 190.6 15.5266 184.209L8.69097 44.6367C8.3555 37.787 13.8187 32.0497 20.6766 32.0497H75V28.0497Z" fill="url(#paint1_linear_2_2750)"/>
</g>
<path d="M114.572 146.097H117.344C118.091 146.097 118.716 145.967 119.22 145.705C119.724 145.444 120.116 145.127 120.396 144.753C120.695 144.38 120.9 143.979 121.012 143.549C121.143 143.12 121.208 142.737 121.208 142.401C121.208 142.047 121.143 141.664 121.012 141.253C120.9 140.824 120.695 140.432 120.396 140.077C120.097 139.704 119.696 139.396 119.192 139.153C118.707 138.911 118.1 138.789 117.372 138.789H114.572V146.097ZM111.492 156.233V135.933H117.036C118.1 135.933 119.071 136.073 119.948 136.353C120.844 136.633 121.609 137.053 122.244 137.613C122.897 138.155 123.401 138.827 123.756 139.629C124.111 140.413 124.288 141.319 124.288 142.345C124.288 143.148 124.167 143.951 123.924 144.753C123.681 145.537 123.289 146.247 122.748 146.881C122.207 147.497 121.497 148.001 120.62 148.393C119.743 148.785 118.679 148.981 117.428 148.981H114.572V156.233H111.492ZM132.542 147.301C132.019 147.301 131.515 147.376 131.03 147.525C130.545 147.656 130.106 147.861 129.714 148.141C129.341 148.421 129.042 148.776 128.818 149.205C128.594 149.616 128.482 150.092 128.482 150.633V156.233H126.102V144.529H128.202C128.239 145.108 128.267 145.64 128.286 146.125C128.323 146.592 128.361 147.059 128.398 147.525C128.641 147.021 128.958 146.564 129.35 146.153C129.742 145.743 130.162 145.397 130.61 145.117C131.058 144.837 131.497 144.623 131.926 144.473C132.355 144.305 132.738 144.221 133.074 144.221L132.542 147.301ZM133.766 150.353C133.766 149.513 133.925 148.72 134.242 147.973C134.578 147.227 135.026 146.583 135.586 146.041C136.146 145.481 136.8 145.043 137.546 144.725C138.312 144.389 139.133 144.221 140.01 144.221C140.888 144.221 141.7 144.389 142.446 144.725C143.212 145.043 143.865 145.481 144.406 146.041C144.966 146.583 145.396 147.227 145.694 147.973C146.012 148.72 146.17 149.513 146.17 150.353C146.17 151.193 146.012 151.987 145.694 152.733C145.396 153.48 144.966 154.133 144.406 154.693C143.865 155.253 143.212 155.701 142.446 156.037C141.7 156.355 140.878 156.513 139.982 156.513C139.124 156.513 138.312 156.364 137.546 156.065C136.8 155.767 136.146 155.347 135.586 154.805C135.026 154.264 134.578 153.62 134.242 152.873C133.925 152.108 133.766 151.268 133.766 150.353ZM136.146 150.381C136.146 150.904 136.24 151.399 136.426 151.865C136.632 152.313 136.902 152.715 137.238 153.069C137.593 153.405 137.994 153.676 138.442 153.881C138.909 154.068 139.404 154.161 139.926 154.161C140.449 154.161 140.944 154.068 141.41 153.881C141.877 153.676 142.278 153.405 142.614 153.069C142.969 152.715 143.249 152.313 143.454 151.865C143.66 151.399 143.762 150.904 143.762 150.381C143.762 149.859 143.66 149.364 143.454 148.897C143.249 148.431 142.969 148.029 142.614 147.693C142.278 147.339 141.877 147.068 141.41 146.881C140.944 146.676 140.449 146.573 139.926 146.573C139.404 146.573 138.909 146.676 138.442 146.881C137.994 147.068 137.593 147.339 137.238 147.693C136.902 148.029 136.632 148.431 136.426 148.897C136.24 149.364 136.146 149.859 136.146 150.381ZM147.488 146.881V144.529H149.476V141.785C149.476 139.34 150.046 137.529 151.184 136.353C152.342 135.159 153.975 134.533 156.084 134.477V136.773C154.628 136.848 153.564 137.315 152.892 138.173C152.22 139.032 151.884 140.255 151.884 141.841V144.529H160.956V156.233H158.548V146.881H151.884V156.233H149.476V146.881H147.488ZM166.736 156.233H164.356V134.477H166.736V156.233ZM180.037 154.861C179.477 155.365 178.796 155.767 177.993 156.065C177.191 156.364 176.369 156.513 175.529 156.513C174.671 156.513 173.859 156.355 173.093 156.037C172.347 155.701 171.693 155.263 171.133 154.721C170.573 154.161 170.125 153.508 169.789 152.761C169.472 152.015 169.313 151.221 169.313 150.381C169.313 149.541 169.472 148.748 169.789 148.001C170.125 147.255 170.573 146.601 171.133 146.041C171.693 145.481 172.337 145.043 173.065 144.725C173.812 144.389 174.605 144.221 175.445 144.221C176.771 144.221 177.919 144.623 178.889 145.425C179.879 146.209 180.588 147.245 181.017 148.533C180.439 148.739 179.776 148.991 179.029 149.289C178.283 149.588 177.508 149.905 176.705 150.241C175.903 150.559 175.1 150.876 174.297 151.193C173.495 151.511 172.748 151.8 172.057 152.061C172.375 152.696 172.832 153.209 173.429 153.601C174.045 153.975 174.727 154.161 175.473 154.161C175.977 154.161 176.481 154.068 176.985 153.881C177.508 153.695 177.928 153.443 178.245 153.125L180.037 154.861ZM178.021 147.973C177.797 147.507 177.443 147.161 176.957 146.937C176.472 146.695 175.977 146.573 175.473 146.573C174.932 146.573 174.428 146.676 173.961 146.881C173.513 147.087 173.121 147.367 172.785 147.721C172.449 148.057 172.179 148.449 171.973 148.897C171.787 149.345 171.693 149.803 171.693 150.269C171.693 150.363 171.693 150.428 171.693 150.465C171.712 150.503 171.721 150.531 171.721 150.549C172.207 150.363 172.729 150.157 173.289 149.933C173.868 149.691 174.437 149.457 174.997 149.233C175.557 148.991 176.099 148.767 176.621 148.561C177.144 148.337 177.611 148.141 178.021 147.973Z" fill="white"/>
<g style="mix-blend-mode:multiply" opacity="0.7">
<path d="M51.5283 75.5908L111.52 40.4372L137.226 20.2307L142.356 22.3898L142.762 22.1499L145.659 23.7922L147.486 24.5673L151.582 22.2052L160.44 27.3168L160.532 27.2614L162.267 28.3687L178.284 37.6138L211.334 51.6199L207.607 54.554L216.575 59.7209L213.936 61.2525L222.314 66.5671L126.061 117L118.311 112.073L116.982 112.848L61.1424 81.053L60.3305 80.7208L60.4228 80.647L51.5283 75.5908Z" fill="#52017B"/>
</g>
<path d="M56.7321 62.8396L118.496 102.145L214.748 51.7122L152.985 12.4066L56.7321 62.8396Z" fill="url(#paint2_linear_2_2750)"/>
<path d="M52.7647 65.866L126.873 97.2551L203.768 36.765L129.678 5.35742L52.7647 65.866Z" fill="url(#paint3_linear_2_2750)"/>
<path d="M43.9624 60.7359L109.435 97.9932L200.668 44.5338L135.196 7.29492L43.9624 60.7359Z" fill="url(#paint4_linear_2_2750)"/>
<path d="M52.1188 60.4037L117.112 97.9379L209.009 44.866L144.017 7.35034L52.1188 60.4037Z" fill="#FEF0FF"/>
<g style="mix-blend-mode:multiply" opacity="0.3">
<g style="mix-blend-mode:multiply" opacity="0.5">
<g style="mix-blend-mode:multiply" opacity="0.5">
<path d="M151.545 48.7412L139.828 41.9872L139.237 42.3194L138.886 41.5813L138.536 40.8431L139.828 41.0276L141.119 41.2306L140.473 41.6181L152.191 48.3721L160.458 43.5927L181.384 55.6796L178.838 57.1559L171.53 61.3633L150.604 49.2948L151.545 48.7412Z" fill="#B662ED"/>
</g>
<g style="mix-blend-mode:multiply" opacity="0.5">
<path d="M136.266 41.0092L126.043 35.1041L124.216 36.156L124.88 36.5435L123.589 36.728L122.297 36.931L122.647 36.1929L122.998 35.4548L123.589 35.7869L125.415 34.7351L115.34 28.9223L125.194 23.2386L146.12 35.3256L136.266 41.0092Z" fill="#B662ED"/>
</g>
<g style="mix-blend-mode:multiply" opacity="0.5">
<path d="M146.268 51.8044L156.565 57.7464L158.41 56.6762L157.82 56.3255L159.111 56.141L160.403 55.938L160.052 56.6762L159.702 57.4143L159.056 57.0452L157.211 58.1155L167.194 63.873L164.629 65.3493L157.34 69.575L136.414 57.4881L146.268 51.8044Z" fill="#B662ED"/>
</g>
<g style="mix-blend-mode:multiply" opacity="0.5">
<path d="M130.951 44.0726L142.743 50.8818L143.389 50.4943L143.74 51.2509L144.09 51.989L142.798 51.7861L141.507 51.583L142.097 51.2509L130.324 44.4416L129.364 44.9952L122.075 49.2026L101.149 37.1156L111.003 31.432L131.929 43.5189L130.951 44.0726Z" fill="#B662ED"/>
</g>
<g style="mix-blend-mode:multiply" opacity="0.5">
<path d="M142.78 77.9343L140.326 79.3552L139.957 79.1522L142.411 77.7313L142.78 77.9343Z" fill="#B662ED"/>
</g>
<g style="mix-blend-mode:multiply" opacity="0.5">
<path d="M139.661 79.7243L137.226 81.1453L136.857 80.9423L139.311 79.5214L139.661 79.7243Z" fill="#B662ED"/>
</g>
<g style="mix-blend-mode:multiply" opacity="0.5">
<path d="M136.561 81.5144L134.107 82.9353L133.756 82.7323L136.211 81.3114L136.561 81.5144Z" fill="#B662ED"/>
</g>
<g style="mix-blend-mode:multiply" opacity="0.5">
<path d="M133.461 83.3227L131.007 84.7252L130.656 84.5222L133.11 83.1013L133.461 83.3227Z" fill="#B662ED"/>
</g>
<g style="mix-blend-mode:multiply" opacity="0.5">
<path d="M130.361 85.1127L127.907 86.5152L127.556 86.3122L130.01 84.9097L130.361 85.1127Z" fill="#B662ED"/>
</g>
<g style="mix-blend-mode:multiply" opacity="0.5">
<path d="M127.261 86.9027L124.806 88.3052L124.456 88.1022L126.91 86.6997L127.261 86.9027Z" fill="#B662ED"/>
</g>
<g style="mix-blend-mode:multiply" opacity="0.5">
<path d="M139.532 78.5064L116.133 64.9801L117.886 63.9652L141.285 77.473L139.532 78.5064Z" fill="#B662ED"/>
</g>
<g style="mix-blend-mode:multiply" opacity="0.5">
<path d="M115.543 68.228L117.296 67.213L138.185 79.2815L136.432 80.2964L115.543 68.228Z" fill="#B662ED"/>
</g>
<g style="mix-blend-mode:multiply" opacity="0.5">
<path d="M123.81 76.5873L125.563 75.5723L135.085 81.0714L133.314 82.0864L123.81 76.5873Z" fill="#B662ED"/>
</g>
<g style="mix-blend-mode:multiply" opacity="0.5">
<path d="M113.532 74.2437L115.303 73.2288L131.985 82.8615L130.213 83.8764L113.532 74.2437Z" fill="#B662ED"/>
</g>
<g style="mix-blend-mode:multiply" opacity="0.5">
<path d="M111.483 76.6427L113.255 75.6277L128.885 84.6514L127.113 85.6663L111.483 76.6427Z" fill="#B662ED"/>
</g>
<g style="mix-blend-mode:multiply" opacity="0.5">
<path d="M113.31 79.2446L125.766 86.4414L124.013 87.4563L111.539 80.2595L113.31 79.2446Z" fill="#B662ED"/>
</g>
<g style="mix-blend-mode:multiply" opacity="0.5">
<path d="M122.998 75.5355C122.57 75.5355 122.223 75.3372 122.223 75.0926C122.223 74.848 122.57 74.6497 122.998 74.6497C123.426 74.6497 123.773 74.848 123.773 75.0926C123.773 75.3372 123.426 75.5355 122.998 75.5355Z" fill="#B662ED"/>
</g>
<g style="mix-blend-mode:multiply" opacity="0.5">
<path d="M113.218 72.3615C113.281 72.3884 113.335 72.4333 113.373 72.4907C113.412 72.5482 113.432 72.6155 113.432 72.6844C113.432 72.7534 113.412 72.8207 113.373 72.8782C113.335 72.9356 113.281 72.9806 113.218 73.0074C113.048 73.0892 112.862 73.1316 112.673 73.1316C112.485 73.1316 112.299 73.0892 112.129 73.0074C111.815 72.8229 111.815 72.5461 112.129 72.3615C112.299 72.2798 112.485 72.2373 112.673 72.2373C112.862 72.2373 113.048 72.2798 113.218 72.3615Z" fill="#B662ED"/>
</g>
<g style="mix-blend-mode:multiply" opacity="0.5">
<path d="M110.081 74.8342C110.251 74.7524 110.437 74.71 110.625 74.71C110.814 74.71 111 74.7524 111.169 74.8342C111.483 75.0187 111.483 75.2955 111.169 75.4801C111 75.5618 110.814 75.6043 110.625 75.6043C110.437 75.6043 110.251 75.5618 110.081 75.4801C109.73 75.2955 109.73 75.0187 110.081 74.8342Z" fill="#B662ED"/>
</g>
<g style="mix-blend-mode:multiply" opacity="0.5">
<path d="M115.967 63.8914C115.8 63.9819 115.613 64.0292 115.423 64.0292C115.233 64.0292 115.046 63.9819 114.879 63.8914C114.565 63.7253 114.565 63.4485 114.879 63.264C115.049 63.1822 115.235 63.1398 115.423 63.1398C115.612 63.1398 115.798 63.1822 115.967 63.264C116.281 63.4485 116.281 63.7253 115.967 63.8914Z" fill="#B662ED"/>
</g>
<g style="mix-blend-mode:multiply" opacity="0.5">
<path d="M110.727 79.2447C110.299 79.2447 109.952 79.0463 109.952 78.8017C109.952 78.5572 110.299 78.3589 110.727 78.3589C111.155 78.3589 111.502 78.5572 111.502 78.8017C111.502 79.0463 111.155 79.2447 110.727 79.2447Z" fill="#B662ED"/>
</g>
<g style="mix-blend-mode:multiply" opacity="0.5">
<path d="M115.285 67.0469C115.117 67.1373 114.93 67.1847 114.74 67.1847C114.55 67.1847 114.363 67.1373 114.196 67.0469C114.131 67.0242 114.074 66.9819 114.034 66.9256C113.994 66.8694 113.973 66.8022 113.973 66.7332C113.973 66.6642 113.994 66.5969 114.034 66.5407C114.074 66.4845 114.131 66.4421 114.196 66.4195C114.363 66.329 114.55 66.2817 114.74 66.2817C114.93 66.2817 115.117 66.329 115.285 66.4195C115.35 66.4421 115.406 66.4845 115.446 66.5407C115.486 66.5969 115.508 66.6642 115.508 66.7332C115.508 66.8022 115.486 66.8694 115.446 66.9256C115.406 66.9819 115.35 67.0242 115.285 67.0469V67.0469Z" fill="#B662ED"/>
</g>
<g style="mix-blend-mode:multiply" opacity="0.5">
<path d="M163.023 35.1964L163.688 35.5839L171.291 31.192L171.936 31.5611L171.032 32.0962L171.604 32.4284L164.924 36.2852L166.105 36.9679L174.225 32.2808L174.87 32.6314L176.051 31.9486L176.66 32.2992L167.342 37.6876L168.523 38.3703L177.528 33.1481L178.155 33.5172L179.428 32.7974L180.037 33.1296L169.759 39.0716L170.921 39.7543L176.476 36.562L177.103 36.9126L178.229 36.2667L178.838 36.6173L172.158 40.4741L173.339 41.1568L178.524 38.1489L179.152 38.518L182.233 36.7465L182.842 37.0971L174.575 41.8581L175.756 42.5408L177.823 41.3414L178.469 41.7105L179.262 41.2491L179.871 41.5997L176.993 43.2605L178.174 43.9433L183.248 41.0092L183.894 41.3782L181.698 42.6515L182.27 42.9837L179.41 44.6445L180.591 45.3273L188.009 41.0461L188.637 41.4152L189.319 41.0092L189.928 41.3598L181.809 46.0469L182.99 46.7297L187.474 44.1278L188.102 44.4969L192.438 42.0057L193.029 42.3563L184.226 47.4309L185.407 48.1137L192.973 43.7403L193.638 44.1094L193.029 44.46L193.619 44.8106L186.644 48.8334L187.806 49.5162L194.394 45.7148L195.022 46.0654L195.815 45.6226L196.406 45.9732L189.043 50.2174L189.873 50.6972L189.319 51.0109L162.488 35.5101L163.023 35.1964Z" fill="#B662ED"/>
</g>
<g style="mix-blend-mode:multiply" opacity="0.5">
<path d="M160.218 33.5726L159.665 33.8863L132.834 18.3855L133.369 18.0717L134.033 18.4593L136.709 16.9092L137.336 17.2782L137.705 17.0753L138.296 17.4259L135.27 19.1789L136.451 19.8433L141.414 16.983L142.042 17.3521L143.223 16.6693L143.832 17.0199L137.687 20.5629L138.868 21.2457L145.825 17.2229L146.452 17.592L147.449 17.0199L148.058 17.3705L140.104 21.9654L141.285 22.6297L151.619 16.6693L152.247 17.0383L152.763 16.7247L153.372 17.0753L142.503 23.3494L143.684 24.0322L151.416 19.5665L152.044 19.9355L152.856 19.4742L153.465 19.8248L144.921 24.7519L146.102 25.4347L150.18 23.0726L150.826 23.4417L151.619 22.9803L152.228 23.3125L147.338 26.1359L148.519 26.8187L154.406 23.4232L155.052 23.7923L154.24 24.2721L154.83 24.6042L149.755 27.5383L150.936 28.2027L153.538 26.7079L154.184 27.077L153.151 27.6675L153.741 28.0181L152.173 28.9223L153.335 29.6051L155.587 28.3134L156.214 28.664L158.631 27.28L159.222 27.6306L154.572 30.3063L155.753 30.9891L157.856 29.7896L158.502 30.1587L157.893 30.5093L158.484 30.8415L156.989 31.7088L158.17 32.3916L161.418 30.5093L162.045 30.8784L162.82 30.4355L163.429 30.7861L159.407 33.1113L160.218 33.5726Z" fill="#B662ED"/>
</g>
<g style="mix-blend-mode:multiply" opacity="0.5">
<path d="M147.578 33.0743L145.806 32.0409L127.722 21.6148L130.546 19.9724L150.475 31.4873L168.652 41.9688L186.828 52.4688L183.986 54.0927L165.81 43.6112L147.578 33.0743Z" fill="#B662ED"/>
</g>
<g style="mix-blend-mode:multiply" opacity="0.5">
<path d="M119.972 91.3131C119.472 91.3131 119.068 91.0818 119.068 90.7964C119.068 90.5111 119.472 90.2797 119.972 90.2797C120.471 90.2797 120.876 90.5111 120.876 90.7964C120.876 91.0818 120.471 91.3131 119.972 91.3131Z" fill="#B662ED"/>
</g>
<g style="mix-blend-mode:multiply" opacity="0.5">
<path d="M116.853 93.1215C116.354 93.1215 115.949 92.8902 115.949 92.6048C115.949 92.3195 116.354 92.0881 116.853 92.0881C117.353 92.0881 117.757 92.3195 117.757 92.6048C117.757 92.8902 117.353 93.1215 116.853 93.1215Z" fill="#B662ED"/>
</g>
<g style="mix-blend-mode:multiply" opacity="0.5">
<path d="M89.0439 73.4686C88.5445 73.4686 88.1397 73.2373 88.1397 72.9519C88.1397 72.6666 88.5445 72.4352 89.0439 72.4352C89.5433 72.4352 89.9481 72.6666 89.9481 72.9519C89.9481 73.2373 89.5433 73.4686 89.0439 73.4686Z" fill="#B662ED"/>
</g>
<g style="mix-blend-mode:multiply" opacity="0.5">
<path d="M85.2609 74.3729C85.4613 74.2722 85.6825 74.2198 85.9068 74.2198C86.131 74.2198 86.3522 74.2722 86.5527 74.3729C86.9033 74.5943 86.9033 74.9265 86.5527 75.1295C86.3522 75.2301 86.131 75.2825 85.9068 75.2825C85.6825 75.2825 85.4613 75.2301 85.2609 75.1295C84.9103 74.9265 84.9103 74.5943 85.2609 74.3729Z" fill="#B662ED"/>
</g>
<g style="mix-blend-mode:multiply" opacity="0.5">
<path d="M102.644 81.5698L100.78 80.4995L101.02 80.3704L102.884 81.4407L102.644 81.5698Z" fill="#B662ED"/>
</g>
<g style="mix-blend-mode:multiply" opacity="0.5">
<path d="M101.057 79.2814L100.817 79.4106L98.4921 78.082L98.732 77.9343L101.057 79.2814Z" fill="#B662ED"/>
</g>
<g style="mix-blend-mode:multiply" opacity="0.5">
<path d="M106.778 83.9687L107.017 83.821L111.188 86.22L110.948 86.3676L106.778 83.9687Z" fill="#B662ED"/>
</g>
<g style="mix-blend-mode:multiply" opacity="0.5">
<path d="M100.706 80.1672L100.448 80.3148L97.8093 78.7832L98.0492 78.654L100.706 80.1672Z" fill="#B662ED"/>
</g>
<g style="mix-blend-mode:multiply" opacity="0.5">
<path d="M107.774 83.1567L107.534 83.2859L105.67 82.2155L105.91 82.0679L107.774 83.1567Z" fill="#B662ED"/>
</g>
<g style="mix-blend-mode:multiply" opacity="0.5">
<path d="M106.445 83.7656L102.976 81.7727L103.216 81.625L106.685 83.6364L106.445 83.7656Z" fill="#B662ED"/>
</g>
<g style="mix-blend-mode:multiply" opacity="0.5">
<path d="M110.727 84.8544L116.06 87.9361L115.82 88.0837L110.487 85.002L110.727 84.8544Z" fill="#B662ED"/>
</g>
<g style="mix-blend-mode:multiply" opacity="0.5">
<path d="M110.173 84.8175L107.848 83.4704L108.088 83.3412L110.413 84.6699L110.173 84.8175Z" fill="#B662ED"/>
</g>
<g style="mix-blend-mode:multiply" opacity="0.5">
<path d="M117.185 89.966L111.28 86.5521L111.52 86.4229L117.425 89.8183L117.185 89.966Z" fill="#B662ED"/>
</g>
<g style="mix-blend-mode:multiply" opacity="0.5">
<path d="M105.578 81.8835L105.338 82.0311L101.149 79.6137L101.389 79.4661L105.578 81.8835Z" fill="#B662ED"/>
</g>
<g style="mix-blend-mode:multiply" opacity="0.5">
<path d="M116.392 88.139L118.348 89.2463L118.108 89.3939L116.152 88.2682L116.392 88.139Z" fill="#B662ED"/>
</g>
<g style="mix-blend-mode:multiply" opacity="0.5">
<path d="M114.473 91.5346L114.233 91.6637L109.767 89.0802L110.007 88.951L114.473 91.5346Z" fill="#B662ED"/>
</g>
<g style="mix-blend-mode:multiply" opacity="0.5">
<path d="M109.49 87.5487L115.451 90.981L115.211 91.1287L109.25 87.6963L109.49 87.5487Z" fill="#B662ED"/>
</g>
<g style="mix-blend-mode:multiply" opacity="0.5">
<path d="M109.675 88.7666L109.435 88.8957L104.102 85.8141L104.342 85.6849L109.675 88.7666Z" fill="#B662ED"/>
</g>
<g style="mix-blend-mode:multiply" opacity="0.5">
<path d="M104.766 85.0943L105.006 84.9467L109.158 87.364L108.918 87.4932L104.766 85.0943Z" fill="#B662ED"/>
</g>
<g style="mix-blend-mode:multiply" opacity="0.5">
<path d="M101.371 83.9687L101.131 84.0978L99.2855 83.0276L99.5254 82.8984L101.371 83.9687Z" fill="#B662ED"/>
</g>
<g style="mix-blend-mode:multiply" opacity="0.5">
<path d="M104.434 84.9097L100.965 82.8983L101.205 82.7507L104.674 84.7621L104.434 84.9097Z" fill="#B662ED"/>
</g>
<g style="mix-blend-mode:multiply" opacity="0.5">
<path d="M104.028 85.5003L103.788 85.6295L101.463 84.3009L101.703 84.1533L104.028 85.5003Z" fill="#B662ED"/>
</g>
<g style="mix-blend-mode:multiply" opacity="0.5">
<path d="M96.7205 80.1672L96.4806 80.3148L94.2477 79.0231L94.4876 78.8939L96.7205 80.1672Z" fill="#B662ED"/>
</g>
<g style="mix-blend-mode:multiply" opacity="0.5">
<path d="M99.1933 82.7138L98.9534 82.8429L94.746 80.4256L95.0044 80.278L99.1933 82.7138Z" fill="#B662ED"/>
</g>
<g style="mix-blend-mode:multiply" opacity="0.5">
<path d="M100.633 82.7139L96.8127 80.4995L97.0526 80.3704L100.872 82.5663L100.633 82.7139Z" fill="#B662ED"/>
</g>
<g style="mix-blend-mode:multiply" opacity="0.5">
<path d="M85.5378 70.2394L87.4938 71.365L87.2355 71.4942L85.2979 70.3686L85.5378 70.2394Z" fill="#B662ED"/>
</g>
<g style="mix-blend-mode:multiply" opacity="0.5">
<path d="M67.638 60.1821L67.8779 60.0345L70.203 61.3816L69.9631 61.5108L67.638 60.1821Z" fill="#B662ED"/>
</g>
<g style="mix-blend-mode:multiply" opacity="0.5">
<path d="M75.9237 66.0689L76.1635 65.9213L80.334 68.3202L80.0941 68.4678L75.9237 66.0689Z" fill="#B662ED"/>
</g>
<g style="mix-blend-mode:multiply" opacity="0.5">
<path d="M86.3129 72.0661L80.4078 68.6523L80.6477 68.5231L86.5528 71.9185L86.3129 72.0661Z" fill="#B662ED"/>
</g>
<g style="mix-blend-mode:multiply" opacity="0.5">
<path d="M77.2337 65.4415L79.5588 66.7701L79.3189 66.9177L76.9938 65.5707L77.2337 65.4415Z" fill="#B662ED"/>
</g>
<g style="mix-blend-mode:multiply" opacity="0.5">
<path d="M72.362 63.7253L75.8313 65.7368L75.5914 65.8844L72.1221 63.8729L72.362 63.7253Z" fill="#B662ED"/>
</g>
<g style="mix-blend-mode:multiply" opacity="0.5">
<path d="M76.92 65.2569L76.6617 65.3861L74.8163 64.3158L75.0562 64.1866L76.92 65.2569Z" fill="#B662ED"/>
</g>
<g style="mix-blend-mode:multiply" opacity="0.5">
<path d="M79.8726 66.9731L85.2056 70.0364L84.9657 70.1841L79.6327 67.1023L79.8726 66.9731Z" fill="#B662ED"/>
</g>
<g style="mix-blend-mode:multiply" opacity="0.5">
<path d="M70.2953 61.7138L70.5352 61.5662L74.7241 63.9835L74.4842 64.1312L70.2953 61.7138Z" fill="#B662ED"/>
</g>
<g style="mix-blend-mode:multiply" opacity="0.5">
<path d="M71.1811 65.5522L70.9412 65.6998L67.4535 63.6884L67.6934 63.5408L71.1811 65.5522Z" fill="#B662ED"/>
</g>
<g style="mix-blend-mode:multiply" opacity="0.5">
<path d="M74.3919 68.5232L74.152 68.6523L71.8269 67.3237L72.0853 67.1761L74.3919 68.5232Z" fill="#B662ED"/>
</g>
<g style="mix-blend-mode:multiply" opacity="0.5">
<path d="M71.2549 65.8842L71.4947 65.7366L75.6652 68.154L75.4253 68.2832L71.2549 65.8842Z" fill="#B662ED"/>
</g>
<g style="mix-blend-mode:multiply" opacity="0.5">
<path d="M71.7531 66.9916L71.5132 67.1208L67.9148 65.054L68.1547 64.9064L71.7531 66.9916Z" fill="#B662ED"/>
</g>
<g style="mix-blend-mode:multiply" opacity="0.5">
<path d="M75.9973 68.3387L84.3936 73.1919L84.1537 73.3211L75.7574 68.4679L75.9973 68.3387Z" fill="#B662ED"/>
</g>
<g style="mix-blend-mode:multiply" opacity="0.5">
<path d="M67.3612 63.3562L67.1213 63.5038L65.276 62.415L65.5159 62.2859L67.3612 63.3562Z" fill="#B662ED"/>
</g>
<g style="mix-blend-mode:multiply" opacity="0.5">
<path d="M83.3972 73.7086L83.1573 73.8562L80.131 72.1031L80.3709 71.9739L83.3972 73.7086Z" fill="#B662ED"/>
</g>
<g style="mix-blend-mode:multiply" opacity="0.5">
<path d="M80.0386 71.7894L79.7987 71.9186L74.4842 68.8368L74.7241 68.7076L80.0386 71.7894Z" fill="#B662ED"/>
</g>
<g style="mix-blend-mode:multiply" opacity="0.5">
<path d="M63.5967 61.1787L65.1837 62.1014L64.9438 62.2306L63.3568 61.3263L63.5967 61.1787Z" fill="#B662ED"/>
</g>
<g style="mix-blend-mode:multiply" opacity="0.5">
<path d="M108.125 50.6788L113.679 53.8897L113.328 54.0742L107.792 50.8818L108.125 50.6788Z" fill="#B662ED"/>
</g>
<g style="mix-blend-mode:multiply" opacity="0.5">
<path d="M114.233 49.8668L113.882 50.0513L107.793 46.5452L108.125 46.3422L114.233 49.8668Z" fill="#B662ED"/>
</g>
<g style="mix-blend-mode:multiply" opacity="0.5">
<path d="M107.94 48.4089L113.55 51.6383L113.199 51.8413L107.608 48.612L107.94 48.4089Z" fill="#B662ED"/>
</g>
<g style="mix-blend-mode:multiply" opacity="0.5">
<path d="M125.803 54.3695L129.106 56.2887L128.774 56.4732L125.471 54.5725L125.803 54.3695Z" fill="#B662ED"/>
</g>
<g style="mix-blend-mode:multiply" opacity="0.5">
<path d="M106.981 48.2429L94.4324 40.9907L94.783 40.8062L107.313 48.0399L106.981 48.2429Z" fill="#B662ED"/>
</g>
<g style="mix-blend-mode:multiply" opacity="0.5">
<path d="M114.602 56.5839L117.887 58.4846L117.554 58.6875L114.251 56.7868L114.602 56.5839Z" fill="#B662ED"/>
</g>
<g style="mix-blend-mode:multiply" opacity="0.5">
<path d="M103.364 48.3352L97.754 45.0874L98.1045 44.9028L103.696 48.1322L103.364 48.3352Z" fill="#B662ED"/>
</g>
<g style="mix-blend-mode:multiply" opacity="0.5">
<path d="M136.69 63.227L137.023 63.024L144.699 67.4528L144.367 67.6559L136.69 63.227Z" fill="#B662ED"/>
</g>
<g style="mix-blend-mode:multiply" opacity="0.5">
<path d="M97.1265 44.7183L92.55 42.0794L92.9007 41.8949L97.4771 44.5338L97.1265 44.7183Z" fill="#B662ED"/>
</g>
<g style="mix-blend-mode:multiply" opacity="0.5">
<path d="M148.667 67.5636L148.316 67.7666L139.864 62.8949L140.197 62.6919L148.667 67.5636Z" fill="#B662ED"/>
</g>
<g style="mix-blend-mode:multiply" opacity="0.5">
<path d="M129.457 59.0565L123.404 55.5504L123.755 55.3658L129.807 58.8535L129.457 59.0565Z" fill="#B662ED"/>
</g>
<g style="mix-blend-mode:multiply" opacity="0.5">
<path d="M138.148 61.4924L139.588 62.3229L139.237 62.5259L137.798 61.6954L138.148 61.4924Z" fill="#B662ED"/>
</g>
<g style="mix-blend-mode:multiply" opacity="0.5">
<path d="M119.935 62.3044L120.285 62.1014L128.054 66.6041L127.722 66.7886L119.935 62.3044Z" fill="#B662ED"/>
</g>
<g style="mix-blend-mode:multiply" opacity="0.5">
<path d="M97.9015 40.8432L96.3145 39.9205L96.6467 39.7175L98.2521 40.6402L97.9015 40.8432Z" fill="#B662ED"/>
</g>
<g style="mix-blend-mode:multiply" opacity="0.5">
<path d="M138.868 73.2288L130.398 68.3387L130.748 68.1541L139.2 73.0258L138.868 73.2288Z" fill="#B662ED"/>
</g>
<g style="mix-blend-mode:multiply" opacity="0.5">
<path d="M104.323 48.4828L107.497 50.3281L107.165 50.5311L103.991 48.6858L104.323 48.4828Z" fill="#B662ED"/>
</g>
<g style="mix-blend-mode:multiply" opacity="0.5">
<path d="M98.8795 40.9907L101.278 42.3747L100.928 42.5777L98.5289 41.1937L98.8795 40.9907Z" fill="#B662ED"/>
</g>
<g style="mix-blend-mode:multiply" opacity="0.5">
<path d="M114.288 54.2402L119.326 57.1559L118.975 57.3404L113.956 54.4433L114.288 54.2402Z" fill="#B662ED"/>
</g>
<g style="mix-blend-mode:multiply" opacity="0.5">
<path d="M146.655 71.1436L138.204 66.2719L138.536 66.0689L146.987 70.959L146.655 71.1436Z" fill="#B662ED"/>
</g>
<g style="mix-blend-mode:multiply" opacity="0.5">
<path d="M132.889 65.3677L133.221 65.1831L140.898 69.612L140.566 69.7964L132.889 65.3677Z" fill="#B662ED"/>
</g>
<g style="mix-blend-mode:multiply" opacity="0.5">
<path d="M128.645 65.0909L128.995 64.9064L137.447 69.7781L137.115 69.981L128.645 65.0909Z" fill="#B662ED"/>
</g>
<g style="mix-blend-mode:multiply" opacity="0.5">
<path d="M138.074 70.147L147.19 75.4063L146.858 75.6093L137.724 70.3316L138.074 70.147Z" fill="#B662ED"/>
</g>
<g style="mix-blend-mode:multiply" opacity="0.5">
<path d="M141.525 69.9625L149.073 74.3175L148.722 74.5205L141.193 70.1655L141.525 69.9625Z" fill="#B662ED"/>
</g>
<g style="mix-blend-mode:multiply" opacity="0.5">
<path d="M137.521 61.1419L137.17 61.3264L129.401 56.8422L129.734 56.6393L137.521 61.1419Z" fill="#B662ED"/>
</g>
<g style="mix-blend-mode:multiply" opacity="0.5">
<path d="M108.641 44.866L98.1967 38.8317L98.5289 38.6288L108.992 44.663L108.641 44.866Z" fill="#B662ED"/>
</g>
<g style="mix-blend-mode:multiply" opacity="0.5">
<path d="M139.827 73.3948L145.253 76.5319L144.921 76.7164L139.495 73.5979L139.827 73.3948Z" fill="#B662ED"/>
</g>
<g style="mix-blend-mode:multiply" opacity="0.5">
<path d="M147.615 71.3096L150.955 73.2288L150.604 73.4318L147.283 71.5126L147.615 71.3096Z" fill="#B662ED"/>
</g>
<g style="mix-blend-mode:multiply" opacity="0.5">
<path d="M149.294 67.9327L154.719 71.0698L154.369 71.2543L148.943 68.1357L149.294 67.9327Z" fill="#B662ED"/>
</g>
<g style="mix-blend-mode:multiply" opacity="0.5">
<path d="M145.327 67.8219L152.837 72.1584L152.487 72.3429L144.994 68.0249L145.327 67.8219Z" fill="#B662ED"/>
</g>
<g style="mix-blend-mode:multiply" opacity="0.5">
<path d="M101.555 42.9469L101.906 42.7439L107.497 45.9732L107.165 46.1762L101.555 42.9469Z" fill="#B662ED"/>
</g>
<g style="mix-blend-mode:multiply" opacity="0.5">
<path d="M127.722 60.2193L128.073 60.0162L135.842 64.5189L135.509 64.7218L127.722 60.2193Z" fill="#B662ED"/>
</g>
<g style="mix-blend-mode:multiply" opacity="0.5">
<path d="M137.908 65.6998L137.576 65.9028L136.137 65.0723L136.469 64.8694L137.908 65.6998Z" fill="#B662ED"/>
</g>
<g style="mix-blend-mode:multiply" opacity="0.5">
<path d="M126.283 61.5662L126.633 61.3633L132.594 64.8141L132.262 65.017L126.283 61.5662Z" fill="#B662ED"/>
</g>
<g style="mix-blend-mode:multiply" opacity="0.5">
<path d="M125.655 61.1971L119.603 57.7094L119.953 57.5065L126.006 61.0126L125.655 61.1971Z" fill="#B662ED"/>
</g>
<g style="mix-blend-mode:multiply" opacity="0.5">
<path d="M130.084 59.4072L130.435 59.2227L136.395 62.6734L136.063 62.858L130.084 59.4072Z" fill="#B662ED"/>
</g>
<g style="mix-blend-mode:multiply" opacity="0.5">
<path d="M126.578 63.9099L126.929 63.7069L128.368 64.5373L128.017 64.7403L126.578 63.9099Z" fill="#B662ED"/>
</g>
<g style="mix-blend-mode:multiply" opacity="0.5">
<path d="M130.121 67.785L129.789 67.988L128.35 67.1576L128.682 66.9547L130.121 67.785Z" fill="#B662ED"/>
</g>
<g style="mix-blend-mode:multiply" opacity="0.5">
<path d="M120.894 55.8827L123.515 57.3959L123.183 57.5988L120.544 56.0857L120.894 55.8827Z" fill="#B662ED"/>
</g>
<g style="mix-blend-mode:multiply" opacity="0.5">
<path d="M115.211 48.2614L114.879 48.4644L109.269 45.2166L109.619 45.0321L115.211 48.2614Z" fill="#B662ED"/>
</g>
<g style="mix-blend-mode:multiply" opacity="0.5">
<path d="M121.928 52.1366L121.596 52.3396L115.506 48.815L115.838 48.6305L121.928 52.1366Z" fill="#B662ED"/>
</g>
<g style="mix-blend-mode:multiply" opacity="0.5">
<path d="M117.13 51.9336L114.51 50.4204L114.842 50.2174L117.48 51.7306L117.13 51.9336Z" fill="#B662ED"/>
</g>
<g style="mix-blend-mode:multiply" opacity="0.5">
<path d="M122.777 55.1998L117.757 52.3026L118.089 52.0996L123.127 54.9968L122.777 55.1998Z" fill="#B662ED"/>
</g>
<g style="mix-blend-mode:multiply" opacity="0.5">
<path d="M114.177 52.0074L120.267 55.5136L119.935 55.7166L113.827 52.192L114.177 52.0074Z" fill="#B662ED"/>
</g>
<g style="mix-blend-mode:multiply" opacity="0.5">
<path d="M118.514 58.8536L126.301 63.3378L125.951 63.5408L118.182 59.0567L118.514 58.8536Z" fill="#B662ED"/>
</g>
<g style="mix-blend-mode:multiply" opacity="0.5">
<path d="M125.194 54.0188L124.843 54.2218L122.223 52.6902L122.555 52.5056L125.194 54.0188Z" fill="#B662ED"/>
</g>
<g style="mix-blend-mode:multiply" opacity="0.5">
<path d="M127.445 59.6656L127.095 59.8686L123.81 57.9494L124.142 57.7649L127.445 59.6656Z" fill="#B662ED"/>
</g>
<g style="mix-blend-mode:multiply" opacity="0.5">
<path d="M88.7487 47.8554C97.3479 47.3018 105.098 50.8633 106.076 55.8273C107.054 60.7912 100.891 65.2754 92.2917 65.8474C83.6924 66.4195 75.9236 62.8395 74.9456 57.8756C73.9675 52.9116 80.1494 48.3721 88.7487 47.8554ZM81.7179 57.0821C82.2715 59.887 86.645 61.9169 91.5167 61.5847C96.3884 61.2526 99.876 58.7429 99.3224 55.938C98.7688 53.1331 94.377 51.1032 89.5053 51.4354C84.6336 51.7675 81.1643 54.3694 81.7179 57.1743V57.0821Z" fill="#B662ED"/>
</g>
</g>
<g style="mix-blend-mode:multiply" opacity="0.3">
<g style="mix-blend-mode:multiply" opacity="0.3">
<path d="M151.545 40.8246L139.828 34.0522L139.237 34.4028L138.886 33.6462L138.536 32.9081L139.828 33.1111L141.119 33.3141L140.473 33.6831L152.191 40.4555L160.458 35.6761L181.385 47.7446L178.838 49.2208L171.53 53.4467L150.604 41.3598L151.545 40.8246Z" fill="#B662ED"/>
</g>
<g style="mix-blend-mode:multiply" opacity="0.3">
<path d="M136.266 33.0742L126.043 27.1691L124.216 28.2209L124.88 28.6085L123.589 28.8115L122.297 29.0145L122.647 28.2579L122.998 27.5198L123.589 27.8704L125.415 26.8185L115.34 21.0057L125.194 15.3036L146.12 27.3906L136.266 33.0742Z" fill="#B662ED"/>
</g>
<g style="mix-blend-mode:multiply" opacity="0.3">
<path d="M146.268 43.8694L156.565 49.8114L158.41 48.7595L157.82 48.4089L159.111 48.2059L160.403 48.0029L160.052 48.7595L159.702 49.4976L159.056 49.1101L157.211 50.1805L167.194 55.9563L164.629 57.4326L157.34 61.64L136.414 49.5531L146.268 43.8694Z" fill="#B662ED"/>
</g>
<g style="mix-blend-mode:multiply" opacity="0.3">
<path d="M130.951 36.1559L142.743 42.9467L143.389 42.5776L143.74 43.3158L144.09 44.0539L142.798 43.8693L141.507 43.6664L142.097 43.3158L130.324 36.5065L129.364 37.0601L122.075 41.2859L101.149 29.1989L111.003 23.4968L131.929 35.5838L130.951 36.1559Z" fill="#B662ED"/>
</g>
<g style="mix-blend-mode:multiply" opacity="0.3">
<path d="M142.78 70.0178L140.326 71.4387L139.957 71.2172L142.411 69.8148L142.78 70.0178Z" fill="#B662ED"/>
</g>
<g style="mix-blend-mode:multiply" opacity="0.3">
<path d="M139.661 71.8078L137.226 73.2287L136.857 73.0257L139.311 71.6048L139.661 71.8078Z" fill="#B662ED"/>
</g>
<g style="mix-blend-mode:multiply" opacity="0.3">
<path d="M136.561 73.5979L134.107 75.0187L133.756 74.8157L136.211 73.3948L136.561 73.5979Z" fill="#B662ED"/>
</g>
<g style="mix-blend-mode:multiply" opacity="0.3">
<path d="M133.461 75.3878L131.007 76.8087L130.656 76.6056L133.111 75.1848L133.461 75.3878Z" fill="#B662ED"/>
</g>
<g style="mix-blend-mode:multiply" opacity="0.3">
<path d="M130.361 77.1776L127.907 78.5986L127.556 78.3956L130.01 76.9747L130.361 77.1776Z" fill="#B662ED"/>
</g>
<g style="mix-blend-mode:multiply" opacity="0.3">
<path d="M127.261 78.9677L124.806 80.3886L124.456 80.1856L126.91 78.7647L127.261 78.9677Z" fill="#B662ED"/>
</g>
<g style="mix-blend-mode:multiply" opacity="0.3">
<path d="M139.532 70.5715L116.133 57.0636L117.887 56.0487L141.285 69.5566L139.532 70.5715Z" fill="#B662ED"/>
</g>
<g style="mix-blend-mode:multiply" opacity="0.3">
<path d="M115.543 60.3114L117.296 59.2965L138.185 71.3465L136.432 72.3615L115.543 60.3114Z" fill="#B662ED"/>
</g>
<g style="mix-blend-mode:multiply" opacity="0.3">
<path d="M123.81 68.6708L125.563 67.6375L135.085 73.1366L133.314 74.1515L123.81 68.6708Z" fill="#B662ED"/>
</g>
<g style="mix-blend-mode:multiply" opacity="0.3">
<path d="M113.532 66.3087L115.303 65.2938L131.985 74.9265L130.213 75.9414L113.532 66.3087Z" fill="#B662ED"/>
</g>
<g style="mix-blend-mode:multiply" opacity="0.3">
<path d="M111.483 68.7077L113.255 67.6927L128.885 76.7164L127.113 77.7314L111.483 68.7077Z" fill="#B662ED"/>
</g>
<g style="mix-blend-mode:multiply" opacity="0.3">
<path d="M113.31 71.3096L125.766 78.5064L124.013 79.5214L111.539 72.3246L113.31 71.3096Z" fill="#B662ED"/>
</g>
<g style="mix-blend-mode:multiply" opacity="0.3">
<path d="M123.552 66.8254C123.847 66.9915 123.847 67.2683 123.552 67.4528C123.379 67.5349 123.19 67.5775 122.998 67.5775C122.807 67.5775 122.617 67.5349 122.444 67.4528C122.149 67.2683 122.149 66.9915 122.444 66.8254C122.615 66.7349 122.805 66.6876 122.998 66.6876C123.191 66.6876 123.381 66.7349 123.552 66.8254V66.8254Z" fill="#B662ED"/>
</g>
<g style="mix-blend-mode:multiply" opacity="0.3">
<path d="M113.218 64.4819C113.283 64.5046 113.339 64.547 113.379 64.6032C113.419 64.6594 113.441 64.7266 113.441 64.7956C113.441 64.8646 113.419 64.9318 113.379 64.988C113.339 65.0442 113.283 65.0867 113.218 65.1093C113.051 65.1998 112.864 65.2471 112.673 65.2471C112.483 65.2471 112.296 65.1998 112.129 65.1093C112.064 65.0867 112.007 65.0442 111.968 64.988C111.928 64.9318 111.906 64.8646 111.906 64.7956C111.906 64.7266 111.928 64.6594 111.968 64.6032C112.007 64.547 112.064 64.5046 112.129 64.4819C112.296 64.3915 112.483 64.3441 112.673 64.3441C112.864 64.3441 113.051 64.3915 113.218 64.4819V64.4819Z" fill="#B662ED"/>
</g>
<g style="mix-blend-mode:multiply" opacity="0.3">
<path d="M110.081 66.9176C110.248 66.8272 110.435 66.7798 110.625 66.7798C110.815 66.7798 111.002 66.8272 111.17 66.9176C111.235 66.9403 111.291 66.9827 111.331 67.039C111.371 67.0952 111.393 67.1624 111.393 67.2314C111.393 67.3004 111.371 67.3676 111.331 67.4238C111.291 67.48 111.235 67.5224 111.17 67.5451C111.002 67.6356 110.815 67.6829 110.625 67.6829C110.435 67.6829 110.248 67.6356 110.081 67.5451C110.016 67.5224 109.959 67.48 109.919 67.4238C109.879 67.3676 109.858 67.3004 109.858 67.2314C109.858 67.1624 109.879 67.0952 109.919 67.039C109.959 66.9827 110.016 66.9403 110.081 66.9176V66.9176Z" fill="#B662ED"/>
</g>
<g style="mix-blend-mode:multiply" opacity="0.3">
<path d="M115.967 55.9748C115.798 56.0566 115.612 56.0991 115.423 56.0991C115.235 56.0991 115.049 56.0566 114.879 55.9748C114.565 55.7903 114.565 55.5135 114.879 55.3289C115.049 55.2472 115.235 55.2047 115.423 55.2047C115.612 55.2047 115.798 55.2472 115.967 55.3289C116.281 55.5135 116.281 55.7534 115.967 55.9748Z" fill="#B662ED"/>
</g>
<g style="mix-blend-mode:multiply" opacity="0.3">
<path d="M110.727 71.328C110.299 71.328 109.952 71.1298 109.952 70.8852C109.952 70.6406 110.299 70.4423 110.727 70.4423C111.155 70.4423 111.502 70.6406 111.502 70.8852C111.502 71.1298 111.155 71.328 110.727 71.328Z" fill="#B662ED"/>
</g>
<g style="mix-blend-mode:multiply" opacity="0.3">
<path d="M115.285 59.1303C115.115 59.2121 114.929 59.2545 114.74 59.2545C114.552 59.2545 114.366 59.2121 114.196 59.1303C113.882 58.9457 113.882 58.669 114.196 58.4845C114.366 58.4027 114.552 58.3602 114.74 58.3602C114.929 58.3602 115.115 58.4027 115.285 58.4845C115.617 58.669 115.617 58.9457 115.285 59.1303Z" fill="#B662ED"/>
</g>
<g style="mix-blend-mode:multiply" opacity="0.3">
<path d="M163.023 27.2613L163.688 27.6488L171.291 23.257L171.936 23.6445L171.032 24.1612L171.604 24.4933L164.924 28.3685L166.105 29.0513L174.225 24.3457L174.871 24.7147L176.052 24.032L176.66 24.3826L167.342 29.7525L168.523 30.4353L177.528 25.2314L178.155 25.6005L179.428 24.8624L180.037 25.213L169.759 31.155L170.921 31.8378L176.476 28.6268L177.103 28.9959L178.229 28.35L178.838 28.7007L172.158 32.539L173.339 33.2218L178.524 30.2323L179.152 30.6014L182.233 28.8114L182.842 29.162L174.575 33.9414L175.756 34.6242L177.823 33.4247L178.469 33.7938L179.262 33.3325L179.871 33.6646L176.993 35.3254L178.174 36.0082L183.248 33.0741L183.894 33.4617L181.698 34.7165L182.27 35.0671L179.41 36.7279L180.591 37.4107L188.009 33.111L188.637 33.4801L189.319 33.0926L189.928 33.4247L181.809 38.1119L182.99 38.7947L187.474 36.2112L188.102 36.5618L192.438 34.0706L193.029 34.4212L184.226 39.5144L185.407 40.1971L192.973 35.8237L193.638 36.1927L193.029 36.5433L193.619 36.8755L186.644 40.8984L187.806 41.5811L194.394 37.7797L195.022 38.1488L195.815 37.6874L196.406 38.0381L189.043 42.3008L189.873 42.7621L189.319 43.0758L162.488 27.575L163.023 27.2613Z" fill="#B662ED"/>
</g>
<g style="mix-blend-mode:multiply" opacity="0.3">
<path d="M160.219 25.656L159.665 25.9697L132.834 10.4689L133.369 10.1552L134.033 10.5242L136.709 8.99263L137.336 9.36166L137.705 9.14023L138.296 9.49085L135.27 11.2439L136.451 11.9267L141.415 9.06646L142.042 9.41707L143.223 8.73425L143.832 9.08487L137.687 12.6279L138.868 13.3107L145.825 9.3063L146.452 9.67539L147.449 9.08487L148.058 9.43549L140.104 14.0304L141.285 14.7132L151.619 8.73425L152.247 9.10334L152.763 8.80808L153.372 9.1587L142.503 15.4144L143.684 16.0972L151.416 11.6499L152.044 12.0005L152.856 11.5392L153.465 11.8898L144.921 16.8168L146.102 17.4996L150.18 15.1376L150.826 15.5067L151.619 15.0453L152.228 15.3959L147.338 18.2193L148.519 18.8836L154.406 15.4882L155.052 15.8573L154.24 16.3371L154.83 16.6692L149.755 19.6033L150.936 20.2861L153.538 18.7729L154.184 19.142L153.151 19.7509L153.741 20.0831L152.173 21.0058L153.335 21.6701L155.587 20.3783L156.214 20.7474L158.632 19.3449L159.222 19.6956L154.572 22.3898L155.753 23.0725L157.856 21.8546L158.502 22.2237L157.893 22.5743L158.484 22.9249L156.989 23.7922L158.17 24.4566L161.418 22.5927L162.045 22.9434L162.82 22.5005L163.429 22.8511L159.407 25.1762L160.219 25.656Z" fill="#B662ED"/>
</g>
<g style="mix-blend-mode:multiply" opacity="0.3">
<path d="M88.7487 39.9389C97.348 39.3668 105.098 42.9283 106.076 47.8922C107.054 52.8562 100.891 57.3404 92.2917 57.9125C83.6925 58.4845 75.9236 54.9046 74.9456 49.9406C73.9676 44.9766 80.1494 40.4925 88.7487 39.9389ZM81.718 49.4977C82.2716 52.3026 86.645 54.3325 91.5167 54.0003C96.3884 53.6681 99.8761 51.1585 99.3225 48.3352C98.7689 45.5118 94.377 43.5188 89.5053 43.8325C84.6336 44.1462 81.1644 46.6928 81.718 49.4977Z" fill="#B662ED"/>
</g>
<g style="mix-blend-mode:multiply" opacity="0.3">
<path d="M147.578 25.1578L145.806 24.1244L127.722 13.6799L130.546 12.0375L150.475 23.5524L168.652 34.0523L186.828 44.5339L183.986 46.1762L165.81 35.6762L147.578 25.1578Z" fill="#B662ED"/>
</g>
<g style="mix-blend-mode:multiply" opacity="0.3">
<path d="M119.307 82.4923C119.508 82.3917 119.729 82.3393 119.953 82.3393C120.178 82.3393 120.399 82.3917 120.599 82.4923C120.95 82.7137 120.95 83.0459 120.599 83.2489C120.399 83.3495 120.178 83.402 119.953 83.402C119.729 83.402 119.508 83.3495 119.307 83.2489C118.975 83.0459 118.975 82.7137 119.307 82.4923Z" fill="#B662ED"/>
</g>
<g style="mix-blend-mode:multiply" opacity="0.3">
<path d="M116.853 85.1865C116.354 85.1865 115.949 84.9551 115.949 84.6698C115.949 84.3844 116.354 84.1531 116.853 84.1531C117.353 84.1531 117.757 84.3844 117.757 84.6698C117.757 84.9551 117.353 85.1865 116.853 85.1865Z" fill="#B662ED"/>
</g>
<g style="mix-blend-mode:multiply" opacity="0.3">
<path d="M89.0439 65.5336C88.5445 65.5336 88.1397 65.3023 88.1397 65.0169C88.1397 64.7316 88.5445 64.5002 89.0439 64.5002C89.5433 64.5002 89.9481 64.7316 89.9481 65.0169C89.9481 65.3023 89.5433 65.5336 89.0439 65.5336Z" fill="#B662ED"/>
</g>
<g style="mix-blend-mode:multiply" opacity="0.3">
<path d="M85.261 66.4564C85.4614 66.3557 85.6826 66.3033 85.9068 66.3033C86.1311 66.3033 86.3523 66.3557 86.5527 66.4564C86.6309 66.4814 86.6991 66.5306 86.7476 66.597C86.796 66.6633 86.8221 66.7433 86.8221 66.8254C86.8221 66.9076 86.796 66.9876 86.7476 67.0539C86.6991 67.1202 86.6309 67.1695 86.5527 67.1945C86.3523 67.2952 86.1311 67.3475 85.9068 67.3475C85.6826 67.3475 85.4614 67.2952 85.261 67.1945C85.1828 67.1695 85.1145 67.1202 85.0661 67.0539C85.0177 66.9876 84.9916 66.9076 84.9916 66.8254C84.9916 66.7433 85.0177 66.6633 85.0661 66.597C85.1145 66.5306 85.1828 66.4814 85.261 66.4564Z" fill="#B662ED"/>
</g>
<g style="mix-blend-mode:multiply" opacity="0.3">
<path d="M102.644 73.6532L100.78 72.5828L101.02 72.4352L102.884 73.5055L102.644 73.6532Z" fill="#B662ED"/>
</g>
<g style="mix-blend-mode:multiply" opacity="0.3">
<path d="M101.057 71.3465L100.817 71.4941L98.4921 70.147L98.732 70.0179L101.057 71.3465Z" fill="#B662ED"/>
</g>
<g style="mix-blend-mode:multiply" opacity="0.3">
<path d="M106.778 76.0336L107.018 75.9045L111.188 78.3034L110.948 78.4326L106.778 76.0336Z" fill="#B662ED"/>
</g>
<g style="mix-blend-mode:multiply" opacity="0.3">
<path d="M100.707 72.2507L100.448 72.3798L97.8094 70.8667L98.0492 70.719L100.707 72.2507Z" fill="#B662ED"/>
</g>
<g style="mix-blend-mode:multiply" opacity="0.3">
<path d="M107.774 75.2216L107.534 75.3693L105.67 74.2806L105.91 74.1514L107.774 75.2216Z" fill="#B662ED"/>
</g>
<g style="mix-blend-mode:multiply" opacity="0.3">
<path d="M106.445 75.8491L102.976 73.8377L103.216 73.6901L106.685 75.7015L106.445 75.8491Z" fill="#B662ED"/>
</g>
<g style="mix-blend-mode:multiply" opacity="0.3">
<path d="M110.727 76.9379L116.06 80.0195L115.82 80.1487L110.487 77.0855L110.727 76.9379Z" fill="#B662ED"/>
</g>
<g style="mix-blend-mode:multiply" opacity="0.3">
<path d="M110.173 76.8825L107.848 75.5538L108.088 75.4062L110.413 76.7533L110.173 76.8825Z" fill="#B662ED"/>
</g>
<g style="mix-blend-mode:multiply" opacity="0.3">
<path d="M117.185 82.031L111.28 78.6356L111.52 78.488L117.425 81.9019L117.185 82.031Z" fill="#B662ED"/>
</g>
<g style="mix-blend-mode:multiply" opacity="0.3">
<path d="M105.578 73.9669L105.338 74.0961L101.149 71.6787L101.389 71.5311L105.578 73.9669Z" fill="#B662ED"/>
</g>
<g style="mix-blend-mode:multiply" opacity="0.3">
<path d="M116.392 80.204L118.348 81.3297L118.108 81.4773L116.152 80.3332L116.392 80.204Z" fill="#B662ED"/>
</g>
<g style="mix-blend-mode:multiply" opacity="0.3">
<path d="M114.473 83.5996L114.233 83.7472L109.767 81.1637L110.007 81.0161L114.473 83.5996Z" fill="#B662ED"/>
</g>
<g style="mix-blend-mode:multiply" opacity="0.3">
<path d="M109.49 79.6321L115.451 83.0644L115.211 83.1936L109.25 79.7613L109.49 79.6321Z" fill="#B662ED"/>
</g>
<g style="mix-blend-mode:multiply" opacity="0.3">
<path d="M109.675 80.8315L109.435 80.9792L104.102 77.8974L104.342 77.7498L109.675 80.8315Z" fill="#B662ED"/>
</g>
<g style="mix-blend-mode:multiply" opacity="0.3">
<path d="M104.766 77.1593L105.006 77.0301L109.158 79.429L108.918 79.5767L104.766 77.1593Z" fill="#B662ED"/>
</g>
<g style="mix-blend-mode:multiply" opacity="0.3">
<path d="M101.371 76.0336L101.131 76.1813L99.2856 75.111L99.5255 74.9634L101.371 76.0336Z" fill="#B662ED"/>
</g>
<g style="mix-blend-mode:multiply" opacity="0.3">
<path d="M104.434 76.9748L100.965 74.9634L101.205 74.8342L104.674 76.8456L104.434 76.9748Z" fill="#B662ED"/>
</g>
<g style="mix-blend-mode:multiply" opacity="0.3">
<path d="M104.028 77.5653L103.788 77.6945L101.463 76.3658L101.703 76.2366L104.028 77.5653Z" fill="#B662ED"/>
</g>
<g style="mix-blend-mode:multiply" opacity="0.3">
<path d="M96.7205 72.2506L96.4806 72.3798L94.2478 71.088L94.4877 70.9589L96.7205 72.2506Z" fill="#B662ED"/>
</g>
<g style="mix-blend-mode:multiply" opacity="0.3">
<path d="M99.1933 74.7787L98.9534 74.9079L94.746 72.4905L95.0044 72.3613L99.1933 74.7787Z" fill="#B662ED"/>
</g>
<g style="mix-blend-mode:multiply" opacity="0.3">
<path d="M100.633 74.7788L96.8127 72.5828L97.0526 72.4352L100.872 74.6496L100.633 74.7788Z" fill="#B662ED"/>
</g>
<g style="mix-blend-mode:multiply" opacity="0.3">
<path d="M85.5378 62.3043L87.4938 63.43L87.2355 63.5776L85.2979 62.452L85.5378 62.3043Z" fill="#B662ED"/>
</g>
<g style="mix-blend-mode:multiply" opacity="0.3">
<path d="M67.638 52.2472L67.8779 52.118L70.203 53.4467L69.9631 53.5943L67.638 52.2472Z" fill="#B662ED"/>
</g>
<g style="mix-blend-mode:multiply" opacity="0.3">
<path d="M75.9237 58.1339L76.1636 58.0048L80.334 60.4037L80.0941 60.5513L75.9237 58.1339Z" fill="#B662ED"/>
</g>
<g style="mix-blend-mode:multiply" opacity="0.3">
<path d="M86.3129 64.1496L80.4079 60.7358L80.6478 60.5881L86.5528 64.002L86.3129 64.1496Z" fill="#B662ED"/>
</g>
<g style="mix-blend-mode:multiply" opacity="0.3">
<path d="M77.2337 57.5065L79.5589 58.8535L79.319 58.9827L76.9939 57.6541L77.2337 57.5065Z" fill="#B662ED"/>
</g>
<g style="mix-blend-mode:multiply" opacity="0.3">
<path d="M72.3621 55.8087L75.8313 57.8017L75.5914 57.9493L72.1222 55.9379L72.3621 55.8087Z" fill="#B662ED"/>
</g>
<g style="mix-blend-mode:multiply" opacity="0.3">
<path d="M76.92 57.3219L76.6617 57.4695L74.8164 56.3992L75.0563 56.2516L76.92 57.3219Z" fill="#B662ED"/>
</g>
<g style="mix-blend-mode:multiply" opacity="0.3">
<path d="M79.8726 59.0381L85.2056 62.1198L84.9657 62.249L79.6327 59.1857L79.8726 59.0381Z" fill="#B662ED"/>
</g>
<g style="mix-blend-mode:multiply" opacity="0.3">
<path d="M70.2954 53.7788L70.5353 53.6497L74.7242 56.0671L74.4843 56.1962L70.2954 53.7788Z" fill="#B662ED"/>
</g>
<g style="mix-blend-mode:multiply" opacity="0.3">
<path d="M71.1812 57.6173L70.9412 57.7649L67.4536 55.7535L67.6935 55.6243L71.1812 57.6173Z" fill="#B662ED"/>
</g>
<g style="mix-blend-mode:multiply" opacity="0.3">
<path d="M74.392 60.5881L74.152 60.7173L71.8269 59.3887L72.0853 59.2411L74.392 60.5881Z" fill="#B662ED"/>
</g>
<g style="mix-blend-mode:multiply" opacity="0.3">
<path d="M71.2549 57.9493L71.4948 57.8201L75.6652 60.219L75.4253 60.3666L71.2549 57.9493Z" fill="#B662ED"/>
</g>
<g style="mix-blend-mode:multiply" opacity="0.3">
<path d="M71.7531 59.0565L71.5133 59.2041L67.9148 57.1189L68.1547 56.9897L71.7531 59.0565Z" fill="#B662ED"/>
</g>
<g style="mix-blend-mode:multiply" opacity="0.3">
<path d="M75.9974 60.4036L84.3936 65.2568L84.1537 65.4045L75.7575 60.5512L75.9974 60.4036Z" fill="#B662ED"/>
</g>
<g style="mix-blend-mode:multiply" opacity="0.3">
<path d="M67.3612 55.4212L67.1213 55.5688L65.276 54.4985L65.5159 54.3508L67.3612 55.4212Z" fill="#B662ED"/>
</g>
<g style="mix-blend-mode:multiply" opacity="0.3">
<path d="M83.3972 65.792L83.1574 65.9212L80.131 64.1866L80.3709 64.0389L83.3972 65.792Z" fill="#B662ED"/>
</g>
<g style="mix-blend-mode:multiply" opacity="0.3">
<path d="M80.0387 63.8544L79.7988 63.9836L74.4842 60.9203L74.7241 60.7727L80.0387 63.8544Z" fill="#B662ED"/>
</g>
<g style="mix-blend-mode:multiply" opacity="0.3">
<path d="M63.5968 53.2622L65.1838 54.1665L64.9439 54.2956L63.3569 53.3914L63.5968 53.2622Z" fill="#B662ED"/>
</g>
<g style="mix-blend-mode:multiply" opacity="0.3">
<path d="M108.125 42.7622L113.679 45.9547L113.328 46.1576L107.792 42.9468L108.125 42.7622Z" fill="#B662ED"/>
</g>
<g style="mix-blend-mode:multiply" opacity="0.3">
<path d="M114.233 41.9318L113.882 42.1348L107.793 38.6102L108.125 38.4257L114.233 41.9318Z" fill="#B662ED"/>
</g>
<g style="mix-blend-mode:multiply" opacity="0.3">
<path d="M107.94 40.474L113.55 43.7218L113.199 43.9063L107.608 40.677L107.94 40.474Z" fill="#B662ED"/>
</g>
<g style="mix-blend-mode:multiply" opacity="0.3">
<path d="M125.803 46.4529L129.106 48.3536L128.774 48.5566L125.471 46.6559L125.803 46.4529Z" fill="#B662ED"/>
</g>
<g style="mix-blend-mode:multiply" opacity="0.3">
<path d="M106.981 40.3079L94.4324 33.0742L94.783 32.8712L107.313 40.1234L106.981 40.3079Z" fill="#B662ED"/>
</g>
<g style="mix-blend-mode:multiply" opacity="0.3">
<path d="M114.602 48.6674L117.887 50.5681L117.554 50.771L114.251 48.8519L114.602 48.6674Z" fill="#B662ED"/>
</g>
<g style="mix-blend-mode:multiply" opacity="0.3">
<path d="M103.364 40.4003L97.754 37.171L98.1046 36.968L103.696 40.1974L103.364 40.4003Z" fill="#B662ED"/>
</g>
<g style="mix-blend-mode:multiply" opacity="0.3">
<path d="M136.69 55.2921L137.023 55.1075L144.699 59.5363L144.367 59.7209L136.69 55.2921Z" fill="#B662ED"/>
</g>
<g style="mix-blend-mode:multiply" opacity="0.3">
<path d="M97.1265 36.8019L92.5501 34.163L92.9007 33.9601L97.4771 36.5989L97.1265 36.8019Z" fill="#B662ED"/>
</g>
<g style="mix-blend-mode:multiply" opacity="0.3">
<path d="M148.667 59.6471L148.316 59.8501L139.864 54.96L140.197 54.757L148.667 59.6471Z" fill="#B662ED"/>
</g>
<g style="mix-blend-mode:multiply" opacity="0.3">
<path d="M129.457 51.1216L123.404 47.6339L123.755 47.4309L129.807 50.9186L129.457 51.1216Z" fill="#B662ED"/>
</g>
<g style="mix-blend-mode:multiply" opacity="0.3">
<path d="M138.148 53.5759L139.588 54.4063L139.237 54.5908L137.798 53.7605L138.148 53.5759Z" fill="#B662ED"/>
</g>
<g style="mix-blend-mode:multiply" opacity="0.3">
<path d="M119.935 54.3694L120.286 54.1848L128.054 58.669L127.722 58.872L119.935 54.3694Z" fill="#B662ED"/>
</g>
<g style="mix-blend-mode:multiply" opacity="0.3">
<path d="M97.9015 32.9081L96.3146 31.9854L96.6467 31.7825L98.2522 32.7051L97.9015 32.9081Z" fill="#B662ED"/>
</g>
<g style="mix-blend-mode:multiply" opacity="0.3">
<path d="M138.868 65.3122L130.398 60.4221L130.749 60.2191L139.2 65.1092L138.868 65.3122Z" fill="#B662ED"/>
</g>
<g style="mix-blend-mode:multiply" opacity="0.3">
<path d="M104.323 40.5663L107.497 42.3932L107.165 42.5962L103.991 40.7693L104.323 40.5663Z" fill="#B662ED"/>
</g>
<g style="mix-blend-mode:multiply" opacity="0.3">
<path d="M98.8796 33.0742L101.279 34.4582L100.928 34.6612L98.529 33.2588L98.8796 33.0742Z" fill="#B662ED"/>
</g>
<g style="mix-blend-mode:multiply" opacity="0.3">
<path d="M114.288 46.3237L119.326 49.2209L118.975 49.4239L113.956 46.5082L114.288 46.3237Z" fill="#B662ED"/>
</g>
<g style="mix-blend-mode:multiply" opacity="0.3">
<path d="M146.655 63.227L138.204 58.3369L138.536 58.1523L146.988 63.0241L146.655 63.227Z" fill="#B662ED"/>
</g>
<g style="mix-blend-mode:multiply" opacity="0.3">
<path d="M132.889 57.4512L133.221 57.2482L140.898 61.677L140.566 61.88L132.889 57.4512Z" fill="#B662ED"/>
</g>
<g style="mix-blend-mode:multiply" opacity="0.3">
<path d="M128.645 57.1743L128.995 56.9713L137.447 61.8614L137.115 62.046L128.645 57.1743Z" fill="#B662ED"/>
</g>
<g style="mix-blend-mode:multiply" opacity="0.3">
<path d="M138.075 62.212L147.19 67.4897L146.858 67.6742L137.724 62.415L138.075 62.212Z" fill="#B662ED"/>
</g>
<g style="mix-blend-mode:multiply" opacity="0.3">
<path d="M141.525 62.046L149.073 66.401L148.722 66.5855L141.193 62.2306L141.525 62.046Z" fill="#B662ED"/>
</g>
<g style="mix-blend-mode:multiply" opacity="0.3">
<path d="M137.521 53.2068L137.17 53.4098L129.401 48.9072L129.734 48.7227L137.521 53.2068Z" fill="#B662ED"/>
</g>
<g style="mix-blend-mode:multiply" opacity="0.3">
<path d="M108.641 36.9309L98.1967 30.8967L98.5289 30.7122L108.992 36.7464L108.641 36.9309Z" fill="#B662ED"/>
</g>
<g style="mix-blend-mode:multiply" opacity="0.3">
<path d="M139.828 65.4599L145.253 68.5969L144.921 68.8L139.495 65.6629L139.828 65.4599Z" fill="#B662ED"/>
</g>
<g style="mix-blend-mode:multiply" opacity="0.3">
<path d="M147.615 63.3931L150.955 65.3122L150.604 65.5152L147.283 63.5776L147.615 63.3931Z" fill="#B662ED"/>
</g>
<g style="mix-blend-mode:multiply" opacity="0.3">
<path d="M149.294 60.0162L154.719 63.1349L154.369 63.3378L148.943 60.2008L149.294 60.0162Z" fill="#B662ED"/>
</g>
<g style="mix-blend-mode:multiply" opacity="0.3">
<path d="M145.327 59.8868L152.837 64.2234L152.487 64.4264L144.995 60.0899L145.327 59.8868Z" fill="#B662ED"/>
</g>
<g style="mix-blend-mode:multiply" opacity="0.3">
<path d="M101.555 35.0119L101.906 34.8088L107.497 38.0566L107.165 38.2412L101.555 35.0119Z" fill="#B662ED"/>
</g>
<g style="mix-blend-mode:multiply" opacity="0.3">
<path d="M127.722 52.3026L128.073 52.0996L135.842 56.5838L135.509 56.7868L127.722 52.3026Z" fill="#B662ED"/>
</g>
<g style="mix-blend-mode:multiply" opacity="0.3">
<path d="M137.908 57.7833L137.576 57.9863L136.137 57.1374L136.469 56.9529L137.908 57.7833Z" fill="#B662ED"/>
</g>
<g style="mix-blend-mode:multiply" opacity="0.3">
<path d="M126.283 53.6312L126.633 53.4467L132.594 56.879L132.262 57.082L126.283 53.6312Z" fill="#B662ED"/>
</g>
<g style="mix-blend-mode:multiply" opacity="0.3">
<path d="M125.655 53.2622L119.603 49.7745L119.953 49.59L126.006 53.0776L125.655 53.2622Z" fill="#B662ED"/>
</g>
<g style="mix-blend-mode:multiply" opacity="0.3">
<path d="M130.084 51.4907L130.435 51.2877L136.395 54.7385L136.063 54.9415L130.084 51.4907Z" fill="#B662ED"/>
</g>
<g style="mix-blend-mode:multiply" opacity="0.3">
<path d="M126.578 55.9748L126.929 55.7719L128.368 56.6022L128.017 56.8052L126.578 55.9748Z" fill="#B662ED"/>
</g>
<g style="mix-blend-mode:multiply" opacity="0.3">
<path d="M130.121 59.8685L129.789 60.053L128.35 59.2226L128.682 59.0381L130.121 59.8685Z" fill="#B662ED"/>
</g>
<g style="mix-blend-mode:multiply" opacity="0.3">
<path d="M120.894 47.9476L123.515 49.4793L123.183 49.6638L120.544 48.1506L120.894 47.9476Z" fill="#B662ED"/>
</g>
<g style="mix-blend-mode:multiply" opacity="0.3">
<path d="M115.211 40.3264L114.879 40.5293L109.269 37.3L109.619 37.097L115.211 40.3264Z" fill="#B662ED"/>
</g>
<g style="mix-blend-mode:multiply" opacity="0.3">
<path d="M121.928 44.22L121.596 44.4046L115.506 40.8985L115.838 40.6954L121.928 44.22Z" fill="#B662ED"/>
</g>
<g style="mix-blend-mode:multiply" opacity="0.3">
<path d="M117.13 43.9986L114.51 42.4854L114.842 42.3009L117.481 43.8141L117.13 43.9986Z" fill="#B662ED"/>
</g>
<g style="mix-blend-mode:multiply" opacity="0.3">
<path d="M122.777 47.2648L117.757 44.3676L118.089 44.1647L123.127 47.0803L122.777 47.2648Z" fill="#B662ED"/>
</g>
<g style="mix-blend-mode:multiply" opacity="0.3">
<path d="M114.177 44.0724L120.267 47.5969L119.935 47.7815L113.827 44.2753L114.177 44.0724Z" fill="#B662ED"/>
</g>
<g style="mix-blend-mode:multiply" opacity="0.3">
<path d="M118.514 50.9186L126.301 55.4212L125.951 55.6242L118.182 51.1215L118.514 50.9186Z" fill="#B662ED"/>
</g>
<g style="mix-blend-mode:multiply" opacity="0.3">
<path d="M125.194 46.084L124.843 46.2869L122.223 44.7738L122.555 44.5708L125.194 46.084Z" fill="#B662ED"/>
</g>
<g style="mix-blend-mode:multiply" opacity="0.3">
<path d="M127.445 51.7306L127.095 51.9336L123.81 50.0329L124.142 49.83L127.445 51.7306Z" fill="#B662ED"/>
</g>
</g>
</g>
<path d="M139.827 25.1763L141.119 25.3794L140.473 25.7484L152.56 32.7238L151.933 33.0929L139.827 26.1175L139.237 26.4681L138.886 25.7115L138.536 24.9734L139.827 25.1763Z" fill="#DE78FF"/>
<path d="M143.74 35.3809L143.389 34.6428L142.743 35.0119L130.656 28.0365L130.01 28.4055L142.097 35.3809L141.507 35.7315L142.798 35.9345L144.09 36.1375L143.74 35.3809Z" fill="#8821D8"/>
<path d="M160.052 40.8247L159.702 41.5628L159.056 41.1937L149.442 46.7298L148.814 46.3607L158.41 40.8247L157.819 40.4741L159.111 40.2711L160.403 40.0681L160.052 40.8247Z" fill="#8821D8"/>
<path d="M123.589 20.8766L124.88 20.6736L124.216 20.3045L133.83 14.7501L133.203 14.381L123.589 19.9355L122.998 19.5848L122.647 20.323L122.297 21.0796L123.589 20.8766Z" fill="#DE78FF"/>
<path d="M150.604 33.4249L171.53 45.5119L181.385 39.8283L160.458 27.7413L150.604 33.4249Z" fill="#DE78FF"/>
<path d="M115.34 13.0707L136.266 25.1577L146.12 19.4556L125.194 7.36865L115.34 13.0707Z" fill="#DE78FF"/>
<path d="M157.912 29.2176L160.458 27.7413L181.385 39.8283L178.838 41.3046L157.912 29.2176Z" fill="#8821D8"/>
<path d="M122.647 8.8449L125.194 7.36865L146.12 19.4556L143.574 20.9319L122.647 8.8449Z" fill="#8821D8"/>
<path d="M136.414 41.6181L157.34 53.705L167.194 48.0214L146.268 35.9344L136.414 41.6181Z" fill="#DE78FF"/>
<path d="M101.149 21.2641L122.075 33.351L131.93 27.6489L111.003 15.5804L101.149 21.2641Z" fill="#DE78FF"/>
<path d="M143.703 37.4107L146.268 35.9344L167.194 48.0214L164.629 49.4976L143.703 37.4107Z" fill="#8821D8"/>
<path d="M108.438 17.0567L111.003 15.5804L131.93 27.6489L129.365 29.1252L108.438 17.0567Z" fill="#8821D8"/>
<path d="M139.957 63.3008L140.326 63.5038L142.78 62.0828L142.411 61.8799L139.957 63.3008Z" fill="#BD70E5"/>
<path d="M136.857 65.0907L137.226 65.2937L139.661 63.8728L139.311 63.6698L136.857 65.0907Z" fill="#BD70E5"/>
<path d="M133.756 66.8807L134.107 67.0837L136.561 65.6628L136.211 65.4598L133.756 66.8807Z" fill="#BD70E5"/>
<path d="M130.656 68.6707L131.007 68.8737L133.461 67.4528L133.111 67.2498L130.656 68.6707Z" fill="#BD70E5"/>
<path d="M127.556 70.4607L127.907 70.6636L130.361 69.2428L130.01 69.0398L127.556 70.4607Z" fill="#BD70E5"/>
<path d="M124.456 72.2506L124.806 72.4536L127.261 71.0327L126.91 70.8297L124.456 72.2506Z" fill="#BD70E5"/>
<path d="M116.133 49.1286L139.532 62.6365L141.285 61.6215L117.886 48.1136L116.133 49.1286Z" fill="#44BFE5"/>
<path d="M115.543 52.3763L136.432 64.4263L138.185 63.4114L117.296 51.3613L115.543 52.3763Z" fill="#DE78FF"/>
<path d="M123.81 60.7357L133.314 66.2163L135.085 65.2014L125.563 59.7207L123.81 60.7357Z" fill="#DE78FF"/>
<path d="M113.532 58.3737L130.213 68.0064L131.985 66.9914L115.303 57.3588L113.532 58.3737Z" fill="#97CC66"/>
<path d="M111.483 60.7911L127.113 69.7963L128.885 68.7814L113.255 59.7761L111.483 60.7911Z" fill="#F25A5A"/>
<path d="M111.539 64.3895L124.013 71.5863L125.766 70.5714L113.31 63.3746L111.539 64.3895Z" fill="#DE78FF"/>
<path d="M122.998 59.6839C122.57 59.6839 122.223 59.4856 122.223 59.241C122.223 58.9964 122.57 58.7981 122.998 58.7981C123.426 58.7981 123.773 58.9964 123.773 59.241C123.773 59.4856 123.426 59.6839 122.998 59.6839Z" fill="#DE78FF"/>
<path d="M112.129 56.5467C112.064 56.5694 112.007 56.6118 111.968 56.668C111.928 56.7243 111.906 56.7915 111.906 56.8605C111.906 56.9294 111.928 56.9967 111.968 57.0529C112.007 57.1091 112.064 57.1515 112.129 57.1741C112.296 57.2646 112.483 57.3119 112.673 57.3119C112.864 57.3119 113.051 57.2646 113.218 57.1741C113.283 57.1515 113.339 57.1091 113.379 57.0529C113.419 56.9967 113.441 56.9294 113.441 56.8605C113.441 56.7915 113.419 56.7243 113.379 56.668C113.339 56.6118 113.283 56.5694 113.218 56.5467C113.051 56.4563 112.864 56.4089 112.673 56.4089C112.483 56.4089 112.296 56.4563 112.129 56.5467V56.5467Z" fill="#97CC66"/>
<path d="M110.081 58.9828C110.016 59.0054 109.959 59.0478 109.919 59.104C109.879 59.1602 109.858 59.2275 109.858 59.2965C109.858 59.3655 109.879 59.4327 109.919 59.4889C109.959 59.5451 110.016 59.5875 110.081 59.6102C110.248 59.7006 110.435 59.748 110.625 59.748C110.815 59.748 111.002 59.7006 111.17 59.6102C111.235 59.5875 111.291 59.5451 111.331 59.4889C111.371 59.4327 111.393 59.3655 111.393 59.2965C111.393 59.2275 111.371 59.1602 111.331 59.104C111.291 59.0478 111.235 59.0054 111.17 58.9828C111.002 58.8923 110.815 58.845 110.625 58.845C110.435 58.845 110.248 58.8923 110.081 58.9828V58.9828Z" fill="#F25A5A"/>
<path d="M114.879 47.4125C114.565 47.5785 114.565 47.8553 114.879 48.0399C115.049 48.1216 115.235 48.1641 115.423 48.1641C115.612 48.1641 115.798 48.1216 115.967 48.0399C116.281 47.8553 116.281 47.5785 115.967 47.4125C115.8 47.322 115.613 47.2747 115.423 47.2747C115.233 47.2747 115.046 47.322 114.879 47.4125V47.4125Z" fill="#44BFE5"/>
<path d="M110.727 63.393C110.299 63.393 109.952 63.1947 109.952 62.9501C109.952 62.7055 110.299 62.5072 110.727 62.5072C111.155 62.5072 111.502 62.7055 111.502 62.9501C111.502 63.1947 111.155 63.393 110.727 63.393Z" fill="#DE78FF"/>
<path d="M114.196 50.5495C113.882 50.7341 113.882 51.0109 114.196 51.1954C114.366 51.2772 114.552 51.3196 114.74 51.3196C114.929 51.3196 115.115 51.2772 115.285 51.1954C115.598 51.0109 115.598 50.7341 115.285 50.5495C115.115 50.4678 114.929 50.4253 114.74 50.4253C114.552 50.4253 114.366 50.4678 114.196 50.5495Z" fill="#DE78FF"/>
<path d="M188.415 34.0338L189.006 34.3845L196.406 30.1217L195.815 29.7711L188.415 34.0338Z" fill="#BD70E5"/>
<path d="M187.769 33.6647L188.415 34.0522L195.04 30.2139L194.394 29.8448L187.769 33.6647Z" fill="#8821D8"/>
<path d="M185.998 32.6499L186.607 33.0006L193.619 28.9408L193.01 28.6086L185.998 32.6499Z" fill="#BD70E5"/>
<path d="M185.37 32.2808L186.016 32.6499L193.638 28.258L192.973 27.8889L185.37 32.2808Z" fill="#8821D8"/>
<path d="M183.58 31.2474L184.189 31.598L193.028 26.4865L192.438 26.1359L183.58 31.2474Z" fill="#BD70E5"/>
<path d="M182.953 30.8784L183.599 31.266L188.12 28.6456L187.474 28.2765L182.953 30.8784Z" fill="#8821D8"/>
<path d="M181.182 29.8634L181.772 30.214L189.928 25.5084L189.319 25.1578L181.182 29.8634Z" fill="#BD70E5"/>
<path d="M180.536 29.4944L181.181 29.8635L188.655 25.5639L188.009 25.1948L180.536 29.4944Z" fill="#8821D8"/>
<path d="M173.929 25.6745L174.538 26.0251L182.842 21.2272L182.233 20.895L173.929 25.6745Z" fill="#BD70E5"/>
<path d="M173.302 25.3054L173.948 25.6929L179.17 22.6666L178.524 22.2975L173.302 25.3054Z" fill="#8821D8"/>
<path d="M171.512 24.2905L172.121 24.6411L178.838 20.7659L178.229 20.4153L171.512 24.2905Z" fill="#BD70E5"/>
<path d="M170.885 23.9214L171.53 24.2904L177.122 21.0611L176.476 20.692L170.885 23.9214Z" fill="#8821D8"/>
<path d="M169.113 22.8881L169.704 23.2387L180.037 17.2782L179.428 16.9276L169.113 22.8881Z" fill="#BD70E5"/>
<path d="M168.467 22.5375L169.113 22.9066L178.174 17.6658L177.528 17.2968L168.467 22.5375Z" fill="#8821D8"/>
<path d="M166.696 21.504L167.305 21.8546L176.66 16.4478L176.051 16.0972L166.696 21.504Z" fill="#BD70E5"/>
<path d="M166.068 21.1349L166.714 21.504L174.889 16.78L174.224 16.4109L166.068 21.1349Z" fill="#8821D8"/>
<path d="M164.278 20.1015L164.887 20.4522L171.604 16.5585L171.014 16.2263L164.278 20.1015Z" fill="#BD70E5"/>
<path d="M163.651 19.7325L164.297 20.12L171.936 15.7096L171.29 15.3406L163.651 19.7325Z" fill="#8821D8"/>
<path d="M178.764 28.4611L179.355 28.8117L182.27 27.1325L181.68 26.7819L178.764 28.4611Z" fill="#BD70E5"/>
<path d="M178.137 28.0919L178.783 28.4794L183.894 25.5269L183.248 25.1578L178.137 28.0919Z" fill="#8821D8"/>
<path d="M176.347 27.077L176.956 27.4276L179.871 25.7483L179.262 25.3977L176.347 27.077Z" fill="#BD70E5"/>
<path d="M175.719 26.708L176.365 27.0771L178.469 25.8591L177.823 25.4901L175.719 26.708Z" fill="#8821D8"/>
<path d="M162.488 19.6587L189.319 35.141L189.873 34.8273L163.023 19.3265L162.488 19.6587Z" fill="#BD70E5"/>
<path d="M158.761 16.9092L159.351 17.2598L163.429 14.9162L162.82 14.5656L158.761 16.9092Z" fill="#BD70E5"/>
<path d="M158.115 16.5587L158.761 16.9277L162.064 15.027L161.418 14.658L158.115 16.5587Z" fill="#8821D8"/>
<path d="M156.343 15.5251L156.952 15.8757L158.484 14.9899L157.875 14.6393L156.343 15.5251Z" fill="#BD70E5"/>
<path d="M155.716 15.156L156.362 15.525L158.502 14.3071L157.857 13.9196L155.716 15.156Z" fill="#8821D8"/>
<path d="M153.926 14.1226L154.535 14.4733L159.222 11.7606L158.632 11.4285L153.926 14.1226Z" fill="#BD70E5"/>
<path d="M153.299 13.7721L153.944 14.1412L156.233 12.831L155.587 12.4435L153.299 13.7721Z" fill="#8821D8"/>
<path d="M151.527 12.7386L152.117 13.0892L153.741 12.1481L153.151 11.7975L151.527 12.7386Z" fill="#BD70E5"/>
<path d="M150.881 12.3695L151.545 12.7386L154.184 11.2069L153.538 10.8379L150.881 12.3695Z" fill="#8821D8"/>
<path d="M144.275 8.56808L144.884 8.90023L153.465 3.95474L152.856 3.60413L144.275 8.56808Z" fill="#BD70E5"/>
<path d="M143.647 8.19893L144.293 8.56796L152.062 4.08381L151.416 3.71472L143.647 8.19893Z" fill="#8821D8"/>
<path d="M141.876 7.16516L142.466 7.51572L153.372 1.22318L152.763 0.872559L141.876 7.16516Z" fill="#BD70E5"/>
<path d="M141.23 6.79666L141.876 7.18416L152.265 1.18682L151.619 0.799316L141.23 6.79666Z" fill="#8821D8"/>
<path d="M139.458 5.78171L140.067 6.11386L148.058 1.50052L147.449 1.1499L139.458 5.78171Z" fill="#BD70E5"/>
<path d="M138.831 5.41263L139.477 5.78172L146.471 1.74043L145.825 1.37134L138.831 5.41263Z" fill="#8821D8"/>
<path d="M137.041 4.37936L137.65 4.72997L143.832 1.15002L143.223 0.817871L137.041 4.37936Z" fill="#BD70E5"/>
<path d="M136.414 4.01031L137.06 4.39787L142.06 1.50068L141.415 1.13159L136.414 4.01031Z" fill="#8821D8"/>
<path d="M134.624 2.97671L135.233 3.32733L138.296 1.55582L137.705 1.2052L134.624 2.97671Z" fill="#BD70E5"/>
<path d="M133.996 2.62604L134.642 2.99513L137.355 1.42658L136.709 1.0575L133.996 2.62604Z" fill="#8821D8"/>
<path d="M149.11 11.3545L149.719 11.6867L154.83 8.73412L154.221 8.40198L149.11 11.3545Z" fill="#BD70E5"/>
<path d="M148.482 10.9855L149.128 11.3546L155.052 7.92226L154.406 7.55322L148.482 10.9855Z" fill="#8821D8"/>
<path d="M146.692 9.95213L147.301 10.3027L152.228 7.46091L151.619 7.11035L146.692 9.95213Z" fill="#BD70E5"/>
<path d="M146.065 9.58314L146.711 9.97064L150.826 7.59014L150.18 7.20264L146.065 9.58314Z" fill="#8821D8"/>
<path d="M132.834 2.53382L159.665 18.0346L160.219 17.721L133.369 2.22009L132.834 2.53382Z" fill="#BD70E5"/>
<path d="M88.7487 32.0039C97.348 31.4319 105.098 34.9934 106.076 39.9758C107.054 44.9582 100.891 49.4054 92.2917 49.9775C83.6925 50.5495 75.9236 46.9696 74.9456 42.0056C73.9676 37.0416 80.1494 32.5575 88.7487 32.0039ZM81.7733 41.5627C82.3269 44.3492 86.6819 46.3422 91.5167 46.0285C96.3515 45.7148 99.8023 43.2051 99.2487 40.4925C98.6951 37.7798 94.3401 35.6946 89.5237 36.0267C84.7074 36.3589 81.2382 38.7763 81.7733 41.5627Z" fill="#8821D8"/>
<path d="M76.0527 41.9319C75.1485 37.337 80.8875 33.1666 88.8778 32.7052C96.8681 32.2439 104.065 35.4917 104.969 40.0866C105.873 44.6815 100.134 48.8704 92.1625 49.3133C84.1907 49.7561 76.9754 46.5268 76.0527 41.9319ZM102.054 40.2342C101.334 36.5435 95.5764 33.9047 89.1362 34.3291C82.6959 34.7536 78.1749 38.0198 78.8946 41.7105C79.6143 45.4012 85.3717 48.04 91.8119 47.6155C98.2521 47.1911 102.699 43.9064 102.054 40.2342Z" fill="#8821D8"/>
<path d="M89.7821 34.3291C89.7821 34.3291 87.8076 34.4398 87.1617 34.5506L86.276 32.9451C87.1064 32.7975 89.4868 32.5391 89.8559 32.5022C91.9265 32.4803 93.9914 32.7222 96.0009 33.2219L94.8383 34.772C93.1712 34.461 91.4779 34.3127 89.7821 34.3291V34.3291Z" fill="#DE78FF"/>
<path d="M101.518 39.0348L101.426 38.8502C99.9242 36.8084 97.7241 35.3898 95.2444 34.8643L96.4069 33.3142C99.5801 33.8729 102.43 35.5973 104.397 38.149C104.397 38.149 105.172 39.5699 104.951 39.9943L102.035 40.1973C101.932 39.7828 101.757 39.3895 101.518 39.0348Z" fill="#F25A5A"/>
<path d="M78.9869 40.2528L76.0528 40.0682C76.3454 38.9931 76.8638 37.9926 77.5734 37.1335C78.2829 36.2744 79.1674 35.5763 80.1679 35.0858L80.7215 34.7721C82.3607 33.9355 84.1141 33.3448 85.9254 33.019L86.8111 34.6245C85.392 34.8863 84.0183 35.3525 82.7329 36.0085L81.8657 36.5621C80.5137 37.4286 79.4981 38.7306 78.9869 40.2528V40.2528Z" fill="#97CC66"/>
<path d="M87.9367 49.2579L88.4719 47.5786C89.5956 47.6714 90.7251 47.6714 91.8488 47.5786C95.0594 47.5256 98.1516 46.3578 100.596 44.2754L101.186 43.5742C101.564 43.1202 101.841 42.5905 101.997 42.0207C102.153 41.4509 102.185 40.8543 102.09 40.271L105.006 40.0865C105.122 40.8529 105.071 41.635 104.858 42.38C104.644 43.1251 104.273 43.8155 103.77 44.4046L103.659 44.8106L103.142 45.1059C100.085 47.7266 96.2074 49.1954 92.181 49.2579C90.7688 49.3786 89.3489 49.3786 87.9367 49.2579V49.2579Z" fill="#44BFE5"/>
<path d="M75.7021 41.9687C74.7794 37.2446 80.6661 32.9819 88.8224 32.4467C96.9788 31.9116 104.397 35.307 105.32 40.0126C106.242 44.7182 100.356 48.9994 92.1994 49.5346C84.043 50.0697 76.6432 46.6743 75.7021 41.9687ZM104.969 40.1233C104.065 35.5285 96.8497 32.2068 88.8778 32.742C80.906 33.2771 75.1485 37.4291 76.0527 41.9687C76.9569 46.5082 84.1722 49.9036 92.1625 49.35C100.153 48.7964 105.873 44.6813 104.969 40.0311V40.1233Z" fill="#8821D8"/>
<path d="M78.9683 41.7473C78.2487 38.0567 82.8251 34.7351 89.21 34.366C95.5948 33.9969 101.334 36.5804 102.127 40.271C102.921 43.9617 98.2705 47.2833 91.9041 47.6524C85.5377 48.0214 79.688 45.438 78.9683 41.7473ZM101.721 40.2526C101.02 36.6911 95.4103 34.1076 89.2469 34.5136C83.0835 34.9196 78.6177 38.2043 79.319 41.7289C80.0202 45.2535 85.6115 47.8554 91.7934 47.4494C97.9753 47.0434 102.423 43.8141 101.721 40.2526Z" fill="#8821D8"/>
<path d="M76.0896 41.9318C76.0068 41.3999 76.0068 40.8584 76.0896 40.3264L78.9683 40.474C78.9034 40.896 78.9034 41.3254 78.9683 41.7473C79.5403 44.5891 83.2495 46.9511 88.0658 47.5601L87.5676 49.184C81.4595 48.3721 76.8646 45.5118 76.0896 41.9318Z" fill="#DE78FF"/>
<path d="M164.057 26.7261L183.986 38.2411L186.828 36.5987L166.899 25.1023L164.057 26.7261Z" fill="#8821D8"/>
<path d="M182.141 37.1708L183.987 38.2411L186.828 36.5987L184.983 35.5469L182.141 37.1708Z" fill="#F25A5A"/>
<path d="M145.88 16.2447L165.81 27.7412L168.652 26.1173L148.722 14.6024L145.88 16.2447Z" fill="#8821D8"/>
<path d="M163.983 26.6894L165.81 27.7412L168.652 26.1173L166.807 25.047L163.983 26.6894Z" fill="#97CC66"/>
<path d="M127.722 5.74474L147.652 17.2597L150.475 15.6173L130.545 4.10242L127.722 5.74474Z" fill="#8821D8"/>
<path d="M145.806 16.1893L147.652 17.2596L150.475 15.6173L148.63 14.547L145.806 16.1893Z" fill="#44BFE5"/>
<path d="M119.972 75.4615C119.472 75.4615 119.068 75.2302 119.068 74.9448C119.068 74.6594 119.472 74.4281 119.972 74.4281C120.471 74.4281 120.876 74.6594 120.876 74.9448C120.876 75.2302 120.471 75.4615 119.972 75.4615Z" fill="#BD70E5"/>
<path d="M116.853 77.27C116.354 77.27 115.949 77.0387 115.949 76.7533C115.949 76.468 116.354 76.2366 116.853 76.2366C117.353 76.2366 117.757 76.468 117.757 76.7533C117.757 77.0387 117.353 77.27 116.853 77.27Z" fill="#BD70E5"/>
<path d="M89.0439 57.5987C88.5445 57.5987 88.1397 57.3674 88.1397 57.082C88.1397 56.7966 88.5445 56.5653 89.0439 56.5653C89.5433 56.5653 89.9481 56.7966 89.9481 57.082C89.9481 57.3674 89.5433 57.5987 89.0439 57.5987Z" fill="#BD70E5"/>
<path d="M85.9068 59.4072C85.4074 59.4072 85.0026 59.1758 85.0026 58.8905C85.0026 58.6051 85.4074 58.3738 85.9068 58.3738C86.4062 58.3738 86.811 58.6051 86.811 58.8905C86.811 59.1758 86.4062 59.4072 85.9068 59.4072Z" fill="#BD70E5"/>
<path d="M102.699 65.7183L100.854 64.6481L101.094 64.5004L102.939 65.5707L102.699 65.7183ZM111.003 70.5162L106.833 68.0988L107.073 67.9696L111.243 70.3686L111.003 70.5162ZM106.501 67.9143L103.031 65.9029L103.271 65.7737L106.741 67.7667L106.501 67.9143ZM111.335 70.7008L111.575 70.5531L117.48 73.967L117.241 74.1146L111.335 70.7008ZM100.503 64.445L97.8646 62.9319L98.1044 62.7842L100.762 64.3159L100.503 64.445ZM118.163 73.5426L116.207 72.4169L116.447 72.2693L118.403 73.3949L118.163 73.5426ZM101.112 63.4117L100.872 63.5593L98.5473 62.2122L98.8057 62.083L101.112 63.4117ZM105.394 66.1612L101.205 63.7438L101.445 63.6147L105.633 66.0321L105.394 66.1612ZM107.589 67.4345L105.744 66.3642L105.984 66.2166L107.829 67.2869L107.589 67.4345ZM110.228 68.9477L107.903 67.619L108.143 67.4714L110.468 68.8185L110.228 68.9477ZM115.875 72.2139L110.542 69.1507L110.782 69.003L116.115 72.0848L115.875 72.2139Z" fill="#BD70E5"/>
<path d="M104.674 68.9107L104.434 69.0398L100.946 67.0284L101.205 66.8992L104.674 68.9107ZM104.766 69.2428L105.006 69.0952L109.176 71.4941L108.918 71.6417L104.766 69.2428ZM104.028 69.6303L103.77 69.778L101.463 68.4308L101.703 68.3017L104.028 69.6303ZM101.371 68.0987L101.131 68.2463L99.2855 67.176L99.5254 67.0284L101.371 68.0987ZM95.0043 64.408L99.1932 66.8254L98.9533 66.973L94.7644 64.5372L95.0043 64.408ZM109.767 73.2103L110.007 73.0627L114.473 75.6461L114.233 75.7937L109.767 73.2103ZM97.0526 64.4819L100.872 66.6962L100.633 66.8254L96.8127 64.6295L97.0526 64.4819ZM109.25 71.8632L109.49 71.734L115.451 75.1663L115.211 75.2955L109.25 71.8632ZM96.7205 64.3527L96.4806 64.4819L94.2477 63.2086L94.4876 63.0609L96.7205 64.3527ZM104.102 69.9994L104.342 69.8518L109.675 72.9335L109.435 73.0811L104.102 69.9994Z" fill="#BD70E5"/>
<path d="M80.094 52.6162L75.9236 50.1989L76.1635 50.0697L80.334 52.4686L80.094 52.6162ZM75.5914 50.0144L72.1222 48.0029L72.3621 47.8738L75.8313 49.8667L75.5914 50.0144ZM80.4078 52.8008L80.6477 52.6532L86.5527 56.0671L86.3128 56.2147L80.4078 52.8008ZM87.254 55.6426L85.2979 54.5169L85.5378 54.3693L87.4938 55.495L87.254 55.6426ZM70.203 45.5117L69.9631 45.6594L67.638 44.3122L67.8779 44.1831L70.203 45.5117ZM74.4842 48.2613L70.2953 45.8439L70.5352 45.7147L74.7241 48.1321L74.4842 48.2613ZM76.6617 49.5346L74.8164 48.4642L75.0194 48.372L76.8647 49.4423L76.6617 49.5346ZM79.319 51.0478L76.9939 49.7191L77.2338 49.5899L79.5589 50.9186L79.319 51.0478ZM84.9657 54.3325L79.6327 51.2507L79.8726 51.1031L85.2056 54.1848L84.9657 54.3325Z" fill="#BD70E5"/>
<path d="M71.1811 49.7006L70.9412 49.8298L67.4536 47.8184L67.6935 47.6892L71.1811 49.7006Z" fill="#BD70E5"/>
<path d="M74.3919 52.6532L74.152 52.8008L71.8269 51.4538L72.0853 51.3246L74.3919 52.6532Z" fill="#BD70E5"/>
<path d="M71.4947 49.8854L75.6652 52.2843L75.4253 52.4319L71.2549 50.0146L71.4947 49.8854Z" fill="#BD70E5"/>
<path d="M68.1547 49.0548L71.7531 51.1216L71.5133 51.2692L67.9148 49.184L68.1547 49.0548Z" fill="#BD70E5"/>
<path d="M75.7574 52.6163L75.9973 52.4872L84.3936 57.322L84.1537 57.4696L75.7574 52.6163Z" fill="#BD70E5"/>
<path d="M67.3613 47.5049L67.1214 47.6341L65.276 46.5637L65.5159 46.4161L67.3613 47.5049Z" fill="#BD70E5"/>
<path d="M80.131 56.2517L80.3709 56.1041L83.3972 57.8572L83.1574 57.9863L80.131 56.2517Z" fill="#BD70E5"/>
<path d="M74.7241 52.8378L80.0387 55.9194L79.7988 56.0671L74.4842 52.9854L74.7241 52.8378Z" fill="#BD70E5"/>
<path d="M65.1837 46.2315L64.9438 46.3791L63.3569 45.4565L63.5968 45.3273L65.1837 46.2315Z" fill="#BD70E5"/>
<path d="M127.722 50.9371L128.054 50.734L120.267 46.2499L119.935 46.4344L127.722 50.9371ZM129.789 52.118L130.121 51.9335L128.682 51.1031L128.349 51.2876L129.789 52.118ZM138.868 57.3773L139.2 57.1743L130.748 52.2841L130.416 52.4871L138.868 57.3773ZM144.921 60.8649L145.253 60.662L139.827 57.5433L139.495 57.7279L144.921 60.8649ZM126.301 47.4862L118.514 43.0021L118.182 43.1866L125.951 47.6893L126.301 47.4862ZM117.886 42.6331L114.602 40.7877L114.251 40.9722L117.462 42.836L117.886 42.6331ZM128.017 48.8702L128.368 48.6858L126.929 47.8553L126.578 48.0399L128.017 48.8702ZM137.115 54.111L137.447 53.9265L128.995 49.0363L128.645 49.2393L137.115 54.111ZM146.858 59.7393L147.19 59.5547L138.074 54.2771L137.724 54.4801L146.858 59.7393ZM97.0342 28.8668L97.3848 28.6638L92.8083 26.025L92.4577 26.228L97.0342 28.8668ZM103.271 32.4652L103.604 32.2622L98.0676 29.0329L97.7169 29.2359L103.271 32.4652ZM107.073 34.6612L107.423 34.4582L104.231 32.6128L103.899 32.8159L107.073 34.6612ZM113.236 38.2227L113.587 38.0197L108.051 34.8273L107.719 35.0302L113.236 38.2227ZM118.901 41.4889L119.234 41.2859L114.196 38.3887L113.864 38.5733L118.901 41.4889ZM125.563 45.3456L125.914 45.1427L119.861 41.655L119.51 41.8395L125.563 45.3456ZM132.225 49.1471L132.557 48.9441L126.596 45.5118L126.246 45.6963L132.225 49.1471ZM140.529 53.9449L140.861 53.742L133.184 49.3132L132.852 49.5161L140.529 53.9449ZM148.685 58.6506L149.036 58.466L141.488 54.111L141.156 54.2955L148.685 58.6506ZM106.944 32.3729L107.276 32.1884L94.7275 24.9362L94.3953 25.1392L106.944 32.3729ZM113.181 35.9714L113.513 35.7868L107.977 32.5391L107.645 32.742L113.181 35.9714ZM119.898 39.865L120.23 39.662L114.14 36.1374L113.79 36.3405L119.898 39.865ZM123.146 41.7104L123.478 41.5258L120.857 39.9942L120.507 40.1972L123.146 41.7104ZM127.058 43.9801L127.408 43.7772L124.105 41.9318L123.773 42.1348L127.058 43.9801ZM135.472 48.8334L135.805 48.6304L128.036 44.1462L127.685 44.3492L135.472 48.8334ZM137.539 50.0328L137.871 49.8299L136.432 48.9994L136.1 49.2024L137.539 50.0328ZM146.618 55.2736L146.95 55.0706L138.499 50.1989L138.167 50.3834L146.618 55.2736ZM150.678 57.5987L151.029 57.3957L147.689 55.5504L147.356 55.7349L150.678 57.5987ZM97.9753 24.9916L98.3259 24.7886L96.7204 23.8844L96.3883 24.0689L97.9753 24.9916ZM101.002 26.7447L101.352 26.5417L98.9533 25.1577L98.6027 25.3607L101.002 26.7447ZM107.239 30.4354L107.571 30.2324L102.035 27.0031L101.684 27.1875L107.239 30.4354ZM113.956 34.3106L114.288 34.1076L108.198 30.6014L107.866 30.786L113.956 34.3106ZM117.204 36.1559L117.554 35.9529L114.915 34.4398L114.583 34.6242L117.204 36.1559ZM122.869 39.4037L123.201 39.2192L118.163 36.3035L117.831 36.5065L122.869 39.4037ZM129.531 43.2605L129.881 43.0759L123.828 39.5698L123.478 39.7727L129.531 43.2605ZM136.137 47.0803L136.469 46.8773L130.509 43.4265L130.158 43.6295L136.137 47.0803ZM144.441 51.8781L144.773 51.6752L137.096 47.2464L136.764 47.4309L144.441 51.8781ZM152.523 56.4915L152.874 56.2885L145.363 51.952L145.031 52.1549L152.523 56.4915ZM108.678 28.996L109.029 28.8114L98.5658 22.7772L98.2336 22.9618L108.678 28.996ZM114.915 32.5944L115.248 32.4099L109.712 29.1621L109.361 29.3651L114.915 32.5944ZM121.632 36.4696L121.965 36.2851L115.875 32.7605L115.543 32.9635L121.632 36.4696ZM124.88 38.3149L125.212 38.112L122.592 36.5988L122.26 36.8018L124.88 38.3149ZM128.811 40.5847L129.143 40.3817L125.84 38.5364L125.508 38.7394L128.811 40.5847ZM137.207 45.4379L137.558 45.2349L129.77 40.7508L129.438 40.9353L137.207 45.4379ZM139.274 46.6374L139.606 46.5267L138.148 45.6963L137.816 45.8808L139.274 46.6374ZM148.353 51.8781L148.704 51.6752L140.233 46.7851L139.901 46.988L148.353 51.8781ZM154.369 55.4027L154.719 55.1998L149.294 52.0812L148.943 52.2657L154.369 55.4027Z" fill="#BD70E5"/>
<path d="M143.832 12.8307L146.821 14.5653L147.154 14.3808L144.146 12.6462L143.832 12.8307Z" fill="#FFDDFF"/>
<path d="M142.079 11.8158L143.334 12.5354L143.647 12.3509L142.411 11.6312L142.079 11.8158Z" fill="#FFDDFF"/>
<path d="M143.813 14.3994L145.456 15.3405L145.788 15.156L144.146 14.2148L143.813 14.3994Z" fill="#FFDDFF"/>
<path d="M139.643 11.9819L143.334 14.1225L143.647 13.938L139.957 11.7974L139.643 11.9819Z" fill="#FFDDFF"/>
<path d="M137.115 10.5241L139.145 11.7051L139.477 11.5206L137.429 10.3396L137.115 10.5241Z" fill="#FFDDFF"/>
<path d="M161.824 23.2202L164.832 24.9548L165.146 24.7703L162.156 23.0356L161.824 23.2202Z" fill="#FFDDFF"/>
<path d="M160.089 22.2236L161.344 22.9433L161.658 22.7587L160.403 22.0391L160.089 22.2236Z" fill="#FFDDFF"/>
<path d="M161.824 24.7887L163.466 25.7482L163.78 25.5637L162.156 24.6041L161.824 24.7887Z" fill="#FFDDFF"/>
<path d="M157.653 22.3897L161.344 24.5119L161.658 24.3273L157.967 22.2052L157.653 22.3897Z" fill="#FFDDFF"/>
<path d="M155.125 20.9319L157.155 22.0945L157.469 21.9099L155.439 20.7289L155.125 20.9319Z" fill="#FFDDFF"/>
<path d="M179.834 33.6093L182.842 35.344L183.156 35.1594L180.148 33.4248L179.834 33.6093Z" fill="#FFDDFF"/>
<path d="M178.1 32.6128L179.336 33.3325L179.668 33.1479L178.413 32.4282L178.1 32.6128Z" fill="#FFDDFF"/>
<path d="M179.834 35.1963L181.477 36.1375L181.79 35.9529L180.148 35.0118L179.834 35.1963Z" fill="#FFDDFF"/>
<path d="M175.645 32.779L179.336 34.9012L179.668 34.7166L175.978 32.5945L175.645 32.779Z" fill="#FFDDFF"/>
<path d="M173.117 31.3211L175.166 32.4837L175.479 32.3176L173.449 31.1366L173.117 31.3211Z" fill="#FFDDFF"/>
<path d="M122.408 12.1852L121.319 11.5577L121.596 11.3916L122.684 12.0191L122.408 12.1852ZM131.837 17.6289L127.113 14.8794L127.372 14.7317L132.114 17.4628L131.837 17.6289ZM126.726 14.6763L122.777 12.3881L123.054 12.2405L127.003 14.5103L126.726 14.6763ZM132.262 17.8319L132.539 17.6843L139.256 21.5595L138.979 21.7071L132.262 17.8319ZM140.031 21.0612L137.816 19.788L138.093 19.6219L140.307 20.8951L140.031 21.0612ZM125.526 12.6834L122.463 10.8381L122.74 10.672L125.803 12.5173L125.526 12.6834ZM128.017 14.1228L125.895 12.9048L126.172 12.7388L128.294 13.9567L128.017 14.1228ZM131.007 15.8574L128.387 14.3442L128.663 14.1781L131.284 15.6913L131.007 15.8574ZM137.447 19.5481L131.376 16.0603L131.653 15.8943L137.724 19.4004L137.447 19.5481Z" fill="#FFDDFF"/>
<path d="M120.544 12.0375L120.267 12.1851L122.814 13.6614L123.09 13.5137L120.544 12.0375ZM126.689 16.8722L126.412 17.0383L123.792 15.5067L124.068 15.3591L126.689 16.8722ZM123.404 13.7167L128.147 16.4663L127.87 16.6139L123.146 13.8828L123.404 13.7167ZM121.263 13.7167L123.681 15.1192L123.423 15.2853L120.987 13.8828L121.263 13.7167ZM128.239 16.8169L128.516 16.6508L138.074 22.1868L137.798 22.3529L128.239 16.8169ZM133.221 20.932L133.498 20.7843L136.912 22.7589L136.654 22.9249L133.221 20.932ZM127.058 17.0753L133.129 20.5629L132.852 20.729L126.781 17.2229L127.058 17.0753Z" fill="#FFDDFF"/>
<path d="M152.523 46.2315L144.865 41.8027L145.142 41.6367L152.8 46.0654L152.523 46.2315ZM152.911 46.453L153.169 46.2869L159.886 50.1621L159.609 50.3282L152.911 46.453ZM160.661 49.6639L158.447 48.3906L158.724 48.2429L160.938 49.5162L160.661 49.6639ZM148.648 42.7254L146.526 41.5075L146.803 41.3599L148.925 42.5777L148.648 42.7254ZM151.656 44.46L149.017 42.9468L149.294 42.7992L151.914 44.3124L151.656 44.46ZM158.078 48.1507L152.025 44.663L152.302 44.4969L158.355 48.003L158.078 48.1507Z" fill="#FFDDFF"/>
<path d="M149.349 46.6375L149.073 46.7852L145.88 44.9398L146.139 44.7737L149.349 46.6375ZM145.825 43.3344L148.814 45.069L148.537 45.235L145.548 43.5004L145.825 43.3344ZM148.833 45.4381L149.091 45.2904L158.65 50.8264L158.373 50.9925L148.833 45.4381ZM153.797 49.5716L154.073 49.4055L157.506 51.38L157.229 51.5461L153.797 49.5716ZM149.626 46.8405L153.704 49.2026L153.428 49.3502L149.368 47.0066L149.626 46.8405Z" fill="#FFDDFF"/>
<path d="M113.365 22.0945L113.107 22.2606L109.416 20.12L109.693 19.9539L113.365 22.0945ZM113.476 22.4635L113.753 22.3159L118.735 25.1946L118.459 25.3422L113.476 22.4635ZM116.041 24.8809L115.764 25.047L113.144 23.5338L113.421 23.3678L116.041 24.8809ZM113.033 23.1647L112.775 23.3124L107.497 20.2676L107.774 20.12L113.033 23.1647ZM119.418 27.1507L119.676 26.9846L124.843 29.9187L124.567 30.0848L119.418 27.1507ZM108.346 19.1604L109.361 19.7509L109.084 19.8985L108.069 19.308L108.346 19.1604ZM118.883 25.5637L119.16 25.3976L125.914 29.3097L125.655 29.4573L118.883 25.5637ZM116.189 25.2685L116.466 25.1024L119.363 26.7816L119.086 26.9292L116.189 25.2685Z" fill="#FFDDFF"/>
<path d="M115.266 27.2245L110.524 24.4933L110.8 24.3457L115.617 27.0768L115.266 27.2245ZM110.155 24.2719L106.556 22.2051L106.833 22.0391L110.431 24.1242L110.155 24.2719ZM115.691 27.4459L115.967 27.2798L122.684 31.155L122.408 31.3211L115.691 27.4459ZM123.459 30.6752L121.245 29.3835L121.503 29.2359L123.718 30.5091L123.459 30.6752ZM108.955 22.2974L105.892 20.452L106.169 20.3044L109.232 22.0575L108.955 22.2974ZM111.428 23.7367L109.324 22.5188L109.601 22.3527L111.705 23.5707L111.428 23.7367ZM114.436 25.4714L111.815 23.9398L112.074 23.7921L114.713 25.3053L114.436 25.4714ZM120.857 29.162L114.805 25.6559L115.082 25.5082L121.153 29.0144L120.857 29.162Z" fill="#FFDDFF"/>
<path d="M163.079 34.0892L162.82 34.2553L159.13 32.1147L159.407 31.9486L163.079 34.0892ZM163.19 34.4583L163.466 34.3107L168.449 37.1894L168.172 37.337L163.19 34.4583ZM165.755 36.8941L165.478 37.0417L162.857 35.5286L163.134 35.3625L165.755 36.8941ZM162.747 35.1595L162.488 35.3072L157.211 32.2623L157.487 32.1147L162.747 35.1595ZM169.132 39.1454L169.39 38.9978L174.483 41.9319L174.206 42.0795L169.132 39.1454ZM158.059 31.1552L159.074 31.7456L158.798 31.8933L157.783 31.3212L158.059 31.1552ZM168.596 37.5585L168.873 37.3923L175.627 41.3045L175.369 41.4521L168.596 37.5585ZM165.902 37.2632L166.179 37.0971L169.076 38.7763L168.818 38.924L165.902 37.2632Z" fill="#FFDDFF"/>
<path d="M164.979 39.1454L160.237 36.4143L160.514 36.2667L165.256 39.1454H164.979ZM159.868 36.2113L156.269 34.1261L156.546 33.9785L160.145 36.0452L159.868 36.2113ZM165.404 39.3668L165.681 39.2007L172.398 43.0759L172.121 43.242L165.404 39.3668ZM173.173 42.5961L170.958 41.3229L171.217 41.1568L173.431 42.4301L173.173 42.5961ZM158.668 34.2183L155.605 32.4653L155.882 32.2992L158.945 34.1445L158.668 34.2183ZM161.141 35.6577L159.037 34.4398L159.314 34.2737L161.418 35.4916L161.141 35.6577ZM164.149 37.3923L161.529 35.8792L161.787 35.7131L164.426 37.2262L164.149 37.3923ZM170.571 41.083L164.518 37.5768L164.795 37.4292L170.792 40.9907L170.571 41.083Z" fill="#FFDDFF"/>
<defs>
<filter id="filter0_bd_2_2750" x="11.9989" y="-5.06689" width="266.69" height="195.572" filterUnits="userSpaceOnUse" color-interpolation-filters="sRGB">
<feFlood flood-opacity="0" result="BackgroundImageFix"/>
<feGaussianBlur in="BackgroundImage" stdDeviation="6"/>
<feComposite in2="SourceAlpha" operator="in" result="effect1_backgroundBlur_2_2750"/>
<feColorMatrix in="SourceAlpha" type="matrix" values="0 0 0 0 0 0 0 0 0 0 0 0 0 0 0 0 0 0 127 0" result="hardAlpha"/>
<feOffset dy="4"/>
<feGaussianBlur stdDeviation="2"/>
<feComposite in2="hardAlpha" operator="out"/>
<feColorMatrix type="matrix" values="0 0 0 0 0 0 0 0 0 0 0 0 0 0 0 0 0 0 0.25 0"/>
<feBlend mode="normal" in2="effect1_backgroundBlur_2_2750" result="effect2_dropShadow_2_2750"/>
<feBlend mode="normal" in="SourceGraphic" in2="effect2_dropShadow_2_2750" result="shape"/>
</filter>
<filter id="filter1_bd_2_2750" x="-7.32379" y="16.0497" width="263.985" height="195.572" filterUnits="userSpaceOnUse" color-interpolation-filters="sRGB">
<feFlood flood-opacity="0" result="BackgroundImageFix"/>
<feGaussianBlur in="BackgroundImage" stdDeviation="6"/>
<feComposite in2="SourceAlpha" operator="in" result="effect1_backgroundBlur_2_2750"/>
<feColorMatrix in="SourceAlpha" type="matrix" values="0 0 0 0 0 0 0 0 0 0 0 0 0 0 0 0 0 0 127 0" result="hardAlpha"/>
<feOffset dy="4"/>
<feGaussianBlur stdDeviation="2"/>
<feComposite in2="hardAlpha" operator="out"/>
<feColorMatrix type="matrix" values="0 0 0 0 0 0 0 0 0 0 0 0 0 0 0 0 0 0 0.25 0"/>
<feBlend mode="normal" in2="effect1_backgroundBlur_2_2750" result="effect2_dropShadow_2_2750"/>
<feBlend mode="normal" in="SourceGraphic" in2="effect2_dropShadow_2_2750" result="shape"/>
</filter>
<linearGradient id="paint0_linear_2_2750" x1="-80.5386" y1="-179.173" x2="184.824" y2="246.457" gradientUnits="userSpaceOnUse">
<stop stop-color="#A900FD"/>
<stop offset="1" stop-color="#A900FD" stop-opacity="0"/>
</linearGradient>
<linearGradient id="paint1_linear_2_2750" x1="244.661" y1="199.622" x2="-12.8417" y2="167.206" gradientUnits="userSpaceOnUse">
<stop stop-color="#289CFF"/>
<stop offset="1" stop-color="#7F34CD"/>
</linearGradient>
<linearGradient id="paint2_linear_2_2750" x1="118.403" y1="27.2431" x2="153.077" y2="87.3088" gradientUnits="userSpaceOnUse">
<stop offset="0.82" stop-color="#F5E7F7"/>
<stop offset="1" stop-color="#FEF0FF"/>
</linearGradient>
<linearGradient id="paint3_linear_2_2750" x1="-27511.5" y1="28454.1" x2="-26798.6" y2="25668.9" gradientUnits="userSpaceOnUse">
<stop offset="0.82" stop-color="#F5E7F7"/>
<stop offset="1" stop-color="#FEF0FF"/>
</linearGradient>
<linearGradient id="paint4_linear_2_2750" x1="-21097.2" y1="26337.9" x2="-34404.7" y2="26337.9" gradientUnits="userSpaceOnUse">
<stop offset="0.82" stop-color="#F5E7F7"/>
<stop offset="1" stop-color="#FEF0FF"/>
</linearGradient>
</defs>
</svg>
