<svg width="261" height="241" viewBox="0 0 261 241" fill="none" xmlns="http://www.w3.org/2000/svg">
<g filter="url(#filter0_bd_2_3312)">
<path d="M40.1235 54.3005C40.9606 46.1389 47.8356 39.933 56.0401 39.933H233.163C241.681 39.933 248.706 46.6066 249.142 55.1135L256.3 194.686C256.769 203.832 249.479 211.505 240.321 211.505H41.725C32.2428 211.505 24.841 203.305 25.8085 193.873L40.1235 54.3005Z" fill="url(#paint0_linear_2_3312)" shape-rendering="crispEdges"/>
<path d="M56.0401 40.433H233.163C241.415 40.433 248.22 46.8981 248.643 55.1392L255.8 194.711C256.255 203.572 249.193 211.005 240.321 211.005H41.725C32.5391 211.005 25.3686 203.062 26.3058 193.924L40.6209 54.3515C41.4319 46.4449 48.092 40.433 56.0401 40.433Z" stroke="#A900FD" stroke-opacity="0.3" shape-rendering="crispEdges"/>
</g>
<g filter="url(#filter1_bd_2_3312)">
<path fill-rule="evenodd" clip-rule="evenodd" d="M67.4365 61.0496H35.247C27.0425 61.0496 20.1676 67.2554 19.3305 75.4171L5.01543 214.989C4.04798 224.422 11.4498 232.622 20.9319 232.622H219.528C228.686 232.622 235.976 224.949 235.507 215.802L228.349 76.2301C227.913 67.7232 220.888 61.0496 212.37 61.0496H173.019V65.0496H212.37C218.759 65.0496 224.027 70.0548 224.354 76.435L231.512 216.007C231.864 222.867 226.396 228.622 219.528 228.622H20.9319C13.8203 228.622 8.26896 222.472 8.99455 215.397L23.3096 75.8252C23.9375 69.704 29.0937 65.0496 35.247 65.0496H67.4365V61.0496Z" fill="url(#paint1_linear_2_3312)"/>
</g>
<g style="mix-blend-mode:multiply" opacity="0.7">
<path d="M124.438 90.7954L150.666 75.7356C156.122 72.5526 164.561 72.2253 169.345 74.9899L198.046 91.5047L218.58 103.363C223.364 106.128 222.763 110.948 217.252 114.113L195.263 126.735L195.681 126.972C204.284 131.937 203.211 140.595 193.28 146.306C187.195 149.588 180.348 151.201 173.437 150.98C168.313 150.869 163.288 149.541 158.778 147.106L139.062 135.72C130.44 130.737 131.513 122.097 141.462 116.386C142.771 115.639 144.133 114.989 145.537 114.44L135.642 108.729L121.746 100.508C118.527 97.7432 119.509 93.6145 124.438 90.7954Z" fill="#52017B"/>
</g>
<path d="M82.2964 1.47337C83.3918 0.965791 84.6026 0.758916 85.8044 0.873986C87.0063 0.989056 88.1559 1.42192 89.1351 2.12814L143.7 33.6118C146.492 35.4253 148.816 37.8733 150.482 40.7561C152.147 43.6388 153.108 46.8747 153.285 50.1994L153.194 79.1368C153.316 80.318 153.121 81.5104 152.628 82.5911C152.136 83.6717 151.364 84.6015 150.393 85.2844L144.082 88.922L75.9851 5.14738L82.2964 1.47337Z" fill="url(#paint2_linear_2_3312)"/>
<path d="M73.0932 40.2323V11.295C73.0932 5.20194 77.4401 2.74654 82.7329 5.83853L114.599 24.2086L137.334 37.3222C140.126 39.1357 142.45 41.5837 144.116 44.4665C145.781 47.3493 146.742 50.5851 146.919 53.9098V82.8472C146.919 88.9402 142.572 91.3956 137.261 88.3036L96.6286 64.8409C90.1901 68.8399 82.5118 70.3471 75.0393 69.0788C78.2236 65.2336 80.2987 60.5928 81.0414 55.6559C78.71 53.7853 76.7978 51.4456 75.4285 48.7886C74.0593 46.1316 73.2636 43.2165 73.0932 40.2323V40.2323Z" fill="url(#paint3_linear_2_3312)"/>
<g style="mix-blend-mode:multiply" opacity="0.6">
<path d="M139.826 61.0578L146.919 65.1319V82.8108C146.919 88.9038 142.572 91.3592 137.261 88.2673L124.366 80.8283C123.212 77.642 122.598 74.2858 122.547 70.8976C122.51 59.9665 130.277 55.5467 139.826 61.0578Z" fill="#CD9AD6"/>
</g>
<path d="M164.343 116.259C164.197 125.007 168.981 135.884 169.217 136.466L162.906 140.103C162.651 139.521 157.868 128.645 158.031 119.896L164.343 116.259Z" fill="url(#paint4_linear_2_3312)"/>
<path d="M118.472 60.3121C121.619 58.4933 125.966 58.7297 130.786 61.5125L153.63 74.6989C163.179 80.1554 170.873 93.5601 170.854 104.528C170.854 109.984 168.908 113.785 165.798 115.586L159.487 119.224L112.198 63.9497L118.472 60.3121Z" fill="url(#paint5_linear_2_3312)"/>
<path d="M124.456 65.1865L135.824 71.7524L147.3 78.3729C156.849 83.8293 164.561 97.234 164.525 108.201C164.525 114.44 161.978 118.569 158.031 119.933C157.868 128.681 162.651 139.558 162.906 140.14C155.503 133.083 149.119 122.661 146.173 117.477L124.347 104.873C114.798 99.4166 107.086 86.0119 107.123 75.0444C107.159 64.077 114.907 59.6754 124.456 65.1865Z" fill="url(#paint6_linear_2_3312)"/>
<path d="M141.262 95.379C141.345 96.238 141.631 97.0651 142.096 97.7923C142.56 98.5195 143.191 99.1261 143.936 99.5622C145.391 100.417 146.591 99.9078 146.591 98.4346C146.51 97.5772 146.227 96.7512 145.766 96.0242C145.304 95.2971 144.677 94.6896 143.936 94.2513C142.463 93.3237 141.262 93.9057 141.262 95.379Z" fill="#BD70E5"/>
<path d="M132.368 90.2863C132.449 91.1437 132.732 91.9697 133.194 92.6967C133.655 93.4238 134.282 94.0313 135.024 94.4696C136.497 95.3244 137.679 94.8152 137.679 93.3601C137.601 92.4996 137.319 91.6699 136.857 90.9394C136.396 90.209 135.767 89.5987 135.024 89.1587C133.641 88.322 132.368 88.8131 132.368 90.2863Z" fill="#BD70E5"/>
<path d="M123.638 85.1936C123.718 86.0558 124.002 86.8866 124.467 87.6172C124.932 88.3477 125.564 88.9572 126.311 89.3951C127.766 90.2317 128.967 89.7407 128.967 88.2674C128.88 87.4092 128.595 86.583 128.134 85.8538C127.673 85.1247 127.049 84.5126 126.311 84.066C124.838 83.2293 123.638 83.7386 123.638 85.1936Z" fill="#BD70E5"/>
<path d="M115.999 51.0362C116.099 52.0405 116.432 53.0076 116.972 53.8602C117.512 54.7129 118.244 55.4275 119.109 55.947C120.819 56.9292 122.219 56.3471 122.219 54.6374C122.119 53.6331 121.786 52.6661 121.246 51.8134C120.706 50.9608 119.974 50.2462 119.109 49.7266C117.49 48.7445 115.999 49.3265 115.999 51.0362Z" fill="#BD70E5"/>
<path d="M105.795 45.1069C105.898 46.108 106.232 47.0714 106.772 47.9207C107.312 48.77 108.043 49.4817 108.906 49.9994C110.615 50.9816 112.016 50.3996 112.016 48.6899C111.916 47.6856 111.583 46.7185 111.043 45.8659C110.503 45.0132 109.771 44.2986 108.906 43.7791C107.196 42.7969 105.795 43.379 105.795 45.1069Z" fill="#BD70E5"/>
<path d="M95.5008 39.1593C95.5978 40.162 95.9299 41.1277 96.4703 41.9779C97.0108 42.828 97.7442 43.5386 98.611 44.052C100.321 45.0523 101.721 44.4521 101.721 42.7424C101.621 41.7405 101.288 40.7759 100.748 39.9262C100.208 39.0765 99.4758 38.3653 98.611 37.8498C96.8831 36.9404 95.5008 37.4315 95.5008 39.1593Z" fill="#BD70E5"/>
<path style="mix-blend-mode:screen" d="M82.8056 5.80212C105.177 19.4069 119.182 27.3733 137.37 37.2858C119.637 26.5548 105.723 18.352 82.8056 5.80212Z" fill="url(#paint7_radial_2_3312)"/>
<path style="mix-blend-mode:screen" d="M124.456 65.1865C134.023 70.9885 142.881 76.2631 147.301 78.3729C139.936 73.5579 132.309 69.1557 124.456 65.1865V65.1865Z" fill="url(#paint8_radial_2_3312)"/>
<path d="M129.3 168.933V190.157C129.039 189.821 128.535 189.28 127.788 188.533C127.041 187.787 126.183 186.928 125.212 185.957C124.241 184.987 123.205 183.969 122.104 182.905C121.021 181.841 119.995 180.833 119.024 179.881C118.053 178.911 117.204 178.052 116.476 177.305C115.748 176.54 115.263 175.999 115.02 175.681L114.488 174.953L114.572 175.849V189.233H111.492V167.981C111.697 168.243 112.033 168.616 112.5 169.101C112.985 169.587 113.545 170.156 114.18 170.809C114.833 171.444 115.543 172.135 116.308 172.881C117.092 173.628 117.876 174.384 118.66 175.149C119.463 175.915 120.247 176.671 121.012 177.417C121.796 178.145 122.505 178.827 123.14 179.461C123.793 180.096 124.353 180.656 124.82 181.141C125.287 181.627 125.613 181.991 125.8 182.233L126.332 183.017L126.248 182.065V168.933H129.3ZM142.85 187.861C142.29 188.365 141.608 188.767 140.806 189.065C140.003 189.364 139.182 189.513 138.342 189.513C137.483 189.513 136.671 189.355 135.906 189.037C135.159 188.701 134.506 188.263 133.946 187.721C133.386 187.161 132.938 186.508 132.602 185.761C132.284 185.015 132.126 184.221 132.126 183.381C132.126 182.541 132.284 181.748 132.602 181.001C132.938 180.255 133.386 179.601 133.946 179.041C134.506 178.481 135.15 178.043 135.878 177.725C136.624 177.389 137.418 177.221 138.258 177.221C139.583 177.221 140.731 177.623 141.702 178.425C142.691 179.209 143.4 180.245 143.83 181.533C143.251 181.739 142.588 181.991 141.842 182.289C141.095 182.588 140.32 182.905 139.518 183.241C138.715 183.559 137.912 183.876 137.11 184.193C136.307 184.511 135.56 184.8 134.87 185.061C135.187 185.696 135.644 186.209 136.242 186.601C136.858 186.975 137.539 187.161 138.286 187.161C138.79 187.161 139.294 187.068 139.798 186.881C140.32 186.695 140.74 186.443 141.058 186.125L142.85 187.861ZM140.834 180.973C140.61 180.507 140.255 180.161 139.77 179.937C139.284 179.695 138.79 179.573 138.286 179.573C137.744 179.573 137.24 179.676 136.774 179.881C136.326 180.087 135.934 180.367 135.598 180.721C135.262 181.057 134.991 181.449 134.786 181.897C134.599 182.345 134.506 182.803 134.506 183.269C134.506 183.363 134.506 183.428 134.506 183.465C134.524 183.503 134.534 183.531 134.534 183.549C135.019 183.363 135.542 183.157 136.102 182.933C136.68 182.691 137.25 182.457 137.81 182.233C138.37 181.991 138.911 181.767 139.434 181.561C139.956 181.337 140.423 181.141 140.834 180.973ZM152.146 179.405L151.278 177.529H153.35C153.891 178.705 154.349 179.723 154.722 180.581C155.095 181.421 155.413 182.159 155.674 182.793C155.935 183.409 156.15 183.932 156.318 184.361C156.486 184.791 156.626 185.155 156.738 185.453C156.85 184.893 156.981 184.389 157.13 183.941C157.298 183.475 157.503 182.961 157.746 182.401C157.989 181.823 158.278 181.16 158.614 180.413C158.969 179.648 159.389 178.687 159.874 177.529H162.282L156.738 189.933C156.402 189.243 156.085 188.561 155.786 187.889C155.506 187.199 155.226 186.517 154.946 185.845C154.685 185.173 154.405 184.501 154.106 183.829C153.826 183.157 153.518 182.467 153.182 181.757L149.626 189.933L144.334 177.529H146.742C147.227 178.687 147.629 179.648 147.946 180.413C148.263 181.179 148.525 181.841 148.73 182.401C148.954 182.961 149.131 183.475 149.262 183.941C149.393 184.389 149.514 184.893 149.626 185.453C149.701 185.229 149.785 184.977 149.878 184.697C149.99 184.417 150.13 184.063 150.298 183.633C150.485 183.185 150.727 182.625 151.026 181.953C151.325 181.281 151.698 180.432 152.146 179.405ZM170.442 178.565L169.182 180.245C169.164 180.227 169.098 180.18 168.986 180.105C168.874 180.031 168.725 179.956 168.538 179.881C168.37 179.807 168.165 179.741 167.922 179.685C167.698 179.611 167.465 179.573 167.222 179.573C166.905 179.573 166.588 179.648 166.27 179.797C165.972 179.947 165.822 180.227 165.822 180.637C165.822 180.992 165.944 181.281 166.186 181.505C166.448 181.729 166.765 181.935 167.138 182.121C167.512 182.289 167.913 182.467 168.342 182.653C168.79 182.84 169.201 183.073 169.574 183.353C169.948 183.615 170.256 183.951 170.498 184.361C170.76 184.753 170.89 185.257 170.89 185.873C170.89 186.919 170.526 187.787 169.798 188.477C169.089 189.149 168.109 189.485 166.858 189.485C166.13 189.485 165.412 189.364 164.702 189.121C164.012 188.86 163.452 188.487 163.022 188.001C163.153 187.871 163.293 187.703 163.442 187.497C163.61 187.292 163.769 187.096 163.918 186.909C164.086 186.723 164.217 186.573 164.31 186.461C164.422 186.331 164.488 186.265 164.506 186.265C164.506 186.284 164.572 186.34 164.702 186.433C164.852 186.527 165.038 186.629 165.262 186.741C165.486 186.835 165.738 186.928 166.018 187.021C166.298 187.096 166.578 187.133 166.858 187.133C167.306 187.133 167.689 187.021 168.006 186.797C168.324 186.573 168.482 186.275 168.482 185.901C168.482 185.565 168.352 185.304 168.09 185.117C167.848 184.912 167.54 184.725 167.166 184.557C166.793 184.389 166.382 184.221 165.934 184.053C165.486 183.867 165.076 183.633 164.702 183.353C164.329 183.073 164.012 182.728 163.75 182.317C163.508 181.888 163.386 181.337 163.386 180.665C163.386 180.031 163.498 179.499 163.722 179.069C163.965 178.64 164.264 178.295 164.618 178.033C164.992 177.753 165.402 177.557 165.85 177.445C166.298 177.315 166.728 177.249 167.138 177.249C167.68 177.249 168.258 177.361 168.874 177.585C169.49 177.809 170.013 178.136 170.442 178.565Z" fill="white"/>
<defs>
<filter id="filter0_bd_2_3312" x="13.7233" y="27.933" width="254.598" height="195.572" filterUnits="userSpaceOnUse" color-interpolation-filters="sRGB">
<feFlood flood-opacity="0" result="BackgroundImageFix"/>
<feGaussianBlur in="BackgroundImage" stdDeviation="6"/>
<feComposite in2="SourceAlpha" operator="in" result="effect1_backgroundBlur_2_3312"/>
<feColorMatrix in="SourceAlpha" type="matrix" values="0 0 0 0 0 0 0 0 0 0 0 0 0 0 0 0 0 0 127 0" result="hardAlpha"/>
<feOffset dy="4"/>
<feGaussianBlur stdDeviation="2"/>
<feComposite in2="hardAlpha" operator="out"/>
<feColorMatrix type="matrix" values="0 0 0 0 0 0 0 0 0 0 0 0 0 0 0 0 0 0 0.25 0"/>
<feBlend mode="normal" in2="effect1_backgroundBlur_2_3312" result="effect2_dropShadow_2_3312"/>
<feBlend mode="normal" in="SourceGraphic" in2="effect2_dropShadow_2_3312" result="shape"/>
</filter>
<filter id="filter1_bd_2_3312" x="-7.0697" y="49.0496" width="254.598" height="195.572" filterUnits="userSpaceOnUse" color-interpolation-filters="sRGB">
<feFlood flood-opacity="0" result="BackgroundImageFix"/>
<feGaussianBlur in="BackgroundImage" stdDeviation="6"/>
<feComposite in2="SourceAlpha" operator="in" result="effect1_backgroundBlur_2_3312"/>
<feColorMatrix in="SourceAlpha" type="matrix" values="0 0 0 0 0 0 0 0 0 0 0 0 0 0 0 0 0 0 127 0" result="hardAlpha"/>
<feOffset dy="4"/>
<feGaussianBlur stdDeviation="2"/>
<feComposite in2="hardAlpha" operator="out"/>
<feColorMatrix type="matrix" values="0 0 0 0 0 0 0 0 0 0 0 0 0 0 0 0 0 0 0.25 0"/>
<feBlend mode="normal" in2="effect1_backgroundBlur_2_3312" result="effect2_dropShadow_2_3312"/>
<feBlend mode="normal" in="SourceGraphic" in2="effect2_dropShadow_2_3312" result="shape"/>
</filter>
<linearGradient id="paint0_linear_2_3312" x1="-89.9415" y1="-146.173" x2="175.422" y2="279.457" gradientUnits="userSpaceOnUse">
<stop stop-color="#A900FD"/>
<stop offset="1" stop-color="#A900FD" stop-opacity="0"/>
</linearGradient>
<linearGradient id="paint1_linear_2_3312" x1="235.528" y1="232.622" x2="-12.1988" y2="202.656" gradientUnits="userSpaceOnUse">
<stop stop-color="#289CFF"/>
<stop offset="1" stop-color="#7F34CD"/>
</linearGradient>
<linearGradient id="paint2_linear_2_3312" x1="96.1739" y1="-6.54761" x2="149.502" y2="85.8118" gradientUnits="userSpaceOnUse">
<stop offset="0.54" stop-color="#8821D8"/>
<stop offset="0.83" stop-color="#6D18B4"/>
<stop offset="1" stop-color="#6014A3"/>
</linearGradient>
<linearGradient id="paint3_linear_2_3312" x1="146.919" y1="47.0529" x2="73.0932" y2="47.0529" gradientUnits="userSpaceOnUse">
<stop stop-color="#FFC5FF"/>
<stop offset="0.57" stop-color="#FFD1FF"/>
<stop offset="1" stop-color="#FFDEFF"/>
</linearGradient>
<linearGradient id="paint4_linear_2_3312" x1="158.632" y1="119.551" x2="168.617" y2="136.83" gradientUnits="userSpaceOnUse">
<stop stop-color="#6014A3"/>
<stop offset="0.17" stop-color="#6D18B4"/>
<stop offset="0.46" stop-color="#8821D8"/>
</linearGradient>
<linearGradient id="paint5_linear_2_3312" x1="-16479.5" y1="10458.2" x2="-15283.7" y2="12480.3" gradientUnits="userSpaceOnUse">
<stop offset="0.54" stop-color="#8821D8"/>
<stop offset="0.83" stop-color="#6D18B4"/>
<stop offset="1" stop-color="#6014A3"/>
</linearGradient>
<linearGradient id="paint6_linear_2_3312" x1="-14950.6" y1="15411" x2="-16762.2" y2="15411" gradientUnits="userSpaceOnUse">
<stop stop-color="#FFC5FF"/>
<stop offset="0.57" stop-color="#FFD1FF"/>
<stop offset="1" stop-color="#FFDEFF"/>
</linearGradient>
<radialGradient id="paint7_radial_2_3312" cx="0" cy="0" r="1" gradientUnits="userSpaceOnUse" gradientTransform="translate(-15844.6 4875.07) rotate(180) scale(2178.21 1256.83)">
<stop stop-color="#FFEC3D"/>
<stop offset="0.22" stop-color="#E53DFF"/>
<stop offset="0.26" stop-color="#C735DE"/>
<stop offset="0.34" stop-color="#9929AB"/>
<stop offset="0.42" stop-color="#701E7D"/>
<stop offset="0.51" stop-color="#4E1556"/>
<stop offset="0.59" stop-color="#310D37"/>
<stop offset="0.68" stop-color="#1C071F"/>
<stop offset="0.78" stop-color="#0C030D"/>
<stop offset="0.88" stop-color="#030103"/>
<stop offset="1"/>
</radialGradient>
<radialGradient id="paint8_radial_2_3312" cx="0" cy="0" r="1" gradientUnits="userSpaceOnUse" gradientTransform="translate(-6227.86 2467.22) rotate(180) scale(376.931 217.576)">
<stop stop-color="#FFEC3D"/>
<stop offset="0.22" stop-color="#E53DFF"/>
<stop offset="0.26" stop-color="#C735DE"/>
<stop offset="0.34" stop-color="#9929AB"/>
<stop offset="0.42" stop-color="#701E7D"/>
<stop offset="0.51" stop-color="#4E1556"/>
<stop offset="0.59" stop-color="#310D37"/>
<stop offset="0.68" stop-color="#1C071F"/>
<stop offset="0.78" stop-color="#0C030D"/>
<stop offset="0.88" stop-color="#030103"/>
<stop offset="1"/>
</radialGradient>
</defs>
</svg>
