<svg width="270" height="244" viewBox="0 0 270 244" fill="none" xmlns="http://www.w3.org/2000/svg">
<g filter="url(#filter0_bd_2_2582)">
<path d="M23.0288 59.9013C22.471 50.7008 29.7821 42.933 38.9995 42.933H249.688C258.935 42.933 266.256 50.7483 265.654 59.9754L256.542 199.547C255.992 207.961 249.007 214.505 240.576 214.505H47.4621C39.0016 214.505 32.0035 207.918 31.4914 199.473L23.0288 59.9013Z" fill="url(#paint0_linear_2_2582)" shape-rendering="crispEdges"/>
<path d="M38.9995 43.433H249.688C258.646 43.433 265.738 51.0041 265.155 59.9428L256.043 199.515C255.51 207.666 248.744 214.005 240.576 214.005H47.4621C39.266 214.005 32.4866 207.624 31.9905 199.443L23.5279 59.8711C22.9875 50.9581 30.0702 43.433 38.9995 43.433Z" stroke="#A900FD" stroke-opacity="0.3" shape-rendering="crispEdges"/>
</g>
<g filter="url(#filter1_bd_2_2582)">
<path fill-rule="evenodd" clip-rule="evenodd" d="M76 64.0496H20.0004C10.8565 64.0496 3.57226 71.6993 4.01955 80.8322L10.8552 220.404C11.2726 228.926 18.3037 235.622 26.836 235.622H219.686C228.153 235.622 235.155 229.024 235.657 220.571L243.956 80.9992C244.503 71.8055 237.194 64.0496 227.984 64.0496H198V68.0496H227.984C234.892 68.0496 240.373 73.8665 239.963 80.7618L231.665 220.334C231.288 226.674 226.036 231.622 219.686 231.622H26.836C20.4368 231.622 15.1634 226.6 14.8504 220.209L8.01476 80.6366C7.67929 73.7868 13.1425 68.0496 20.0004 68.0496H76V64.0496Z" fill="url(#paint1_linear_2_2582)"/>
</g>
<path d="M108.64 182.517V191.029C107.856 191.477 106.923 191.832 105.84 192.093C104.757 192.336 103.656 192.457 102.536 192.457C100.931 192.457 99.484 192.205 98.196 191.701C96.9267 191.197 95.8347 190.506 94.92 189.629C94.0053 188.733 93.3053 187.678 92.82 186.465C92.3347 185.252 92.092 183.926 92.092 182.489C92.092 180.902 92.372 179.456 92.932 178.149C93.5107 176.824 94.2853 175.685 95.256 174.733C96.2453 173.781 97.3747 173.044 98.644 172.521C99.932 171.98 101.295 171.709 102.732 171.709C103.703 171.709 104.72 171.84 105.784 172.101C106.848 172.344 107.772 172.698 108.556 173.165L107.072 175.657C106.792 175.489 106.465 175.34 106.092 175.209C105.737 175.078 105.364 174.966 104.972 174.873C104.58 174.78 104.188 174.714 103.796 174.677C103.404 174.621 103.031 174.593 102.676 174.593C101.687 174.593 100.735 174.789 99.82 175.181C98.9053 175.573 98.1027 176.114 97.412 176.805C96.7213 177.496 96.1707 178.308 95.76 179.241C95.3493 180.174 95.144 181.182 95.144 182.265C95.144 183.254 95.3213 184.188 95.676 185.065C96.0493 185.942 96.5627 186.717 97.216 187.389C97.8693 188.061 98.6533 188.593 99.568 188.985C100.483 189.377 101.491 189.573 102.592 189.573C103.021 189.573 103.525 189.536 104.104 189.461C104.701 189.368 105.271 189.218 105.812 189.013V185.149H101.864V182.517H108.64ZM110.763 186.493C110.763 185.634 110.921 184.832 111.239 184.085C111.575 183.32 112.023 182.657 112.583 182.097C113.143 181.518 113.787 181.061 114.515 180.725C115.261 180.389 116.055 180.221 116.895 180.221C117.455 180.221 117.968 180.296 118.435 180.445C118.901 180.576 119.303 180.744 119.639 180.949C119.975 181.154 120.245 181.369 120.451 181.593C120.656 181.817 120.796 182.013 120.871 182.181L120.983 180.529H123.279V192.233H120.871V190.749C120.777 190.898 120.628 191.076 120.423 191.281C120.217 191.486 119.947 191.682 119.611 191.869C119.293 192.037 118.911 192.186 118.463 192.317C118.015 192.448 117.501 192.513 116.923 192.513C116.027 192.513 115.196 192.354 114.431 192.037C113.684 191.701 113.04 191.262 112.499 190.721C111.957 190.161 111.528 189.517 111.211 188.789C110.912 188.061 110.763 187.296 110.763 186.493ZM113.171 186.353C113.171 186.894 113.264 187.398 113.451 187.865C113.656 188.332 113.927 188.733 114.263 189.069C114.599 189.405 115 189.676 115.467 189.881C115.933 190.068 116.447 190.161 117.007 190.161C117.567 190.161 118.08 190.068 118.547 189.881C119.032 189.676 119.443 189.405 119.779 189.069C120.133 188.714 120.404 188.313 120.591 187.865C120.777 187.398 120.871 186.894 120.871 186.353C120.871 185.812 120.777 185.317 120.591 184.869C120.404 184.402 120.133 184.001 119.779 183.665C119.443 183.329 119.032 183.068 118.547 182.881C118.08 182.676 117.567 182.573 117.007 182.573C116.447 182.573 115.933 182.676 115.467 182.881C115 183.068 114.599 183.329 114.263 183.665C113.927 184.001 113.656 184.402 113.451 184.869C113.264 185.317 113.171 185.812 113.171 186.353ZM126.641 180.529H128.741C128.778 181.108 128.806 181.64 128.825 182.125C128.862 182.592 128.9 183.058 128.937 183.525C129.366 182.517 129.926 181.724 130.617 181.145C131.326 180.548 132.269 180.24 133.445 180.221C134.584 180.221 135.498 180.51 136.189 181.089C136.88 181.668 137.281 182.424 137.393 183.357C137.86 182.405 138.429 181.649 139.101 181.089C139.792 180.529 140.716 180.24 141.873 180.221C143.086 180.221 144.038 180.548 144.729 181.201C145.438 181.854 145.812 182.694 145.849 183.721V192.233H143.441V184.813C143.404 184.216 143.198 183.712 142.825 183.301C142.47 182.872 141.882 182.638 141.061 182.601C139.941 182.601 139.064 182.965 138.429 183.693C137.794 184.402 137.458 185.317 137.421 186.437V192.233H135.041V184.813C135.004 184.216 134.789 183.712 134.397 183.301C134.024 182.872 133.445 182.638 132.661 182.601C132.101 182.601 131.597 182.704 131.149 182.909C130.701 183.096 130.318 183.357 130.001 183.693C129.684 184.029 129.441 184.43 129.273 184.897C129.105 185.364 129.021 185.877 129.021 186.437V192.233H126.641V180.529ZM148.782 176.049C148.782 175.601 148.941 175.228 149.258 174.929C149.594 174.63 149.949 174.481 150.322 174.481C150.695 174.481 151.041 174.63 151.358 174.929C151.675 175.228 151.834 175.601 151.834 176.049C151.834 176.497 151.675 176.87 151.358 177.169C151.041 177.449 150.695 177.589 150.322 177.589C149.949 177.589 149.594 177.449 149.258 177.169C148.941 176.87 148.782 176.497 148.782 176.049ZM151.47 192.233H149.09V180.529H151.47V192.233ZM154.832 180.529H156.932C156.97 181.108 156.998 181.64 157.016 182.125C157.054 182.592 157.091 183.058 157.128 183.525C157.558 182.517 158.164 181.714 158.948 181.117C159.751 180.52 160.731 180.221 161.888 180.221C163.064 180.221 164.007 180.548 164.716 181.201C165.426 181.854 165.799 182.694 165.836 183.721V192.233H163.428V184.813C163.391 184.216 163.186 183.712 162.812 183.301C162.439 182.872 161.851 182.638 161.048 182.601C160.488 182.601 159.975 182.704 159.508 182.909C159.042 183.096 158.64 183.357 158.304 183.693C157.968 184.029 157.698 184.43 157.492 184.897C157.306 185.364 157.212 185.877 157.212 186.437V192.233H154.832V180.529ZM168.294 186.409C168.294 185.532 168.453 184.72 168.77 183.973C169.088 183.208 169.517 182.554 170.058 182.013C170.6 181.453 171.234 181.014 171.962 180.697C172.69 180.38 173.465 180.221 174.286 180.221C174.921 180.221 175.481 180.305 175.966 180.473C176.47 180.641 176.89 180.837 177.226 181.061C177.562 181.285 177.824 181.509 178.01 181.733C178.216 181.938 178.346 182.088 178.402 182.181C178.402 181.92 178.421 181.649 178.458 181.369C178.496 181.07 178.514 180.79 178.514 180.529H180.81V191.701C180.81 193.642 180.241 195.154 179.102 196.237C177.964 197.32 176.424 197.861 174.482 197.861C173.81 197.861 173.204 197.786 172.662 197.637C172.14 197.506 171.654 197.329 171.206 197.105C170.777 196.881 170.376 196.62 170.002 196.321C169.648 196.022 169.293 195.714 168.938 195.397L170.478 193.773C171.057 194.314 171.645 194.744 172.242 195.061C172.858 195.378 173.586 195.537 174.426 195.537C175.677 195.537 176.648 195.238 177.338 194.641C178.029 194.044 178.384 193.213 178.402 192.149V191.337C178.402 191.188 178.421 191.029 178.458 190.861C178.496 190.674 178.514 190.534 178.514 190.441C178.346 190.665 178.132 190.908 177.87 191.169C177.628 191.412 177.338 191.636 177.002 191.841C176.666 192.028 176.274 192.186 175.826 192.317C175.378 192.448 174.874 192.513 174.314 192.513C173.437 192.513 172.634 192.354 171.906 192.037C171.178 191.72 170.544 191.29 170.002 190.749C169.461 190.189 169.041 189.545 168.742 188.817C168.444 188.07 168.294 187.268 168.294 186.409ZM170.702 186.353C170.702 186.894 170.796 187.398 170.982 187.865C171.188 188.332 171.458 188.733 171.794 189.069C172.13 189.405 172.532 189.676 172.998 189.881C173.465 190.068 173.978 190.161 174.538 190.161C175.098 190.161 175.612 190.068 176.078 189.881C176.564 189.676 176.974 189.405 177.31 189.069C177.665 188.714 177.936 188.313 178.122 187.865C178.309 187.398 178.402 186.894 178.402 186.353C178.402 185.812 178.309 185.317 178.122 184.869C177.936 184.402 177.665 184.001 177.31 183.665C176.974 183.329 176.564 183.068 176.078 182.881C175.612 182.676 175.098 182.573 174.538 182.573C173.978 182.573 173.465 182.676 172.998 182.881C172.532 183.068 172.13 183.329 171.794 183.665C171.458 184.001 171.188 184.402 170.982 184.869C170.796 185.317 170.702 185.812 170.702 186.353Z" fill="white"/>
<path d="M162.276 79.5699H100.42L21.2053 125.389L24.432 126.244H81.4313L109.471 110.11L111.085 109.739C113.679 109.126 116.41 109.53 118.716 110.869L125.976 115.063C126.154 115.16 126.354 115.21 126.556 115.209H127.863L130.38 108.852L127.428 99.769L162.276 79.5699Z" fill="#2C0142"/>
<path d="M127.331 147.121C127.175 147.215 126.997 147.265 126.815 147.266C126.136 147.338 125.45 147.306 124.782 147.169L107.487 137.182C107.388 137.146 107.303 137.08 107.243 136.993C107.182 136.907 107.15 136.804 107.15 136.698C107.15 136.593 107.182 136.49 107.243 136.404C107.303 136.317 107.388 136.251 107.487 136.214L161.388 105.093C161.833 104.874 162.321 104.76 162.816 104.76C163.311 104.76 163.8 104.874 164.244 105.093L181.523 115.063C181.975 115.322 131.235 144.846 127.331 147.121Z" fill="#2C0142"/>
<path d="M195.414 96.4616C191.864 95.2839 185.217 94.8483 182.41 96.6713C177.893 99.4624 180.797 102.092 184.54 104.335C193.639 109.901 196.64 110.143 201.706 107.803C202.333 107.597 202.89 107.218 203.312 106.711C203.735 106.203 204.005 105.586 204.094 104.932C204.094 103.851 201.657 98.5428 195.414 96.4616Z" fill="#2C0142"/>
<path d="M140.028 96.5263L118.925 108.772L127.75 113.87L148.853 101.624L140.028 96.5263Z" fill="url(#paint2_linear_2_2582)"/>
<path d="M148.982 101.786C148.985 101.748 148.985 101.71 148.982 101.673C148.982 101.673 127.815 113.87 127.815 113.87C127.865 113.917 127.908 113.972 127.944 114.031C128.089 114.354 128.073 115.047 127.944 115.144L149.046 102.899C149.111 102.802 149.111 102.157 148.982 101.786Z" fill="#CA88EF"/>
<path d="M138.318 94.4933C138.128 94.1398 138.014 93.7513 137.98 93.3518C137.947 92.9522 137.996 92.5501 138.124 92.1701L143.868 79.4731L122.765 91.7184L117.022 104.415C116.894 104.795 116.845 105.197 116.878 105.597C116.911 105.997 117.026 106.385 117.215 106.739C117.413 107.205 117.685 107.635 118.022 108.013C118.274 108.319 118.58 108.576 118.925 108.771L140.028 96.5262C139.691 96.3198 139.386 96.0642 139.124 95.7679C138.79 95.3878 138.518 94.9577 138.318 94.4933V94.4933Z" fill="url(#paint3_linear_2_2582)"/>
<path d="M127.75 113.87L118.925 108.771C118.155 108.291 117.557 107.58 117.215 106.739C117.026 106.385 116.911 105.997 116.878 105.597C116.845 105.198 116.894 104.795 117.022 104.415L122.765 91.7185V91.4926V79.1344C122.758 78.9431 122.704 78.7564 122.609 78.5906C122.513 78.4247 122.378 78.2847 122.217 78.1826C121.91 78.0051 121.684 78.1825 121.668 78.5052V90.7505L115.957 103.351C115.766 103.938 115.694 104.557 115.747 105.173C115.8 105.788 115.975 106.386 116.263 106.932C116.792 108.215 117.705 109.303 118.877 110.046L127.702 115.144C128.041 115.305 128.137 114.047 127.75 113.87Z" fill="#8B3DCE"/>
<path d="M143.851 66.4536C143.801 66.3395 143.729 66.2357 143.642 66.147C143.578 66.06 143.495 65.9883 143.4 65.9373C143.341 65.9033 143.274 65.8854 143.206 65.8854C143.138 65.8854 143.071 65.9033 143.012 65.9373L121.91 78.1987C121.969 78.1647 122.036 78.1468 122.104 78.1468C122.171 78.1468 122.238 78.1647 122.297 78.1987C122.389 78.2549 122.47 78.3258 122.539 78.4084C122.624 78.5057 122.694 78.6143 122.749 78.7311C122.806 78.8641 122.838 79.0061 122.846 79.1505V91.5087V91.7346L143.948 79.4894V79.2635V66.9053C143.949 66.7494 143.916 66.5952 143.851 66.4536V66.4536Z" fill="#8B3DCE"/>
<path d="M88.8688 117.677L87.191 116.693L87.1587 50.7073L88.8527 51.6914L88.8688 117.677Z" fill="#8B3DCE"/>
<path d="M88.8527 51.6914L87.1587 50.7073L174.989 0L176.683 0.984163L88.8527 51.6914Z" fill="url(#paint4_linear_2_2582)"/>
<path d="M176.683 0.984131L176.699 66.9698L88.8689 117.677L88.8528 51.6914L176.683 0.984131Z" fill="#CB89F0"/>
<path d="M89.2238 51.998L176.28 1.74243L176.264 58.9031L89.2238 109.159V51.998Z" fill="#101014"/>
<path d="M138.528 85.4748L135.43 87.2495C135.01 87.5076 134.656 87.3624 134.656 86.9268C134.682 86.679 134.766 86.4408 134.901 86.2308C135.035 86.0209 135.216 85.8449 135.43 85.7168L138.528 83.926C138.947 83.684 139.302 83.8292 139.302 84.2486C139.278 84.4993 139.195 84.7407 139.06 84.9536C138.926 85.1665 138.743 85.345 138.528 85.4748Z" fill="#8821D8"/>
<path d="M181.458 114.079L164.179 104.093C163.927 103.976 163.651 103.915 163.373 103.915C163.094 103.915 162.819 103.976 162.566 104.093L108.6 135.214C108.506 135.256 108.425 135.321 108.363 135.403C108.301 135.485 108.26 135.581 108.245 135.682V136.602C108.253 136.707 108.29 136.809 108.353 136.895C108.416 136.98 108.501 137.046 108.6 137.086L125.879 147.056C126.129 147.181 126.405 147.246 126.685 147.246C126.965 147.246 127.242 147.181 127.492 147.056L181.394 115.935C181.492 115.896 181.578 115.829 181.641 115.744C181.704 115.658 181.741 115.557 181.749 115.451V114.563C181.747 114.464 181.719 114.367 181.668 114.282C181.617 114.198 181.545 114.127 181.458 114.079V114.079Z" fill="url(#paint5_linear_2_2582)"/>
<path d="M181.458 115.063L127.557 146.169C127.304 146.286 127.028 146.346 126.75 146.346C126.471 146.346 126.196 146.286 125.943 146.169L108.664 136.182C108.196 135.924 108.196 135.488 108.664 135.214L162.501 104.093C162.754 103.976 163.03 103.915 163.308 103.915C163.587 103.915 163.862 103.976 164.115 104.093L181.394 114.079C181.926 114.338 181.926 114.773 181.458 115.063Z" fill="url(#paint6_linear_2_2582)"/>
<path d="M154.838 110.433C154.838 110.191 154.838 110.094 154.999 110.014L157.21 108.739C157.329 108.676 157.462 108.642 157.597 108.642C157.732 108.642 157.865 108.676 157.984 108.739L159.839 109.804C159.892 109.827 159.935 109.866 159.964 109.915C159.993 109.965 160.006 110.022 160.001 110.078C160.001 110.32 160.001 110.417 159.839 110.482L157.629 111.772C157.508 111.829 157.376 111.858 157.242 111.858C157.108 111.858 156.976 111.829 156.855 111.772L154.999 110.691C154.949 110.671 154.906 110.635 154.877 110.589C154.848 110.542 154.834 110.488 154.838 110.433ZM158.565 108.61L160.436 109.691C160.558 109.747 160.69 109.777 160.824 109.777C160.957 109.777 161.09 109.747 161.211 109.691L163.421 108.4C163.472 108.382 163.515 108.346 163.542 108.299C163.569 108.251 163.577 108.196 163.566 108.142C163.566 107.9 163.566 107.804 163.421 107.739L161.566 106.658C161.444 106.594 161.308 106.561 161.17 106.561C161.033 106.561 160.897 106.594 160.775 106.658L158.565 107.933C158.516 107.953 158.475 107.99 158.448 108.037C158.422 108.084 158.412 108.138 158.42 108.191C158.404 108.465 158.436 108.61 158.565 108.61ZM151.418 112.74L153.273 113.805C153.395 113.869 153.531 113.902 153.668 113.902C153.806 113.902 153.942 113.869 154.064 113.805L156.274 112.531C156.325 112.512 156.368 112.476 156.395 112.429C156.422 112.381 156.43 112.326 156.419 112.272C156.419 112.03 156.419 111.934 156.274 111.853L154.419 110.788C154.297 110.725 154.161 110.691 154.023 110.691C153.886 110.691 153.75 110.725 153.628 110.788L151.418 112.063C151.367 112.081 151.324 112.117 151.297 112.165C151.27 112.212 151.262 112.268 151.273 112.321C151.257 112.579 151.289 112.676 151.418 112.756V112.74ZM122.604 136.86L124.475 137.941C124.594 138.004 124.727 138.038 124.862 138.038C124.997 138.038 125.13 138.004 125.249 137.941L127.46 136.666C127.512 136.643 127.555 136.604 127.584 136.555C127.613 136.506 127.626 136.449 127.621 136.392C127.621 136.15 127.621 136.053 127.46 135.989L125.604 134.908C125.485 134.844 125.352 134.811 125.217 134.811C125.082 134.811 124.949 134.844 124.83 134.908L122.604 136.182C122.556 136.209 122.517 136.25 122.491 136.298C122.466 136.347 122.454 136.402 122.458 136.456C122.442 136.698 122.491 136.795 122.604 136.86ZM130.412 124.857L132.267 125.937C132.39 126.001 132.525 126.034 132.663 126.034C132.8 126.034 132.936 126.001 133.058 125.937L135.268 124.663C135.319 124.639 135.361 124.6 135.387 124.55C135.413 124.501 135.422 124.444 135.414 124.389C135.414 124.147 135.414 124.05 135.268 123.985L133.397 122.904C133.278 122.841 133.145 122.808 133.01 122.808C132.875 122.808 132.742 122.841 132.622 122.904L130.412 124.179C130.361 124.203 130.32 124.242 130.294 124.292C130.268 124.341 130.258 124.398 130.267 124.453C130.251 124.744 130.283 124.744 130.412 124.857ZM137.559 120.742L139.415 121.807C139.537 121.871 139.672 121.904 139.81 121.904C139.948 121.904 140.083 121.871 140.205 121.807L142.415 120.533C142.465 120.512 142.506 120.475 142.532 120.429C142.558 120.382 142.568 120.328 142.561 120.275C142.561 120.017 142.561 119.92 142.415 119.855L140.544 118.774C140.423 118.718 140.29 118.689 140.157 118.689C140.023 118.689 139.891 118.718 139.77 118.774L137.559 120.065C137.508 120.083 137.465 120.119 137.438 120.167C137.412 120.214 137.403 120.27 137.414 120.323C137.398 120.565 137.43 120.662 137.559 120.742ZM144.706 116.677L146.562 117.742C146.684 117.805 146.819 117.839 146.957 117.839C147.095 117.839 147.23 117.805 147.352 117.742L150.708 115.806C150.837 115.725 150.885 115.628 150.869 115.548C150.853 115.467 150.869 115.193 150.708 115.128L148.853 114.047C148.731 113.991 148.599 113.962 148.465 113.962C148.332 113.962 148.2 113.991 148.078 114.047L144.706 115.999C144.655 116.018 144.612 116.054 144.586 116.101C144.559 116.149 144.55 116.204 144.561 116.257C144.545 116.435 144.577 116.532 144.706 116.677ZM141.141 118.742L142.996 119.807C143.115 119.87 143.248 119.904 143.383 119.904C143.518 119.904 143.651 119.87 143.771 119.807L145.981 118.532C146.033 118.514 146.078 118.479 146.107 118.432C146.137 118.385 146.149 118.329 146.142 118.274C146.142 118.032 146.142 117.935 145.981 117.855L144.126 116.677C144.004 116.621 143.872 116.591 143.738 116.591C143.605 116.591 143.472 116.621 143.351 116.677L141.141 117.968C141.088 117.986 141.044 118.021 141.015 118.068C140.985 118.115 140.973 118.171 140.98 118.226C141.044 118.5 141.044 118.597 141.141 118.677V118.742ZM133.994 122.856L135.849 123.937C135.968 124 136.101 124.034 136.236 124.034C136.371 124.034 136.504 124 136.624 123.937L138.834 122.662C138.963 122.582 139.011 122.485 138.995 122.404C138.979 122.324 138.995 122.049 138.834 121.985L136.978 120.904C136.857 120.848 136.725 120.818 136.591 120.818C136.458 120.818 136.325 120.848 136.204 120.904L133.994 122.178C133.942 122.202 133.898 122.241 133.869 122.29C133.84 122.339 133.827 122.396 133.832 122.453C133.816 122.63 133.865 122.727 133.994 122.791V122.856ZM149.191 117.871L151.047 118.952C151.166 119.015 151.299 119.049 151.434 119.049C151.569 119.049 151.702 119.015 151.821 118.952L154.048 117.677C154.095 117.65 154.134 117.61 154.16 117.561C154.186 117.513 154.197 117.458 154.193 117.403C154.193 117.161 154.193 117.064 154.048 117L152.176 115.919C152.057 115.855 151.924 115.822 151.789 115.822C151.654 115.822 151.521 115.855 151.402 115.919L149.191 117.193C149.062 117.274 149.014 117.371 149.046 117.467C149.079 117.564 149.111 117.742 149.191 117.806V117.871ZM120.603 134.311L122.458 135.392C122.578 135.455 122.711 135.488 122.846 135.488C122.981 135.488 123.114 135.455 123.233 135.392L125.459 134.117C125.507 134.09 125.546 134.05 125.572 134.001C125.597 133.952 125.609 133.898 125.604 133.843C125.604 133.601 125.604 133.504 125.459 133.44L123.588 132.359C123.469 132.295 123.336 132.262 123.201 132.262C123.065 132.262 122.932 132.295 122.813 132.359L120.603 133.633C120.551 133.656 120.507 133.695 120.479 133.744C120.45 133.794 120.437 133.851 120.442 133.907C120.426 134.149 120.474 134.246 120.603 134.311ZM145.61 119.904L147.481 120.985C147.603 121.041 147.735 121.07 147.869 121.07C148.002 121.07 148.134 121.041 148.256 120.985L150.466 119.694C150.595 119.694 150.643 119.532 150.611 119.436C150.579 119.339 150.611 119.097 150.466 119.032L148.611 117.951C148.489 117.888 148.353 117.855 148.215 117.855C148.078 117.855 147.942 117.888 147.82 117.951L145.61 119.226C145.563 119.251 145.525 119.288 145.499 119.334C145.474 119.38 145.462 119.432 145.465 119.484C145.448 119.71 145.497 119.807 145.61 119.904ZM142.044 121.969L143.9 123.05C144.021 123.106 144.153 123.135 144.287 123.135C144.421 123.135 144.553 123.106 144.674 123.05L146.9 121.759C146.948 121.736 146.988 121.699 147.014 121.653C147.04 121.607 147.051 121.553 147.046 121.501C147.046 121.259 147.046 121.162 146.9 121.081L145.029 120.017C144.91 119.953 144.777 119.92 144.642 119.92C144.507 119.92 144.374 119.953 144.255 120.017L142.044 121.291C141.915 121.372 141.867 121.468 141.899 121.549C141.931 121.63 141.915 121.872 142.044 121.936V121.969ZM138.463 124.034L140.334 125.099C140.453 125.162 140.586 125.195 140.721 125.195C140.856 125.195 140.989 125.162 141.109 125.099L143.319 123.824C143.37 123.806 143.413 123.769 143.44 123.722C143.466 123.675 143.475 123.619 143.464 123.566C143.464 123.324 143.464 123.227 143.319 123.146L141.464 122.082C141.342 122.018 141.206 121.985 141.068 121.985C140.931 121.985 140.795 122.018 140.673 122.082L138.463 123.356C138.411 123.374 138.369 123.411 138.342 123.458C138.315 123.505 138.307 123.561 138.318 123.614C138.301 123.824 138.334 123.921 138.463 124.001V124.034ZM124.169 132.278L126.04 133.359C126.159 133.422 126.292 133.456 126.427 133.456C126.562 133.456 126.695 133.422 126.814 133.359L129.025 132.084C129.074 132.063 129.115 132.027 129.141 131.98C129.168 131.933 129.178 131.879 129.17 131.826C129.17 131.568 129.17 131.471 129.025 131.407L127.169 130.326C127.045 130.27 126.91 130.241 126.774 130.241C126.638 130.241 126.503 130.27 126.379 130.326L124.169 131.6C124.118 131.624 124.076 131.664 124.05 131.713C124.024 131.763 124.015 131.819 124.023 131.875C124.007 132.084 124.039 132.181 124.169 132.246V132.278ZM127.75 130.229L129.605 131.294C129.725 131.357 129.858 131.391 129.993 131.391C130.128 131.391 130.261 131.357 130.38 131.294L132.606 130.019C132.653 129.995 132.691 129.957 132.717 129.911C132.742 129.866 132.755 129.813 132.752 129.761C132.752 129.503 132.751 129.406 132.606 129.342C129.864 127.728 130.783 127.728 127.766 129.551C127.714 129.569 127.669 129.605 127.64 129.652C127.611 129.699 127.598 129.755 127.605 129.81C127.573 130.019 127.621 130.116 127.75 130.197V130.229ZM131.364 128.132L133.236 129.196C133.355 129.26 133.488 129.293 133.623 129.293C133.758 129.293 133.891 129.26 134.01 129.196L136.204 127.97C136.255 127.952 136.298 127.916 136.325 127.868C136.352 127.821 136.36 127.765 136.349 127.712C136.349 127.47 136.349 127.373 136.204 127.293L134.349 126.228C134.227 126.164 134.091 126.131 133.953 126.131C133.816 126.131 133.68 126.164 133.558 126.228L131.348 127.502C131.297 127.521 131.254 127.557 131.227 127.604C131.2 127.652 131.192 127.707 131.203 127.761C131.154 127.97 131.187 128.051 131.364 128.132ZM134.946 126.067C136.769 127.115 137.091 127.422 137.575 127.131L139.802 125.857C139.85 125.834 139.889 125.797 139.915 125.751C139.941 125.704 139.952 125.651 139.947 125.599C139.947 125.357 139.947 125.26 139.802 125.179L137.817 124.114C137.698 124.051 137.565 124.018 137.43 124.018C137.295 124.018 137.162 124.051 137.043 124.114L134.833 125.389C134.78 125.407 134.736 125.442 134.706 125.489C134.677 125.536 134.665 125.592 134.671 125.647C134.72 125.889 134.768 125.986 134.897 126.067H134.946ZM128.492 139.667C128.492 139.425 128.492 139.328 128.347 139.248L126.524 138.167C126.403 138.11 126.271 138.081 126.137 138.081C126.003 138.081 125.871 138.11 125.75 138.167L122.378 140.119C122.33 140.142 122.29 140.179 122.264 140.225C122.238 140.271 122.227 140.324 122.233 140.377C122.233 140.619 122.233 140.716 122.378 140.796L124.249 141.861C124.368 141.925 124.501 141.958 124.636 141.958C124.771 141.958 124.904 141.925 125.024 141.861L128.395 139.925C128.44 139.9 128.476 139.862 128.499 139.816C128.522 139.77 128.531 139.718 128.525 139.667H128.492ZM124.007 138.457C124.007 138.215 124.007 138.118 123.862 138.054L121.991 136.973C121.871 136.909 121.738 136.876 121.603 136.876C121.468 136.876 121.335 136.909 121.216 136.973L119.006 138.247C118.956 138.268 118.915 138.305 118.889 138.352C118.863 138.398 118.853 138.452 118.861 138.505C118.861 138.764 118.861 138.86 119.006 138.925L120.861 140.006C120.986 140.061 121.12 140.09 121.256 140.09C121.393 140.09 121.527 140.061 121.652 140.006L123.862 138.731C123.919 138.713 123.967 138.676 124 138.626C124.032 138.576 124.046 138.516 124.039 138.457H124.007ZM126.798 126.922C129.493 128.535 128.557 128.535 131.638 126.728C131.69 126.705 131.734 126.666 131.763 126.617C131.792 126.567 131.805 126.511 131.8 126.454C131.8 126.212 131.8 126.115 131.638 126.05L129.783 124.969C129.664 124.906 129.531 124.873 129.396 124.873C129.261 124.873 129.128 124.906 129.009 124.969L126.782 126.244C126.734 126.271 126.696 126.312 126.67 126.36C126.644 126.409 126.633 126.464 126.637 126.518C126.669 126.76 126.718 126.857 126.831 126.922H126.798ZM166.18 117.935C166.18 117.693 166.18 117.596 166.019 117.516L164.163 116.451C164.044 116.387 163.911 116.354 163.776 116.354C163.641 116.354 163.508 116.387 163.389 116.451L161.162 117.726C161.115 117.748 161.075 117.786 161.049 117.832C161.023 117.878 161.012 117.931 161.017 117.984C161.017 118.226 161.017 118.323 161.162 118.403L163.034 119.484C163.155 119.54 163.287 119.57 163.421 119.57C163.555 119.57 163.687 119.54 163.808 119.484L166.019 118.193C166.077 118.182 166.129 118.149 166.165 118.101C166.2 118.054 166.217 117.995 166.212 117.935H166.18ZM122.023 135.908C122.023 135.666 122.023 135.569 121.878 135.505L120.071 134.424C119.949 134.36 119.813 134.327 119.675 134.327C119.538 134.327 119.402 134.36 119.28 134.424L115.924 136.36C115.795 136.44 115.747 136.537 115.779 136.634C115.811 136.731 115.779 136.973 115.924 137.037L117.78 138.118C117.899 138.182 118.032 138.215 118.167 138.215C118.302 138.215 118.435 138.182 118.554 138.118L121.926 136.182C121.968 136.151 121.999 136.109 122.017 136.06C122.034 136.011 122.036 135.958 122.023 135.908ZM123.265 128.987L125.12 130.068C125.245 130.123 125.379 130.152 125.516 130.152C125.652 130.152 125.787 130.123 125.911 130.068L128.121 128.777C128.172 128.759 128.215 128.722 128.242 128.675C128.269 128.628 128.277 128.572 128.266 128.519C128.266 128.277 128.266 128.18 128.121 128.115L126.25 127.035C126.131 126.971 125.998 126.938 125.863 126.938C125.727 126.938 125.595 126.971 125.475 127.035L123.265 128.309C123.216 128.33 123.175 128.367 123.148 128.413C123.122 128.46 123.112 128.514 123.12 128.567C123.104 128.825 123.136 128.922 123.297 128.987H123.265ZM119.683 131.052L121.555 132.133C121.676 132.189 121.808 132.218 121.942 132.218C122.076 132.218 122.208 132.189 122.329 132.133L124.54 130.842C124.592 130.824 124.637 130.788 124.666 130.741C124.695 130.695 124.708 130.639 124.701 130.584C124.701 130.342 124.701 130.245 124.54 130.164L122.684 129.1C122.565 129.036 122.432 129.003 122.297 129.003C122.162 129.003 122.029 129.036 121.91 129.1L119.683 130.374C119.637 130.399 119.599 130.436 119.573 130.482C119.547 130.528 119.535 130.58 119.538 130.632C119.522 130.89 119.571 130.987 119.683 131.052V131.052ZM117.554 134.714C117.554 134.472 117.554 134.375 117.393 134.295L115.537 133.23C115.418 133.166 115.285 133.133 115.15 133.133C115.015 133.133 114.882 133.166 114.763 133.23L112.536 134.504C112.489 134.527 112.449 134.564 112.423 134.61C112.397 134.657 112.386 134.71 112.391 134.762C112.391 135.004 112.391 135.101 112.536 135.182L114.408 136.247C114.527 136.31 114.66 136.344 114.795 136.344C114.93 136.344 115.063 136.31 115.182 136.247L117.393 134.972C117.445 134.954 117.489 134.919 117.519 134.872C117.548 134.825 117.561 134.769 117.554 134.714V134.714ZM116.118 133.101L117.973 134.166C118.095 134.229 118.231 134.262 118.369 134.262C118.506 134.262 118.642 134.229 118.764 134.166L120.974 132.891C121.025 132.873 121.068 132.836 121.095 132.789C121.122 132.742 121.13 132.686 121.119 132.633C121.119 132.391 121.119 132.294 120.974 132.213L119.103 131.197C118.983 131.133 118.85 131.1 118.715 131.1C118.58 131.1 118.447 131.133 118.328 131.197L116.118 132.472C116.067 132.49 116.024 132.526 115.997 132.573C115.97 132.621 115.962 132.676 115.973 132.73C115.957 132.939 115.989 133.036 116.118 133.117V133.101ZM176.618 115.531C176.629 115.478 176.621 115.423 176.594 115.375C176.567 115.328 176.524 115.292 176.473 115.273L174.602 114.192C174.482 114.129 174.349 114.096 174.214 114.096C174.079 114.096 173.946 114.129 173.827 114.192L171.617 115.467C171.568 115.488 171.526 115.524 171.5 115.571C171.474 115.618 171.464 115.672 171.472 115.725C171.472 115.983 171.472 116.08 171.617 116.145L173.472 117.225C173.597 117.281 173.731 117.31 173.867 117.31C174.004 117.31 174.138 117.281 174.263 117.225L176.473 115.935C176.524 115.916 176.567 115.88 176.594 115.833C176.621 115.785 176.629 115.73 176.618 115.677V115.531ZM163.712 112.079L161.259 110.659C161.108 110.587 160.943 110.55 160.775 110.55C160.608 110.55 160.442 110.587 160.291 110.659L154.693 113.886C154.628 113.908 154.572 113.952 154.537 114.012C154.501 114.071 154.488 114.14 154.499 114.208C154.499 114.467 154.499 114.58 154.693 114.676L159.533 117.484C159.682 117.563 159.848 117.604 160.017 117.604C160.186 117.604 160.352 117.563 160.501 117.484L169.794 112.127C169.868 112.12 169.938 112.087 169.991 112.034C170.044 111.981 170.077 111.911 170.084 111.837C170.084 111.563 170.084 111.45 169.891 111.369L168.068 110.32C167.972 110.265 167.863 110.236 167.753 110.236C167.642 110.236 167.534 110.265 167.438 110.32L164.308 112.095C164.216 112.143 164.114 112.168 164.01 112.168C163.906 112.168 163.804 112.143 163.712 112.095V112.079ZM160.485 120.662L158.629 119.581C158.505 119.525 158.37 119.497 158.234 119.497C158.098 119.497 157.963 119.525 157.839 119.581L155.629 120.872C155.581 120.895 155.541 120.932 155.515 120.978C155.489 121.024 155.478 121.077 155.483 121.13C155.483 121.372 155.483 121.468 155.629 121.549L157.5 122.614C157.619 122.678 157.752 122.711 157.887 122.711C158.022 122.711 158.155 122.678 158.275 122.614L160.485 121.339C160.614 121.339 160.662 121.178 160.63 121.081C160.598 120.985 160.662 120.759 160.533 120.678L160.485 120.662ZM169.584 115.451L167.713 114.37C167.593 114.306 167.46 114.273 167.325 114.273C167.19 114.273 167.057 114.306 166.938 114.37L164.728 115.644C164.679 115.665 164.637 115.702 164.611 115.749C164.585 115.795 164.575 115.849 164.583 115.902C164.583 116.161 164.583 116.257 164.728 116.322L166.583 117.403C166.708 117.459 166.842 117.487 166.979 117.487C167.115 117.487 167.249 117.459 167.374 117.403L169.584 116.112C169.635 116.094 169.678 116.058 169.705 116.01C169.732 115.963 169.74 115.907 169.729 115.854C169.794 115.628 169.762 115.531 169.632 115.467L169.584 115.451ZM153.386 124.744L151.531 123.663C151.406 123.607 151.272 123.578 151.136 123.578C150.999 123.578 150.865 123.607 150.74 123.663L148.53 124.937C148.482 124.964 148.443 125.005 148.418 125.053C148.392 125.102 148.381 125.157 148.385 125.211C148.385 125.453 148.385 125.55 148.53 125.615L150.401 126.696C150.521 126.759 150.654 126.793 150.789 126.793C150.924 126.793 151.057 126.759 151.176 126.696L153.386 125.421C153.515 125.421 153.564 125.244 153.531 125.147C153.499 125.05 153.515 124.873 153.386 124.744ZM168.197 113.805C168.197 114.047 168.197 114.144 168.342 114.208L170.213 115.289C170.335 115.346 170.467 115.375 170.6 115.375C170.734 115.375 170.866 115.346 170.988 115.289L173.198 114.015C173.25 113.992 173.294 113.953 173.322 113.904C173.351 113.854 173.364 113.797 173.359 113.741C173.359 113.499 173.359 113.402 173.198 113.337L171.343 112.256C171.223 112.193 171.09 112.16 170.955 112.16C170.82 112.16 170.687 112.193 170.568 112.256L168.342 113.531C168.282 113.562 168.235 113.613 168.209 113.674C168.182 113.736 168.178 113.805 168.197 113.87V113.805ZM139.156 132.988L137.301 131.923C137.179 131.859 137.043 131.826 136.906 131.826C136.768 131.826 136.633 131.859 136.511 131.923L134.3 133.197C134.249 133.216 134.206 133.252 134.179 133.299C134.153 133.347 134.144 133.402 134.155 133.456C134.155 133.698 134.155 133.794 134.3 133.875L136.172 134.956C136.293 135.012 136.425 135.042 136.559 135.042C136.693 135.042 136.825 135.012 136.946 134.956L139.156 133.665C139.208 133.647 139.251 133.611 139.277 133.563C139.304 133.516 139.313 133.461 139.302 133.407C139.253 133.23 139.221 133.133 139.092 133.052L139.156 132.988ZM146.304 128.874L144.448 127.793C144.326 127.729 144.191 127.696 144.053 127.696C143.915 127.696 143.78 127.729 143.658 127.793L141.447 129.067C141.4 129.095 141.361 129.135 141.335 129.183C141.309 129.232 141.298 129.287 141.302 129.342C141.302 129.584 141.302 129.68 141.447 129.745L143.319 130.826C143.44 130.882 143.572 130.911 143.706 130.911C143.84 130.911 143.972 130.882 144.093 130.826L146.304 129.551C146.354 129.528 146.396 129.488 146.422 129.438C146.448 129.389 146.458 129.332 146.449 129.277C146.4 129.1 146.368 129.003 146.239 128.938L146.304 128.874ZM142.657 131.003L140.786 129.922C140.667 129.859 140.534 129.826 140.399 129.826C140.264 129.826 140.131 129.859 140.012 129.922L137.817 131.197C137.688 131.278 137.64 131.374 137.656 131.455C137.672 131.536 137.656 131.81 137.817 131.875L139.673 132.955C139.794 133.012 139.926 133.041 140.06 133.041C140.194 133.041 140.326 133.012 140.447 132.955L142.674 131.665C142.721 131.642 142.761 131.605 142.787 131.559C142.813 131.512 142.824 131.459 142.819 131.407C142.835 131.197 142.786 131.068 142.657 131.003ZM135.51 135.117L133.639 134.053C133.52 133.989 133.387 133.956 133.252 133.956C133.117 133.956 132.984 133.989 132.864 134.053L130.654 135.327C130.602 135.345 130.557 135.381 130.528 135.428C130.498 135.475 130.486 135.53 130.493 135.585C130.493 135.827 130.493 135.924 130.654 136.005L132.509 137.07C132.629 137.133 132.762 137.166 132.897 137.166C133.032 137.166 133.165 137.133 133.284 137.07L135.51 135.795C135.558 135.772 135.598 135.735 135.624 135.689C135.65 135.643 135.661 135.59 135.656 135.537C135.688 135.295 135.639 135.198 135.526 135.117H135.51ZM131.929 137.182L130.073 136.118C129.951 136.054 129.816 136.021 129.678 136.021C129.54 136.021 129.405 136.054 129.283 136.118L127.073 137.392C127.021 137.411 126.978 137.447 126.952 137.494C126.925 137.542 126.916 137.597 126.927 137.65C126.927 137.892 126.927 137.989 127.073 138.07L128.944 139.135C129.063 139.198 129.196 139.231 129.331 139.231C129.466 139.231 129.599 139.198 129.718 139.135L131.929 137.86C131.98 137.842 132.023 137.806 132.05 137.758C132.076 137.711 132.085 137.655 132.074 137.602C132.106 137.36 132.074 137.263 131.945 137.182H131.929ZM149.805 126.873L147.933 125.792C147.814 125.729 147.681 125.695 147.546 125.695C147.411 125.695 147.278 125.729 147.159 125.792L144.948 127.067C144.819 127.147 144.771 127.244 144.803 127.341C144.835 127.438 144.803 127.68 144.948 127.744L146.804 128.825C146.923 128.889 147.056 128.922 147.191 128.922C147.326 128.922 147.459 128.889 147.578 128.825L149.805 127.551C149.852 127.523 149.891 127.483 149.917 127.435C149.943 127.386 149.954 127.331 149.95 127.277C149.982 127.035 149.934 126.938 149.821 126.873H149.805ZM156.952 122.743L155.08 121.662C154.959 121.606 154.827 121.577 154.693 121.577C154.559 121.577 154.427 121.606 154.306 121.662L152.095 122.953C151.966 122.953 151.918 123.114 151.95 123.211C151.983 123.308 151.95 123.55 152.095 123.614L153.951 124.744C154.07 124.807 154.203 124.84 154.338 124.84C154.473 124.84 154.606 124.807 154.725 124.744L156.952 123.469C156.99 123.463 157.026 123.45 157.058 123.429C157.091 123.409 157.119 123.382 157.14 123.35C157.161 123.318 157.175 123.282 157.182 123.244C157.188 123.206 157.187 123.167 157.177 123.13C157.177 122.904 157.081 122.808 156.968 122.743H156.952ZM137.527 137.65L135.656 136.569C135.536 136.506 135.403 136.473 135.268 136.473C135.133 136.473 135 136.506 134.881 136.569L132.671 137.844C132.619 137.867 132.575 137.906 132.546 137.955C132.517 138.004 132.505 138.061 132.509 138.118C132.509 138.36 132.509 138.457 132.671 138.522L134.526 139.602C134.645 139.666 134.778 139.699 134.913 139.699C135.048 139.699 135.181 139.666 135.301 139.602L137.527 138.328C137.575 138.301 137.614 138.26 137.639 138.212C137.665 138.163 137.676 138.108 137.672 138.054C137.688 137.828 137.64 137.731 137.527 137.65ZM141.044 135.601L139.189 134.52C139.064 134.465 138.93 134.436 138.793 134.436C138.657 134.436 138.523 134.465 138.398 134.52L136.188 135.795C136.137 135.819 136.096 135.858 136.07 135.908C136.043 135.957 136.034 136.014 136.043 136.069C136.043 136.311 136.043 136.408 136.188 136.473L138.059 137.554C138.179 137.617 138.312 137.65 138.447 137.65C138.582 137.65 138.715 137.617 138.834 137.554L141.044 136.279C141.093 136.258 141.134 136.221 141.161 136.175C141.187 136.128 141.197 136.074 141.189 136.021C141.254 135.763 141.222 135.666 141.044 135.601ZM133.897 139.732L132.042 138.651C131.92 138.587 131.784 138.554 131.646 138.554C131.509 138.554 131.373 138.587 131.251 138.651L129.041 139.925C128.99 139.949 128.949 139.989 128.922 140.038C128.896 140.088 128.887 140.144 128.896 140.199C128.896 140.441 128.896 140.538 129.041 140.603L130.912 141.684C131.031 141.747 131.164 141.78 131.299 141.78C131.435 141.78 131.568 141.747 131.687 141.684L133.897 140.409C133.948 140.385 133.989 140.346 134.015 140.296C134.042 140.247 134.051 140.19 134.042 140.135C134.107 139.893 134.074 139.796 133.945 139.732H133.897ZM130.331 141.797L128.46 140.716C128.341 140.652 128.208 140.619 128.073 140.619C127.938 140.619 127.805 140.652 127.686 140.716L125.475 141.99C125.346 142.071 125.298 142.168 125.314 142.248C125.33 142.329 125.314 142.603 125.475 142.668L127.331 143.749C127.452 143.805 127.584 143.834 127.718 143.834C127.852 143.834 127.984 143.805 128.105 143.749L130.331 142.458C130.379 142.435 130.419 142.398 130.445 142.352C130.471 142.306 130.482 142.253 130.477 142.2C130.541 141.958 130.493 141.861 130.38 141.797H130.331ZM157.177 118.807L155.306 117.742C155.187 117.678 155.054 117.645 154.919 117.645C154.784 117.645 154.651 117.678 154.532 117.742L151.176 119.678C151.047 119.758 150.998 119.855 151.015 119.936C151.031 120.016 151.015 120.291 151.176 120.355L153.031 121.436C153.153 121.493 153.285 121.522 153.418 121.522C153.552 121.522 153.684 121.493 153.806 121.436L157.177 119.484C157.229 119.466 157.272 119.43 157.298 119.382C157.325 119.335 157.334 119.279 157.323 119.226C157.371 118.984 157.339 118.887 157.177 118.807ZM163.631 122.566L161.808 121.517C161.686 121.461 161.554 121.431 161.421 121.431C161.287 121.431 161.155 121.461 161.033 121.517L157.661 123.469C157.532 123.469 157.484 123.63 157.516 123.727C157.549 123.824 157.516 124.066 157.661 124.147L159.517 125.211C159.639 125.275 159.774 125.308 159.912 125.308C160.05 125.308 160.185 125.275 160.307 125.211L163.663 123.275C163.792 123.275 163.841 123.114 163.808 123.017C163.776 122.921 163.792 122.646 163.631 122.566ZM172.859 117.338L171.004 116.274C170.885 116.21 170.752 116.177 170.617 116.177C170.482 116.177 170.349 116.21 170.229 116.274L168.003 117.548C167.955 117.571 167.916 117.608 167.89 117.654C167.864 117.7 167.853 117.754 167.858 117.806C167.858 118.048 167.858 118.161 168.003 118.226L169.874 119.307C169.996 119.363 170.128 119.392 170.262 119.392C170.395 119.392 170.528 119.363 170.649 119.307L172.859 118.016C172.912 117.998 172.956 117.962 172.985 117.915C173.015 117.868 173.027 117.813 173.02 117.758C173.069 117.516 173.02 117.419 172.891 117.338H172.859ZM169.294 119.403L167.454 118.29C167.335 118.227 167.202 118.193 167.067 118.193C166.932 118.193 166.799 118.227 166.68 118.29L164.47 119.565C164.341 119.565 164.292 119.726 164.325 119.823C164.357 119.92 164.325 120.162 164.47 120.242L166.325 121.307C166.447 121.371 166.583 121.404 166.72 121.404C166.858 121.404 166.994 121.371 167.116 121.307L169.326 120.033C169.374 120.01 169.413 119.973 169.439 119.926C169.465 119.88 169.476 119.827 169.471 119.775C169.487 119.581 169.439 119.484 169.326 119.403H169.294ZM158.984 125.292L157.177 124.211C157.058 124.148 156.925 124.114 156.79 124.114C156.655 124.114 156.522 124.148 156.403 124.211L139.85 133.762C139.798 133.785 139.755 133.824 139.726 133.874C139.697 133.923 139.684 133.98 139.689 134.036C139.689 134.278 139.689 134.375 139.85 134.44L141.706 135.521C141.825 135.584 141.958 135.617 142.093 135.617C142.228 135.617 142.361 135.584 142.48 135.521L159.033 125.97C159.162 125.889 159.21 125.792 159.178 125.695C159.146 125.599 159.146 125.357 159.017 125.292H158.984ZM145.303 125.663L143.432 124.598C143.313 124.535 143.18 124.502 143.045 124.502C142.91 124.502 142.777 124.535 142.657 124.598L140.447 125.873C140.396 125.891 140.353 125.927 140.326 125.975C140.3 126.022 140.291 126.078 140.302 126.131C140.302 126.373 140.302 126.47 140.447 126.551L142.302 127.615C142.425 127.679 142.56 127.712 142.698 127.712C142.835 127.712 142.971 127.679 143.093 127.615L145.303 126.341C145.355 126.322 145.397 126.286 145.424 126.239C145.451 126.191 145.459 126.136 145.449 126.083C145.497 125.841 145.465 125.744 145.336 125.663H145.303ZM141.722 127.728L139.866 126.663C139.747 126.6 139.614 126.567 139.479 126.567C139.344 126.567 139.211 126.6 139.092 126.663L136.882 127.938C136.829 127.956 136.785 127.992 136.755 128.039C136.726 128.086 136.714 128.141 136.72 128.196C136.72 128.438 136.72 128.535 136.882 128.616L138.737 129.68C138.856 129.744 138.989 129.777 139.124 129.777C139.259 129.777 139.392 129.744 139.511 129.68L141.722 128.406C141.774 128.388 141.819 128.352 141.848 128.305C141.877 128.258 141.89 128.203 141.883 128.148C141.931 127.97 141.883 127.809 141.754 127.728H141.722ZM148.869 123.598L147.013 122.533C146.894 122.47 146.761 122.437 146.626 122.437C146.491 122.437 146.358 122.47 146.239 122.533L144.029 123.808C143.976 123.826 143.932 123.861 143.902 123.908C143.873 123.955 143.861 124.011 143.867 124.066C143.867 124.308 143.867 124.405 144.029 124.485L145.884 125.566C146.005 125.623 146.138 125.652 146.271 125.652C146.405 125.652 146.537 125.623 146.659 125.566L148.869 124.276C148.921 124.258 148.966 124.222 148.995 124.175C149.024 124.128 149.037 124.073 149.03 124.018C149.111 123.776 149.111 123.679 148.901 123.598H148.869ZM161.646 110.094C161.646 110.336 161.646 110.433 161.792 110.514L163.647 111.579C163.769 111.642 163.905 111.676 164.042 111.676C164.18 111.676 164.315 111.642 164.438 111.579L166.648 110.304C166.699 110.286 166.742 110.25 166.769 110.202C166.795 110.155 166.804 110.099 166.793 110.046C166.793 109.804 166.793 109.707 166.648 109.627L164.825 108.61C164.703 108.547 164.567 108.513 164.429 108.513C164.292 108.513 164.156 108.547 164.034 108.61L161.824 109.885C161.781 109.901 161.745 109.93 161.719 109.967C161.693 110.005 161.679 110.049 161.679 110.094H161.646ZM152.45 121.549L150.595 120.468C150.473 120.405 150.337 120.371 150.2 120.371C150.062 120.371 149.927 120.405 149.805 120.468L147.594 121.743C147.545 121.764 147.504 121.8 147.478 121.847C147.451 121.894 147.441 121.948 147.449 122.001C147.449 122.259 147.449 122.356 147.594 122.42L149.45 123.501C149.574 123.557 149.709 123.586 149.845 123.586C149.981 123.586 150.116 123.557 150.24 123.501L152.45 122.211C152.502 122.192 152.545 122.156 152.571 122.109C152.598 122.061 152.607 122.006 152.596 121.953C152.644 121.711 152.612 121.614 152.483 121.517L152.45 121.549ZM138.156 129.793L136.285 128.712C136.163 128.656 136.031 128.627 135.898 128.627C135.764 128.627 135.632 128.656 135.51 128.712L133.3 130.003C133.249 130.021 133.206 130.058 133.179 130.105C133.153 130.152 133.144 130.208 133.155 130.261C133.155 130.503 133.155 130.6 133.3 130.681L135.155 131.745C135.277 131.809 135.413 131.842 135.551 131.842C135.688 131.842 135.824 131.809 135.946 131.745L138.156 130.471C138.207 130.453 138.25 130.416 138.277 130.369C138.304 130.322 138.312 130.266 138.301 130.213C138.35 129.971 138.318 129.874 138.188 129.793H138.156ZM131.009 133.924L129.17 132.81C129.049 132.754 128.916 132.725 128.783 132.725C128.649 132.725 128.517 132.754 128.395 132.81L126.185 134.085C126.135 134.109 126.093 134.148 126.067 134.198C126.041 134.247 126.031 134.304 126.04 134.359C126.04 134.601 126.04 134.698 126.185 134.762L128.041 135.843C128.163 135.907 128.298 135.94 128.436 135.94C128.573 135.94 128.709 135.907 128.831 135.843L131.041 134.569C131.092 134.545 131.134 134.505 131.16 134.456C131.186 134.406 131.195 134.35 131.187 134.295C131.203 134.085 131.17 133.988 131.041 133.924H131.009ZM134.591 131.858L132.735 130.777C132.614 130.721 132.482 130.692 132.348 130.692C132.214 130.692 132.082 130.721 131.961 130.777L129.735 132.068C129.687 132.091 129.647 132.128 129.621 132.174C129.595 132.221 129.584 132.274 129.589 132.326C129.589 132.568 129.589 132.665 129.735 132.73L131.606 133.811C131.725 133.874 131.858 133.907 131.993 133.907C132.128 133.907 132.261 133.874 132.38 133.811L134.591 132.536C134.72 132.455 134.768 132.359 134.752 132.278C134.736 132.197 134.736 131.923 134.591 131.858Z" fill="url(#paint7_linear_2_2582)"/>
<path d="M117.393 134.65L115.182 135.924C115.063 135.988 114.93 136.021 114.795 136.021C114.66 136.021 114.527 135.988 114.408 135.924L112.536 134.859C112.327 134.73 112.327 134.52 112.536 134.407L114.763 133.133C114.882 133.069 115.015 133.036 115.15 133.036C115.285 133.036 115.418 133.069 115.537 133.133L117.393 134.198C117.618 134.327 117.618 134.52 117.393 134.65ZM120.974 132.133L119.103 131.068C118.984 131.004 118.851 130.971 118.715 130.971C118.58 130.971 118.447 131.004 118.328 131.068L116.118 132.342C116.072 132.36 116.033 132.391 116.005 132.431C115.978 132.472 115.963 132.519 115.963 132.568C115.963 132.617 115.978 132.665 116.005 132.705C116.033 132.746 116.072 132.777 116.118 132.794L117.973 133.859C118.095 133.923 118.231 133.956 118.369 133.956C118.506 133.956 118.642 133.923 118.764 133.859L120.974 132.584C121.02 132.567 121.059 132.536 121.087 132.496C121.114 132.455 121.129 132.407 121.129 132.359C121.129 132.31 121.114 132.262 121.087 132.222C121.059 132.181 121.02 132.15 120.974 132.133V132.133ZM124.54 130.068L122.684 129.003C122.565 128.939 122.432 128.906 122.297 128.906C122.162 128.906 122.029 128.939 121.91 129.003L119.683 130.277C119.638 130.295 119.599 130.326 119.571 130.366C119.543 130.407 119.528 130.454 119.528 130.503C119.528 130.552 119.543 130.6 119.571 130.64C119.599 130.681 119.638 130.711 119.683 130.729L121.555 131.794C121.674 131.857 121.807 131.891 121.942 131.891C122.077 131.891 122.21 131.857 122.329 131.794L124.54 130.519C124.766 130.406 124.766 130.197 124.54 130.068ZM128.137 127.97L126.266 126.905C126.147 126.842 126.014 126.809 125.879 126.809C125.744 126.809 125.611 126.842 125.492 126.905L123.281 128.18C123.236 128.198 123.196 128.229 123.169 128.269C123.141 128.309 123.126 128.357 123.126 128.406C123.126 128.455 123.141 128.503 123.169 128.543C123.196 128.583 123.236 128.614 123.281 128.632L125.137 129.713C125.261 129.768 125.396 129.797 125.532 129.797C125.668 129.797 125.803 129.768 125.927 129.713L128.137 128.422C128.331 128.341 128.331 128.132 128.137 127.97ZM131.703 125.921L129.848 124.84C129.728 124.777 129.595 124.744 129.46 124.744C129.325 124.744 129.192 124.777 129.073 124.84L126.847 126.115C126.801 126.132 126.762 126.163 126.734 126.204C126.706 126.244 126.692 126.292 126.692 126.341C126.692 126.39 126.706 126.437 126.734 126.478C126.762 126.518 126.801 126.549 126.847 126.567L128.718 127.648C128.84 127.704 128.972 127.733 129.105 127.733C129.239 127.733 129.371 127.704 129.493 127.648L131.703 126.357C131.913 126.357 131.913 126.067 131.687 125.954L131.703 125.921ZM135.284 123.856L133.413 122.775C133.294 122.712 133.161 122.678 133.026 122.678C132.891 122.678 132.758 122.712 132.639 122.775L130.428 124.05C130.383 124.067 130.343 124.098 130.316 124.139C130.288 124.179 130.273 124.227 130.273 124.276C130.273 124.325 130.288 124.372 130.316 124.413C130.343 124.453 130.383 124.484 130.428 124.502L132.284 125.582C132.408 125.638 132.543 125.667 132.679 125.667C132.815 125.667 132.95 125.638 133.074 125.582L135.284 124.308C135.478 124.211 135.478 124.001 135.268 123.889L135.284 123.856ZM138.85 121.791L136.995 120.71C136.875 120.647 136.742 120.613 136.607 120.613C136.472 120.613 136.339 120.647 136.22 120.71L134.01 121.985C133.784 122.114 133.784 122.324 134.01 122.437L135.865 123.517C135.984 123.581 136.117 123.614 136.252 123.614C136.388 123.614 136.521 123.581 136.64 123.517L138.85 122.243C139.06 122.146 139.06 121.936 138.834 121.823L138.85 121.791ZM142.432 119.726L140.56 118.645C140.439 118.589 140.307 118.56 140.173 118.56C140.039 118.56 139.907 118.589 139.786 118.645L137.575 119.936C137.528 119.949 137.486 119.977 137.456 120.017C137.426 120.056 137.409 120.104 137.409 120.154C137.409 120.203 137.426 120.251 137.456 120.291C137.486 120.33 137.528 120.358 137.575 120.371L139.431 121.517C139.553 121.581 139.688 121.614 139.826 121.614C139.964 121.614 140.099 121.581 140.221 121.517L142.432 120.242C142.496 120.24 142.556 120.213 142.6 120.166C142.644 120.119 142.668 120.056 142.666 119.992C142.663 119.928 142.636 119.867 142.589 119.824C142.542 119.78 142.48 119.756 142.415 119.758L142.432 119.726ZM145.997 117.661L144.126 116.677C144.004 116.621 143.872 116.591 143.738 116.591C143.605 116.591 143.473 116.621 143.351 116.677L141.141 117.968C140.915 118.08 140.915 118.29 141.141 118.403L142.996 119.484C143.115 119.548 143.248 119.581 143.383 119.581C143.519 119.581 143.651 119.548 143.771 119.484L145.981 118.21C146.207 118.016 146.207 117.822 145.981 117.693L145.997 117.661ZM150.724 114.967L148.869 113.886C148.747 113.829 148.615 113.8 148.482 113.8C148.348 113.8 148.216 113.829 148.094 113.886L144.723 115.838C144.513 115.951 144.513 116.161 144.723 116.29L146.578 117.354C146.7 117.418 146.836 117.451 146.973 117.451C147.111 117.451 147.246 117.418 147.368 117.354L150.724 115.418C150.934 115.289 150.934 115.064 150.724 114.967ZM166.067 117.419L164.212 116.354C164.093 116.291 163.96 116.257 163.824 116.257C163.689 116.257 163.556 116.291 163.437 116.354L161.211 117.629C161.165 117.646 161.126 117.677 161.098 117.718C161.071 117.758 161.056 117.806 161.056 117.855C161.056 117.904 161.071 117.951 161.098 117.992C161.126 118.032 161.165 118.063 161.211 118.08L163.082 119.145C163.202 119.209 163.334 119.242 163.47 119.242C163.605 119.242 163.738 119.209 163.857 119.145L166.067 117.871C166.277 117.742 166.277 117.548 166.051 117.419H166.067ZM169.649 115.354L167.777 114.289C167.658 114.226 167.525 114.192 167.39 114.192C167.255 114.192 167.122 114.226 167.003 114.289L164.792 115.564C164.747 115.581 164.708 115.612 164.68 115.653C164.652 115.693 164.637 115.741 164.637 115.79C164.637 115.838 164.652 115.886 164.68 115.927C164.708 115.967 164.747 115.998 164.792 116.015L166.648 117.096C166.772 117.152 166.907 117.181 167.043 117.181C167.179 117.181 167.314 117.152 167.438 117.096L169.649 115.806C169.842 115.693 169.842 115.483 169.633 115.354H169.649ZM173.214 113.305L171.359 112.224C171.24 112.16 171.107 112.127 170.972 112.127C170.837 112.127 170.704 112.16 170.584 112.224L168.358 113.499C168.312 113.516 168.273 113.547 168.245 113.587C168.218 113.628 168.203 113.676 168.203 113.724C168.203 113.773 168.218 113.821 168.245 113.861C168.273 113.902 168.312 113.933 168.358 113.95L170.229 115.031C170.351 115.088 170.483 115.117 170.617 115.117C170.75 115.117 170.883 115.088 171.004 115.031L173.214 113.741C173.424 113.628 173.424 113.45 173.198 113.305H173.214ZM169.342 119.307L167.455 118.29C167.335 118.227 167.202 118.193 167.067 118.193C166.932 118.193 166.799 118.227 166.68 118.29L164.47 119.565C164.424 119.582 164.385 119.613 164.357 119.654C164.33 119.694 164.315 119.742 164.315 119.791C164.315 119.84 164.33 119.887 164.357 119.928C164.385 119.968 164.424 119.999 164.47 120.016L166.325 121.081C166.447 121.145 166.583 121.178 166.72 121.178C166.858 121.178 166.994 121.145 167.116 121.081L169.326 119.807C169.392 119.807 169.456 119.78 169.503 119.733C169.55 119.687 169.576 119.623 169.576 119.557C169.576 119.49 169.55 119.427 169.503 119.38C169.456 119.333 169.392 119.307 169.326 119.307H169.342ZM172.908 117.242L171.052 116.177C170.933 116.113 170.8 116.08 170.665 116.08C170.53 116.08 170.397 116.113 170.278 116.177L168.051 117.451C168.006 117.469 167.967 117.5 167.939 117.54C167.911 117.58 167.896 117.628 167.896 117.677C167.896 117.726 167.911 117.774 167.939 117.814C167.967 117.854 168.006 117.885 168.051 117.903L169.923 118.968C170.042 119.031 170.175 119.065 170.31 119.065C170.445 119.065 170.578 119.031 170.697 118.968L172.908 117.693C173.117 117.58 173.117 117.371 172.891 117.242H172.908ZM176.538 115.176L174.666 114.112C174.547 114.048 174.414 114.015 174.279 114.015C174.144 114.015 174.011 114.048 173.892 114.112L171.698 115.386C171.652 115.404 171.613 115.435 171.585 115.475C171.557 115.515 171.542 115.563 171.542 115.612C171.542 115.661 171.557 115.709 171.585 115.749C171.613 115.789 171.652 115.82 171.698 115.838L173.553 116.919C173.677 116.974 173.812 117.003 173.948 117.003C174.084 117.003 174.219 116.974 174.343 116.919L176.554 115.628C176.683 115.515 176.683 115.306 176.538 115.176ZM121.878 135.408L120.071 134.327C119.949 134.263 119.813 134.23 119.675 134.23C119.538 134.23 119.402 134.263 119.28 134.327L115.924 136.263C115.699 136.392 115.699 136.602 115.924 136.715L117.78 137.795C117.899 137.859 118.032 137.892 118.167 137.892C118.302 137.892 118.435 137.859 118.554 137.795L121.926 135.843C121.973 135.826 122.013 135.793 122.04 135.75C122.066 135.707 122.078 135.657 122.072 135.607C122.066 135.557 122.044 135.51 122.009 135.474C121.974 135.438 121.928 135.414 121.878 135.408V135.408ZM125.459 133.343L123.588 132.262C123.469 132.198 123.336 132.165 123.201 132.165C123.066 132.165 122.933 132.198 122.813 132.262L120.603 133.536C120.377 133.665 120.377 133.859 120.603 133.988L122.458 135.069C122.58 135.125 122.712 135.154 122.846 135.154C122.979 135.154 123.112 135.125 123.233 135.069L125.459 133.794C125.669 133.665 125.669 133.456 125.459 133.343V133.343ZM129.025 131.278L127.169 130.197C127.047 130.133 126.912 130.1 126.774 130.1C126.636 130.1 126.501 130.133 126.379 130.197L124.169 131.471C123.959 131.6 123.959 131.81 124.169 131.923L126.04 133.004C126.159 133.067 126.292 133.101 126.427 133.101C126.562 133.101 126.695 133.067 126.814 133.004L129.025 131.729C129.07 131.712 129.11 131.681 129.137 131.64C129.165 131.6 129.18 131.552 129.18 131.503C129.18 131.455 129.165 131.407 129.137 131.366C129.11 131.326 129.07 131.295 129.025 131.278V131.278ZM132.606 129.213L130.735 128.132C130.614 128.075 130.481 128.046 130.348 128.046C130.214 128.046 130.082 128.075 129.96 128.132L127.75 129.422C127.524 129.535 127.524 129.745 127.75 129.858L129.606 130.939C129.725 131.002 129.858 131.036 129.993 131.036C130.128 131.036 130.261 131.002 130.38 130.939L132.606 129.664C132.652 129.647 132.691 129.616 132.719 129.575C132.747 129.535 132.761 129.487 132.761 129.438C132.761 129.389 132.747 129.342 132.719 129.301C132.691 129.261 132.652 129.23 132.606 129.213V129.213ZM136.204 127.147L134.349 126.067C134.224 126.011 134.09 125.982 133.953 125.982C133.817 125.982 133.683 126.011 133.558 126.067L131.348 127.357C131.3 127.37 131.258 127.399 131.228 127.438C131.198 127.477 131.182 127.526 131.182 127.575C131.182 127.624 131.198 127.673 131.228 127.712C131.258 127.751 131.3 127.78 131.348 127.793L133.219 128.874C133.339 128.937 133.472 128.971 133.607 128.971C133.742 128.971 133.875 128.937 133.994 128.874L136.204 127.599C136.25 127.582 136.289 127.551 136.317 127.51C136.344 127.47 136.359 127.422 136.359 127.373C136.359 127.324 136.344 127.277 136.317 127.236C136.289 127.196 136.25 127.165 136.204 127.147V127.147ZM139.786 125.082L137.817 124.018C137.698 123.954 137.565 123.921 137.43 123.921C137.295 123.921 137.162 123.954 137.043 124.018L134.833 125.292C134.607 125.405 134.607 125.615 134.833 125.744L136.688 126.809C136.807 126.872 136.94 126.905 137.075 126.905C137.21 126.905 137.343 126.872 137.462 126.809L139.689 125.534C139.738 125.524 139.783 125.499 139.817 125.463C139.852 125.427 139.874 125.381 139.881 125.331C139.888 125.282 139.88 125.231 139.857 125.186C139.834 125.142 139.798 125.106 139.753 125.082H139.786ZM143.351 123.017L141.496 121.952C141.374 121.889 141.238 121.856 141.101 121.856C140.963 121.856 140.827 121.889 140.705 121.952L138.495 123.227C138.449 123.245 138.41 123.276 138.382 123.316C138.355 123.356 138.34 123.404 138.34 123.453C138.34 123.502 138.355 123.55 138.382 123.59C138.41 123.63 138.449 123.661 138.495 123.679L140.367 124.744C140.486 124.807 140.619 124.84 140.754 124.84C140.889 124.84 141.022 124.807 141.141 124.744L143.351 123.469C143.396 123.448 143.433 123.415 143.458 123.372C143.483 123.33 143.495 123.281 143.491 123.232C143.488 123.183 143.469 123.136 143.439 123.098C143.408 123.059 143.366 123.031 143.319 123.017H143.351ZM146.933 120.952L145.029 119.904C144.91 119.84 144.777 119.807 144.642 119.807C144.507 119.807 144.374 119.84 144.255 119.904L142.044 121.178C141.819 121.307 141.819 121.501 142.044 121.63L143.9 122.695C144.019 122.758 144.152 122.791 144.287 122.791C144.422 122.791 144.555 122.758 144.674 122.695L146.901 121.42C147.11 121.291 147.11 121.081 146.901 120.952H146.933ZM150.498 118.887L148.643 117.822C148.521 117.759 148.385 117.725 148.248 117.725C148.11 117.725 147.974 117.759 147.852 117.822L145.642 119.097C145.596 119.114 145.557 119.145 145.53 119.186C145.502 119.226 145.487 119.274 145.487 119.323C145.487 119.372 145.502 119.419 145.53 119.46C145.557 119.5 145.596 119.531 145.642 119.549L147.514 120.63C147.635 120.686 147.767 120.715 147.901 120.715C148.035 120.715 148.167 120.686 148.288 120.63L150.498 119.339C150.724 119.226 150.724 119.016 150.466 118.887H150.498ZM154.08 116.838L152.208 115.757C152.089 115.694 151.956 115.66 151.821 115.66C151.686 115.66 151.553 115.694 151.434 115.757L149.224 117.032C148.998 117.161 148.998 117.354 149.224 117.484L151.079 118.564C151.2 118.621 151.333 118.65 151.466 118.65C151.6 118.65 151.732 118.621 151.853 118.564L154.08 117.274C154.127 117.258 154.167 117.226 154.195 117.185C154.222 117.143 154.235 117.093 154.232 117.044C154.228 116.994 154.208 116.947 154.175 116.91C154.141 116.872 154.097 116.847 154.048 116.838H154.08ZM123.894 137.957L122.023 136.876C121.904 136.812 121.771 136.779 121.636 136.779C121.501 136.779 121.368 136.812 121.248 136.876L119.038 138.15C118.992 138.168 118.953 138.199 118.926 138.239C118.898 138.28 118.883 138.327 118.883 138.376C118.883 138.425 118.898 138.473 118.926 138.513C118.953 138.554 118.992 138.585 119.038 138.602L120.893 139.683C121.018 139.739 121.153 139.767 121.289 139.767C121.425 139.767 121.56 139.739 121.684 139.683L123.894 138.392C123.942 138.379 123.984 138.351 124.014 138.312C124.044 138.272 124.06 138.224 124.06 138.175C124.06 138.125 124.044 138.077 124.014 138.038C123.984 137.998 123.942 137.97 123.894 137.957ZM127.46 135.892L125.604 134.811C125.485 134.747 125.352 134.714 125.217 134.714C125.082 134.714 124.949 134.747 124.83 134.811L122.604 136.085C122.558 136.103 122.519 136.134 122.491 136.174C122.463 136.215 122.449 136.262 122.449 136.311C122.449 136.36 122.463 136.408 122.491 136.448C122.519 136.489 122.558 136.52 122.604 136.537L124.475 137.618C124.596 137.674 124.729 137.704 124.862 137.704C124.996 137.704 125.128 137.674 125.25 137.618L127.46 136.343C127.686 136.214 127.686 136.037 127.46 135.892ZM131.041 133.827L129.17 132.81C129.051 132.747 128.918 132.713 128.783 132.713C128.648 132.713 128.515 132.747 128.396 132.81L126.185 134.085C125.976 134.214 125.976 134.424 126.185 134.537L128.041 135.617C128.163 135.681 128.298 135.714 128.436 135.714C128.573 135.714 128.709 135.681 128.831 135.617L131.041 134.343C131.251 134.149 131.251 133.94 131.041 133.827V133.827ZM134.591 131.762L132.735 130.681C132.614 130.624 132.482 130.595 132.348 130.595C132.214 130.595 132.082 130.624 131.961 130.681L129.735 131.955C129.525 132.084 129.525 132.294 129.735 132.407L131.606 133.488C131.725 133.551 131.858 133.585 131.993 133.585C132.128 133.585 132.261 133.551 132.38 133.488L134.591 132.213C134.833 132.084 134.833 131.891 134.591 131.762ZM130.364 141.684L128.492 140.619C128.373 140.555 128.24 140.522 128.105 140.522C127.97 140.522 127.837 140.555 127.718 140.619L125.508 141.893C125.282 142.022 125.282 142.216 125.508 142.345L127.363 143.426C127.484 143.482 127.616 143.512 127.75 143.512C127.884 143.512 128.016 143.482 128.137 143.426L130.364 142.135C130.59 142.022 130.59 141.813 130.38 141.684H130.364ZM133.929 139.635L132.074 138.554C131.952 138.49 131.816 138.457 131.679 138.457C131.541 138.457 131.405 138.49 131.283 138.554L129.073 139.828C129.027 139.846 128.988 139.877 128.961 139.917C128.933 139.958 128.918 140.005 128.918 140.054C128.918 140.103 128.933 140.151 128.961 140.191C128.988 140.232 129.027 140.262 129.073 140.28L130.945 141.361C131.066 141.417 131.198 141.446 131.332 141.446C131.466 141.446 131.598 141.417 131.719 141.361L133.929 140.07C133.978 140.059 134.021 140.032 134.052 139.994C134.084 139.956 134.102 139.908 134.104 139.859C134.106 139.809 134.091 139.76 134.063 139.72C134.034 139.679 133.993 139.649 133.945 139.635H133.929ZM137.527 137.65L135.656 136.569C135.536 136.506 135.403 136.473 135.268 136.473C135.133 136.473 135 136.506 134.881 136.569L132.671 137.844C132.445 137.973 132.445 138.167 132.671 138.296L134.591 139.264C134.712 139.32 134.844 139.349 134.978 139.349C135.112 139.349 135.244 139.32 135.365 139.264L137.592 137.989C137.817 137.892 137.817 137.65 137.527 137.65ZM141.044 135.505L139.237 134.424C139.115 134.36 138.98 134.327 138.842 134.327C138.704 134.327 138.569 134.36 138.447 134.424L136.236 135.698C136.027 135.827 136.027 136.037 136.236 136.15L138.108 137.231C138.227 137.294 138.36 137.328 138.495 137.328C138.63 137.328 138.763 137.294 138.882 137.231L141.044 136.037C141.302 135.827 141.302 135.618 141.044 135.505ZM163.631 122.469L161.776 121.388C161.654 121.332 161.522 121.302 161.388 121.302C161.255 121.302 161.122 121.332 161.001 121.388L157.629 123.34C157.42 123.453 157.42 123.663 157.629 123.792L159.485 124.857C159.607 124.92 159.742 124.953 159.88 124.953C160.017 124.953 160.153 124.92 160.275 124.857L163.631 122.92C163.677 122.903 163.716 122.872 163.743 122.832C163.771 122.791 163.786 122.744 163.786 122.695C163.786 122.646 163.771 122.598 163.743 122.558C163.716 122.517 163.677 122.486 163.631 122.469V122.469ZM138.156 129.697L136.285 128.616C136.163 128.559 136.031 128.53 135.898 128.53C135.764 128.53 135.632 128.559 135.51 128.616L133.3 129.906C133.252 129.919 133.21 129.948 133.18 129.987C133.15 130.026 133.134 130.075 133.134 130.124C133.134 130.174 133.15 130.222 133.18 130.261C133.21 130.3 133.252 130.329 133.3 130.342L135.155 131.423C135.277 131.486 135.413 131.52 135.551 131.52C135.688 131.52 135.824 131.486 135.946 131.423L138.156 130.148C138.203 130.134 138.245 130.106 138.276 130.068C138.307 130.029 138.325 129.983 138.329 129.934C138.332 129.884 138.321 129.836 138.296 129.793C138.271 129.751 138.233 129.717 138.189 129.697H138.156ZM141.722 127.631L139.866 126.551C139.745 126.494 139.613 126.465 139.479 126.465C139.345 126.465 139.213 126.494 139.092 126.551L136.882 127.841C136.656 127.954 136.656 128.164 136.882 128.293L138.737 129.358C138.856 129.421 138.989 129.455 139.124 129.455C139.259 129.455 139.392 129.421 139.511 129.358L141.722 128.083C141.98 127.97 141.98 127.761 141.754 127.631H141.722ZM145.303 125.566L143.432 124.502C143.313 124.438 143.18 124.405 143.045 124.405C142.91 124.405 142.777 124.438 142.657 124.502L140.447 125.776C140.237 125.889 140.237 126.099 140.447 126.228L142.303 127.293C142.425 127.356 142.56 127.389 142.698 127.389C142.835 127.389 142.971 127.356 143.093 127.293L145.303 126.018C145.35 126.004 145.392 125.976 145.423 125.938C145.454 125.899 145.472 125.852 145.476 125.803C145.479 125.754 145.468 125.705 145.443 125.663C145.418 125.621 145.38 125.587 145.336 125.566H145.303ZM148.869 123.501L147.013 122.437C146.894 122.373 146.761 122.34 146.626 122.34C146.491 122.34 146.358 122.373 146.239 122.437L144.029 123.711C143.803 123.84 143.803 124.034 144.029 124.163L145.884 125.228C146.003 125.291 146.136 125.324 146.271 125.324C146.406 125.324 146.539 125.291 146.659 125.228L148.869 123.953C149.111 123.824 149.111 123.63 148.901 123.501H148.869ZM152.483 121.517L150.627 120.452C150.505 120.388 150.37 120.355 150.232 120.355C150.094 120.355 149.959 120.388 149.837 120.452L147.627 121.727C147.581 121.744 147.542 121.775 147.514 121.816C147.486 121.856 147.471 121.904 147.471 121.952C147.471 122.001 147.486 122.049 147.514 122.089C147.542 122.13 147.581 122.161 147.627 122.178L149.482 123.243C149.604 123.307 149.74 123.34 149.877 123.34C150.015 123.34 150.15 123.307 150.272 123.243L152.483 121.969C152.692 121.775 152.692 121.517 152.483 121.517ZM157.178 118.71L155.306 117.645C155.187 117.581 155.054 117.548 154.919 117.548C154.784 117.548 154.651 117.581 154.532 117.645L151.176 119.581C150.95 119.71 150.95 119.904 151.176 120.033L153.031 121.114C153.153 121.17 153.285 121.199 153.418 121.199C153.552 121.199 153.684 121.17 153.806 121.114L157.178 119.161C157.223 119.144 157.262 119.113 157.29 119.073C157.318 119.032 157.333 118.984 157.333 118.936C157.333 118.887 157.318 118.839 157.29 118.799C157.262 118.758 157.223 118.727 157.178 118.71V118.71ZM128.379 139.151L126.524 138.07C126.403 138.013 126.271 137.984 126.137 137.984C126.003 137.984 125.871 138.013 125.75 138.07L122.378 140.022C122.332 140.039 122.293 140.07 122.265 140.111C122.237 140.151 122.223 140.199 122.223 140.248C122.223 140.297 122.237 140.344 122.265 140.385C122.293 140.425 122.332 140.456 122.378 140.474L124.249 141.538C124.368 141.602 124.501 141.635 124.636 141.635C124.771 141.635 124.904 141.602 125.024 141.538L128.396 139.602C128.441 139.583 128.479 139.551 128.505 139.51C128.531 139.468 128.545 139.42 128.543 139.371C128.541 139.322 128.525 139.275 128.495 139.235C128.466 139.196 128.426 139.167 128.379 139.151V139.151ZM131.945 137.086L130.09 136.037C129.965 135.981 129.83 135.953 129.694 135.953C129.558 135.953 129.423 135.981 129.299 136.037L127.089 137.328C126.879 137.441 126.879 137.65 127.089 137.779L128.96 138.844C129.079 138.908 129.212 138.941 129.347 138.941C129.482 138.941 129.615 138.908 129.735 138.844L131.945 137.57C132.009 137.57 132.071 137.544 132.116 137.499C132.161 137.453 132.187 137.392 132.187 137.328C132.187 137.263 132.161 137.202 132.116 137.157C132.071 137.111 132.009 137.086 131.945 137.086V137.086ZM135.526 135.021L133.655 133.956C133.536 133.892 133.403 133.859 133.268 133.859C133.133 133.859 133 133.892 132.881 133.956L130.67 135.23C130.444 135.343 130.444 135.553 130.67 135.682L132.526 136.747C132.645 136.81 132.778 136.844 132.913 136.844C133.048 136.844 133.181 136.81 133.3 136.747L135.526 135.472C135.572 135.455 135.611 135.424 135.639 135.383C135.667 135.343 135.682 135.295 135.682 135.246C135.682 135.198 135.667 135.15 135.639 135.109C135.611 135.069 135.572 135.038 135.526 135.021V135.021ZM139.092 132.955L137.237 131.891C137.115 131.827 136.979 131.794 136.841 131.794C136.704 131.794 136.568 131.827 136.446 131.891L134.236 133.165C134.19 133.183 134.151 133.214 134.123 133.254C134.096 133.294 134.081 133.342 134.081 133.391C134.081 133.44 134.096 133.488 134.123 133.528C134.151 133.568 134.19 133.599 134.236 133.617L136.107 134.682C136.226 134.745 136.359 134.779 136.494 134.779C136.63 134.779 136.763 134.745 136.882 134.682L139.092 133.407C139.138 133.39 139.177 133.359 139.205 133.318C139.232 133.278 139.247 133.23 139.247 133.181C139.247 133.132 139.232 133.085 139.205 133.044C139.177 133.004 139.138 132.973 139.092 132.955V132.955ZM142.657 130.89L140.786 129.826C140.667 129.762 140.534 129.729 140.399 129.729C140.264 129.729 140.131 129.762 140.012 129.826L137.801 131.1C137.575 131.229 137.575 131.423 137.801 131.552L139.657 132.633C139.778 132.689 139.91 132.718 140.044 132.718C140.178 132.718 140.31 132.689 140.431 132.633L142.657 131.342C142.883 131.197 142.883 131.019 142.657 130.89ZM159.001 125.195L157.178 124.114C157.058 124.051 156.925 124.018 156.79 124.018C156.655 124.018 156.522 124.051 156.403 124.114L139.85 133.665C139.624 133.794 139.624 133.988 139.85 134.117L141.706 135.198C141.827 135.254 141.959 135.284 142.093 135.284C142.227 135.284 142.359 135.254 142.48 135.198L159.033 125.631C159.243 125.518 159.243 125.308 159.017 125.195H159.001ZM146.223 128.841L144.368 127.761C144.246 127.697 144.11 127.664 143.972 127.664C143.835 127.664 143.699 127.697 143.577 127.761L141.367 129.035C141.321 129.053 141.282 129.084 141.254 129.124C141.226 129.164 141.212 129.212 141.212 129.261C141.212 129.31 141.226 129.358 141.254 129.398C141.282 129.438 141.321 129.469 141.367 129.487L143.238 130.568C143.36 130.624 143.492 130.653 143.625 130.653C143.759 130.653 143.891 130.624 144.013 130.568L146.223 129.277C146.271 129.266 146.314 129.239 146.346 129.201C146.378 129.163 146.396 129.115 146.397 129.065C146.399 129.016 146.385 128.967 146.356 128.927C146.328 128.886 146.286 128.856 146.239 128.841H146.223ZM149.805 126.776L147.933 125.695C147.814 125.632 147.681 125.599 147.546 125.599C147.411 125.599 147.278 125.632 147.159 125.695L144.948 126.97C144.723 127.099 144.723 127.293 144.948 127.422L146.804 128.503C146.925 128.559 147.057 128.588 147.191 128.588C147.325 128.588 147.457 128.559 147.578 128.503L149.805 127.228C150.03 127.099 150.03 126.889 149.821 126.776H149.805ZM153.386 124.744L151.531 123.663C151.409 123.599 151.273 123.566 151.136 123.566C150.998 123.566 150.862 123.599 150.74 123.663L148.53 124.937C148.32 125.066 148.32 125.276 148.53 125.389L150.401 126.47C150.521 126.533 150.654 126.567 150.789 126.567C150.924 126.567 151.057 126.533 151.176 126.47L153.386 125.195C153.596 125.034 153.596 124.824 153.386 124.744ZM156.968 122.678L155.096 121.517C154.975 121.461 154.843 121.431 154.709 121.431C154.575 121.431 154.443 121.461 154.322 121.517L152.112 122.791C151.886 122.921 151.886 123.13 152.112 123.243L153.967 124.324C154.086 124.388 154.219 124.421 154.354 124.421C154.489 124.421 154.622 124.388 154.741 124.324L156.968 123.05C157.001 123.028 157.028 122.998 157.047 122.962C157.066 122.927 157.076 122.888 157.076 122.848C157.076 122.808 157.066 122.769 157.047 122.733C157.028 122.698 157.001 122.668 156.968 122.646V122.678ZM160.533 120.613L158.678 119.532C158.554 119.477 158.419 119.448 158.283 119.448C158.146 119.448 158.012 119.477 157.887 119.532L155.677 120.823C155.629 120.836 155.587 120.865 155.557 120.904C155.527 120.943 155.511 120.991 155.511 121.041C155.511 121.09 155.527 121.139 155.557 121.178C155.587 121.217 155.629 121.246 155.677 121.259L157.549 122.34C157.668 122.403 157.801 122.437 157.936 122.437C158.071 122.437 158.204 122.403 158.323 122.34L160.533 121.065C160.597 121.065 160.659 121.04 160.704 120.994C160.75 120.949 160.775 120.887 160.775 120.823C160.775 120.759 160.75 120.697 160.704 120.652C160.659 120.607 160.597 120.581 160.533 120.581V120.613ZM156.274 111.837L154.419 110.772C154.297 110.708 154.161 110.675 154.023 110.675C153.886 110.675 153.75 110.708 153.628 110.772L151.418 112.047C151.372 112.064 151.333 112.095 151.305 112.135C151.278 112.176 151.263 112.224 151.263 112.272C151.263 112.321 151.278 112.369 151.305 112.409C151.333 112.45 151.372 112.481 151.418 112.498L153.273 113.563C153.395 113.627 153.531 113.66 153.668 113.66C153.806 113.66 153.942 113.627 154.064 113.563L156.274 112.289C156.32 112.271 156.359 112.24 156.387 112.2C156.414 112.159 156.429 112.112 156.429 112.063C156.429 112.014 156.414 111.966 156.387 111.926C156.359 111.885 156.32 111.854 156.274 111.837V111.837ZM159.84 109.772L157.984 108.61C157.865 108.547 157.732 108.513 157.597 108.513C157.462 108.513 157.329 108.547 157.21 108.61L155 109.885C154.774 110.014 154.774 110.207 155 110.336L156.855 111.401C156.974 111.465 157.107 111.498 157.242 111.498C157.377 111.498 157.51 111.465 157.629 111.401L159.84 110.127C160.065 110.046 160.065 109.836 159.84 109.707V109.772ZM163.421 107.707L161.566 106.642C161.444 106.578 161.308 106.545 161.171 106.545C161.033 106.545 160.897 106.578 160.775 106.642L158.565 107.916C158.519 107.934 158.48 107.965 158.452 108.005C158.425 108.046 158.41 108.093 158.41 108.142C158.41 108.191 158.425 108.239 158.452 108.279C158.48 108.32 158.519 108.351 158.565 108.368L160.42 109.449C160.545 109.505 160.679 109.533 160.816 109.533C160.952 109.533 161.087 109.505 161.211 109.449L163.421 108.158C163.631 107.981 163.631 107.771 163.421 107.642V107.707ZM166.648 109.594L164.792 108.513C164.668 108.458 164.533 108.429 164.397 108.429C164.261 108.429 164.126 108.458 164.002 108.513L161.792 109.804C161.582 109.917 161.582 110.127 161.792 110.256L163.647 111.321C163.769 111.384 163.905 111.417 164.042 111.417C164.18 111.417 164.316 111.384 164.438 111.321L166.648 110.046C166.716 110.05 166.784 110.027 166.835 109.982C166.887 109.936 166.918 109.872 166.922 109.804C166.926 109.736 166.903 109.668 166.858 109.617C166.813 109.565 166.749 109.534 166.68 109.53L166.648 109.594ZM169.875 111.337L168.019 110.224C167.924 110.168 167.815 110.139 167.705 110.139C167.594 110.139 167.486 110.168 167.39 110.224L164.26 111.998C164.174 112.038 164.081 112.059 163.986 112.059C163.891 112.059 163.797 112.038 163.712 111.998L161.259 110.578C161.11 110.499 160.944 110.458 160.775 110.458C160.607 110.458 160.44 110.499 160.291 110.578L154.693 113.805C154.636 113.825 154.587 113.862 154.552 113.911C154.517 113.96 154.498 114.019 154.498 114.079C154.498 114.14 154.517 114.199 154.552 114.248C154.587 114.297 154.636 114.334 154.693 114.354L159.533 117.177C159.682 117.256 159.848 117.297 160.017 117.297C160.186 117.297 160.352 117.256 160.501 117.177L169.842 111.837C169.906 111.822 169.962 111.785 170.002 111.734C170.043 111.683 170.065 111.62 170.065 111.555C170.065 111.489 170.043 111.426 170.002 111.375C169.962 111.324 169.906 111.287 169.842 111.272L169.875 111.337Z" fill="white"/>
<path d="M203.964 103.335C202.301 99.9441 199.421 97.3055 195.898 95.9454C192.397 94.6224 187.992 93.2672 182.765 96.2842L182.201 96.6553C181.762 96.9352 181.403 97.3251 181.162 97.7862C180.92 98.2474 180.803 98.7638 180.823 99.284C180.842 99.8043 180.998 100.31 181.273 100.752C181.549 101.194 181.935 101.556 182.394 101.802C186.105 104.399 190.606 106.852 190.606 106.852C191.724 107.458 192.91 107.93 194.139 108.255C195.448 108.651 196.823 108.782 198.183 108.641C199.543 108.5 200.861 108.089 202.061 107.432C202.648 107.163 203.154 106.744 203.528 106.217C203.902 105.691 204.13 105.075 204.19 104.432C204.176 104.056 204.099 103.685 203.964 103.335V103.335Z" fill="url(#paint8_linear_2_2582)"/>
<g style="mix-blend-mode:multiply" opacity="0.6">
<path d="M189.315 96.8166L187.847 96.0099C187.582 95.8925 187.289 95.8543 187.002 95.9001C186.716 95.9459 186.449 96.0737 186.234 96.2681C185.863 96.5907 186.024 96.7198 186.46 96.9295L187.944 97.6233C188.183 97.7389 188.445 97.799 188.71 97.799C188.976 97.799 189.238 97.7389 189.477 97.6233C189.832 97.3167 189.751 97.0263 189.315 96.8166Z" fill="#B879D9"/>
</g>
<path d="M188.364 95.7033C188.142 95.5774 187.892 95.5112 187.637 95.5112C187.383 95.5112 187.133 95.5774 186.911 95.7033L189.041 99.0913C190.074 98.1717 189.557 96.3486 188.364 95.7033Z" fill="#FFD0FF"/>
<path d="M189.009 97.3158C188.805 96.6627 188.391 96.0955 187.831 95.7025C187.614 95.5655 187.361 95.498 187.105 95.5089C187 95.5064 186.897 95.5406 186.815 95.6057C186.661 95.6929 186.527 95.811 186.422 95.9526C186.316 96.0943 186.241 96.2564 186.202 96.4285C185.83 97.703 187.315 99.8649 188.831 99.0744C189.219 98.9292 189.331 98.1386 189.009 97.3158Z" fill="#8B3DCE"/>
<g style="mix-blend-mode:multiply" opacity="0.5">
<path d="M187.96 97.6716C187.807 97.2816 187.537 96.9489 187.186 96.7197C187.05 96.6376 186.893 96.5982 186.734 96.6068C186.315 96.6068 186.169 97.1715 186.411 97.8007C186.554 98.2007 186.827 98.5414 187.186 98.7687C187.316 98.8505 187.468 98.89 187.621 98.8816C188.057 98.93 188.202 98.3008 187.96 97.6716Z" fill="#CCCECE"/>
</g>
<path d="M189.154 97.2037C189.16 97.1555 189.16 97.1068 189.154 97.0585C189.019 96.7454 188.834 96.4566 188.605 96.2035C188.43 95.9953 188.223 95.8158 187.992 95.6711C187.78 95.5391 187.532 95.477 187.282 95.4936C187.175 95.4932 187.069 95.521 186.976 95.5743L186.831 95.6711C186.913 95.606 187.016 95.5718 187.121 95.5743C187.377 95.5634 187.631 95.6309 187.847 95.7679C188.077 95.9066 188.284 96.0808 188.46 96.2841C188.689 96.5433 188.874 96.8375 189.009 97.1553V97.2844C189.331 98.1395 189.218 98.8978 188.783 99.1398L188.928 99.043C189.444 98.7848 189.444 98.0427 189.154 97.2037Z" fill="url(#paint9_linear_2_2582)"/>
<g style="mix-blend-mode:multiply" opacity="0.6">
<path d="M202.351 106.464C201.152 107.121 199.833 107.532 198.473 107.673C197.113 107.814 195.739 107.683 194.43 107.287C193.206 106.959 192.026 106.488 190.913 105.884C190.913 105.884 186.395 103.431 182.685 100.834C182.18 100.543 181.764 100.121 181.48 99.6123C181.196 99.1039 181.055 98.5281 181.071 97.9459C180.771 98.6344 180.736 99.4098 180.975 100.122C181.213 100.835 181.708 101.433 182.362 101.802C186.073 104.399 190.574 106.852 190.574 106.852C191.692 107.458 192.878 107.929 194.107 108.255C195.416 108.651 196.791 108.782 198.151 108.641C199.511 108.5 200.829 108.089 202.029 107.432C202.578 107.17 203.057 106.78 203.425 106.294C203.793 105.808 204.039 105.242 204.142 104.641C203.726 105.403 203.106 106.035 202.351 106.464V106.464Z" fill="#B879D9"/>
</g>
<g style="mix-blend-mode:multiply" opacity="0.6">
<path d="M202.351 106.997C201.154 107.66 199.836 108.075 198.474 108.216C197.113 108.358 195.737 108.223 194.43 107.82C193.2 107.495 192.014 107.024 190.896 106.416C190.896 106.416 186.395 103.98 182.685 101.382C182.162 101.061 181.742 100.598 181.473 100.046C181.204 99.4947 181.099 98.8781 181.168 98.2686C180.948 98.9387 180.966 99.664 181.219 100.322C181.472 100.981 181.944 101.532 182.555 101.882C186.266 104.48 190.767 106.932 190.767 106.932C191.885 107.539 193.071 108.01 194.301 108.336C195.609 108.732 196.984 108.863 198.344 108.722C199.704 108.58 201.023 108.17 202.222 107.513C202.735 107.263 203.187 106.903 203.546 106.46C203.906 106.017 204.164 105.501 204.303 104.948C203.908 105.836 203.219 106.559 202.351 106.997V106.997Z" fill="#B879D9"/>
</g>
<g opacity="0.3">
<g opacity="0.3">
<g opacity="0.3">
<path opacity="0.2" d="M178.216 59.9357L92.2731 109.562V56.8058L178.216 7.19562V59.9357Z" fill="#DE78FF"/>
<g style="mix-blend-mode:screen" opacity="0.3">
<path d="M178.216 59.9357L92.2731 109.562V56.8058L178.216 7.19562V59.9357Z" fill="#7B38D4"/>
</g>
<path opacity="0.8" d="M93.4346 57.4834V107.723L177.054 59.4033V9.19617L93.4346 57.4834Z" fill="#8821D8"/>
<path opacity="0.3" d="M178.216 7.35686L92.2731 56.9671V53.7243L178.216 4.11407V7.35686Z" fill="#8821D8"/>
</g>
<g opacity="0.3">
<path opacity="0.3" d="M173.053 9.59948L171.23 10.6481V8.8412L173.053 7.79254V9.59948Z" fill="#6811BC"/>
<path opacity="0.3" d="M175.295 8.30869L173.489 9.3574V7.53432L175.295 6.48566V8.30869Z" fill="#6811BC"/>
<path opacity="0.3" d="M173.779 7.66345V8.90575L175.021 8.17973V6.96973L173.779 7.66345ZM174.795 8.09908L173.989 8.56692V7.74415L174.795 7.27627V8.09908Z" fill="#FFFFF7"/>
<path opacity="0.3" d="M177.554 7.00194L175.731 8.05065V6.24367L177.554 5.19501V7.00194Z" fill="#6811BC"/>
<path opacity="0.3" d="M176.038 6.51797L176.522 6.72772L176.038 7.48599L176.183 7.55049L176.667 6.79226L177.151 6.98586L177.312 6.74382L176.828 6.55022L177.312 5.77585L177.151 5.7113L176.667 6.46958L176.183 6.27598L176.038 6.51797Z" fill="#FFFFF7"/>
<path opacity="0.3" d="M172.73 9.50262L171.569 10.1802V9.95436L172.73 9.27673V9.50262Z" fill="#FFFFF7"/>
</g>
</g>
</g>
<g opacity="0.6">
<g opacity="0.6">
<g opacity="0.6">
<path opacity="0.2" d="M182.685 62.5332L96.7582 112.143V59.4033L182.685 9.77692V62.5332Z" fill="#DE78FF"/>
<g style="mix-blend-mode:screen" opacity="0.6">
<path d="M182.685 62.5332L96.7582 112.143V59.4033L182.685 9.77692V62.5332Z" fill="#7B38D4"/>
</g>
<path opacity="0.8" d="M97.9197 60.0648V110.304L181.539 61.9847V11.7936L97.9197 60.0648Z" fill="#8821D8"/>
<path opacity="0.6" d="M182.685 9.95435L96.7582 59.5646V56.3217L182.685 6.69537V9.95435Z" fill="#8821D8"/>
</g>
<g opacity="0.6">
<path opacity="0.6" d="M177.538 12.1969L175.715 13.2456V11.4226L177.538 10.3738V12.1969Z" fill="#6811BC"/>
<path opacity="0.6" d="M179.781 10.8901L177.974 11.9388V10.1319L179.781 9.08319V10.8901Z" fill="#6811BC"/>
<path opacity="0.6" d="M178.264 10.1964V11.4387L179.49 10.7288V9.48657L178.264 10.1964ZM179.28 10.632L178.474 11.0999V10.2932L179.28 9.82536V10.632Z" fill="#FFFFF7"/>
<path opacity="0.6" d="M182.039 9.59951L180.216 10.6482V8.82509L182.039 7.77643V9.59951Z" fill="#6811BC"/>
<path opacity="0.6" d="M180.523 9.09929L181.007 9.30903L180.523 10.0834L180.668 10.1479L181.152 9.37353L181.636 9.58327L181.797 9.34128L181.313 9.13154L181.797 8.37326L181.636 8.30872L181.152 9.06699L180.668 8.85729L180.523 9.09929Z" fill="#FFFFF7"/>
<path opacity="0.6" d="M177.215 12.1002L176.054 12.7617V12.5359L177.215 11.8744V12.1002Z" fill="#FFFFF7"/>
</g>
</g>
</g>
<path opacity="0.2" d="M187.718 65.4372L101.776 115.047V62.2913L187.718 12.681V65.4372Z" fill="#DE78FF"/>
<g style="mix-blend-mode:screen">
<path d="M187.718 65.4372L101.776 115.047V62.2913L187.718 12.681V65.4372Z" fill="#7B38D4"/>
</g>
<path opacity="0.8" d="M102.937 62.9688V113.208L186.557 64.8887V14.6977L102.937 62.9688Z" fill="#8821D8"/>
<path d="M187.718 12.8423L101.776 62.4525V59.2097L187.718 9.59949V12.8423Z" fill="#8821D8"/>
<path d="M182.556 15.101L180.749 16.1497V14.3266L182.556 13.278V15.101Z" fill="#6811BC"/>
<path d="M184.814 13.7942L182.991 14.8428V13.0197L184.814 11.9872V13.7942Z" fill="#6811BC"/>
<path d="M183.281 13.1488V14.3911L184.524 13.6812V12.439L183.281 13.1488ZM184.298 13.5844L183.491 14.0523V13.2456L184.298 12.7616V13.5844Z" fill="#FFFFF7"/>
<path d="M187.057 12.5035L185.234 13.5361V11.7291L187.057 10.6804V12.5035Z" fill="#6811BC"/>
<path d="M185.54 12.0033L186.024 12.2131L185.54 12.9713L185.685 13.0359L186.169 12.2776L186.67 12.4874L186.815 12.2292L186.331 12.0356L186.815 11.2612L186.67 11.1967L186.169 11.9711L185.685 11.7613L185.54 12.0033Z" fill="#FFFFF7"/>
<path d="M182.233 14.988L181.071 15.6656V15.4397L182.233 14.7621V14.988Z" fill="#FFFFF7"/>
<path d="M160.262 56.2234C160.365 56.0065 160.696 55.4298 160.034 55.1271C160.012 55.1082 159.99 55.091 159.965 55.0757H159.908C159.549 54.9212 159.15 54.8794 158.766 54.9558C158.23 55.0123 157.69 55.0314 157.15 55.0129C156.694 55.0129 156.499 56.4005 156.876 56.4918C157.596 56.6842 158.329 56.8217 159.069 56.9029C159.307 56.8887 159.538 56.8201 159.745 56.7022C159.952 56.5844 160.129 56.4206 160.262 56.2234V56.2234Z" fill="#F3BC97"/>
<path d="M157.362 54.9158C156.871 54.8073 156.557 56.3205 156.934 56.5318L157.128 56.5774C157.607 56.7202 158.064 54.9729 157.362 54.9158Z" fill="#F2F2F2"/>
<path d="M147.935 49.5485C148.226 50.1195 150.989 56.0236 150.989 56.0236L156.888 56.7202C157.333 56.6574 157.67 54.8359 157.31 54.7845L152.891 53.9109C152.514 52.6547 151.857 49.6855 150.87 48.3094C150.717 48.0915 150.489 47.9378 150.23 47.8777C149.97 47.8176 149.698 47.8555 149.465 47.984C149.465 47.984 147.638 48.9661 147.935 49.5485Z" fill="#342135"/>
<path d="M148.642 79.1032C148.642 79.2917 148.642 79.9826 148.802 80.1139C149.156 80.4336 149.482 80.4165 149.944 80.7249C150.422 81.0754 150.937 81.3722 151.48 81.6099C153.233 82.0153 153.542 81.667 153.587 81.1188C153.616 80.7934 153.119 80.4736 153.091 80.4508C152.828 80.2623 151.789 80.1881 151.252 79.9197C150.715 79.6514 150.11 79.3488 149.539 79.0633C149.246 78.9647 148.926 78.9789 148.642 79.1032Z" fill="#C858F0"/>
<path d="M148.894 79.7484C148.42 79.3258 148.7 78.5664 148.751 77.9383C148.773 77.5909 148.74 77.2421 148.654 76.9048L150.801 76.6365L150.852 77.3102C150.854 77.8681 150.963 78.4205 151.172 78.9376C151.349 79.3087 152.599 79.9083 153.21 80.5192C153.947 81.2501 153.279 81.4842 152.776 81.4442C152.045 81.3951 151.331 81.201 150.675 80.8732C150.296 80.5878 149.901 80.3229 149.493 80.0796C149.277 80.0011 149.075 79.8893 148.894 79.7484V79.7484Z" fill="#121414"/>
<path d="M143.275 82.1579C143.275 82.1579 143.172 82.0323 143.155 82.0951C143.122 82.4496 143.137 82.8069 143.201 83.1572C143.772 84.1336 144.834 85.1899 145.628 85.4411C146.513 85.7266 147.209 85.5725 147.375 85.247C147.43 85.0762 147.43 84.8925 147.375 84.7217C147.209 84.2415 146.877 83.8365 146.438 83.5797C146.165 83.5012 145.916 83.356 145.713 83.1572C145.218 82.7644 144.678 82.4327 144.103 82.1694C143.869 82.0152 143.184 81.644 143.275 82.1579Z" fill="#C858F0"/>
<path d="M143.424 82.9117C142.962 82.4949 143.23 81.7697 143.287 81.1302C143.303 80.8496 143.416 80.5832 143.605 80.3753C143.794 80.1675 144.049 80.0308 144.326 79.9882L145.303 79.8683C145.303 80.091 145.337 80.3137 145.348 80.5306C145.353 81.0784 145.46 81.6205 145.662 82.1294C145.857 82.5405 147.01 83.4655 147.375 84.7503C147.49 85.1443 146.77 85.1557 146.456 85.1329C145.814 85.0275 145.208 84.7646 144.692 84.3677C144.217 83.9305 143.792 83.4422 143.424 82.9117V82.9117Z" fill="#121414"/>
<path d="M151.463 64.046C151.463 64.046 151.286 62.4644 150.892 62.0304C150.207 61.3052 149.025 61.7107 148.072 61.5051C146.804 61.2367 143.504 63.7034 143.395 64.9996C143.287 66.2957 143.452 68.3856 143.492 72.3711C143.067 74.2973 142.891 76.2699 142.967 78.2409C143.007 79.9939 143.052 81.5356 143.052 81.5356C143.052 82.335 145.559 82.2322 145.565 81.5356C145.565 81.5356 147.021 72.5424 147.809 67.7061C147.94 68.2771 148.032 70.3669 148.06 70.7038C147.809 73.4446 148.323 74.5923 148.683 78.869C148.745 79.6285 151.332 79.5656 151.235 78.8234C151.138 78.0811 151.178 70.7438 151.463 64.046Z" fill="#2C1B2D"/>
<path d="M150.784 62.3673C150.904 61.8763 149.453 56.6574 149.573 54.9444C149.573 54.0536 149.573 53.18 149.573 52.4092C149.626 51.5485 149.495 50.6864 149.191 49.8796C148.945 49.1259 148.671 48.4522 147.529 48.7719C147.247 48.8617 146.98 48.9925 146.735 49.1602C146.581 49.2537 146.418 49.3339 146.25 49.4C146.051 49.5202 145.86 49.6537 145.679 49.7997C145.04 50.2337 145.725 51.8781 146.216 53.0144C146.307 53.3799 144.212 63.258 144.337 63.7777C144.663 63.9033 145.85 64.6456 148.654 63.8919C150.401 63.4008 150.79 62.6699 150.784 62.3673Z" fill="#E8ECED"/>
<path d="M147.055 55.1271C146.747 54.2421 146.633 53.2771 146.25 52.4149C145.931 51.8922 145.725 51.3088 145.645 50.7019C145.611 50.2607 145.715 49.82 145.942 49.44C144.897 50.0715 143.896 50.7716 142.944 51.5356C142.624 52.3521 143.738 54.7046 144.006 59.2554C143.606 61.1112 143.065 62.934 142.39 64.7084C143.132 65.4564 143.852 65.9018 146.164 65.8904C146.735 65.8904 147.055 65.3936 147.187 64.8397C147.505 63.1646 147.696 61.4677 147.757 59.7636C147.733 58.1862 147.489 56.62 147.032 55.11L147.055 55.1271Z" fill="#342135"/>
<path d="M151.338 61.7906C151.082 58.6897 151.082 55.5729 151.338 52.472C151.423 51.33 150.967 48.6863 150.133 48.0525C149.836 47.7898 148.728 48.0525 147.455 48.6577C148.231 48.8347 149.019 49.0746 149.322 49.874C149.625 50.6733 149.63 51.0159 149.568 53.2257C149.611 54.3469 149.593 55.4695 149.516 56.5888C149.473 57.0992 149.491 57.6128 149.568 58.1191C149.83 59.8321 150.196 62.9383 150.356 64.2459C150.364 64.3141 150.39 64.3788 150.432 64.433C150.474 64.4873 150.53 64.529 150.594 64.5537C150.658 64.5784 150.728 64.5851 150.796 64.5731C150.863 64.5611 150.926 64.5309 150.978 64.4857C151.155 64.3216 151.322 64.1482 151.48 63.9661C151.48 63.9661 151.418 62.9611 151.338 61.7906Z" fill="#342135"/>
<path d="M148.745 51.6498C148.868 51.3852 148.931 51.0965 148.928 50.8047C148.899 50.5763 148.928 50.3251 148.688 50.4107C148.407 50.5044 148.142 50.6391 147.9 50.8104C147.683 51.0102 147.717 51.1987 147.757 51.4442C147.82 51.8839 148.545 52.1066 148.745 51.6498Z" fill="#C858F0"/>
<path d="M149.585 49.2344C149.231 48.829 148.78 48.5492 148.311 48.8005C148.311 48.8005 149.493 50.228 149.488 50.6162C149.459 53.7967 149.031 54.676 149.676 58.6387C149.876 54.8245 149.962 53.1001 150.059 51.2672C150.176 50.5536 150.006 49.8225 149.585 49.2344V49.2344Z" fill="#462F49"/>
<path d="M145.759 50.976C145.611 50.7857 145.525 50.5551 145.51 50.3146C145.496 50.0741 145.555 49.8348 145.679 49.6284C145.3 49.8117 145.007 50.1348 144.861 50.5298C144.715 50.9249 144.728 51.3611 144.897 51.7468C145.388 52.8488 146.256 54.4362 146.77 55.5211C147.42 56.9203 147.761 58.4433 147.769 59.9863C148.1 58.102 146.89 52.5291 145.759 50.976Z" fill="#462F49"/>
<path d="M148.717 49.5257C148.714 49.501 148.714 49.4761 148.717 49.4514C148.613 49.2697 148.527 49.0785 148.46 48.8804C148.46 48.7777 148.774 48.8348 149.031 49.2059C149.208 49.4514 149.836 50.9988 149.836 50.9988C149.836 50.9988 148.346 50.5135 148.334 50.4735C148.323 50.4335 148.745 50.0053 148.763 49.9025C148.772 49.7751 148.757 49.647 148.717 49.5257V49.5257Z" fill="#F2F2F2"/>
<path d="M145.731 47.8926C145.868 47.6642 146.301 47.7499 146.53 47.7441C146.924 47.7441 147.318 47.7441 147.712 47.7441C147.809 47.7441 148.283 47.7442 148.323 47.8755C148.374 48.121 148.705 48.6463 148.728 48.9033C148.888 49.7312 148.808 50.2622 148.311 50.4735L147.952 50.6962C146.81 51.4899 145.97 50.3079 145.782 50.1766C145.862 49.2516 145.633 48.3437 145.691 47.9954C145.697 47.9589 145.711 47.9241 145.731 47.8926V47.8926Z" fill="#EFB289"/>
<path d="M148.323 50.4849L147.141 52.1522C146.562 51.942 146.05 51.5813 145.656 51.1073C145.501 50.9649 145.385 50.7854 145.318 50.5856C145.251 50.3859 145.236 50.1725 145.274 49.9653C145.405 49.7261 145.577 49.5116 145.782 49.3315C145.782 50.6333 146.53 50.5534 146.924 50.6219C147.395 50.6702 147.87 50.6236 148.323 50.4849V50.4849Z" fill="#F2F2F2"/>
<path d="M149.191 49.006C149.088 49.3772 148.957 49.834 148.62 49.9025C147.952 50.0281 146.41 49.6798 146.244 49.183C145.965 48.3494 144.846 47.4072 145.245 46.3281C145.411 45.9055 146.673 45.5058 147.055 45.1861C147.328 44.9839 147.628 44.8205 147.946 44.7007C148.848 44.3353 149.619 44.3981 149.659 45.3174C149.685 45.7719 149.685 46.2276 149.659 46.6821C149.606 47.474 149.448 48.2553 149.191 49.006V49.006Z" fill="#F3BC97"/>
<path d="M148.323 43.1191C147.718 42.9306 145.674 42.765 145.125 44.2953C144.269 44.952 144.84 47.6756 145.651 48.1724C145.399 47.7042 145.28 47.47 145.308 47.2017C145.308 47.0361 145.417 46.8534 145.582 46.8305C146.153 46.7563 146.284 47.4986 146.547 47.4015C146.975 47.2588 146.416 46.1054 146.873 45.6371C147.625 45.0658 148.565 44.7987 149.505 44.8891C149.967 44.2211 149.396 43.4445 148.323 43.1191Z" fill="#121414"/>
<path d="M148.637 51.4042L148.237 51.7296C148.123 51.821 148.089 60.4316 148.134 60.6429L148.962 61.4879L149.356 60.2717C148.894 56.6002 148.734 52.1522 148.637 51.4042Z" fill="#C858F0"/>
<path d="M145.228 53.3399C145.08 55.6924 144.754 58.7472 144.754 58.7472L147.461 63.6292C147.826 64.2459 145.948 65.0852 145.514 64.4743C144.216 62.7895 143.042 61.0129 142.002 59.1583C142.002 59.1583 141.933 54.6532 142.607 52.215C143.058 50.3136 145.268 51.3642 145.228 53.3399Z" fill="#342135"/>
<path d="M147.329 63.6007C147.084 63.1667 145.388 64.2402 145.685 64.5771L145.845 64.8055C146.222 65.1424 147.701 64.3887 147.512 63.9147L147.329 63.6007Z" fill="#F2F2F2"/>
<path d="M147.329 63.8976L147.375 63.9832C147.461 64.1431 147.878 64.3372 148.043 64.44C148.237 64.5431 148.419 64.6676 148.586 64.8112C148.721 64.9305 148.819 65.0875 148.865 65.2622C148.888 65.3734 148.888 65.488 148.865 65.5991C148.84 65.7775 148.763 65.9444 148.643 66.0788C148.524 66.1873 148.381 66.2657 148.226 66.3072C148.042 66.3733 147.85 66.4156 147.655 66.4328C147.491 66.4068 147.329 66.3724 147.17 66.33C147.001 66.3072 146.841 66.2388 146.709 66.1322C146.576 66.0255 146.475 65.8846 146.416 65.7248C146.21 65.2794 146.056 64.9882 145.942 64.7027C145.805 64.3258 147.135 63.5379 147.329 63.8976Z" fill="#F3BC97"/>
<path d="M160.034 55.0072C160.12 55.0985 160.097 55.2927 159.863 55.3041C159.126 55.344 158.458 55.5496 158.093 55.1899C158.03 55.1271 157.704 55.1042 157.807 55.07C158.226 54.9179 158.653 54.7902 159.086 54.6874C159.431 54.6713 159.769 54.7854 160.034 55.0072V55.0072Z" fill="#F3BC97"/>
<defs>
<filter id="filter0_bd_2_2582" x="10.9989" y="30.933" width="266.69" height="195.572" filterUnits="userSpaceOnUse" color-interpolation-filters="sRGB">
<feFlood flood-opacity="0" result="BackgroundImageFix"/>
<feGaussianBlur in="BackgroundImage" stdDeviation="6"/>
<feComposite in2="SourceAlpha" operator="in" result="effect1_backgroundBlur_2_2582"/>
<feColorMatrix in="SourceAlpha" type="matrix" values="0 0 0 0 0 0 0 0 0 0 0 0 0 0 0 0 0 0 127 0" result="hardAlpha"/>
<feOffset dy="4"/>
<feGaussianBlur stdDeviation="2"/>
<feComposite in2="hardAlpha" operator="out"/>
<feColorMatrix type="matrix" values="0 0 0 0 0 0 0 0 0 0 0 0 0 0 0 0 0 0 0.25 0"/>
<feBlend mode="normal" in2="effect1_backgroundBlur_2_2582" result="effect2_dropShadow_2_2582"/>
<feBlend mode="normal" in="SourceGraphic" in2="effect2_dropShadow_2_2582" result="shape"/>
</filter>
<filter id="filter1_bd_2_2582" x="-8" y="52.0496" width="263.985" height="195.572" filterUnits="userSpaceOnUse" color-interpolation-filters="sRGB">
<feFlood flood-opacity="0" result="BackgroundImageFix"/>
<feGaussianBlur in="BackgroundImage" stdDeviation="6"/>
<feComposite in2="SourceAlpha" operator="in" result="effect1_backgroundBlur_2_2582"/>
<feColorMatrix in="SourceAlpha" type="matrix" values="0 0 0 0 0 0 0 0 0 0 0 0 0 0 0 0 0 0 127 0" result="hardAlpha"/>
<feOffset dy="4"/>
<feGaussianBlur stdDeviation="2"/>
<feComposite in2="hardAlpha" operator="out"/>
<feColorMatrix type="matrix" values="0 0 0 0 0 0 0 0 0 0 0 0 0 0 0 0 0 0 0.25 0"/>
<feBlend mode="normal" in2="effect1_backgroundBlur_2_2582" result="effect2_dropShadow_2_2582"/>
<feBlend mode="normal" in="SourceGraphic" in2="effect2_dropShadow_2_2582" result="shape"/>
</filter>
<linearGradient id="paint0_linear_2_2582" x1="-81.5386" y1="-143.173" x2="183.824" y2="282.457" gradientUnits="userSpaceOnUse">
<stop stop-color="#A900FD"/>
<stop offset="1" stop-color="#A900FD" stop-opacity="0"/>
</linearGradient>
<linearGradient id="paint1_linear_2_2582" x1="243.985" y1="235.622" x2="-13.5179" y2="203.205" gradientUnits="userSpaceOnUse">
<stop stop-color="#289CFF"/>
<stop offset="1" stop-color="#7F34CD"/>
</linearGradient>
<linearGradient id="paint2_linear_2_2582" x1="118.925" y1="105.206" x2="148.853" y2="105.206" gradientUnits="userSpaceOnUse">
<stop stop-color="#F5ABFF"/>
<stop offset="1" stop-color="#FFC5FF"/>
</linearGradient>
<linearGradient id="paint3_linear_2_2582" x1="130.896" y1="93.7351" x2="134.236" y2="99.527" gradientUnits="userSpaceOnUse">
<stop stop-color="#B578D7"/>
<stop offset="1" stop-color="#CB89F0"/>
</linearGradient>
<linearGradient id="paint4_linear_2_2582" x1="3990.42" y1="18179.9" x2="8958.12" y2="18179.9" gradientUnits="userSpaceOnUse">
<stop stop-color="#F5ABFF"/>
<stop offset="0.46" stop-color="#FFC5FF"/>
<stop offset="1" stop-color="#FFDEFF"/>
</linearGradient>
<linearGradient id="paint5_linear_2_2582" x1="128.541" y1="125.582" x2="125.395" y2="125.582" gradientUnits="userSpaceOnUse">
<stop stop-color="#B879D9"/>
<stop offset="1" stop-color="#8B3DCE"/>
</linearGradient>
<linearGradient id="paint6_linear_2_2582" x1="4272.88" y1="17638.2" x2="7623.94" y2="17638.2" gradientUnits="userSpaceOnUse">
<stop stop-color="#F5ABFF"/>
<stop offset="0.46" stop-color="#FFC5FF"/>
<stop offset="1" stop-color="#FFDEFF"/>
</linearGradient>
<linearGradient id="paint7_linear_2_2582" x1="3917.55" y1="15511.1" x2="6474.67" y2="15511.1" gradientUnits="userSpaceOnUse">
<stop stop-color="#B578D7"/>
<stop offset="1" stop-color="#CB89F0"/>
</linearGradient>
<linearGradient id="paint8_linear_2_2582" x1="186.266" y1="106.19" x2="197.253" y2="98.5429" gradientUnits="userSpaceOnUse">
<stop stop-color="#C685EA"/>
<stop offset="0.18" stop-color="#DE98FF"/>
<stop offset="0.41" stop-color="#F5ABFF"/>
<stop offset="0.69" stop-color="#FFC5FF"/>
<stop offset="1" stop-color="#FFDEFF"/>
</linearGradient>
<linearGradient id="paint9_linear_2_2582" x1="452.16" y1="1540.38" x2="456.19" y2="1540.38" gradientUnits="userSpaceOnUse">
<stop stop-color="#B578D7"/>
<stop offset="1" stop-color="#CB89F0"/>
</linearGradient>
</defs>
</svg>
