<svg width="260" height="214" viewBox="0 0 260 214" fill="none" xmlns="http://www.w3.org/2000/svg">
<g filter="url(#filter0_bd_2_2440)">
<path d="M39.1235 27.3005C39.9606 19.1388 46.8356 12.9329 55.0401 12.9329H232.163C240.681 12.9329 247.706 19.6066 248.142 28.1135L255.3 167.686C255.769 176.832 248.479 184.505 239.321 184.505H40.725C31.2428 184.505 23.841 176.305 24.8085 166.873L39.1235 27.3005Z" fill="url(#paint0_linear_2_2440)" shape-rendering="crispEdges"/>
<path d="M55.0401 13.4329H232.163C240.415 13.4329 247.22 19.898 247.643 28.1391L254.8 167.711C255.255 176.572 248.193 184.005 239.321 184.005H40.725C31.5391 184.005 24.3686 176.062 25.3058 166.924L39.6209 27.3515C40.4319 19.4449 47.092 13.4329 55.0401 13.4329Z" stroke="#A900FD" stroke-opacity="0.3" shape-rendering="crispEdges"/>
</g>
<g filter="url(#filter1_bd_2_2440)">
<path fill-rule="evenodd" clip-rule="evenodd" d="M61 34.0496H34.3167C26.1122 34.0496 19.2373 40.2554 18.4002 48.4171L4.08513 187.989C3.11768 197.422 10.5195 205.622 20.0016 205.622H218.597C227.756 205.622 235.045 197.949 234.576 188.802L227.419 49.2301C226.982 40.7232 219.958 34.0496 211.44 34.0496H183V38.0496H211.44C217.828 38.0496 223.097 43.0548 223.424 49.435L230.582 189.007C230.933 195.867 225.466 201.622 218.597 201.622H20.0016C12.89 201.622 7.33867 195.472 8.06426 188.397L22.3793 48.8252C23.0072 42.704 28.1634 38.0496 34.3167 38.0496H61V34.0496Z" fill="url(#paint1_linear_2_2440)"/>
</g>
<path d="M71.492 162.233V141.933H84.82V144.705H74.572V150.641H83.7V153.469H74.572V159.405H85.212V162.233H71.492ZM87.8213 157.389V154.897H93.0293V157.389H87.8213ZM104.086 159.349C104.348 159.666 104.59 159.974 104.814 160.273C105.057 160.553 105.3 160.852 105.542 161.169C105.02 161.58 104.432 161.906 103.778 162.149C103.125 162.392 102.416 162.513 101.65 162.513C100.792 162.513 99.9797 162.354 99.2144 162.037C98.4677 161.701 97.8144 161.253 97.2544 160.693C96.6944 160.133 96.2464 159.48 95.9104 158.733C95.5931 157.986 95.4344 157.193 95.4344 156.353C95.4344 155.513 95.5931 154.72 95.9104 153.973C96.2464 153.226 96.6944 152.582 97.2544 152.041C97.8144 151.481 98.4677 151.042 99.2144 150.725C99.9797 150.389 100.792 150.221 101.65 150.221C102.434 150.221 103.153 150.342 103.806 150.585C104.478 150.828 105.085 151.154 105.626 151.565L104.086 153.385C103.769 153.124 103.405 152.928 102.994 152.797C102.584 152.648 102.136 152.573 101.65 152.573C101.09 152.573 100.577 152.676 100.11 152.881C99.6437 153.068 99.2331 153.329 98.8784 153.665C98.5424 154.001 98.2811 154.402 98.0944 154.869C97.9077 155.317 97.8144 155.812 97.8144 156.353C97.8144 156.894 97.9077 157.398 98.0944 157.865C98.2811 158.313 98.5424 158.714 98.8784 159.069C99.2331 159.405 99.6437 159.676 100.11 159.881C100.577 160.068 101.09 160.161 101.65 160.161C102.136 160.161 102.584 160.096 102.994 159.965C103.405 159.816 103.769 159.61 104.086 159.349ZM106.673 156.353C106.673 155.513 106.831 154.72 107.149 153.973C107.485 153.226 107.933 152.582 108.493 152.041C109.053 151.481 109.706 151.042 110.453 150.725C111.218 150.389 112.039 150.221 112.917 150.221C113.794 150.221 114.606 150.389 115.353 150.725C116.118 151.042 116.771 151.481 117.313 152.041C117.873 152.582 118.302 153.226 118.601 153.973C118.918 154.72 119.077 155.513 119.077 156.353C119.077 157.193 118.918 157.986 118.601 158.733C118.302 159.48 117.873 160.133 117.313 160.693C116.771 161.253 116.118 161.701 115.353 162.037C114.606 162.354 113.785 162.513 112.889 162.513C112.03 162.513 111.218 162.364 110.453 162.065C109.706 161.766 109.053 161.346 108.493 160.805C107.933 160.264 107.485 159.62 107.149 158.873C106.831 158.108 106.673 157.268 106.673 156.353ZM109.053 156.381C109.053 156.904 109.146 157.398 109.333 157.865C109.538 158.313 109.809 158.714 110.145 159.069C110.499 159.405 110.901 159.676 111.349 159.881C111.815 160.068 112.31 160.161 112.833 160.161C113.355 160.161 113.85 160.068 114.317 159.881C114.783 159.676 115.185 159.405 115.521 159.069C115.875 158.714 116.155 158.313 116.361 157.865C116.566 157.398 116.669 156.904 116.669 156.381C116.669 155.858 116.566 155.364 116.361 154.897C116.155 154.43 115.875 154.029 115.521 153.693C115.185 153.338 114.783 153.068 114.317 152.881C113.85 152.676 113.355 152.573 112.833 152.573C112.31 152.573 111.815 152.676 111.349 152.881C110.901 153.068 110.499 153.338 110.145 153.693C109.809 154.029 109.538 154.43 109.333 154.897C109.146 155.364 109.053 155.858 109.053 156.381ZM121.621 150.529H123.721C123.759 151.108 123.787 151.64 123.805 152.125C123.843 152.592 123.88 153.058 123.917 153.525C124.347 152.517 124.907 151.724 125.597 151.145C126.307 150.548 127.249 150.24 128.425 150.221C129.564 150.221 130.479 150.51 131.169 151.089C131.86 151.668 132.261 152.424 132.373 153.357C132.84 152.405 133.409 151.649 134.081 151.089C134.772 150.529 135.696 150.24 136.853 150.221C138.067 150.221 139.019 150.548 139.709 151.201C140.419 151.854 140.792 152.694 140.829 153.721V162.233H138.421V154.813C138.384 154.216 138.179 153.712 137.805 153.301C137.451 152.872 136.863 152.638 136.041 152.601C134.921 152.601 134.044 152.965 133.409 153.693C132.775 154.402 132.439 155.317 132.401 156.437V162.233H130.021V154.813C129.984 154.216 129.769 153.712 129.377 153.301C129.004 152.872 128.425 152.638 127.641 152.601C127.081 152.601 126.577 152.704 126.129 152.909C125.681 153.096 125.299 153.357 124.981 153.693C124.664 154.029 124.421 154.43 124.253 154.897C124.085 155.364 124.001 155.877 124.001 156.437V162.233H121.621V150.529ZM144.071 150.529H146.171C146.208 151.108 146.236 151.64 146.255 152.125C146.292 152.592 146.329 153.058 146.367 153.525C146.796 152.517 147.356 151.724 148.047 151.145C148.756 150.548 149.699 150.24 150.875 150.221C152.013 150.221 152.928 150.51 153.619 151.089C154.309 151.668 154.711 152.424 154.823 153.357C155.289 152.405 155.859 151.649 156.531 151.089C157.221 150.529 158.145 150.24 159.303 150.221C160.516 150.221 161.468 150.548 162.159 151.201C162.868 151.854 163.241 152.694 163.279 153.721V162.233H160.871V154.813C160.833 154.216 160.628 153.712 160.255 153.301C159.9 152.872 159.312 152.638 158.491 152.601C157.371 152.601 156.493 152.965 155.859 153.693C155.224 154.402 154.888 155.317 154.851 156.437V162.233H152.471V154.813C152.433 154.216 152.219 153.712 151.827 153.301C151.453 152.872 150.875 152.638 150.091 152.601C149.531 152.601 149.027 152.704 148.579 152.909C148.131 153.096 147.748 153.357 147.431 153.693C147.113 154.029 146.871 154.43 146.703 154.897C146.535 155.364 146.451 155.877 146.451 156.437V162.233H144.071V150.529ZM176.432 160.861C175.872 161.365 175.191 161.766 174.388 162.065C173.585 162.364 172.764 162.513 171.924 162.513C171.065 162.513 170.253 162.354 169.488 162.037C168.741 161.701 168.088 161.262 167.528 160.721C166.968 160.161 166.52 159.508 166.184 158.761C165.867 158.014 165.708 157.221 165.708 156.381C165.708 155.541 165.867 154.748 166.184 154.001C166.52 153.254 166.968 152.601 167.528 152.041C168.088 151.481 168.732 151.042 169.46 150.725C170.207 150.389 171 150.221 171.84 150.221C173.165 150.221 174.313 150.622 175.284 151.425C176.273 152.209 176.983 153.245 177.412 154.533C176.833 154.738 176.171 154.99 175.424 155.289C174.677 155.588 173.903 155.905 173.1 156.241C172.297 156.558 171.495 156.876 170.692 157.193C169.889 157.51 169.143 157.8 168.452 158.061C168.769 158.696 169.227 159.209 169.824 159.601C170.44 159.974 171.121 160.161 171.868 160.161C172.372 160.161 172.876 160.068 173.38 159.881C173.903 159.694 174.323 159.442 174.64 159.125L176.432 160.861ZM174.416 153.973C174.192 153.506 173.837 153.161 173.352 152.937C172.867 152.694 172.372 152.573 171.868 152.573C171.327 152.573 170.823 152.676 170.356 152.881C169.908 153.086 169.516 153.366 169.18 153.721C168.844 154.057 168.573 154.449 168.368 154.897C168.181 155.345 168.088 155.802 168.088 156.269C168.088 156.362 168.088 156.428 168.088 156.465C168.107 156.502 168.116 156.53 168.116 156.549C168.601 156.362 169.124 156.157 169.684 155.933C170.263 155.69 170.832 155.457 171.392 155.233C171.952 154.99 172.493 154.766 173.016 154.561C173.539 154.337 174.005 154.141 174.416 153.973ZM185.921 153.301C185.398 153.301 184.894 153.376 184.409 153.525C183.923 153.656 183.485 153.861 183.093 154.141C182.719 154.421 182.421 154.776 182.197 155.205C181.973 155.616 181.861 156.092 181.861 156.633V162.233H179.481V150.529H181.581C181.618 151.108 181.646 151.64 181.665 152.125C181.702 152.592 181.739 153.058 181.777 153.525C182.019 153.021 182.337 152.564 182.729 152.153C183.121 151.742 183.541 151.397 183.989 151.117C184.437 150.837 184.875 150.622 185.305 150.473C185.734 150.305 186.117 150.221 186.453 150.221L185.921 153.301ZM195.797 159.349C196.059 159.666 196.301 159.974 196.525 160.273C196.768 160.553 197.011 160.852 197.253 161.169C196.731 161.58 196.143 161.906 195.489 162.149C194.836 162.392 194.127 162.513 193.361 162.513C192.503 162.513 191.691 162.354 190.925 162.037C190.179 161.701 189.525 161.253 188.965 160.693C188.405 160.133 187.957 159.48 187.621 158.733C187.304 157.986 187.145 157.193 187.145 156.353C187.145 155.513 187.304 154.72 187.621 153.973C187.957 153.226 188.405 152.582 188.965 152.041C189.525 151.481 190.179 151.042 190.925 150.725C191.691 150.389 192.503 150.221 193.361 150.221C194.145 150.221 194.864 150.342 195.517 150.585C196.189 150.828 196.796 151.154 197.337 151.565L195.797 153.385C195.48 153.124 195.116 152.928 194.705 152.797C194.295 152.648 193.847 152.573 193.361 152.573C192.801 152.573 192.288 152.676 191.821 152.881C191.355 153.068 190.944 153.329 190.589 153.665C190.253 154.001 189.992 154.402 189.805 154.869C189.619 155.317 189.525 155.812 189.525 156.353C189.525 156.894 189.619 157.398 189.805 157.865C189.992 158.313 190.253 158.714 190.589 159.069C190.944 159.405 191.355 159.676 191.821 159.881C192.288 160.068 192.801 160.161 193.361 160.161C193.847 160.161 194.295 160.096 194.705 159.965C195.116 159.816 195.48 159.61 195.797 159.349ZM209.108 160.861C208.548 161.365 207.866 161.766 207.064 162.065C206.261 162.364 205.44 162.513 204.6 162.513C203.741 162.513 202.929 162.354 202.164 162.037C201.417 161.701 200.764 161.262 200.204 160.721C199.644 160.161 199.196 159.508 198.86 158.761C198.542 158.014 198.384 157.221 198.384 156.381C198.384 155.541 198.542 154.748 198.86 154.001C199.196 153.254 199.644 152.601 200.204 152.041C200.764 151.481 201.408 151.042 202.136 150.725C202.882 150.389 203.676 150.221 204.516 150.221C205.841 150.221 206.989 150.622 207.96 151.425C208.949 152.209 209.658 153.245 210.088 154.533C209.509 154.738 208.846 154.99 208.1 155.289C207.353 155.588 206.578 155.905 205.776 156.241C204.973 156.558 204.17 156.876 203.368 157.193C202.565 157.51 201.818 157.8 201.128 158.061C201.445 158.696 201.902 159.209 202.5 159.601C203.116 159.974 203.797 160.161 204.544 160.161C205.048 160.161 205.552 160.068 206.056 159.881C206.578 159.694 206.998 159.442 207.316 159.125L209.108 160.861ZM207.092 153.973C206.868 153.506 206.513 153.161 206.028 152.937C205.542 152.694 205.048 152.573 204.544 152.573C204.002 152.573 203.498 152.676 203.032 152.881C202.584 153.086 202.192 153.366 201.856 153.721C201.52 154.057 201.249 154.449 201.044 154.897C200.857 155.345 200.764 155.802 200.764 156.269C200.764 156.362 200.764 156.428 200.764 156.465C200.782 156.502 200.792 156.53 200.792 156.549C201.277 156.362 201.8 156.157 202.36 155.933C202.938 155.69 203.508 155.457 204.068 155.233C204.628 154.99 205.169 154.766 205.692 154.561C206.214 154.337 206.681 154.141 207.092 153.973Z" fill="white"/>
<g style="mix-blend-mode:multiply" opacity="0.7">
<path d="M143.066 86.1173L112.122 88.0888L94.3791 103.243L143.529 105.215L143.066 86.1173Z" fill="#52017B"/>
</g>
<g style="mix-blend-mode:multiply" opacity="0.7">
<path d="M97.6364 55.088L10 105.695L24.9146 114.301L85.8418 116.564L85.3789 97.4662L97.6364 55.088Z" fill="#52017B"/>
</g>
<path d="M133.071 1.15533L112.928 13.807L133.877 70.8255L133.071 1.15533Z" fill="#A839DA"/>
<path d="M94.379 37.9961L92.5447 28.3959L71.0299 36.5218L67.087 105.746L85.8417 116.581L94.379 37.9961Z" fill="#962DCC"/>
<path d="M71.0299 36.5218L67.3098 105.883L80.4587 100.878L85.2588 35.476L71.0299 36.5218Z" fill="#A839DA"/>
<path d="M83.3731 43.6534L85.5845 116.427L85.8417 116.581L86.3046 45.642L83.3731 43.6534Z" fill="#BB3FF1"/>
<path d="M145.449 8.30402L84.0074 44.0134L85.8417 116.581L148.826 79.98L145.449 8.30402Z" fill="url(#paint2_linear_2_2440)"/>
<path d="M71.0299 36.5219L67.087 105.746L67.3098 105.883L71.5956 36.8476L71.7499 36.5219H71.0299Z" fill="#BB3FF1"/>
<path d="M132.489 0.812439L71.0299 36.5218L71.5956 36.8476L85.2588 35.4761L83.3731 43.6534L84.0074 44.0134L120.403 22.8586L145.449 8.30404L144.797 7.92688L132.163 8.45832L133.071 1.1553L132.489 0.812439Z" fill="url(#paint3_linear_2_2440)"/>
<path d="M85.7903 34.996L72.0586 36.4189L132.66 1.20667L131.7 8.88684L144.489 8.3897L83.7674 43.6705L85.7903 34.996Z" fill="#962DCC"/>
<g style="mix-blend-mode:screen" opacity="0.5">
<path d="M80.4587 100.878L67.3098 105.884L85.5845 116.427L80.4587 100.878Z" fill="#A839DA"/>
</g>
<path d="M131.7 8.88679L132.694 15.247L144.489 8.38965L131.7 8.88679Z" fill="#A839DA"/>
<path d="M83.7673 43.6706L85.0873 42.9163L85.7902 34.9961L83.7673 43.6706Z" fill="#A839DA"/>
<path opacity="0.6" d="M124.86 28.3274C124.835 28.243 124.793 28.1647 124.736 28.0975C124.679 28.0302 124.609 27.9755 124.53 27.9368C124.451 27.8981 124.365 27.8763 124.277 27.8727C124.189 27.8691 124.102 27.8839 124.02 27.916C123.845 27.9886 123.705 28.124 123.625 28.2954C123.546 28.4668 123.534 28.6617 123.591 28.8417C123.591 28.9617 127.448 42.7106 119.202 49.0879C118.395 49.757 117.445 50.232 116.425 50.4765C109.448 52.0022 107.185 38.9219 107.168 38.8019C107.154 38.7143 107.122 38.6305 107.074 38.5561C107.025 38.4816 106.962 38.418 106.888 38.3696C106.813 38.3211 106.73 38.2888 106.642 38.2747C106.555 38.2606 106.465 38.2649 106.379 38.2876C106.2 38.3397 106.047 38.4561 105.949 38.6143C105.851 38.7726 105.815 38.9615 105.848 39.1448C105.934 39.6419 108.076 51.9851 115.019 52.0537C115.561 52.0534 116.101 51.9959 116.631 51.8822C117.856 51.5726 118.994 50.9861 119.957 50.1679C129.043 43.2077 124.911 28.4645 124.86 28.3274Z" fill="#962DCC"/>
<path d="M125.288 27.8988C125.393 28.2356 125.384 28.5974 125.263 28.9288C125.143 29.2601 124.917 29.5427 124.62 29.7332C124.498 29.8255 124.357 29.887 124.206 29.9125C124.056 29.938 123.902 29.9266 123.757 29.8794C123.612 29.8322 123.481 29.7506 123.374 29.6415C123.268 29.5325 123.189 29.3992 123.145 29.2532C123.055 28.9115 123.072 28.5502 123.195 28.2188C123.318 27.8874 123.54 27.602 123.831 27.4017C123.953 27.3133 124.095 27.2554 124.244 27.2331C124.393 27.2107 124.546 27.2245 124.688 27.2732C124.831 27.3219 124.96 27.4041 125.065 27.513C125.169 27.6219 125.246 27.7542 125.288 27.8988Z" fill="#A839DA"/>
<path d="M107.682 38.0647C107.774 38.4046 107.76 38.7647 107.64 39.096C107.521 39.4272 107.302 39.7136 107.014 39.9162C106.89 40.0044 106.747 40.0619 106.597 40.0842C106.447 40.1065 106.293 40.0928 106.149 40.0443C106.006 39.9957 105.875 39.9138 105.769 39.8051C105.663 39.6964 105.584 39.5641 105.539 39.419C105.447 39.0791 105.462 38.7191 105.581 38.3878C105.701 38.0565 105.92 37.7701 106.208 37.5676C106.332 37.4794 106.474 37.4218 106.625 37.3995C106.775 37.3773 106.928 37.391 107.072 37.4395C107.216 37.488 107.346 37.57 107.452 37.6787C107.558 37.7874 107.637 37.9197 107.682 38.0647V38.0647Z" fill="#A839DA"/>
<path d="M124.86 28.3274C124.835 28.234 124.791 28.1469 124.73 28.0718C124.669 27.9967 124.593 27.9353 124.507 27.8916C124.421 27.8479 124.326 27.823 124.23 27.8183C124.133 27.8137 124.037 27.8296 123.947 27.8648C123.857 27.9001 123.775 27.954 123.708 28.023C123.64 28.0919 123.587 28.1744 123.554 28.2651C123.52 28.3557 123.506 28.4524 123.513 28.5488C123.519 28.6452 123.546 28.7392 123.591 28.8246C123.591 28.9446 128.186 40.8249 120.06 46.9964C119.247 47.6404 118.306 48.1023 117.3 48.3508C110.237 49.8765 107.305 38.682 107.271 38.5791C107.21 38.4243 107.095 38.2967 106.948 38.2203C106.8 38.1438 106.629 38.1236 106.468 38.1635C106.307 38.2033 106.165 38.3005 106.07 38.4369C105.975 38.5732 105.932 38.7395 105.951 38.9048C106.071 39.3848 108.814 49.8765 115.928 49.8765C116.505 49.876 117.079 49.8127 117.642 49.6879C118.859 49.4116 119.997 48.8604 120.968 48.0765C129.831 41.2363 124.911 28.4474 124.86 28.3274Z" fill="#FFC5FF"/>
<path style="mix-blend-mode:screen" d="M84.0074 44.0134L93.5562 38.4076L114.625 26.0644L135.78 13.8584L145.449 8.37256L135.9 14.047L114.814 26.4073L93.659 38.5961L84.0074 44.0134Z" fill="url(#paint4_radial_2_2440)"/>
<g style="mix-blend-mode:multiply" opacity="0.3">
<path d="M133.86 88.6888L137.546 48.0764L109.259 64.4139L108.265 103.552L133.86 88.6888Z" fill="#A839DA"/>
</g>
<path d="M159.729 26.7673L143.957 36.6761L160.364 81.3514L159.729 26.7673Z" fill="#A839DA"/>
<path d="M150.197 43.6191L148.775 36.1104L131.923 42.4705L128.82 96.7289L143.529 105.215L150.197 43.6191Z" fill="#962DCC"/>
<path d="M131.923 42.4705L128.991 96.8318L139.312 92.906L143.066 41.6476L131.923 42.4705Z" fill="#A839DA"/>
<path d="M141.574 48.0593L143.323 105.095L143.529 105.215L143.889 49.6193L141.574 48.0593Z" fill="#BB3FF1"/>
<path d="M169.432 32.3559L155.529 40.4818L142.072 48.3506L143.529 105.215L172.072 88.5515L169.432 32.3559Z" fill="url(#paint5_linear_2_2440)"/>
<path d="M131.923 42.4705L128.82 96.729L128.991 96.8318L132.351 42.7277L132.471 42.4705H131.923Z" fill="#BB3FF1"/>
<path d="M159.283 26.493L131.923 42.4705L132.351 42.7277L143.066 41.6476L141.574 48.0592L142.072 48.3506L169.432 32.356L168.918 32.0645L159.026 32.4931L159.729 26.7673L159.283 26.493Z" fill="url(#paint6_linear_2_2440)"/>
<path d="M143.477 41.2876L132.711 42.3848L159.404 26.8016L158.649 32.836L168.678 32.4246L141.9 48.0764L143.477 41.2876Z" fill="#962DCC"/>
<g style="mix-blend-mode:screen" opacity="0.5">
<path d="M139.312 92.9059L128.991 96.8318L143.323 105.095L139.312 92.9059Z" fill="#A839DA"/>
</g>
<path d="M158.649 32.8361L159.438 37.8076L168.678 32.4246L158.649 32.8361Z" fill="#A839DA"/>
<path d="M141.9 48.0765L142.912 47.4764L143.477 41.2877L141.9 48.0765Z" fill="#A839DA"/>
<path opacity="0.6" d="M164.066 41.579C164.044 41.5059 164.006 41.4383 163.956 41.3806C163.905 41.3229 163.843 41.2765 163.774 41.2442C163.704 41.2119 163.629 41.1945 163.552 41.1931C163.476 41.1917 163.4 41.2063 163.329 41.2361C163.184 41.2972 163.067 41.4099 163.001 41.5525C162.934 41.695 162.923 41.8572 162.969 42.0076C162.969 42.1104 166.192 53.4593 159.061 58.8423C158.357 59.3931 157.545 59.7903 156.678 60.008C150.695 61.328 149.375 50.2363 149.358 50.1335C149.344 50.0587 149.314 49.9877 149.272 49.9248C149.229 49.862 149.173 49.8087 149.109 49.7684C149.044 49.7281 148.972 49.7016 148.897 49.6907C148.822 49.6798 148.745 49.6846 148.672 49.7049C148.522 49.7489 148.393 49.8468 148.311 49.9796C148.229 50.1125 148.199 50.2711 148.226 50.4249C148.226 50.8535 149.512 61.328 155.461 61.328C155.927 61.324 156.393 61.2723 156.849 61.1737C157.888 60.9246 158.859 60.4506 159.695 59.7851C167.547 53.8364 164.101 41.6819 164.066 41.579Z" fill="#962DCC"/>
<path d="M164.444 41.2191C164.527 41.5003 164.517 41.8012 164.415 42.0764C164.313 42.3516 164.125 42.5861 163.878 42.7448C163.777 42.8226 163.659 42.8743 163.534 42.8953C163.408 42.9163 163.279 42.906 163.159 42.8653C163.039 42.8246 162.93 42.7547 162.843 42.6619C162.756 42.5691 162.693 42.4562 162.661 42.3334C162.579 42.0511 162.589 41.7505 162.687 41.4738C162.786 41.1971 162.968 40.9581 163.209 40.7905C163.313 40.7133 163.433 40.6625 163.561 40.6427C163.688 40.623 163.818 40.6348 163.94 40.6771C164.062 40.7194 164.172 40.7909 164.259 40.8854C164.347 40.9799 164.41 41.0945 164.444 41.2191Z" fill="#A839DA"/>
<path d="M149.717 49.7219C149.801 50.0032 149.791 50.3041 149.689 50.5792C149.587 50.8544 149.399 51.089 149.152 51.2477C149.051 51.3255 148.933 51.3772 148.807 51.3982C148.682 51.4192 148.553 51.4089 148.433 51.3682C148.312 51.3274 148.204 51.2576 148.117 51.1648C148.03 51.072 147.967 50.9591 147.935 50.8362C147.853 50.554 147.863 50.2534 147.961 49.9767C148.059 49.7 148.242 49.461 148.483 49.2934C148.586 49.2161 148.707 49.1654 148.835 49.1456C148.962 49.1258 149.092 49.1376 149.214 49.1799C149.336 49.2222 149.446 49.2937 149.533 49.3882C149.621 49.4827 149.684 49.5973 149.717 49.7219V49.7219Z" fill="#A839DA"/>
<path d="M164.084 41.5619C164.026 41.4231 163.918 41.3118 163.78 41.2511C163.643 41.1904 163.488 41.1851 163.346 41.2361C163.274 41.2625 163.208 41.3034 163.152 41.3562C163.096 41.409 163.052 41.4726 163.021 41.5432C162.991 41.6138 162.975 41.6899 162.975 41.7668C162.975 41.8437 162.99 41.9198 163.021 41.9905C163.021 42.0933 166.861 51.9678 160.072 57.1794C159.391 57.7187 158.602 58.1047 157.758 58.3108C151.843 59.5794 149.409 50.2364 149.375 50.1335C149.357 50.0596 149.324 49.9901 149.279 49.9291C149.233 49.8681 149.176 49.8169 149.111 49.7785C149.045 49.7401 148.972 49.7153 148.897 49.7056C148.822 49.6959 148.745 49.7015 148.672 49.7221C148.527 49.766 148.405 49.8627 148.329 49.993C148.252 50.1233 148.228 50.2775 148.26 50.4249C148.363 50.8192 150.678 59.5795 156.609 59.5795C157.076 59.5772 157.542 59.5254 157.998 59.4251C159.007 59.1935 159.951 58.7364 160.758 58.088C168.249 52.3621 164.118 41.6647 164.084 41.5619Z" fill="#FFC5FF"/>
<path style="mix-blend-mode:screen" d="M169.432 32.3731L165.284 34.9789C162.729 36.4875 159.318 38.5104 155.923 40.5505L146.426 45.9334L142.089 48.3506L146.306 45.762L155.649 40.1219L165.095 34.7046L169.432 32.3731Z" fill="url(#paint7_radial_2_2440)"/>
<defs>
<filter id="filter0_bd_2_2440" x="12.7233" y="0.932922" width="254.598" height="195.572" filterUnits="userSpaceOnUse" color-interpolation-filters="sRGB">
<feFlood flood-opacity="0" result="BackgroundImageFix"/>
<feGaussianBlur in="BackgroundImage" stdDeviation="6"/>
<feComposite in2="SourceAlpha" operator="in" result="effect1_backgroundBlur_2_2440"/>
<feColorMatrix in="SourceAlpha" type="matrix" values="0 0 0 0 0 0 0 0 0 0 0 0 0 0 0 0 0 0 127 0" result="hardAlpha"/>
<feOffset dy="4"/>
<feGaussianBlur stdDeviation="2"/>
<feComposite in2="hardAlpha" operator="out"/>
<feColorMatrix type="matrix" values="0 0 0 0 0 0 0 0 0 0 0 0 0 0 0 0 0 0 0.25 0"/>
<feBlend mode="normal" in2="effect1_backgroundBlur_2_2440" result="effect2_dropShadow_2_2440"/>
<feBlend mode="normal" in="SourceGraphic" in2="effect2_dropShadow_2_2440" result="shape"/>
</filter>
<filter id="filter1_bd_2_2440" x="-8" y="22.0496" width="254.598" height="195.572" filterUnits="userSpaceOnUse" color-interpolation-filters="sRGB">
<feFlood flood-opacity="0" result="BackgroundImageFix"/>
<feGaussianBlur in="BackgroundImage" stdDeviation="6"/>
<feComposite in2="SourceAlpha" operator="in" result="effect1_backgroundBlur_2_2440"/>
<feColorMatrix in="SourceAlpha" type="matrix" values="0 0 0 0 0 0 0 0 0 0 0 0 0 0 0 0 0 0 127 0" result="hardAlpha"/>
<feOffset dy="4"/>
<feGaussianBlur stdDeviation="2"/>
<feComposite in2="hardAlpha" operator="out"/>
<feColorMatrix type="matrix" values="0 0 0 0 0 0 0 0 0 0 0 0 0 0 0 0 0 0 0.25 0"/>
<feBlend mode="normal" in2="effect1_backgroundBlur_2_2440" result="effect2_dropShadow_2_2440"/>
<feBlend mode="normal" in="SourceGraphic" in2="effect2_dropShadow_2_2440" result="shape"/>
</filter>
<linearGradient id="paint0_linear_2_2440" x1="-90.9415" y1="-173.173" x2="174.422" y2="252.457" gradientUnits="userSpaceOnUse">
<stop stop-color="#A900FD"/>
<stop offset="1" stop-color="#A900FD" stop-opacity="0"/>
</linearGradient>
<linearGradient id="paint1_linear_2_2440" x1="234.598" y1="205.622" x2="-13.1291" y2="175.656" gradientUnits="userSpaceOnUse">
<stop stop-color="#289CFF"/>
<stop offset="1" stop-color="#7F34CD"/>
</linearGradient>
<linearGradient id="paint2_linear_2_2440" x1="84.0074" y1="62.4424" x2="148.826" y2="62.4424" gradientUnits="userSpaceOnUse">
<stop stop-color="#D271F0"/>
<stop offset="1" stop-color="#DA7CF4"/>
</linearGradient>
<linearGradient id="paint3_linear_2_2440" x1="71.0471" y1="22.4129" x2="145.449" y2="22.4129" gradientUnits="userSpaceOnUse">
<stop stop-color="#FF98FF"/>
<stop offset="1" stop-color="#FFAFF5"/>
</linearGradient>
<radialGradient id="paint4_radial_2_2440" cx="0" cy="0" r="1" gradientUnits="userSpaceOnUse" gradientTransform="translate(4047.6 6026.69) scale(1711.14 992.598)">
<stop stop-color="#FFEC3D"/>
<stop offset="0.22" stop-color="#E53DFF"/>
<stop offset="0.26" stop-color="#C735DE"/>
<stop offset="0.34" stop-color="#9929AB"/>
<stop offset="0.42" stop-color="#701E7D"/>
<stop offset="0.51" stop-color="#4E1556"/>
<stop offset="0.59" stop-color="#310D37"/>
<stop offset="0.68" stop-color="#1C071F"/>
<stop offset="0.78" stop-color="#0C030D"/>
<stop offset="0.88" stop-color="#030103"/>
<stop offset="1"/>
</radialGradient>
<linearGradient id="paint5_linear_2_2440" x1="2555.93" y1="14146.6" x2="3080.94" y2="14146.6" gradientUnits="userSpaceOnUse">
<stop stop-color="#D271F0"/>
<stop offset="1" stop-color="#DA7CF4"/>
</linearGradient>
<linearGradient id="paint6_linear_2_2440" x1="2927.88" y1="3860.76" x2="3748.58" y2="3860.76" gradientUnits="userSpaceOnUse">
<stop stop-color="#FF98FF"/>
<stop offset="1" stop-color="#FFAFF5"/>
</linearGradient>
<radialGradient id="paint7_radial_2_2440" cx="0" cy="0" r="1" gradientUnits="userSpaceOnUse" gradientTransform="translate(2560.35 2862.63) scale(333.044 194.606)">
<stop stop-color="#FFEC3D"/>
<stop offset="0.22" stop-color="#E53DFF"/>
<stop offset="0.26" stop-color="#C735DE"/>
<stop offset="0.34" stop-color="#9929AB"/>
<stop offset="0.42" stop-color="#701E7D"/>
<stop offset="0.51" stop-color="#4E1556"/>
<stop offset="0.59" stop-color="#310D37"/>
<stop offset="0.68" stop-color="#1C071F"/>
<stop offset="0.78" stop-color="#0C030D"/>
<stop offset="0.88" stop-color="#030103"/>
<stop offset="1"/>
</radialGradient>
</defs>
</svg>
