<svg width="324" height="38" viewBox="0 0 324 38" fill="none" xmlns="http://www.w3.org/2000/svg">
<path d="M18.9345 29.2898H1V2.19055H18.9345V7.61417H6.23622V13.0378H14.8295V18.4614H6.23622V23.8661H18.9345V29.2898Z" stroke="#FEBA4F"/>
<path d="M40.0618 29.2898H33.9681L30.082 23.0913L26.1594 29.2898H20.0657L27.1993 18.915L20.0657 8.93701H26.1594L30.082 14.7386L33.9681 8.93701H40.0618L32.9099 18.915L40.0618 29.2898Z" stroke="#FEBA4F"/>
<path d="M46.8671 37H41.8498V9.05039H43.0539L45.0426 11.4882C45.4926 11.0472 45.9852 10.6315 46.5204 10.2409C47.0556 9.85039 47.609 9.51654 48.1807 9.23937C48.7645 8.94961 49.3666 8.72283 49.9869 8.55906C50.6072 8.39528 51.2336 8.31339 51.8661 8.31339C53.2405 8.31339 54.5298 8.57165 55.734 9.08819C56.9503 9.59213 58.0085 10.3102 58.9085 11.2425C59.8208 12.1748 60.5384 13.3024 61.0614 14.6252C61.5844 15.9354 61.8459 17.3906 61.8459 18.9906C61.8459 20.6535 61.5844 22.1528 61.0614 23.4882C60.5384 24.811 59.8208 25.9386 58.9085 26.8709C58.0085 27.7906 56.9503 28.4961 55.734 28.9874C54.5298 29.4787 53.2405 29.7244 51.8661 29.7244C51.4282 29.7244 50.9904 29.674 50.5525 29.5732C50.1268 29.4724 49.7011 29.3402 49.2754 29.1764C48.8618 29 48.4483 28.8047 48.0347 28.5906C47.6333 28.3764 47.2441 28.1559 46.8671 27.9291V37ZM56.8469 18.9906C56.8469 18.1339 56.7131 17.3654 56.4455 16.685C56.1901 16.0047 55.8374 15.4315 55.3873 14.9654C54.9373 14.4866 54.4082 14.1213 53.8 13.8693C53.1919 13.6173 52.5472 13.4913 51.8661 13.4913C51.185 13.4913 50.5403 13.6173 49.9322 13.8693C49.3362 14.1213 48.8132 14.4866 48.3631 14.9654C47.9131 15.4315 47.5543 16.0047 47.2867 16.685C47.0313 17.3654 46.9036 18.1339 46.9036 18.9906C46.9036 19.8094 47.0313 20.5591 47.2867 21.2394C47.5543 21.9197 47.9131 22.4992 48.3631 22.978C48.8132 23.4567 49.3362 23.8283 49.9322 24.0929C50.5403 24.3575 51.185 24.4898 51.8661 24.4898C52.5472 24.4898 53.1919 24.3575 53.8 24.0929C54.4082 23.8283 54.9373 23.4567 55.3873 22.978C55.8374 22.4992 56.1901 21.9197 56.4455 21.2394C56.7131 20.5591 56.8469 19.8094 56.8469 18.9906Z" stroke="#FEBA4F"/>
<path d="M69.6364 29.2898H64.6191V1H69.6364V29.2898Z" stroke="#FEBA4F"/>
<path d="M92.3328 18.9906C92.3328 20.5024 92.0713 21.9134 91.5482 23.2236C91.0252 24.5213 90.3137 25.6488 89.4136 26.6063C88.5136 27.5512 87.4554 28.3008 86.239 28.8551C85.0349 29.3969 83.7395 29.6677 82.3529 29.6677C80.9785 29.6677 79.6831 29.3969 78.4668 28.8551C77.2627 28.3008 76.2045 27.5512 75.2923 26.6063C74.3922 25.6488 73.6806 24.5213 73.1576 23.2236C72.6346 21.9134 72.3731 20.5024 72.3731 18.9906C72.3731 17.4535 72.6346 16.0299 73.1576 14.7197C73.6806 13.4094 74.3922 12.2819 75.2923 11.337C76.2045 10.3795 77.2627 9.62992 78.4668 9.08819C79.6831 8.54646 80.9785 8.27559 82.3529 8.27559C83.7395 8.27559 85.0349 8.53386 86.239 9.05039C87.4554 9.55433 88.5136 10.2787 89.4136 11.2236C90.3137 12.1559 91.0252 13.2835 91.5482 14.6063C92.0713 15.9165 92.3328 17.378 92.3328 18.9906ZM87.3155 18.9906C87.3155 18.1591 87.1817 17.4094 86.9141 16.7417C86.6587 16.0614 86.3059 15.4819 85.8559 15.0031C85.4059 14.5118 84.8768 14.1402 84.2686 13.8882C83.6726 13.6236 83.0341 13.4913 82.3529 13.4913C81.6718 13.4913 81.0272 13.6236 80.419 13.8882C79.823 14.1402 79.3 14.5118 78.85 15.0031C78.4121 15.4819 78.0654 16.0614 77.81 16.7417C77.5546 17.4094 77.4269 18.1591 77.4269 18.9906C77.4269 19.7717 77.5546 20.4961 77.81 21.1638C78.0654 21.8315 78.4121 22.411 78.85 22.9024C79.3 23.3937 79.823 23.7843 80.419 24.074C81.0272 24.3512 81.6718 24.4898 82.3529 24.4898C83.0341 24.4898 83.6726 24.3575 84.2686 24.0929C84.8768 23.8283 85.4059 23.4567 85.8559 22.978C86.3059 22.4992 86.6587 21.9197 86.9141 21.2394C87.1817 20.5591 87.3155 19.8094 87.3155 18.9906Z" stroke="#FEBA4F"/>
<path d="M100.069 29.2898H95.0877V9.05039H96.2919L97.9339 11.4504C98.7366 10.6945 99.6489 10.115 100.671 9.71181C101.692 9.29606 102.75 9.08819 103.845 9.08819H108.242V14.2283H103.845C103.322 14.2283 102.83 14.3291 102.367 14.5307C101.905 14.7323 101.504 15.0094 101.163 15.3622C100.823 15.715 100.555 16.1307 100.36 16.6094C100.166 17.0882 100.069 17.5984 100.069 18.1402V29.2898Z" stroke="#FEBA4F"/>
<path d="M117.967 24.3386C118.161 24.4016 118.356 24.4457 118.55 24.4709C118.745 24.4835 118.94 24.4898 119.134 24.4898C119.621 24.4898 120.089 24.4205 120.539 24.2819C120.989 24.1433 121.409 23.948 121.798 23.6961C122.199 23.4315 122.552 23.1165 122.856 22.7512C123.172 22.3732 123.428 21.9575 123.622 21.5039L127.271 25.3024C126.809 25.9827 126.274 26.5937 125.666 27.1354C125.07 27.6772 124.419 28.137 123.714 28.515C123.02 28.8929 122.284 29.1764 121.506 29.3654C120.74 29.5669 119.949 29.6677 119.134 29.6677C117.76 29.6677 116.464 29.4031 115.248 28.874C114.044 28.3449 112.986 27.6079 112.073 26.663C111.173 25.7181 110.462 24.5969 109.939 23.2992C109.416 21.989 109.154 20.5528 109.154 18.9906C109.154 17.3906 109.416 15.9291 109.939 14.6063C110.462 13.2835 111.173 12.1559 112.073 11.2236C112.986 10.2913 114.044 9.56693 115.248 9.05039C116.464 8.53386 117.76 8.27559 119.134 8.27559C119.949 8.27559 120.746 8.37638 121.524 8.57795C122.303 8.77953 123.039 9.06929 123.732 9.44724C124.437 9.8252 125.094 10.2913 125.702 10.8457C126.31 11.3874 126.846 11.9984 127.308 12.6787L117.967 24.3386ZM120.521 13.6992C120.29 13.611 120.059 13.5543 119.827 13.5291C119.609 13.5039 119.377 13.4913 119.134 13.4913C118.453 13.4913 117.808 13.6236 117.2 13.8882C116.604 14.1402 116.081 14.5055 115.631 14.9843C115.193 15.463 114.847 16.0425 114.591 16.7228C114.336 17.3906 114.208 18.1465 114.208 18.9906C114.208 19.1795 114.214 19.3937 114.226 19.6331C114.251 19.8724 114.281 20.1181 114.318 20.3701C114.366 20.6094 114.421 20.8425 114.482 21.0693C114.543 21.2961 114.622 21.4976 114.719 21.674L120.521 13.6992Z" stroke="#FEBA4F"/>
<path d="M150.095 29.2898C148.891 29.2898 147.76 29.0567 146.702 28.5906C145.644 28.1118 144.713 27.463 143.91 26.6441C143.12 25.8126 142.493 24.8488 142.031 23.7528C141.581 22.6567 141.356 21.485 141.356 20.2378V14.2283H138.93V9.08819H141.356V1H146.319V9.08819H153.872V14.2283H146.319V20.2378C146.319 20.7795 146.416 21.2898 146.611 21.7685C146.805 22.2346 147.073 22.6441 147.413 22.9969C147.754 23.3496 148.155 23.6331 148.618 23.8472C149.08 24.0488 149.572 24.1496 150.095 24.1496H153.872V29.2898H150.095Z" stroke="#FEBA4F"/>
<path d="M161.662 29.2898H156.682V1H161.662V9.93858C162.258 9.47244 162.873 9.14488 163.505 8.95591C164.138 8.75433 164.782 8.65354 165.439 8.65354C166.643 8.65354 167.774 8.89291 168.833 9.37165C169.891 9.8378 170.809 10.4866 171.588 11.3181C172.378 12.137 172.998 13.1008 173.449 14.2094C173.911 15.3055 174.142 16.4772 174.142 17.7244V29.2898H169.125V17.7244H169.161C169.161 17.1953 169.064 16.6976 168.869 16.2315C168.675 15.7528 168.407 15.337 168.066 14.9843C167.726 14.6315 167.33 14.3543 166.88 14.1528C166.43 13.9512 165.95 13.8504 165.439 13.8504C164.916 13.8504 164.423 13.9512 163.961 14.1528C163.499 14.3543 163.098 14.6315 162.757 14.9843C162.417 15.337 162.149 15.7528 161.954 16.2315C161.76 16.6976 161.662 17.1953 161.662 17.7244V29.2898Z" stroke="#FEBA4F"/>
<path d="M185.472 24.3386C185.666 24.4016 185.861 24.4457 186.056 24.4709C186.25 24.4835 186.445 24.4898 186.639 24.4898C187.126 24.4898 187.594 24.4205 188.044 24.2819C188.494 24.1433 188.914 23.948 189.303 23.6961C189.705 23.4315 190.057 23.1165 190.361 22.7512C190.678 22.3732 190.933 21.9575 191.128 21.5039L194.777 25.3024C194.314 25.9827 193.779 26.5937 193.171 27.1354C192.575 27.6772 191.924 28.137 191.219 28.515C190.526 28.8929 189.79 29.1764 189.011 29.3654C188.245 29.5669 187.454 29.6677 186.639 29.6677C185.265 29.6677 183.97 29.4031 182.753 28.874C181.549 28.3449 180.491 27.6079 179.579 26.663C178.679 25.7181 177.967 24.5969 177.444 23.2992C176.921 21.989 176.66 20.5528 176.66 18.9906C176.66 17.3906 176.921 15.9291 177.444 14.6063C177.967 13.2835 178.679 12.1559 179.579 11.2236C180.491 10.2913 181.549 9.56693 182.753 9.05039C183.97 8.53386 185.265 8.27559 186.639 8.27559C187.454 8.27559 188.251 8.37638 189.029 8.57795C189.808 8.77953 190.544 9.06929 191.237 9.44724C191.943 9.8252 192.599 10.2913 193.207 10.8457C193.816 11.3874 194.351 11.9984 194.813 12.6787L185.472 24.3386ZM188.026 13.6992C187.795 13.611 187.564 13.5543 187.333 13.5291C187.114 13.5039 186.883 13.4913 186.639 13.4913C185.958 13.4913 185.314 13.6236 184.705 13.8882C184.109 14.1402 183.586 14.5055 183.136 14.9843C182.699 15.463 182.352 16.0425 182.096 16.7228C181.841 17.3906 181.713 18.1465 181.713 18.9906C181.713 19.1795 181.719 19.3937 181.732 19.6331C181.756 19.8724 181.786 20.1181 181.823 20.3701C181.871 20.6094 181.926 20.8425 181.987 21.0693C182.048 21.2961 182.127 21.4976 182.224 21.674L188.026 13.6992Z" stroke="#FEBA4F"/>
<path d="M229.149 26.5496C227.933 27.6205 226.577 28.4457 225.081 29.0252C223.585 29.5921 222.028 29.8756 220.41 29.8756C219.17 29.8756 217.972 29.7055 216.816 29.3654C215.673 29.0378 214.602 28.5717 213.605 27.9669C212.608 27.3496 211.695 26.6189 210.868 25.7748C210.041 24.9181 209.336 23.9732 208.752 22.9402C208.168 21.8945 207.712 20.7732 207.384 19.5764C207.067 18.3795 206.909 17.1386 206.909 15.8535C206.909 14.5685 207.067 13.3339 207.384 12.1496C207.712 10.9654 208.168 9.85669 208.752 8.82362C209.336 7.77795 210.041 6.83307 210.868 5.98898C211.695 5.13228 212.608 4.40157 213.605 3.79685C214.602 3.19213 215.673 2.72598 216.816 2.39843C217.972 2.05827 219.17 1.88819 220.41 1.88819C222.028 1.88819 223.585 2.17795 225.081 2.75748C226.577 3.32441 227.933 4.14331 229.149 5.21417L226.413 9.93858C225.622 9.10709 224.71 8.45827 223.676 7.99213C222.642 7.51339 221.554 7.27402 220.41 7.27402C219.267 7.27402 218.191 7.50079 217.181 7.95433C216.184 8.40787 215.308 9.0252 214.554 9.8063C213.8 10.5748 213.204 11.4819 212.766 12.5276C212.328 13.5606 212.109 14.6693 212.109 15.8535C212.109 17.0504 212.328 18.1717 212.766 19.2173C213.204 20.263 213.8 21.1764 214.554 21.9575C215.308 22.7386 216.184 23.3559 217.181 23.8094C218.191 24.263 219.267 24.4898 220.41 24.4898C221.067 24.4898 221.706 24.4079 222.326 24.2441C222.946 24.0803 223.536 23.8535 224.096 23.5638V15.8535H229.149V26.5496Z" stroke="#FEBA4F"/>
<path d="M251.572 29.2898H250.368L248.434 26.5118C247.96 26.9528 247.455 27.3685 246.92 27.7591C246.397 28.137 245.843 28.4709 245.26 28.7606C244.676 29.0378 244.074 29.2583 243.453 29.422C242.845 29.5858 242.225 29.6677 241.592 29.6677C240.218 29.6677 238.923 29.4283 237.706 28.9496C236.502 28.4709 235.444 27.778 234.532 26.8709C233.632 25.9512 232.92 24.8299 232.397 23.5071C231.874 22.1843 231.612 20.6787 231.612 18.9906C231.612 17.4157 231.874 15.9732 232.397 14.663C232.92 13.3402 233.632 12.2063 234.532 11.2614C235.444 10.3165 236.502 9.58583 237.706 9.06929C238.923 8.54016 240.218 8.27559 241.592 8.27559C242.225 8.27559 242.851 8.35748 243.472 8.52126C244.092 8.68504 244.694 8.91181 245.278 9.20157C245.862 9.49134 246.415 9.8315 246.938 10.222C247.473 10.6126 247.972 11.0346 248.434 11.4882L250.368 9.08819H251.572V29.2898ZM246.555 18.9906C246.555 18.285 246.421 17.6047 246.153 16.9496C245.898 16.2819 245.545 15.6961 245.095 15.1921C244.645 14.6756 244.116 14.2661 243.508 13.9638C242.912 13.6488 242.273 13.4913 241.592 13.4913C240.911 13.4913 240.267 13.611 239.658 13.8504C239.062 14.0898 238.539 14.4425 238.089 14.9087C237.651 15.3748 237.305 15.9543 237.049 16.6472C236.794 17.3276 236.666 18.1087 236.666 18.9906C236.666 19.8724 236.794 20.6598 237.049 21.3528C237.305 22.0331 237.651 22.6063 238.089 23.0724C238.539 23.5386 239.062 23.8913 239.658 24.1307C240.267 24.3701 240.911 24.4898 241.592 24.4898C242.273 24.4898 242.912 24.3386 243.508 24.0362C244.116 23.7213 244.645 23.3118 245.095 22.8079C245.545 22.2913 245.898 21.7055 246.153 21.0504C246.421 20.3827 246.555 19.6961 246.555 18.9906Z" stroke="#FEBA4F"/>
<path d="M260.403 29.2898H255.385V1H260.403V29.2898Z" stroke="#FEBA4F"/>
<path d="M283.135 29.2898H281.931L279.997 26.5118C279.523 26.9528 279.018 27.3685 278.483 27.7591C277.96 28.137 277.407 28.4709 276.823 28.7606C276.239 29.0378 275.637 29.2583 275.017 29.422C274.408 29.5858 273.788 29.6677 273.156 29.6677C271.781 29.6677 270.486 29.4283 269.269 28.9496C268.065 28.4709 267.007 27.778 266.095 26.8709C265.195 25.9512 264.483 24.8299 263.96 23.5071C263.437 22.1843 263.176 20.6787 263.176 18.9906C263.176 17.4157 263.437 15.9732 263.96 14.663C264.483 13.3402 265.195 12.2063 266.095 11.2614C267.007 10.3165 268.065 9.58583 269.269 9.06929C270.486 8.54016 271.781 8.27559 273.156 8.27559C273.788 8.27559 274.414 8.35748 275.035 8.52126C275.655 8.68504 276.257 8.91181 276.841 9.20157C277.425 9.49134 277.978 9.8315 278.501 10.222C279.036 10.6126 279.535 11.0346 279.997 11.4882L281.931 9.08819H283.135V29.2898ZM278.118 18.9906C278.118 18.285 277.984 17.6047 277.717 16.9496C277.461 16.2819 277.109 15.6961 276.659 15.1921C276.209 14.6756 275.679 14.2661 275.071 13.9638C274.475 13.6488 273.837 13.4913 273.156 13.4913C272.474 13.4913 271.83 13.611 271.222 13.8504C270.626 14.0898 270.103 14.4425 269.653 14.9087C269.215 15.3748 268.868 15.9543 268.613 16.6472C268.357 17.3276 268.23 18.1087 268.23 18.9906C268.23 19.8724 268.357 20.6598 268.613 21.3528C268.868 22.0331 269.215 22.6063 269.653 23.0724C270.103 23.5386 270.626 23.8913 271.222 24.1307C271.83 24.3701 272.474 24.4898 273.156 24.4898C273.837 24.4898 274.475 24.3386 275.071 24.0362C275.679 23.7213 276.209 23.3118 276.659 22.8079C277.109 22.2913 277.461 21.7055 277.717 21.0504C277.984 20.3827 278.118 19.6961 278.118 18.9906Z" stroke="#FEBA4F"/>
<path d="M304.938 29.2898H298.844L294.958 23.0913L291.035 29.2898H284.942L292.075 18.915L284.942 8.93701H291.035L294.958 14.7386L298.844 8.93701H304.938L297.786 18.915L304.938 29.2898Z" stroke="#FEBA4F"/>
<path d="M313.659 24.3386C313.853 24.4016 314.048 24.4457 314.243 24.4709C314.437 24.4835 314.632 24.4898 314.826 24.4898C315.313 24.4898 315.781 24.4205 316.231 24.2819C316.681 24.1433 317.101 23.948 317.49 23.6961C317.891 23.4315 318.244 23.1165 318.548 22.7512C318.865 22.3732 319.12 21.9575 319.315 21.5039L322.964 25.3024C322.501 25.9827 321.966 26.5937 321.358 27.1354C320.762 27.6772 320.111 28.137 319.406 28.515C318.713 28.8929 317.977 29.1764 317.198 29.3654C316.432 29.5669 315.641 29.6677 314.826 29.6677C313.452 29.6677 312.157 29.4031 310.94 28.874C309.736 28.3449 308.678 27.6079 307.766 26.663C306.866 25.7181 306.154 24.5969 305.631 23.2992C305.108 21.989 304.847 20.5528 304.847 18.9906C304.847 17.3906 305.108 15.9291 305.631 14.6063C306.154 13.2835 306.866 12.1559 307.766 11.2236C308.678 10.2913 309.736 9.56693 310.94 9.05039C312.157 8.53386 313.452 8.27559 314.826 8.27559C315.641 8.27559 316.438 8.37638 317.216 8.57795C317.995 8.77953 318.731 9.06929 319.424 9.44724C320.13 9.8252 320.786 10.2913 321.394 10.8457C322.003 11.3874 322.538 11.9984 323 12.6787L313.659 24.3386ZM316.213 13.6992C315.982 13.611 315.751 13.5543 315.52 13.5291C315.301 13.5039 315.07 13.4913 314.826 13.4913C314.145 13.4913 313.501 13.6236 312.892 13.8882C312.296 14.1402 311.773 14.5055 311.323 14.9843C310.886 15.463 310.539 16.0425 310.283 16.7228C310.028 17.3906 309.9 18.1465 309.9 18.9906C309.9 19.1795 309.906 19.3937 309.919 19.6331C309.943 19.8724 309.973 20.1181 310.01 20.3701C310.058 20.6094 310.113 20.8425 310.174 21.0693C310.235 21.2961 310.314 21.4976 310.411 21.674L316.213 13.6992Z" stroke="#FEBA4F"/>
</svg>
