<svg width="154" height="26" viewBox="0 0 154 26" fill="none" xmlns="http://www.w3.org/2000/svg">
<mask id="path-1-outside-1_2_434" maskUnits="userSpaceOnUse" x="0" y="0" width="154" height="26" fill="black">
<rect fill="white" width="154" height="26"/>
<path d="M19.1855 24.6836H14.318L5.55033 9.74885V24.6836H1V1.9967H5.86742L14.6351 16.9473V1.9967H19.1855V24.6836Z"/>
<path d="M29.4594 20.5386C29.6285 20.5913 29.7976 20.6282 29.9667 20.6493C30.1358 20.6599 30.305 20.6651 30.4741 20.6651C30.8969 20.6651 31.3038 20.6071 31.6949 20.4911C32.086 20.3751 32.4506 20.2116 32.7889 20.0007C33.1377 19.7792 33.4442 19.5155 33.7085 19.2096C33.9833 18.8932 34.2052 18.5452 34.3744 18.1655L37.5453 21.3454C37.1437 21.915 36.6786 22.4265 36.1501 22.88C35.6322 23.3336 35.0667 23.7185 34.4536 24.0349C33.8512 24.3514 33.2117 24.5887 32.5352 24.7469C31.8693 24.9156 31.1823 25 30.4741 25C29.2797 25 28.154 24.7785 27.097 24.3355C26.0506 23.8926 25.131 23.2755 24.3383 22.4845C23.5561 21.6935 22.9378 20.7548 22.4833 19.6684C22.0288 18.5715 21.8015 17.3691 21.8015 16.0613C21.8015 14.7218 22.0288 13.4984 22.4833 12.3909C22.9378 11.2835 23.5561 10.3395 24.3383 9.559C25.131 8.77851 26.0506 8.17205 27.097 7.73962C28.154 7.30719 29.2797 7.09097 30.4741 7.09097C31.1823 7.09097 31.8746 7.17535 32.5511 7.3441C33.2275 7.51285 33.867 7.75544 34.4695 8.07185C35.0825 8.38827 35.6533 8.77851 36.1818 9.24258C36.7103 9.69611 37.1754 10.2076 37.577 10.7772L29.4594 20.5386ZM31.679 11.6315C31.4782 11.5577 31.2774 11.5102 31.0766 11.4891C30.8863 11.468 30.6855 11.4575 30.4741 11.4575C29.8822 11.4575 29.322 11.5682 28.7935 11.7897C28.2755 12.0007 27.821 12.3065 27.43 12.7073C27.0494 13.1081 26.7482 13.5933 26.5262 14.1628C26.3043 14.7218 26.1933 15.3546 26.1933 16.0613C26.1933 16.2195 26.1986 16.3988 26.2091 16.5992C26.2303 16.7996 26.2567 17.0053 26.2884 17.2162C26.3307 17.4166 26.3783 17.6117 26.4311 17.8016C26.484 17.9914 26.5527 18.1602 26.6372 18.3078L31.679 11.6315Z"/>
<path d="M61.2007 18.561C61.2007 19.4469 61.0316 20.2854 60.6933 21.0765C60.3551 21.857 59.89 22.5372 59.2981 23.1173C58.7168 23.6974 58.0297 24.1562 57.237 24.4937C56.4548 24.8312 55.6145 25 54.7161 25C53.9128 25 53.1412 24.8629 52.4013 24.5887C51.6614 24.3039 50.9902 23.8926 50.3877 23.3546C49.7958 23.8926 49.1299 24.3039 48.39 24.5887C47.6607 24.8629 46.8891 25 46.0752 25C45.1768 25 44.3365 24.8312 43.5543 24.4937C42.7721 24.1562 42.0851 23.6974 41.4932 23.1173C40.9118 22.5372 40.452 21.857 40.1138 21.0765C39.7756 20.2854 39.6064 19.4469 39.6064 18.561V7.77126H43.9348V18.561C43.9348 18.8563 43.9877 19.1358 44.0934 19.3995C44.2096 19.6526 44.3629 19.8794 44.5531 20.0798C44.754 20.2696 44.9812 20.4225 45.2349 20.5386C45.4991 20.644 45.7793 20.6968 46.0752 20.6968C46.3712 20.6968 46.6513 20.644 46.9155 20.5386C47.1798 20.4225 47.4123 20.2696 47.6131 20.0798C47.814 19.8794 47.9672 19.6526 48.0729 19.3995C48.1892 19.1358 48.2473 18.8563 48.2473 18.561V7.77126H52.5598V18.561C52.5598 18.8563 52.618 19.1358 52.7342 19.3995C52.8505 19.6526 53.0038 19.8794 53.194 20.0798C53.3948 20.2696 53.6221 20.4225 53.8758 20.5386C54.14 20.644 54.4201 20.6968 54.7161 20.6968C55.012 20.6968 55.2921 20.644 55.5564 20.5386C55.8206 20.4225 56.0479 20.2696 56.2381 20.0798C56.439 19.8794 56.5975 19.6526 56.7138 19.3995C56.83 19.1358 56.8882 18.8563 56.8882 18.561V7.77126H61.2007V18.561Z"/>
<path d="M78.4507 24.6836H73.9004V1.9967H78.4507V24.6836Z"/>
<path d="M90.7382 24.6836C89.6918 24.6836 88.7088 24.4885 87.7892 24.0982C86.8696 23.6974 86.061 23.1543 85.3634 22.4687C84.6764 21.7726 84.132 20.9657 83.7304 20.0481C83.3393 19.1305 83.1437 18.1496 83.1437 17.1055V12.0745H81.035V7.77126H83.1437V1H87.4562V7.77126H94.0201V12.0745H87.4562V17.1055C87.4562 17.559 87.5408 17.9862 87.7099 18.3869C87.879 18.7772 88.1116 19.12 88.4075 19.4153C88.7035 19.7106 89.0523 19.9479 89.4539 20.1272C89.8556 20.296 90.2837 20.3804 90.7382 20.3804H94.0201V24.6836H90.7382Z"/>
<path d="M103.216 20.5386C103.385 20.5913 103.554 20.6282 103.723 20.6493C103.892 20.6599 104.062 20.6651 104.231 20.6651C104.653 20.6651 105.06 20.6071 105.451 20.4911C105.843 20.3751 106.207 20.2116 106.545 20.0007C106.894 19.7792 107.201 19.5155 107.465 19.2096C107.74 18.8932 107.962 18.5452 108.131 18.1655L111.302 21.3454C110.9 21.915 110.435 22.4265 109.907 22.88C109.389 23.3336 108.823 23.7185 108.21 24.0349C107.608 24.3514 106.968 24.5887 106.292 24.7469C105.626 24.9156 104.939 25 104.231 25C103.036 25 101.911 24.7785 100.854 24.3355C99.8071 23.8926 98.8876 23.2755 98.0948 22.4845C97.3126 21.6935 96.6943 20.7548 96.2398 19.6684C95.7853 18.5715 95.558 17.3691 95.558 16.0613C95.558 14.7218 95.7853 13.4984 96.2398 12.3909C96.6943 11.2835 97.3126 10.3395 98.0948 9.559C98.8876 8.77851 99.8071 8.17205 100.854 7.73962C101.911 7.30719 103.036 7.09097 104.231 7.09097C104.939 7.09097 105.631 7.17535 106.308 7.3441C106.984 7.51285 107.624 7.75544 108.226 8.07185C108.839 8.38827 109.41 8.77851 109.938 9.24258C110.467 9.69611 110.932 10.2076 111.334 10.7772L103.216 20.5386ZM105.436 11.6315C105.235 11.5577 105.034 11.5102 104.833 11.4891C104.643 11.468 104.442 11.4575 104.231 11.4575C103.639 11.4575 103.079 11.5682 102.55 11.7897C102.032 12.0007 101.578 12.3065 101.187 12.7073C100.806 13.1081 100.505 13.5933 100.283 14.1628C100.061 14.7218 99.9498 15.3546 99.9498 16.0613C99.9498 16.2195 99.9551 16.3988 99.9657 16.5992C99.9868 16.7996 100.013 17.0053 100.045 17.2162C100.087 17.4166 100.135 17.6117 100.188 17.8016C100.241 17.9914 100.309 18.1602 100.394 18.3078L105.436 11.6315Z"/>
<path d="M135.116 24.6836H130.803V13.9255C130.803 13.6302 130.745 13.3507 130.629 13.087C130.523 12.8233 130.37 12.5913 130.169 12.3909C129.968 12.1905 129.736 12.0376 129.471 11.9321C129.207 11.8161 128.927 11.7581 128.631 11.7581C128.335 11.7581 128.055 11.8161 127.791 11.9321C127.537 12.0376 127.31 12.1905 127.109 12.3909C126.919 12.5913 126.766 12.8233 126.649 13.087C126.544 13.3507 126.491 13.6302 126.491 13.9255V24.6836H122.162V13.9255C122.162 13.6302 122.104 13.3507 121.988 13.087C121.882 12.8233 121.729 12.5913 121.528 12.3909C121.327 12.1905 121.095 12.0376 120.831 11.9321C120.566 11.8161 120.286 11.7581 119.99 11.7581C119.694 11.7581 119.414 11.8161 119.15 11.9321C118.896 12.0376 118.669 12.1905 118.468 12.3909C118.278 12.5913 118.125 12.8233 118.008 13.087C117.903 13.3507 117.85 13.6302 117.85 13.9255V24.6836H113.522V7.73962H114.568L115.741 9.03691C116.344 8.53065 117.004 8.14041 117.723 7.86618C118.452 7.58141 119.208 7.43902 119.99 7.43902C120.783 7.43902 121.555 7.58668 122.305 7.882C123.066 8.17732 123.732 8.68886 124.303 9.41661C124.567 9.05801 124.868 8.75214 125.207 8.49901C125.545 8.24588 125.899 8.04021 126.269 7.882C126.649 7.7238 127.04 7.61305 127.442 7.54977C127.844 7.47594 128.24 7.43902 128.631 7.43902C129.53 7.43902 130.37 7.60778 131.152 7.94529C131.945 8.28279 132.632 8.74687 133.213 9.33751C133.805 9.9176 134.27 10.6032 134.608 11.3942C134.947 12.1852 135.116 13.029 135.116 13.9255V24.6836Z"/>
<path d="M147.609 24.6836H137.716V20.3804H147.609C147.905 20.3804 148.159 20.2749 148.37 20.0639C148.582 19.853 148.687 19.5999 148.687 19.3045C148.687 18.9987 148.582 18.7983 148.37 18.7034C148.159 18.6084 147.905 18.561 147.609 18.561H143.107C142.356 18.561 141.653 18.4186 140.998 18.1338C140.343 17.849 139.772 17.4641 139.286 16.9789C138.799 16.4832 138.414 15.9084 138.128 15.2544C137.853 14.6005 137.716 13.8991 137.716 13.1503C137.716 12.4015 137.853 11.7001 138.128 11.0461C138.414 10.3922 138.799 9.82268 139.286 9.33751C139.772 8.85234 140.343 8.47264 140.998 8.19842C141.653 7.91365 142.356 7.77126 143.107 7.77126H151.874V12.0745H143.107C142.811 12.0745 142.557 12.18 142.346 12.3909C142.134 12.6018 142.028 12.855 142.028 13.1503C142.028 13.4562 142.134 13.7198 142.346 13.9413C142.557 14.1523 142.811 14.2577 143.107 14.2577H147.609C148.349 14.2577 149.047 14.3843 149.702 14.6374C150.358 14.88 150.928 15.2228 151.415 15.6658C151.901 16.1088 152.287 16.6414 152.572 17.2637C152.857 17.886 153 18.5662 153 19.3045C153 20.0534 152.857 20.7548 152.572 21.4087C152.287 22.0521 151.901 22.6216 151.415 23.1173C150.928 23.6025 150.358 23.9875 149.702 24.2722C149.047 24.5465 148.349 24.6836 147.609 24.6836Z"/>
</mask>
<path d="M19.1855 24.6836H14.318L5.55033 9.74885V24.6836H1V1.9967H5.86742L14.6351 16.9473V1.9967H19.1855V24.6836Z" stroke="#FEBA4F" stroke-width="2" mask="url(#path-1-outside-1_2_434)"/>
<path d="M29.4594 20.5386C29.6285 20.5913 29.7976 20.6282 29.9667 20.6493C30.1358 20.6599 30.305 20.6651 30.4741 20.6651C30.8969 20.6651 31.3038 20.6071 31.6949 20.4911C32.086 20.3751 32.4506 20.2116 32.7889 20.0007C33.1377 19.7792 33.4442 19.5155 33.7085 19.2096C33.9833 18.8932 34.2052 18.5452 34.3744 18.1655L37.5453 21.3454C37.1437 21.915 36.6786 22.4265 36.1501 22.88C35.6322 23.3336 35.0667 23.7185 34.4536 24.0349C33.8512 24.3514 33.2117 24.5887 32.5352 24.7469C31.8693 24.9156 31.1823 25 30.4741 25C29.2797 25 28.154 24.7785 27.097 24.3355C26.0506 23.8926 25.131 23.2755 24.3383 22.4845C23.5561 21.6935 22.9378 20.7548 22.4833 19.6684C22.0288 18.5715 21.8015 17.3691 21.8015 16.0613C21.8015 14.7218 22.0288 13.4984 22.4833 12.3909C22.9378 11.2835 23.5561 10.3395 24.3383 9.559C25.131 8.77851 26.0506 8.17205 27.097 7.73962C28.154 7.30719 29.2797 7.09097 30.4741 7.09097C31.1823 7.09097 31.8746 7.17535 32.5511 7.3441C33.2275 7.51285 33.867 7.75544 34.4695 8.07185C35.0825 8.38827 35.6533 8.77851 36.1818 9.24258C36.7103 9.69611 37.1754 10.2076 37.577 10.7772L29.4594 20.5386ZM31.679 11.6315C31.4782 11.5577 31.2774 11.5102 31.0766 11.4891C30.8863 11.468 30.6855 11.4575 30.4741 11.4575C29.8822 11.4575 29.322 11.5682 28.7935 11.7897C28.2755 12.0007 27.821 12.3065 27.43 12.7073C27.0494 13.1081 26.7482 13.5933 26.5262 14.1628C26.3043 14.7218 26.1933 15.3546 26.1933 16.0613C26.1933 16.2195 26.1986 16.3988 26.2091 16.5992C26.2303 16.7996 26.2567 17.0053 26.2884 17.2162C26.3307 17.4166 26.3783 17.6117 26.4311 17.8016C26.484 17.9914 26.5527 18.1602 26.6372 18.3078L31.679 11.6315Z" stroke="#FEBA4F" stroke-width="2" mask="url(#path-1-outside-1_2_434)"/>
<path d="M61.2007 18.561C61.2007 19.4469 61.0316 20.2854 60.6933 21.0765C60.3551 21.857 59.89 22.5372 59.2981 23.1173C58.7168 23.6974 58.0297 24.1562 57.237 24.4937C56.4548 24.8312 55.6145 25 54.7161 25C53.9128 25 53.1412 24.8629 52.4013 24.5887C51.6614 24.3039 50.9902 23.8926 50.3877 23.3546C49.7958 23.8926 49.1299 24.3039 48.39 24.5887C47.6607 24.8629 46.8891 25 46.0752 25C45.1768 25 44.3365 24.8312 43.5543 24.4937C42.7721 24.1562 42.0851 23.6974 41.4932 23.1173C40.9118 22.5372 40.452 21.857 40.1138 21.0765C39.7756 20.2854 39.6064 19.4469 39.6064 18.561V7.77126H43.9348V18.561C43.9348 18.8563 43.9877 19.1358 44.0934 19.3995C44.2096 19.6526 44.3629 19.8794 44.5531 20.0798C44.754 20.2696 44.9812 20.4225 45.2349 20.5386C45.4991 20.644 45.7793 20.6968 46.0752 20.6968C46.3712 20.6968 46.6513 20.644 46.9155 20.5386C47.1798 20.4225 47.4123 20.2696 47.6131 20.0798C47.814 19.8794 47.9672 19.6526 48.0729 19.3995C48.1892 19.1358 48.2473 18.8563 48.2473 18.561V7.77126H52.5598V18.561C52.5598 18.8563 52.618 19.1358 52.7342 19.3995C52.8505 19.6526 53.0038 19.8794 53.194 20.0798C53.3948 20.2696 53.6221 20.4225 53.8758 20.5386C54.14 20.644 54.4201 20.6968 54.7161 20.6968C55.012 20.6968 55.2921 20.644 55.5564 20.5386C55.8206 20.4225 56.0479 20.2696 56.2381 20.0798C56.439 19.8794 56.5975 19.6526 56.7138 19.3995C56.83 19.1358 56.8882 18.8563 56.8882 18.561V7.77126H61.2007V18.561Z" stroke="#FEBA4F" stroke-width="2" mask="url(#path-1-outside-1_2_434)"/>
<path d="M78.4507 24.6836H73.9004V1.9967H78.4507V24.6836Z" stroke="#FEBA4F" stroke-width="2" mask="url(#path-1-outside-1_2_434)"/>
<path d="M90.7382 24.6836C89.6918 24.6836 88.7088 24.4885 87.7892 24.0982C86.8696 23.6974 86.061 23.1543 85.3634 22.4687C84.6764 21.7726 84.132 20.9657 83.7304 20.0481C83.3393 19.1305 83.1437 18.1496 83.1437 17.1055V12.0745H81.035V7.77126H83.1437V1H87.4562V7.77126H94.0201V12.0745H87.4562V17.1055C87.4562 17.559 87.5408 17.9862 87.7099 18.3869C87.879 18.7772 88.1116 19.12 88.4075 19.4153C88.7035 19.7106 89.0523 19.9479 89.4539 20.1272C89.8556 20.296 90.2837 20.3804 90.7382 20.3804H94.0201V24.6836H90.7382Z" stroke="#FEBA4F" stroke-width="2" mask="url(#path-1-outside-1_2_434)"/>
<path d="M103.216 20.5386C103.385 20.5913 103.554 20.6282 103.723 20.6493C103.892 20.6599 104.062 20.6651 104.231 20.6651C104.653 20.6651 105.06 20.6071 105.451 20.4911C105.843 20.3751 106.207 20.2116 106.545 20.0007C106.894 19.7792 107.201 19.5155 107.465 19.2096C107.74 18.8932 107.962 18.5452 108.131 18.1655L111.302 21.3454C110.9 21.915 110.435 22.4265 109.907 22.88C109.389 23.3336 108.823 23.7185 108.21 24.0349C107.608 24.3514 106.968 24.5887 106.292 24.7469C105.626 24.9156 104.939 25 104.231 25C103.036 25 101.911 24.7785 100.854 24.3355C99.8071 23.8926 98.8876 23.2755 98.0948 22.4845C97.3126 21.6935 96.6943 20.7548 96.2398 19.6684C95.7853 18.5715 95.558 17.3691 95.558 16.0613C95.558 14.7218 95.7853 13.4984 96.2398 12.3909C96.6943 11.2835 97.3126 10.3395 98.0948 9.559C98.8876 8.77851 99.8071 8.17205 100.854 7.73962C101.911 7.30719 103.036 7.09097 104.231 7.09097C104.939 7.09097 105.631 7.17535 106.308 7.3441C106.984 7.51285 107.624 7.75544 108.226 8.07185C108.839 8.38827 109.41 8.77851 109.938 9.24258C110.467 9.69611 110.932 10.2076 111.334 10.7772L103.216 20.5386ZM105.436 11.6315C105.235 11.5577 105.034 11.5102 104.833 11.4891C104.643 11.468 104.442 11.4575 104.231 11.4575C103.639 11.4575 103.079 11.5682 102.55 11.7897C102.032 12.0007 101.578 12.3065 101.187 12.7073C100.806 13.1081 100.505 13.5933 100.283 14.1628C100.061 14.7218 99.9498 15.3546 99.9498 16.0613C99.9498 16.2195 99.9551 16.3988 99.9657 16.5992C99.9868 16.7996 100.013 17.0053 100.045 17.2162C100.087 17.4166 100.135 17.6117 100.188 17.8016C100.241 17.9914 100.309 18.1602 100.394 18.3078L105.436 11.6315Z" stroke="#FEBA4F" stroke-width="2" mask="url(#path-1-outside-1_2_434)"/>
<path d="M135.116 24.6836H130.803V13.9255C130.803 13.6302 130.745 13.3507 130.629 13.087C130.523 12.8233 130.37 12.5913 130.169 12.3909C129.968 12.1905 129.736 12.0376 129.471 11.9321C129.207 11.8161 128.927 11.7581 128.631 11.7581C128.335 11.7581 128.055 11.8161 127.791 11.9321C127.537 12.0376 127.31 12.1905 127.109 12.3909C126.919 12.5913 126.766 12.8233 126.649 13.087C126.544 13.3507 126.491 13.6302 126.491 13.9255V24.6836H122.162V13.9255C122.162 13.6302 122.104 13.3507 121.988 13.087C121.882 12.8233 121.729 12.5913 121.528 12.3909C121.327 12.1905 121.095 12.0376 120.831 11.9321C120.566 11.8161 120.286 11.7581 119.99 11.7581C119.694 11.7581 119.414 11.8161 119.15 11.9321C118.896 12.0376 118.669 12.1905 118.468 12.3909C118.278 12.5913 118.125 12.8233 118.008 13.087C117.903 13.3507 117.85 13.6302 117.85 13.9255V24.6836H113.522V7.73962H114.568L115.741 9.03691C116.344 8.53065 117.004 8.14041 117.723 7.86618C118.452 7.58141 119.208 7.43902 119.99 7.43902C120.783 7.43902 121.555 7.58668 122.305 7.882C123.066 8.17732 123.732 8.68886 124.303 9.41661C124.567 9.05801 124.868 8.75214 125.207 8.49901C125.545 8.24588 125.899 8.04021 126.269 7.882C126.649 7.7238 127.04 7.61305 127.442 7.54977C127.844 7.47594 128.24 7.43902 128.631 7.43902C129.53 7.43902 130.37 7.60778 131.152 7.94529C131.945 8.28279 132.632 8.74687 133.213 9.33751C133.805 9.9176 134.27 10.6032 134.608 11.3942C134.947 12.1852 135.116 13.029 135.116 13.9255V24.6836Z" stroke="#FEBA4F" stroke-width="2" mask="url(#path-1-outside-1_2_434)"/>
<path d="M147.609 24.6836H137.716V20.3804H147.609C147.905 20.3804 148.159 20.2749 148.37 20.0639C148.582 19.853 148.687 19.5999 148.687 19.3045C148.687 18.9987 148.582 18.7983 148.37 18.7034C148.159 18.6084 147.905 18.561 147.609 18.561H143.107C142.356 18.561 141.653 18.4186 140.998 18.1338C140.343 17.849 139.772 17.4641 139.286 16.9789C138.799 16.4832 138.414 15.9084 138.128 15.2544C137.853 14.6005 137.716 13.8991 137.716 13.1503C137.716 12.4015 137.853 11.7001 138.128 11.0461C138.414 10.3922 138.799 9.82268 139.286 9.33751C139.772 8.85234 140.343 8.47264 140.998 8.19842C141.653 7.91365 142.356 7.77126 143.107 7.77126H151.874V12.0745H143.107C142.811 12.0745 142.557 12.18 142.346 12.3909C142.134 12.6018 142.028 12.855 142.028 13.1503C142.028 13.4562 142.134 13.7198 142.346 13.9413C142.557 14.1523 142.811 14.2577 143.107 14.2577H147.609C148.349 14.2577 149.047 14.3843 149.702 14.6374C150.358 14.88 150.928 15.2228 151.415 15.6658C151.901 16.1088 152.287 16.6414 152.572 17.2637C152.857 17.886 153 18.5662 153 19.3045C153 20.0534 152.857 20.7548 152.572 21.4087C152.287 22.0521 151.901 22.6216 151.415 23.1173C150.928 23.6025 150.358 23.9875 149.702 24.2722C149.047 24.5465 148.349 24.6836 147.609 24.6836Z" stroke="#FEBA4F" stroke-width="2" mask="url(#path-1-outside-1_2_434)"/>
</svg>
