<svg width="401" height="369" viewBox="0 0 401 369" fill="none" xmlns="http://www.w3.org/2000/svg">
<path d="M375.47 368.659H25.9929C19.3102 368.653 12.9033 366.818 8.17476 363.557C3.44628 360.296 0.781519 355.873 0.763916 351.258V17.8001C0.772722 13.1807 3.43359 8.75222 8.16303 5.4858C12.8925 2.21938 19.3044 0.38163 25.9929 0.375548H375.47C378.796 0.36344 382.093 0.805038 385.171 1.675C388.249 2.54496 391.048 3.82616 393.408 5.44509C395.767 7.06401 397.641 8.98879 398.921 11.109C400.201 13.2292 400.862 15.503 400.866 17.8001V351.258C400.857 353.553 400.193 355.824 398.911 357.942C397.629 360.059 395.755 361.981 393.396 363.598C391.037 365.214 388.239 366.493 385.163 367.362C382.087 368.23 378.794 368.671 375.47 368.659V368.659ZM26.0262 9.57057C22.8687 9.57663 19.843 10.4456 17.6103 11.9877C15.3776 13.5297 14.1194 15.6194 14.1106 17.8001V351.258C14.1194 353.436 15.3787 355.523 17.6123 357.062C19.846 358.6 22.8717 359.464 26.0262 359.464H375.504C378.658 359.464 381.684 358.6 383.918 357.062C386.151 355.523 387.411 353.436 387.419 351.258V17.8001C387.411 15.6194 386.152 13.5297 383.92 11.9877C381.687 10.4456 378.661 9.57663 375.504 9.57057H26.0262Z" fill="url(#paint0_linear_10_12913)"/>
<path d="M26.026 4.97299H375.504C377.954 4.96086 380.383 5.28368 382.652 5.92287C384.921 6.56205 386.984 7.50497 388.722 8.69728C390.461 9.88959 391.841 11.3077 392.783 12.87C393.724 14.4323 394.209 16.1078 394.209 17.8V351.257C394.209 352.941 393.728 354.608 392.795 356.163C391.861 357.718 390.492 359.13 388.767 360.319C387.042 361.509 384.995 362.451 382.742 363.093C380.488 363.736 378.074 364.065 375.637 364.062H26.1591C23.7218 364.065 21.3075 363.736 19.0544 363.093C16.8013 362.451 14.7536 361.509 13.0286 360.319C11.3036 359.13 9.93504 357.718 9.00129 356.163C8.06754 354.608 7.58691 352.941 7.58691 351.257V17.8C7.58691 14.3981 9.54362 11.1355 13.0266 8.72995C16.5096 6.32441 21.2335 4.97299 26.1591 4.97299" stroke="white" stroke-width="2" stroke-miterlimit="10"/>
<defs>
<linearGradient id="paint0_linear_10_12913" x1="200.732" y1="44.4657" x2="200.732" y2="286.456" gradientUnits="userSpaceOnUse">
<stop stop-color="#E58CE6"/>
<stop offset="1" stop-color="#95D6EB"/>
</linearGradient>
</defs>
</svg>
